<svg xmlns="http://www.w3.org/2000/svg" width="307" height="315" viewBox="0 0 307.034 315.398"><defs><style>.a{fill:#e0e0e0;}.b{fill:#a4f7f8;}.c{fill:#00d2d9;}</style></defs><g transform="translate(-274.462 -84.351)"><g transform="translate(274.462 144.953)"><path class="a" d="M334.69,164.05l104.474,4.356C426.13,187.476,414.07,205.3,401.7,222.9c-.991,1.407-4.244,2.137-6.208,1.792q-56.958-9.944-113.845-20.3a12.034,12.034,0,0,1-2.605-1.418l33.978-37.5-38.56-26.019c8.98-1.424,15.817-2.534,22.666-3.591,27.07-4.172,54.121-8.434,81.232-12.333a16.009,16.009,0,0,1,9.567,1.988c9.639,5.561,18.951,11.692,29.046,18.019,9.229-13.953,17.947-27.615,27.283-40.851,1.941-2.754,6.1-5.436,9.324-5.537,36.447-1.163,72.905-1.816,109.364-2.588,1.027-.024,2.065.178,4.2.38-7.193,14.2-13.888,28.031-21.206,41.521-2.736,5.045-2.611,8.25,1.8,12.167,10.938,9.716,21.467,19.894,33.758,31.378-6.541,2.439-9.9,3.715-13.277,4.95-26.47,9.668-53,19.158-79.351,29.129-4.884,1.852-7.561,1.11-10.8-2.772-12.1-14.517-24.535-28.749-37.569-43.943l90.586-21.259-.053-1.508H523.82c-18.369,0-36.815,1.122-55.082-.226-41.314-3.039-80.811,6.493-120.486,15.413-3.893.872-7.793,1.709-11.68,2.588C336.358,162.43,336.192,162.7,334.69,164.05Z" transform="translate(-274.462 -94.562)"/><path class="a" d="M282.092,146.21c26.191,5.015,51.266,9.609,76.229,14.754,4.807.991,7.134-.077,9.674-3.982,8.867-13.656,18.084-27.087,27.194-40.578,1.395-2.065,2.938-4.036,5.5-7.526V276.507c-16.535-5.52-32.346-10.814-48.162-16.066-21.449-7.122-42.945-14.107-64.311-21.479-2.41-.837-5.834-3.763-5.858-5.763C281.967,204.616,282.092,176.027,282.092,146.21Z" transform="translate(-236.903 -23.906)"/><path class="a" d="M303.312,108.847c10.5,13.716,20,25.787,29.093,38.156,3.021,4.107,5.591,5.015,10.552,3.1,18.79-7.253,37.806-13.929,57.433-21.069a40.994,40.994,0,0,1,.813,5.763c-.332,26.173-.884,52.346-.991,78.52-.018,5.52-1.97,8.618-6.618,11.383-27.871,16.606-55.569,33.509-83.333,50.293-1.994,1.2-4.071,2.273-6.95,3.87Z" transform="translate(-132.088 -24.064)"/></g><g transform="translate(437.4 154.358)"><rect class="b" width="66.653" height="33.824" transform="translate(0 13.927)"/><path class="c" d="M382.5,96.146H315.843l-13.928,13.927h66.653Z" transform="translate(-301.916 -96.146)"/><g transform="translate(3.979 17.409)"><rect class="c" width="2.984" height="28.104" rx="0.251"/><rect class="c" width="2.984" height="28.104" rx="0.251" transform="translate(9.202)"/><rect class="c" width="2.984" height="28.104" rx="0.251" transform="translate(18.404)"/><rect class="c" width="2.984" height="28.104" rx="0.251" transform="translate(27.606)"/><rect class="c" width="2.984" height="28.104" rx="0.251" transform="translate(36.808)"/><rect class="c" width="2.984" height="28.104" rx="0.251" transform="translate(46.01)"/><rect class="c" width="2.984" height="28.104" rx="0.251" transform="translate(55.212)"/></g><path class="c" d="M313.146,143.9V110.074l13.927-13.927v34.2Z" transform="translate(-246.494 -96.146)"/></g><g transform="translate(473.668 93.676)"><rect class="b" width="56.207" height="33.326" transform="translate(0 8.705)"/><ellipse class="c" cx="28.104" cy="8.705" rx="28.104" ry="8.705"/><ellipse class="b" cx="28.104" cy="8.705" rx="28.104" ry="8.705" transform="translate(0 33.326)"/></g><g transform="translate(328.156 92.75)"><path class="c" d="M302.468,85.766a18.048,18.048,0,0,0-18.025,18.019v11.087a1.391,1.391,0,0,0,1.389,1.389h5.543a1.391,1.391,0,0,0,1.389-1.389V103.785a9.7,9.7,0,1,1,19.407,0v11.087a1.386,1.386,0,0,0,1.383,1.389H319.1a1.391,1.391,0,0,0,1.389-1.389V103.785A18.039,18.039,0,0,0,302.468,85.766Z" transform="translate(-278.9 -85.766)"/><path class="b" d="M290.441,90.437h33.266a6.928,6.928,0,0,1,6.932,6.926v24.951a6.933,6.933,0,0,1-6.932,6.932H290.441a6.933,6.933,0,0,1-6.932-6.932V97.363A6.928,6.928,0,0,1,290.441,90.437Z" transform="translate(-283.509 -62.715)"/><path class="c" d="M300.17,98.795a6.929,6.929,0,1,0-10,6.178l-1.074,7.49a1.384,1.384,0,0,0,1.181,1.561,1.1,1.1,0,0,0,.2.018h5.543a1.39,1.39,0,0,0,1.4-1.371,1.281,1.281,0,0,0-.018-.214l-1.068-7.484A6.947,6.947,0,0,0,300.17,98.795Z" transform="translate(-269.676 -55.826)"/></g><g transform="translate(411.338 84.351)"><circle class="b" cx="14.628" cy="14.628" r="14.628" transform="translate(9.631)"/><path class="c" d="M307.83,89.459c.012.018,13.7,12.054,27.764-.125.866-.748,6.457,6.036,6.944,6.778a18.123,18.123,0,0,1,2.267,4.825,17.42,17.42,0,0,1,.588,5.751,1.937,1.937,0,0,1-.653,1.258,5.01,5.01,0,0,1-1.43.973,5.925,5.925,0,0,1-1.175.469c-2.13.5-4.843.077-7.027.089l-7.834.047-11.923.077c-2.991.018-5.983.125-8.968.142-3.074.024-8.707.012-8.855-4.457a9.1,9.1,0,0,1,.771-3.341C298.916,100.3,305.391,87.316,307.83,89.459Z" transform="translate(-297.525 -60.316)"/></g><g transform="translate(359.172 142.432)"><path class="c" d="M335.924,126.2v-7.8l-6.4-1.264a18.082,18.082,0,0,0-1.389-3.347l3.567-5.353-5.514-5.514-5.353,3.573a17.8,17.8,0,0,0-3.348-1.395l-1.258-6.4h-7.8l-1.258,6.4a18.121,18.121,0,0,0-3.347,1.395l-5.353-3.573-5.514,5.514,3.573,5.353a17.732,17.732,0,0,0-1.395,3.347l-6.4,1.258v7.8l6.4,1.264a17.732,17.732,0,0,0,1.395,3.347l-3.573,5.353,5.508,5.514,5.359-3.573a17.539,17.539,0,0,0,3.347,1.389l1.258,6.4h7.8l1.258-6.4a17.775,17.775,0,0,0,3.348-1.389l5.353,3.573,5.514-5.514-3.567-5.353a18.081,18.081,0,0,0,1.389-3.347Zm-23.592,5.775a9.68,9.68,0,1,1,9.674-9.68A9.681,9.681,0,0,1,312.333,131.977Z" transform="translate(-288.735 -71.619)"/><path class="b" d="M323.995,111.823V106.8L319.882,106a11.227,11.227,0,0,0-.9-2.154l2.3-3.442-3.543-3.543-3.448,2.291a11.732,11.732,0,0,0-2.148-.9l-.813-4.113h-5.015L305.5,98.25a11.728,11.728,0,0,0-2.148.9l-3.442-2.3-3.549,3.549,2.3,3.442a11.207,11.207,0,0,0-.9,2.154l-4.113.807v5.021l4.113.807a11.366,11.366,0,0,0,.9,2.154l-2.3,3.442,3.543,3.549,3.442-2.3a11.528,11.528,0,0,0,2.154.89l.813,4.119h5.015l.813-4.119a11.392,11.392,0,0,0,2.154-.9l3.442,2.3,3.543-3.549-2.3-3.442a11.609,11.609,0,0,0,.9-2.154Zm-15.17,3.715a6.226,6.226,0,1,1,6.22-6.226A6.228,6.228,0,0,1,308.825,115.538Z" transform="translate(-264.484 -94.137)"/></g></g></svg>
