<svg id="Layer_1" data-name="Layer 1" xmlns="http://www.w3.org/2000/svg" viewBox="0 0 385.37 392.35"><defs><style>.cls-1{fill:none;stroke:#a4f7f8;stroke-miterlimit:10;}.cls-2{fill:#a4f7f8;}.cls-3{fill:#00d2d9;}.cls-4{font-size:7px;}.cls-4,.cls-5{fill:#4a5053;font-family:OpenSans-Bold, Open Sans;font-weight:700;}.cls-5{font-size:10px;}.cls-6{fill:#e0e0e0;}.cls-7{fill:#fff;}</style></defs><g id="Arrow_10" data-name="Arrow 10"><rect class="cls-1" x="263.01" y="32.26" width="79.53" height="326.32"/><rect class="cls-2" x="41.33" y="185.55" width="42.5" height="21.57"/><polygon class="cls-3" points="92.71 176.66 50.21 176.66 41.33 185.55 83.83 185.55 92.71 176.66"/><rect class="cls-3" x="43.87" y="187.77" width="1.9" height="17.92" rx="0.95"/><rect class="cls-3" x="49.74" y="187.77" width="1.9" height="17.92" rx="0.95"/><rect class="cls-3" x="55.6" y="187.77" width="1.9" height="17.92" rx="0.95"/><rect class="cls-3" x="61.47" y="187.77" width="1.9" height="17.92" rx="0.95"/><rect class="cls-3" x="67.34" y="187.77" width="1.9" height="17.92" rx="0.95"/><rect class="cls-3" x="73.21" y="187.77" width="1.9" height="17.92" rx="0.95"/><rect class="cls-3" x="79.07" y="187.77" width="1.9" height="17.92" rx="0.95"/><polygon class="cls-3" points="83.83 207.11 83.83 185.55 92.71 176.66 92.71 198.47 83.83 207.11"/><rect class="cls-2" x="48.85" y="51.18" width="35.84" height="21.25"/><ellipse class="cls-3" cx="66.77" cy="51.18" rx="17.92" ry="5.55"/><ellipse class="cls-2" cx="66.77" cy="72.43" rx="17.92" ry="5.55"/><path class="cls-3" d="M67.49,104.83A11.51,11.51,0,0,0,56,116.32v7.07a.87.87,0,0,0,.88.88h3.54a.87.87,0,0,0,.88-.88v-7.07a6.19,6.19,0,0,1,12.38,0v7.07a.87.87,0,0,0,.88.88H78.1a.88.88,0,0,0,.88-.88v-7.07A11.51,11.51,0,0,0,67.49,104.83Z"/><path class="cls-2" d="M56.88,122.51H78.1a4.42,4.42,0,0,1,4.42,4.42v15.91a4.42,4.42,0,0,1-4.42,4.42H56.88a4.42,4.42,0,0,1-4.42-4.42V126.93A4.42,4.42,0,0,1,56.88,122.51Z"/><path class="cls-3" d="M71.91,132.23a4.42,4.42,0,1,0-6.38,3.94l-.68,4.77a.87.87,0,0,0,.75,1h3.66a.87.87,0,0,0,.89-.87.66.66,0,0,0,0-.14l-.68-4.77A4.44,4.44,0,0,0,71.91,132.23Z"/><circle class="cls-2" cx="67.1" cy="243.83" r="9.33"/><path class="cls-3" d="M58.21,253.09s8.73,7.68,17.7-.08c.55-.48,4.12,3.85,4.43,4.32a11.64,11.64,0,0,1,1.44,3.07,11.12,11.12,0,0,1,.38,3.67,1.28,1.28,0,0,1-.42.81,3.33,3.33,0,0,1-.91.62,4,4,0,0,1-.75.29,21,21,0,0,1-4.48.06l-5,0-7.6.05c-1.91,0-3.81.08-5.72.09s-5.55,0-5.64-2.84a5.66,5.66,0,0,1,.49-2.13C52.52,260,56.65,251.72,58.21,253.09Z"/><text class="cls-4" transform="translate(36.48 277.34)">SERVICE ACCOUNTS</text><text class="cls-4" transform="translate(37.73 350.75)">CONFIGURATIONS</text><text class="cls-4" transform="translate(44.46 218.06)">CONTAINERS</text><text class="cls-4" transform="translate(53.3 157.9)">SECRETS</text><text class="cls-4" transform="translate(42.11 88.99)">REPOSITORIES</text><text class="cls-4" transform="translate(278.73 147.03)">PRODUCTION</text><text class="cls-5" transform="translate(278.32 47.32)">ISOLATED <tspan x="-1.85" y="12">CONTEXTS</tspan></text><text class="cls-4" transform="translate(286.73 240.29)">STAGING</text><text class="cls-4" transform="translate(277.6 335.84)">DEVELOPMENT</text><path class="cls-3" d="M76.1,323.53v-1.85L72.76,321a9.09,9.09,0,0,0-1.37-3.31l1.86-2.79-1.31-1.31-2.79,1.86a9.09,9.09,0,0,0-3.31-1.37l-.66-3.34H63.33l-.65,3.34a9.09,9.09,0,0,0-3.31,1.37l-2.79-1.86-1.31,1.31,1.86,2.79a9,9,0,0,0-1.37,3.3l-3.34.66v1.85l3.34.66a9.16,9.16,0,0,0,1.37,3.31l-1.86,2.79,1.31,1.31,2.79-1.86a9.09,9.09,0,0,0,3.31,1.37l.65,3.34h1.85l.66-3.34a9.09,9.09,0,0,0,3.31-1.37l2.79,1.86,1.31-1.31-1.86-2.79a9.09,9.09,0,0,0,1.37-3.31Zm-11.84,4.58a5.5,5.5,0,1,1,5.5-5.5A5.5,5.5,0,0,1,64.26,328.11Z"/><path class="cls-3" d="M64.26,318.68a3.93,3.93,0,1,0,3.93,3.93A3.93,3.93,0,0,0,64.26,318.68Z"/><path class="cls-3" d="M73.25,330.29l-1.31,1.31-2.79-1.86a9.09,9.09,0,0,1-3.31,1.37l-.66,3.34H63.33l-.65-3.34a9.09,9.09,0,0,1-3.31-1.37l-2.79,1.86-1.31-1.31,1.86-2.79a9.16,9.16,0,0,1-1.37-3.31l-3.34-.66v-1.85l3.34-.66a9,9,0,0,1,1.37-3.3l-1.86-2.79,1.31-1.31,2.79,1.86a9.09,9.09,0,0,1,3.31-1.37l.65-3.34h1.85l.66,3.34a9.09,9.09,0,0,1,3.31,1.37l2.79-1.86,1.31,1.31-1.86,2.79A9.09,9.09,0,0,1,72.76,321l3.34.65v1.85l-3.34.66a9.09,9.09,0,0,1-1.37,3.31Z"/><path class="cls-3" d="M64.26,318.68a3.93,3.93,0,1,0,3.93,3.93A3.93,3.93,0,0,0,64.26,318.68Z"/><path class="cls-3" d="M77.67,324.83v-4.44L74,319.68a9.62,9.62,0,0,0-.79-1.91l2-3-3.13-3.13-3,2a10.25,10.25,0,0,0-1.91-.79l-.71-3.64H62l-.71,3.64a9.89,9.89,0,0,0-1.9.79l-3-2-3.13,3.13,2,3a10.25,10.25,0,0,0-.79,1.91l-3.64.71v4.44l3.64.71a9.89,9.89,0,0,0,.79,1.9l-2,3.05,3.13,3.13,3-2a10.25,10.25,0,0,0,1.91.79L62,336h4.44l.71-3.64a10.25,10.25,0,0,0,1.91-.79l3,2,3.13-3.13-2-3a10.25,10.25,0,0,0,.79-1.91Zm-13.41,3.28a5.5,5.5,0,1,1,5.5-5.5A5.5,5.5,0,0,1,64.26,328.11Z"/><path class="cls-2" d="M84.67,303.86V301l-2.34-.46a6,6,0,0,0-.5-1.23l1.3-1.95-2-2-2,1.31a6.64,6.64,0,0,0-1.23-.51l-.46-2.34H74.62l-.46,2.34a6.84,6.84,0,0,0-1.22.51l-2-1.31-2,2,1.3,1.95a6.64,6.64,0,0,0-.51,1.23l-2.34.46v2.85l2.34.46a6.84,6.84,0,0,0,.51,1.22l-1.3,2,2,2,2-1.31a6.84,6.84,0,0,0,1.22.51l.46,2.34h2.85l.46-2.34a6.64,6.64,0,0,0,1.23-.51l2,1.31,2-2-1.31-2a6.84,6.84,0,0,0,.51-1.22ZM76.05,306a3.54,3.54,0,1,1,3.54-3.54A3.54,3.54,0,0,1,76.05,306Z"/><path class="cls-6" d="M284.61,106.27l17.6.73c-2.19,3.22-4.23,6.22-6.31,9.19a1.27,1.27,0,0,1-1,.3q-9.6-1.68-19.19-3.42a2.62,2.62,0,0,1-.44-.24l5.73-6.32-6.5-4.38,3.82-.61c4.56-.7,9.12-1.42,13.69-2.08a2.7,2.7,0,0,1,1.61.34c1.62.94,3.19,2,4.89,3,1.56-2.35,3-4.65,4.6-6.88a2.34,2.34,0,0,1,1.57-.93c6.14-.2,12.29-.31,18.43-.44.17,0,.35,0,.71.07-1.22,2.39-2.34,4.72-3.58,7a1.4,1.4,0,0,0,.31,2c1.84,1.64,3.61,3.35,5.68,5.29-1.1.41-1.66.63-2.23.83-4.46,1.63-8.93,3.23-13.37,4.91a1.35,1.35,0,0,1-1.82-.47c-2-2.44-4.13-4.84-6.33-7.4l15.26-3.58V103h-1.21c-3.1,0-6.21.19-9.28,0-7-.52-13.62,1.09-20.31,2.59l-2,.44S284.86,106,284.61,106.27Z"/><path class="cls-6" d="M282.08,115.17c4.41.84,8.63,1.62,12.84,2.49a1.32,1.32,0,0,0,1.63-.68c1.49-2.3,3.05-4.56,4.58-6.83.24-.35.5-.68.93-1.27v28.24l-8.12-2.7c-3.61-1.2-7.23-2.38-10.83-3.62-.41-.14-1-.64-1-1C282.06,125,282.08,120.19,282.08,115.17Z"/><path class="cls-6" d="M303.31,108.85c1.77,2.31,3.37,4.34,4.9,6.43a1.28,1.28,0,0,0,1.78.52c3.17-1.22,6.37-2.35,9.68-3.55a7.28,7.28,0,0,1,.14,1c-.06,4.41-.15,8.82-.17,13.23a2,2,0,0,1-1.12,1.92c-4.69,2.79-9.36,5.64-14,8.47-.33.2-.68.38-1.17.65Z"/><rect class="cls-2" x="301.92" y="98.49" width="11.23" height="5.7"/><polygon class="cls-3" points="315.49 96.15 304.26 96.15 301.92 98.49 313.15 98.49 315.49 96.15"/><rect class="cls-3" x="302.59" y="99.08" width="0.5" height="4.74" rx="0.25"/><rect class="cls-3" x="304.14" y="99.08" width="0.5" height="4.74" rx="0.25"/><rect class="cls-3" x="305.69" y="99.08" width="0.5" height="4.74" rx="0.25"/><rect class="cls-3" x="307.24" y="99.08" width="0.5" height="4.74" rx="0.25"/><rect class="cls-3" x="308.79" y="99.08" width="0.5" height="4.74" rx="0.25"/><rect class="cls-3" x="310.34" y="99.08" width="0.5" height="4.74" rx="0.25"/><rect class="cls-3" x="311.89" y="99.08" width="0.5" height="4.74" rx="0.25"/><polygon class="cls-3" points="313.15 104.19 313.15 98.49 315.49 96.15 315.49 101.91 313.15 104.19"/><rect class="cls-2" x="308.03" y="87.39" width="9.47" height="5.62"/><ellipse class="cls-3" cx="312.76" cy="87.39" rx="4.74" ry="1.47"/><ellipse class="cls-2" cx="312.76" cy="93" rx="4.74" ry="1.47"/><path class="cls-3" d="M287.48,85.77a3,3,0,0,0-3,3v1.87a.23.23,0,0,0,.24.23h.93a.23.23,0,0,0,.23-.23V88.8a1.64,1.64,0,0,1,3.27,0v1.87a.23.23,0,0,0,.24.23h.93a.23.23,0,0,0,.24-.23V88.8A3,3,0,0,0,287.48,85.77Z"/><path class="cls-2" d="M284.68,90.44h5.6a1.16,1.16,0,0,1,1.17,1.16v4.21A1.17,1.17,0,0,1,290.28,97h-5.6a1.17,1.17,0,0,1-1.17-1.17V91.6A1.16,1.16,0,0,1,284.68,90.44Z"/><path class="cls-3" d="M288.65,93a1.17,1.17,0,1,0-1.69,1l-.18,1.26a.23.23,0,0,0,.2.26h1a.22.22,0,0,0,.23-.23v0L288,94.05A1.2,1.2,0,0,0,288.65,93Z"/><circle class="cls-2" cx="301.61" cy="86.82" r="2.46"/><path class="cls-3" d="M299.26,89.26a3.56,3.56,0,0,0,4.68,0c.14-.13,1.09,1,1.17,1.14a3.15,3.15,0,0,1,.38.81,2.92,2.92,0,0,1,.1,1,.36.36,0,0,1-.11.22.78.78,0,0,1-.24.16l-.2.08a5.81,5.81,0,0,1-1.18,0h-1.32l-2,0-1.51,0c-.52,0-1.47,0-1.49-.75a1.62,1.62,0,0,1,.12-.57C297.76,91.09,298.85,88.9,299.26,89.26Z"/><path class="cls-3" d="M296.69,103.33V102l-1.08-.21a2.87,2.87,0,0,0-.24-.57l.6-.9-.92-.93-.91.6a3.46,3.46,0,0,0-.56-.23l-.21-1.08h-1.32l-.21,1.08a3.88,3.88,0,0,0-.56.23l-.9-.6-.93.93.6.9a2.87,2.87,0,0,0-.24.57l-1.08.21v1.31l1.08.22a3,3,0,0,0,.24.56l-.6.9.92.93.91-.6a3,3,0,0,0,.56.23l.21,1.08h1.32l.21-1.08a2.75,2.75,0,0,0,.56-.23l.91.6L296,105l-.6-.9a3,3,0,0,0,.24-.56Zm-4,1a1.63,1.63,0,1,1,1.63-1.63A1.63,1.63,0,0,1,292.71,104.31Z"/><path class="cls-2" d="M298.76,97.12v-.85l-.69-.14a2.75,2.75,0,0,0-.15-.36l.38-.58-.59-.6-.58.39a2.39,2.39,0,0,0-.37-.15l-.13-.69h-.85l-.13.69a2.39,2.39,0,0,0-.37.15l-.58-.39-.59.6.38.58a2.75,2.75,0,0,0-.15.36l-.69.14v.85l.69.13a2.39,2.39,0,0,0,.15.37l-.38.58.59.59.58-.38a2.39,2.39,0,0,0,.37.15l.13.69h.85l.13-.69a2.39,2.39,0,0,0,.37-.15l.58.38.59-.59-.38-.58a2.39,2.39,0,0,0,.15-.37Zm-2.55.62a1,1,0,1,1,0-2.09,1,1,0,0,1,0,2.09Z"/><path class="cls-6" d="M284.93,295.07l17.6.73c-2.19,3.22-4.22,6.22-6.31,9.19a1.27,1.27,0,0,1-1,.3q-9.6-1.68-19.19-3.42a2.62,2.62,0,0,1-.44-.24l5.73-6.32-6.5-4.38,3.82-.61c4.56-.7,9.12-1.42,13.69-2.08a2.75,2.75,0,0,1,1.61.34c1.62.94,3.19,2,4.9,3,1.55-2.35,3-4.65,4.59-6.88a2.38,2.38,0,0,1,1.57-.93c6.14-.2,12.29-.31,18.43-.44.17,0,.35,0,.71.07-1.21,2.39-2.34,4.72-3.58,7a1.4,1.4,0,0,0,.31,2.05c1.84,1.64,3.62,3.35,5.69,5.29-1.11.41-1.67.63-2.24.83-4.46,1.63-8.93,3.23-13.37,4.91a1.36,1.36,0,0,1-1.82-.47c-2-2.44-4.13-4.84-6.33-7.4L318,292.05v-.26H316.8c-3.1,0-6.2.19-9.28,0-7-.52-13.62,1.09-20.3,2.59l-2,.44S285.18,294.84,284.93,295.07Z"/><path class="cls-6" d="M282.4,304c4.41.84,8.64,1.62,12.84,2.49a1.32,1.32,0,0,0,1.63-.68c1.5-2.3,3.05-4.56,4.58-6.83.24-.35.5-.68.93-1.27v28.24l-8.12-2.7c-3.61-1.2-7.23-2.38-10.83-3.62-.41-.14-1-.64-1-1C282.38,313.81,282.4,309,282.4,304Z"/><path class="cls-6" d="M303.63,297.65c1.77,2.31,3.37,4.34,4.91,6.43a1.27,1.27,0,0,0,1.77.52c3.17-1.22,6.37-2.35,9.68-3.55a7.52,7.52,0,0,1,.14,1c-.06,4.41-.15,8.82-.17,13.23a2,2,0,0,1-1.11,1.92c-4.7,2.8-9.37,5.64-14.05,8.47-.33.2-.68.38-1.17.65Z"/><rect class="cls-2" x="297.22" y="276.31" width="9.47" height="5.62"/><ellipse class="cls-3" cx="301.96" cy="276.31" rx="4.74" ry="1.47"/><ellipse class="cls-2" cx="301.96" cy="281.92" rx="4.74" ry="1.47"/><path class="cls-3" d="M293.9,282.51a3,3,0,0,0-3,3v1.87a.23.23,0,0,0,.23.23H292a.23.23,0,0,0,.23-.23v-1.87a1.64,1.64,0,1,1,3.27,0v1.87a.24.24,0,0,0,.23.23h.94a.23.23,0,0,0,.23-.23v-1.87A3,3,0,0,0,293.9,282.51Z"/><path class="cls-2" d="M291.09,287.18h5.61a1.18,1.18,0,0,1,1.17,1.17v4.2a1.17,1.17,0,0,1-1.17,1.17h-5.61a1.16,1.16,0,0,1-1.16-1.17v-4.2A1.17,1.17,0,0,1,291.09,287.18Z"/><path class="cls-3" d="M295.06,289.75a1.16,1.16,0,0,0-1.16-1.17,1.17,1.17,0,0,0-1.17,1.16,1.16,1.16,0,0,0,.65,1.05l-.18,1.26a.24.24,0,0,0,.2.27h1a.23.23,0,0,0,.24-.23v0l-.18-1.26A1.16,1.16,0,0,0,295.06,289.75Z"/><circle class="cls-2" cx="315.91" cy="283.7" r="2.46"/><path class="cls-3" d="M313.56,286.14a3.56,3.56,0,0,0,4.68,0c.14-.13,1.09,1,1.17,1.14a3.15,3.15,0,0,1,.38.81,3.2,3.2,0,0,1,.1,1,.36.36,0,0,1-.11.22.78.78,0,0,1-.24.16l-.2.08a5.82,5.82,0,0,1-1.18,0h-1.32l-2,0-1.51,0c-.52,0-1.47,0-1.5-.75a1.76,1.76,0,0,1,.13-.56C312.06,288,313.15,285.78,313.56,286.14Z"/><path class="cls-3" d="M309.59,290.77v-1.31l-1.08-.21a2.83,2.83,0,0,0-.23-.57l.6-.9-.93-.93-.9.6a3.57,3.57,0,0,0-.57-.23l-.21-1.08H305l-.21,1.08a3.57,3.57,0,0,0-.57.23l-.9-.6-.93.93.6.9a2.83,2.83,0,0,0-.23.57l-1.08.21v1.31l1.08.22a3,3,0,0,0,.23.56l-.6.9.93.93.9-.6a2.83,2.83,0,0,0,.57.23l.21,1.08h1.31l.21-1.08a2.83,2.83,0,0,0,.57-.23l.9.6.93-.93-.6-.9a3.88,3.88,0,0,0,.23-.56Zm-4,1a1.63,1.63,0,1,1,1.63-1.63A1.63,1.63,0,0,1,305.62,291.75Z"/><path class="cls-2" d="M311.67,284.56v-.85l-.7-.14a1.84,1.84,0,0,0-.15-.36l.39-.58-.6-.6-.58.39a2.28,2.28,0,0,0-.36-.15l-.14-.69h-.84l-.14.69a1.94,1.94,0,0,0-.36.15l-.58-.39-.6.6.39.58a1.38,1.38,0,0,0-.15.36l-.7.14v.85l.7.13a1.31,1.31,0,0,0,.15.37l-.39.58.6.59.58-.38a1.94,1.94,0,0,0,.36.15l.14.69h.84l.14-.69a2.28,2.28,0,0,0,.36-.15l.58.38.6-.59-.39-.58a1.69,1.69,0,0,0,.15-.37Zm-2.56.62a1.05,1.05,0,1,1,1.05-1.05A1,1,0,0,1,309.11,285.18Z"/><path class="cls-6" d="M284.39,200l17.6.73c-2.2,3.21-4.23,6.22-6.31,9.18a1.29,1.29,0,0,1-1.05.31q-9.6-1.68-19.18-3.43a1.87,1.87,0,0,1-.44-.23l5.72-6.32-6.49-4.39,3.82-.6c4.56-.7,9.12-1.42,13.68-2.08a2.71,2.71,0,0,1,1.62.34c1.62.93,3.19,2,4.89,3,1.55-2.35,3-4.65,4.6-6.88a2.31,2.31,0,0,1,1.57-.94c6.14-.19,12.28-.3,18.42-.43.18,0,.35,0,.71.06-1.21,2.39-2.34,4.73-3.57,7a1.41,1.41,0,0,0,.3,2c1.85,1.64,3.62,3.35,5.69,5.29l-2.24.83c-4.46,1.63-8.93,3.23-13.37,4.91a1.36,1.36,0,0,1-1.82-.47c-2-2.44-4.13-4.84-6.33-7.4l15.27-3.59v-.25h-1.22c-3.09,0-6.2.19-9.28,0-7-.51-13.62,1.1-20.3,2.6l-2,.44S284.64,199.72,284.39,200Z"/><path class="cls-6" d="M281.85,208.85c4.41.84,8.64,1.61,12.85,2.48a1.29,1.29,0,0,0,1.62-.67c1.5-2.3,3.05-4.56,4.59-6.84.23-.34.49-.68.92-1.26V230.8l-8.11-2.71c-3.62-1.2-7.24-2.37-10.84-3.62-.4-.14-1-.63-1-1C281.83,218.69,281.85,213.87,281.85,208.85Z"/><path class="cls-6" d="M303.09,202.52c1.77,2.31,3.37,4.35,4.9,6.43a1.27,1.27,0,0,0,1.78.52c3.16-1.22,6.37-2.34,9.67-3.55a7.64,7.64,0,0,1,.14,1c-.05,4.41-.15,8.82-.17,13.23A2,2,0,0,1,318.3,222c-4.7,2.8-9.36,5.65-14,8.48-.34.2-.69.38-1.17.65Z"/><rect class="cls-2" x="292.79" y="182.21" width="11.23" height="5.7"/><polygon class="cls-3" points="306.37 179.86 295.14 179.86 292.79 182.21 304.02 182.21 306.37 179.86"/><rect class="cls-3" x="293.46" y="182.79" width="0.5" height="4.74" rx="0.25"/><rect class="cls-3" x="295.01" y="182.79" width="0.5" height="4.74" rx="0.25"/><rect class="cls-3" x="296.56" y="182.79" width="0.5" height="4.74" rx="0.25"/><rect class="cls-3" x="298.11" y="182.79" width="0.5" height="4.74" rx="0.25"/><rect class="cls-3" x="299.67" y="182.79" width="0.5" height="4.74" rx="0.25"/><rect class="cls-3" x="301.22" y="182.79" width="0.5" height="4.74" rx="0.25"/><rect class="cls-3" x="302.77" y="182.79" width="0.5" height="4.74" rx="0.25"/><polygon class="cls-3" points="304.02 187.91 304.02 182.21 306.37 179.86 306.37 185.62 304.02 187.91"/><circle class="cls-2" cx="289.42" cy="190.69" r="2.46"/><path class="cls-3" d="M287.07,193.14a3.54,3.54,0,0,0,4.67,0c.15-.13,1.09,1,1.17,1.14a3.18,3.18,0,0,1,.39.81,2.91,2.91,0,0,1,.09,1,.33.33,0,0,1-.11.22.84.84,0,0,1-.24.16l-.19.08a5.91,5.91,0,0,1-1.19,0h-3.33l-1.51,0c-.52,0-1.47,0-1.49-.75a1.44,1.44,0,0,1,.13-.57C285.56,195,286.65,192.78,287.07,193.14Z"/><path class="cls-3" d="M309.43,195.9v-1.31l-1.07-.21a2.87,2.87,0,0,0-.24-.57l.6-.9-.93-.93-.9.6a3.88,3.88,0,0,0-.56-.23l-.21-1.08H304.8l-.21,1.08a3.13,3.13,0,0,0-.56.23l-.91-.6-.93.93.61.9a2.87,2.87,0,0,0-.24.57l-1.08.21v1.31l1.08.22a3,3,0,0,0,.24.56l-.61.9.93.93.9-.6a2.35,2.35,0,0,0,.57.23l.21,1.08h1.32l.21-1.08a2.45,2.45,0,0,0,.56-.23l.9.6.93-.93-.6-.9a3,3,0,0,0,.24-.56Zm-4,1a1.63,1.63,0,1,1,1.63-1.63A1.63,1.63,0,0,1,305.46,196.88Z"/><path class="cls-2" d="M311.51,189.69v-.85l-.69-.13a2.39,2.39,0,0,0-.15-.37l.38-.58-.59-.59-.58.38a2.39,2.39,0,0,0-.37-.15l-.13-.69h-.85l-.14.69a2.75,2.75,0,0,0-.36.15l-.58-.38-.6.59.39.58a2.39,2.39,0,0,0-.15.37l-.69.13v.85l.69.13a2.39,2.39,0,0,0,.15.37l-.39.58.6.59L308,191a2.75,2.75,0,0,0,.36.15l.14.69h.85l.13-.69a2.39,2.39,0,0,0,.37-.15l.58.38.59-.59-.38-.58a2.39,2.39,0,0,0,.15-.37Zm-2.56.62a1,1,0,1,1,1.05-1A1.05,1.05,0,0,1,309,190.31Z"/><path class="cls-7" d="M64.26,317.11a5.5,5.5,0,1,0,5.5,5.5A5.5,5.5,0,0,0,64.26,317.11Z"/><polyline class="cls-1" points="256.78 98.39 98.96 65.97 259.21 295.79"/><polygon class="cls-2" points="254.77 94.2 255.57 98.14 253.28 101.45 262.63 99.59 254.77 94.2"/><polygon class="cls-2" points="254.57 295.6 258.5 294.77 260.64 291.37 262.63 300.68 254.57 295.6"/><polyline class="cls-1" points="256.77 106.48 98.96 138.29 258.2 282.72"/><polygon class="cls-2" points="253.29 103.41 255.56 106.73 254.75 110.67 262.63 105.3 253.29 103.41"/><polygon class="cls-2" points="253.63 283.57 257.29 281.89 258.61 278.09 262.63 286.73 253.63 283.57"/><polyline class="cls-1" points="257.24 115.48 98.96 190.94 256.68 206.22"/><polygon class="cls-2" points="253.11 113.35 256.12 116.02 256.3 120.03 262.63 112.92 253.11 113.35"/><polygon class="cls-2" points="253.53 209.64 255.45 206.1 254.25 202.27 262.63 206.8 253.53 209.64"/><polyline class="cls-1" points="258.52 87.43 98.96 255.65 257.04 196.21"/><polygon class="cls-2" points="253.9 86.92 257.67 88.33 259.27 92.02 262.63 83.1 253.9 86.92"/><polygon class="cls-2" points="255.71 200.67 255.88 196.65 253.1 193.74 262.63 194.11 255.71 200.67"/><line class="cls-1" x1="98.96" y1="255.65" x2="256.94" y2="305.86"/><polygon class="cls-2" points="253.14 308.53 255.76 305.48 255.38 301.48 262.63 307.66 253.14 308.53"/><polyline class="cls-1" points="258.91 125.2 98.96 326.06 257.74 214.88"/><polygon class="cls-2" points="254.26 125.09 258.14 126.16 260.05 129.7 262.63 120.53 254.26 125.09"/><polygon class="cls-2" points="257.56 219.52 256.72 215.59 253.31 213.45 262.63 211.45 257.56 219.52"/><line class="cls-1" x1="98.96" y1="326.06" x2="256.67" y2="315.06"/><polygon class="cls-2" points="254.13 318.95 255.44 315.14 253.61 311.56 262.63 314.64 254.13 318.95"/></g></svg>