<svg id="Layer_1" data-name="Layer 1" xmlns="http://www.w3.org/2000/svg" viewBox="0 0 2491.77 715.56"><defs><style>.cls-1,.cls-10,.cls-11,.cls-14,.cls-15,.cls-2,.cls-3,.cls-5,.cls-9{fill:none;stroke-miterlimit:10;}.cls-1,.cls-15{stroke:#a4f7f8;}.cls-10,.cls-11,.cls-14,.cls-2,.cls-3,.cls-5,.cls-9{stroke:#00d2d9;}.cls-11,.cls-14,.cls-3,.cls-5{stroke-width:2px;}.cls-4,.cls-8{fill:#a4f7f8;}.cls-16,.cls-4{opacity:0.33;}.cls-5{stroke-dasharray:4;}.cls-6{opacity:0.65;}.cls-7{fill:#00d2d9;}.cls-9{stroke-dasharray:2;}.cls-10{stroke-dasharray:1 1 1 1 1 1;}.cls-11{stroke-dasharray:1;}.cls-12{opacity:0.9;}.cls-13{opacity:0.44;}.cls-14{stroke-dasharray:6;}.cls-15{stroke-width:3px;}.cls-17{opacity:0.45;}</style></defs><g id="Arrow_10" data-name="Arrow 10"><line class="cls-1" x1="2217.84" y1="543.61" x2="2363.42" y2="543.61"/><line class="cls-1" x1="2215.74" y1="669.21" x2="2361.33" y2="669.21"/><line class="cls-2" x1="324.79" y1="108.98" x2="718.1" y2="108.98"/><line class="cls-3" x1="367.93" y1="605.95" x2="2126.37" y2="605.95"/><rect class="cls-4" x="438.37" y="438.91" width="1439.53" height="48.2"/><path class="cls-5" d="M1088,209.12h0l25,11.58-11.55-25a17,17,0,0,0-3.74-5.58c-5.39-5.39-13.17-6.34-17.39-2.13s-3.26,12,2.14,17.39A16.73,16.73,0,0,0,1088,209.12Z"/><path class="cls-5" d="M1102.29,250.38l11.58-25-25,11.55a16.57,16.57,0,0,0-5.58,3.73c-5.39,5.39-6.35,13.18-2.14,17.39s12,3.26,17.4-2.13a16.91,16.91,0,0,0,3.7-5.52Z"/><path class="cls-5" d="M1142.77,237h0l-25-11.58,11.54,25A17,17,0,0,0,1133,256c5.39,5.39,13.18,6.34,17.39,2.13s3.26-12-2.13-17.39A16.78,16.78,0,0,0,1142.77,237Z"/><path class="cls-5" d="M1130.17,195.61l-11.58,25,25-11.55a17,17,0,0,0,5.57-3.73c5.39-5.39,6.34-13.18,2.13-17.39s-12-3.26-17.39,2.13a16.94,16.94,0,0,0-3.71,5.52Z"/><path class="cls-5" d="M1109.81,223.75,1070,209.12h0a25.9,25.9,0,0,0-10-2c-11.74,0-21.25,7.43-21.25,16.6s9.51,16.61,21.25,16.61a26.08,26.08,0,0,0,10-2h0Z"/><path class="cls-5" d="M1115.84,227.86l-14.64,39.83h0a25.92,25.92,0,0,0-2,10.05c0,11.73,7.44,21.24,16.61,21.24s16.61-9.51,16.61-21.24a25.92,25.92,0,0,0-2-10.05Z"/><path class="cls-5" d="M1170,207.15a26,26,0,0,0-10,2l-39.82,14.63L1160,238.39h0a26.08,26.08,0,0,0,10,2c11.73,0,21.24-7.44,21.24-16.61S1181.76,207.15,1170,207.15Z"/><path class="cls-5" d="M1115.84,217.59l14.63-39.83h0a25.91,25.91,0,0,0,2-10c0-11.73-7.43-21.24-16.6-21.24s-16.61,9.51-16.61,21.24a25.92,25.92,0,0,0,2,10Z"/><g class="cls-6"><path class="cls-7" d="M929.58,39.72h0l10,4.63-4.62-10a6.65,6.65,0,0,0-1.5-2.23c-2.16-2.16-5.27-2.54-7-.85s-1.31,4.8.85,7A6.79,6.79,0,0,0,929.58,39.72Z"/><path class="cls-7" d="M935.32,56.24l4.64-10-10,4.62a6.78,6.78,0,0,0-2.24,1.5c-2.15,2.16-2.54,5.27-.85,7s4.81,1.31,7-.85a6.92,6.92,0,0,0,1.48-2.21Z"/><path class="cls-7" d="M951.53,50.89h0l-10-4.64,4.62,10a6.78,6.78,0,0,0,1.5,2.24c2.16,2.16,5.28,2.54,7,.85s1.31-4.81-.85-7A6.79,6.79,0,0,0,951.53,50.89Z"/><path class="cls-7" d="M946.48,34.3l-4.63,10,10-4.62a6.65,6.65,0,0,0,2.23-1.5c2.16-2.15,2.54-5.27.85-7s-4.8-1.31-7,.85a6.79,6.79,0,0,0-1.49,2.21Z"/><path class="cls-8" d="M938.33,45.57l-16-5.86h0a10.48,10.48,0,0,0-4-.79c-4.7,0-8.51,3-8.51,6.65s3.81,6.66,8.51,6.66a10.48,10.48,0,0,0,4-.79h0Z"/><path class="cls-8" d="M940.75,47.22l-5.87,16h0a10.47,10.47,0,0,0-.78,4c0,4.7,3,8.51,6.65,8.51s6.65-3.81,6.65-8.51a10.48,10.48,0,0,0-.79-4Z"/><path class="cls-8" d="M962.45,38.92a10.49,10.49,0,0,0-4,.79l-15.95,5.86,16,5.87h0a10.4,10.4,0,0,0,4,.78c4.7,0,8.51-3,8.51-6.65S967.15,38.92,962.45,38.92Z"/><path class="cls-8" d="M940.75,43.1l5.86-16h0a10.4,10.4,0,0,0,.79-4c0-4.7-3-8.51-6.65-8.51s-6.65,3.81-6.65,8.51a10.31,10.31,0,0,0,.79,4Z"/></g><path class="cls-9" d="M1311.56,162.09h0l10,4.64-4.62-10a6.65,6.65,0,0,0-1.5-2.23c-2.16-2.16-5.28-2.54-7-.86s-1.31,4.81.85,7A6.61,6.61,0,0,0,1311.56,162.09Z"/><path class="cls-9" d="M1317.3,178.62l4.63-10-10,4.62a6.78,6.78,0,0,0-2.24,1.5c-2.16,2.16-2.54,5.27-.85,7s4.8,1.31,7-.85a6.79,6.79,0,0,0,1.49-2.21Z"/><path class="cls-9" d="M1333.51,173.27h0l-10-4.64,4.62,10a6.78,6.78,0,0,0,1.5,2.24c2.16,2.16,5.27,2.54,7,.85s1.31-4.81-.85-7A6.79,6.79,0,0,0,1333.51,173.27Z"/><path class="cls-9" d="M1328.46,156.68l-4.63,10,10-4.62a6.75,6.75,0,0,0,2.23-1.5c2.16-2.16,2.54-5.27.85-7s-4.8-1.31-7,.85a6.79,6.79,0,0,0-1.49,2.21Z"/><path class="cls-9" d="M1320.31,168l-16-5.86h0a10.48,10.48,0,0,0-4-.79c-4.7,0-8.51,3-8.51,6.65s3.81,6.65,8.51,6.65a10.29,10.29,0,0,0,4-.79h0Z"/><path class="cls-9" d="M1322.72,169.6l-5.86,16h0a10.48,10.48,0,0,0-.79,4c0,4.7,3,8.51,6.65,8.51s6.65-3.81,6.65-8.51a10.29,10.29,0,0,0-.79-4Z"/><path class="cls-9" d="M1344.43,161.3a10.49,10.49,0,0,0-4,.79l-16,5.86,16,5.87h0a10.31,10.31,0,0,0,4,.79c4.69,0,8.5-3,8.5-6.65S1349.12,161.3,1344.43,161.3Z"/><path class="cls-9" d="M1322.72,165.48l5.86-15.95h0a10.22,10.22,0,0,0,.79-4c0-4.7-3-8.51-6.65-8.51s-6.65,3.81-6.65,8.51a10.4,10.4,0,0,0,.79,4Z"/><path class="cls-10" d="M1308.31,285.56h0l10,4.64-4.63-10a6.91,6.91,0,0,0-1.49-2.24c-2.16-2.15-5.28-2.54-7-.85s-1.3,4.81.86,7A6.71,6.71,0,0,0,1308.31,285.56Z"/><path class="cls-10" d="M1314,302.08l4.64-10-10,4.63a6.77,6.77,0,0,0-2.23,1.49c-2.16,2.16-2.54,5.28-.86,7s4.81,1.3,7-.85a6.55,6.55,0,0,0,1.48-2.22Z"/><path class="cls-10" d="M1330.25,296.74h0l-10-4.64,4.63,10a6.77,6.77,0,0,0,1.49,2.23c2.16,2.16,5.28,2.54,7,.86s1.3-4.81-.86-7A6.66,6.66,0,0,0,1330.25,296.74Z"/><path class="cls-10" d="M1325.21,280.15l-4.64,10,10-4.63a6.61,6.61,0,0,0,2.23-1.49c2.16-2.16,2.54-5.28.86-7s-4.81-1.31-7,.85a6.76,6.76,0,0,0-1.48,2.21Z"/><path class="cls-10" d="M1317.05,291.42l-16-5.86h0a10.4,10.4,0,0,0-4-.79c-4.7,0-8.51,3-8.51,6.65s3.81,6.65,8.51,6.65a10.22,10.22,0,0,0,4-.79h0Z"/><path class="cls-10" d="M1319.47,293.07,1313.61,309h0a10.26,10.26,0,0,0-.79,4c0,4.7,3,8.51,6.65,8.51s6.65-3.81,6.65-8.51a10.4,10.4,0,0,0-.79-4Z"/><path class="cls-10" d="M1341.17,284.77a10.48,10.48,0,0,0-4,.79l-16,5.86,16,5.86h0a10.48,10.48,0,0,0,4,.79c4.7,0,8.51-3,8.51-6.65S1345.87,284.77,1341.17,284.77Z"/><path class="cls-10" d="M1319.47,289l5.86-15.95h0a10.48,10.48,0,0,0,.79-4c0-4.7-3-8.51-6.65-8.51s-6.65,3.81-6.65,8.51a10.29,10.29,0,0,0,.79,4Z"/><path class="cls-11" d="M1370.13,218.24h0l10,4.63-4.63-10a6.91,6.91,0,0,0-1.49-2.24c-2.16-2.16-5.28-2.54-7-.85s-1.3,4.8.86,7A6.69,6.69,0,0,0,1370.13,218.24Z"/><path class="cls-11" d="M1375.87,234.76l4.63-10-10,4.63a6.61,6.61,0,0,0-2.23,1.49c-2.16,2.16-2.54,5.28-.85,7s4.8,1.3,7-.86a6.61,6.61,0,0,0,1.48-2.21Z"/><path class="cls-11" d="M1392.07,229.41h0l-10-4.63,4.63,10a6.77,6.77,0,0,0,1.49,2.23c2.16,2.16,5.28,2.54,7,.85s1.3-4.8-.86-7A6.59,6.59,0,0,0,1392.07,229.41Z"/><path class="cls-11" d="M1387,212.83l-4.64,10,10-4.63a6.77,6.77,0,0,0,2.23-1.49c2.16-2.16,2.55-5.28.86-7s-4.81-1.3-7,.86a6.76,6.76,0,0,0-1.48,2.21Z"/><path class="cls-11" d="M1378.87,224.1l-15.95-5.86h0a10.22,10.22,0,0,0-4-.79c-4.7,0-8.51,3-8.51,6.65s3.81,6.65,8.51,6.65a10.4,10.4,0,0,0,4-.79h0Z"/><path class="cls-11" d="M1381.29,225.74l-5.86,15.95h0a10.49,10.49,0,0,0-.79,4c0,4.7,3,8.51,6.65,8.51s6.65-3.81,6.65-8.51a10.49,10.49,0,0,0-.79-4Z"/><path class="cls-11" d="M1403,217.45a10.29,10.29,0,0,0-4,.79l-16,5.86,16,5.86h0a10.48,10.48,0,0,0,4,.79c4.7,0,8.51-3,8.51-6.65S1407.69,217.45,1403,217.45Z"/><path class="cls-11" d="M1381.29,221.63l5.86-15.95h0a10.48,10.48,0,0,0,.79-4c0-4.7-3-8.51-6.65-8.51s-6.65,3.81-6.65,8.51a10.48,10.48,0,0,0,.79,4Z"/><g class="cls-12"><path class="cls-7" d="M990.64,103.25h0l10,4.64-4.62-10a6.78,6.78,0,0,0-1.5-2.24c-2.16-2.15-5.27-2.54-7-.85s-1.31,4.81.85,7A6.92,6.92,0,0,0,990.64,103.25Z"/><path class="cls-7" d="M996.38,119.77l4.64-10-10,4.63a6.91,6.91,0,0,0-2.24,1.49c-2.15,2.16-2.54,5.28-.85,7s4.81,1.3,7-.86a6.71,6.71,0,0,0,1.48-2.21Z"/><path class="cls-7" d="M1012.59,114.43h0l-10-4.64,4.62,10a6.65,6.65,0,0,0,1.5,2.23c2.16,2.16,5.28,2.54,7,.86s1.31-4.81-.85-7A6.76,6.76,0,0,0,1012.59,114.43Z"/><path class="cls-7" d="M1007.54,97.84l-4.63,10,10-4.63a6.61,6.61,0,0,0,2.23-1.49c2.16-2.16,2.54-5.28.85-7s-4.8-1.31-7,.85a6.79,6.79,0,0,0-1.49,2.21Z"/><path class="cls-8" d="M999.39,109.11l-15.95-5.86h0a10.48,10.48,0,0,0-4-.79c-4.7,0-8.51,3-8.51,6.65s3.81,6.65,8.51,6.65a10.48,10.48,0,0,0,4-.79h0Z"/><path class="cls-8" d="M1001.81,110.76l-5.87,15.95h0a10.22,10.22,0,0,0-.79,4c0,4.7,3,8.51,6.65,8.51s6.65-3.81,6.65-8.51a10.4,10.4,0,0,0-.79-4Z"/><path class="cls-8" d="M1023.51,102.46a10.49,10.49,0,0,0-4,.79l-15.94,5.86,16,5.86h0a10.4,10.4,0,0,0,4,.79c4.7,0,8.51-3,8.51-6.65S1028.21,102.46,1023.51,102.46Z"/><path class="cls-8" d="M1001.81,106.64l5.86-16h0a10.48,10.48,0,0,0,.79-4c0-4.7-3-8.51-6.65-8.51s-6.65,3.81-6.65,8.51a10.29,10.29,0,0,0,.79,4Z"/></g><g class="cls-13"><path class="cls-7" d="M929.58,167.22h0l10,4.64-4.62-10a6.78,6.78,0,0,0-1.5-2.24c-2.16-2.15-5.27-2.54-7-.85s-1.31,4.81.85,7A6.92,6.92,0,0,0,929.58,167.22Z"/><path class="cls-7" d="M935.32,183.74l4.64-10-10,4.63a6.91,6.91,0,0,0-2.24,1.49c-2.15,2.16-2.54,5.28-.85,7s4.81,1.3,7-.85a6.85,6.85,0,0,0,1.48-2.22Z"/><path class="cls-7" d="M951.53,178.4h0l-10-4.64,4.62,10a6.65,6.65,0,0,0,1.5,2.23c2.16,2.16,5.28,2.54,7,.86s1.31-4.81-.85-7A6.76,6.76,0,0,0,951.53,178.4Z"/><path class="cls-7" d="M946.48,161.81l-4.63,10,10-4.63a6.61,6.61,0,0,0,2.23-1.49c2.16-2.16,2.54-5.28.85-7s-4.8-1.31-7,.85a6.79,6.79,0,0,0-1.49,2.21Z"/><path class="cls-8" d="M938.33,173.08l-16-5.86h0a10.48,10.48,0,0,0-4-.79c-4.7,0-8.51,3-8.51,6.65s3.81,6.65,8.51,6.65a10.29,10.29,0,0,0,4-.79h0Z"/><path class="cls-8" d="M940.75,174.73l-5.87,16h0a10.47,10.47,0,0,0-.78,4c0,4.7,3,8.51,6.65,8.51s6.65-3.81,6.65-8.51a10.44,10.44,0,0,0-.79-4Z"/><path class="cls-8" d="M962.45,166.43a10.49,10.49,0,0,0-4,.79l-15.95,5.86,16,5.86h0a10.4,10.4,0,0,0,4,.79c4.7,0,8.51-3,8.51-6.65S967.15,166.43,962.45,166.43Z"/><path class="cls-8" d="M940.75,170.61l5.86-16h0a10.48,10.48,0,0,0,.79-4c0-4.7-3-8.51-6.65-8.51s-6.65,3.81-6.65,8.51a10.29,10.29,0,0,0,.79,4Z"/></g><path class="cls-7" d="M210.44,281.07h0l99.75,46.15-46-99.54a67.34,67.34,0,0,0-14.89-22.24C227.77,184,196.73,180.15,179.93,197s-13,47.84,8.5,69.33A67.12,67.12,0,0,0,210.44,281.07Z"/><path class="cls-7" d="M267.57,445.56l46.14-99.76-99.52,46.05a67,67,0,0,0-22.25,14.89c-21.49,21.49-25.3,52.53-8.5,69.33s47.84,13,69.33-8.5a67.07,67.07,0,0,0,14.79-22Z"/><path class="cls-7" d="M428.92,392.33h0l-99.76-46.14,46,99.53A67.24,67.24,0,0,0,390.1,468c21.49,21.5,52.53,25.3,69.33,8.5s13-47.84-8.49-69.33A67.1,67.1,0,0,0,428.92,392.33Z"/><path class="cls-7" d="M378.69,227.2,332.54,327l99.57-46.06A67.21,67.21,0,0,0,454.32,266c21.49-21.5,25.3-52.54,8.5-69.34s-47.84-13-69.33,8.5a67.17,67.17,0,0,0-14.79,22Z"/><path class="cls-8" d="M297.53,339.4,138.74,281.06h0a103.58,103.58,0,0,0-40.05-7.86c-46.78,0-84.7,29.64-84.7,66.2s37.92,66.21,84.7,66.21a103.58,103.58,0,0,0,40.05-7.86h0Z"/><path class="cls-8" d="M321.56,355.79,263.22,514.58h0a103.62,103.62,0,0,0-7.86,40c0,46.78,29.64,84.7,66.21,84.7s66.2-37.92,66.2-84.7a103.58,103.58,0,0,0-7.86-40Z"/><path class="cls-8" d="M537.62,273.2a103.55,103.55,0,0,0-40.05,7.86L338.78,339.4l158.79,58.35h0a103.58,103.58,0,0,0,40.05,7.86c46.78,0,84.7-29.64,84.7-66.21S584.4,273.2,537.62,273.2Z"/><path class="cls-8" d="M321.56,314.82,379.91,156h0a103.53,103.53,0,0,0,7.86-40c0-46.78-29.64-84.7-66.21-84.7s-66.2,37.92-66.2,84.7A103.55,103.55,0,0,0,263.22,156Z"/><line class="cls-14" x1="411.9" y1="223.55" x2="1038.69" y2="223.55"/><line class="cls-15" x1="466.44" y1="336.69" x2="1395.98" y2="336.69"/><line class="cls-2" x1="763.77" y1="46.92" x2="909.35" y2="46.92"/><line class="cls-2" x1="824.67" y1="110.67" x2="970.25" y2="110.67"/><line class="cls-2" x1="765.67" y1="172.52" x2="911.26" y2="172.52"/><path class="cls-8" d="M1650.85,264.28h0l10,4.63-4.62-10a6.78,6.78,0,0,0-1.5-2.24c-2.16-2.16-5.28-2.54-7-.85s-1.31,4.8.85,7A6.79,6.79,0,0,0,1650.85,264.28Z"/><path class="cls-8" d="M1656.59,280.8l4.63-10-10,4.63a6.75,6.75,0,0,0-2.24,1.49c-2.16,2.16-2.54,5.28-.85,7s4.8,1.3,7-.86a6.79,6.79,0,0,0,1.49-2.21Z"/><path class="cls-8" d="M1672.8,275.45h0l-10-4.63,4.62,10a6.65,6.65,0,0,0,1.5,2.23c2.16,2.16,5.27,2.54,7,.85s1.31-4.8-.85-7A6.79,6.79,0,0,0,1672.8,275.45Z"/><path class="cls-8" d="M1667.75,258.87l-4.63,10,10-4.63a6.87,6.87,0,0,0,2.23-1.49c2.16-2.16,2.54-5.28.85-7s-4.8-1.3-7,.86a6.79,6.79,0,0,0-1.49,2.21Z"/><path class="cls-8" d="M1659.6,270.14l-15.95-5.86h0a10.29,10.29,0,0,0-4-.79c-4.7,0-8.51,3-8.51,6.65s3.81,6.65,8.51,6.65a10.48,10.48,0,0,0,4-.79h0Z"/><path class="cls-8" d="M1662,271.78l-5.86,16h0a10.49,10.49,0,0,0-.79,4c0,4.7,3,8.51,6.65,8.51s6.65-3.81,6.65-8.51a10.31,10.31,0,0,0-.79-4Z"/><path class="cls-8" d="M1683.72,263.49a10.31,10.31,0,0,0-4,.79l-16,5.86,16,5.86h0a10.49,10.49,0,0,0,4,.79c4.69,0,8.5-3,8.5-6.65S1688.41,263.49,1683.72,263.49Z"/><path class="cls-8" d="M1662,267.67l5.86-16h0a10.29,10.29,0,0,0,.79-4c0-4.7-3-8.51-6.65-8.51s-6.65,3.81-6.65,8.51a10.48,10.48,0,0,0,.79,4Z"/><path class="cls-7" d="M1711.91,327.81h0l10,4.64-4.62-10a6.65,6.65,0,0,0-1.5-2.23c-2.16-2.16-5.28-2.54-7-.86s-1.31,4.81.85,7A6.61,6.61,0,0,0,1711.91,327.81Z"/><path class="cls-7" d="M1717.65,344.34l4.63-10-10,4.62a6.78,6.78,0,0,0-2.24,1.5c-2.16,2.16-2.54,5.27-.85,7s4.8,1.31,7-.85a6.79,6.79,0,0,0,1.49-2.21Z"/><path class="cls-7" d="M1733.86,339h0l-10-4.64,4.62,10a6.78,6.78,0,0,0,1.5,2.24c2.16,2.16,5.27,2.54,7,.85s1.31-4.81-.85-7A6.79,6.79,0,0,0,1733.86,339Z"/><path class="cls-7" d="M1728.81,322.4l-4.63,10,10-4.62a6.75,6.75,0,0,0,2.23-1.5c2.16-2.16,2.54-5.27.85-7s-4.8-1.31-7,.85a6.79,6.79,0,0,0-1.49,2.21Z"/><path class="cls-7" d="M1720.66,333.67l-16-5.86h0a10.48,10.48,0,0,0-4-.79c-4.7,0-8.51,3-8.51,6.65s3.81,6.65,8.51,6.65a10.29,10.29,0,0,0,4-.79h0Z"/><path class="cls-7" d="M1723.07,335.32l-5.86,15.95h0a10.48,10.48,0,0,0-.79,4c0,4.7,3,8.51,6.65,8.51s6.65-3.81,6.65-8.51a10.29,10.29,0,0,0-.79-4Z"/><path class="cls-7" d="M1744.78,327a10.49,10.49,0,0,0-4,.79l-16,5.86,16,5.86h0a10.31,10.31,0,0,0,4,.79c4.69,0,8.5-3,8.5-6.65S1749.47,327,1744.78,327Z"/><path class="cls-7" d="M1723.07,331.2l5.86-15.95h0a10.22,10.22,0,0,0,.79-4c0-4.7-3-8.51-6.65-8.51s-6.65,3.81-6.65,8.51a10.4,10.4,0,0,0,.79,4Z"/><g class="cls-16"><path class="cls-8" d="M1650.85,391.78h0l10,4.64-4.62-10a6.65,6.65,0,0,0-1.5-2.23c-2.16-2.16-5.28-2.54-7-.85s-1.31,4.8.85,7A6.61,6.61,0,0,0,1650.85,391.78Z"/><path class="cls-8" d="M1656.59,408.31l4.63-10-10,4.62a6.78,6.78,0,0,0-2.24,1.5c-2.16,2.16-2.54,5.27-.85,7s4.8,1.31,7-.85a6.79,6.79,0,0,0,1.49-2.21Z"/><path class="cls-8" d="M1672.8,403h0l-10-4.64,4.62,10a6.78,6.78,0,0,0,1.5,2.24c2.16,2.16,5.27,2.54,7,.85s1.31-4.81-.85-7A6.79,6.79,0,0,0,1672.8,403Z"/><path class="cls-8" d="M1667.75,386.37l-4.63,10,10-4.62a6.75,6.75,0,0,0,2.23-1.5c2.16-2.16,2.54-5.27.85-7s-4.8-1.31-7,.85a6.79,6.79,0,0,0-1.49,2.21Z"/><path class="cls-8" d="M1659.6,397.64l-15.95-5.86h0a10.48,10.48,0,0,0-4-.79c-4.7,0-8.51,3-8.51,6.65s3.81,6.65,8.51,6.65a10.47,10.47,0,0,0,4-.78h0Z"/><path class="cls-8" d="M1662,399.29l-5.86,15.95h0a10.48,10.48,0,0,0-.79,4c0,4.7,3,8.51,6.65,8.51s6.65-3.81,6.65-8.51a10.29,10.29,0,0,0-.79-4Z"/><path class="cls-8" d="M1683.72,391a10.49,10.49,0,0,0-4,.79l-16,5.86,16,5.87h0a10.31,10.31,0,0,0,4,.79c4.69,0,8.5-3,8.5-6.65S1688.41,391,1683.72,391Z"/><path class="cls-8" d="M1662,395.17l5.86-15.95h0a10.22,10.22,0,0,0,.79-4c0-4.7-3-8.51-6.65-8.51s-6.65,3.81-6.65,8.51a10.49,10.49,0,0,0,.79,4Z"/></g><line class="cls-1" x1="1485.04" y1="271.48" x2="1630.62" y2="271.48"/><line class="cls-1" x1="1545.94" y1="335.24" x2="1691.52" y2="335.24"/><line class="cls-1" x1="1486.94" y1="397.09" x2="1632.53" y2="397.09"/><g class="cls-17"><path class="cls-7" d="M2030.69,393.18h0l10,4.63-4.62-10a6.75,6.75,0,0,0-1.5-2.23c-2.16-2.16-5.28-2.54-7-.85s-1.31,4.8.85,7A6.79,6.79,0,0,0,2030.69,393.18Z"/><path class="cls-7" d="M2036.43,409.7l4.63-10-10,4.62a6.78,6.78,0,0,0-2.24,1.5c-2.16,2.16-2.54,5.28-.85,7s4.8,1.31,7-.85a6.79,6.79,0,0,0,1.49-2.21Z"/><path class="cls-7" d="M2052.64,404.35h0l-10-4.63,4.62,10a6.78,6.78,0,0,0,1.5,2.24c2.16,2.16,5.27,2.54,7,.85s1.31-4.8-.85-7A6.79,6.79,0,0,0,2052.64,404.35Z"/><path class="cls-7" d="M2047.59,387.77l-4.63,10,10-4.63a6.87,6.87,0,0,0,2.23-1.49c2.16-2.16,2.54-5.28.85-7s-4.8-1.3-7,.85a6.73,6.73,0,0,0-1.49,2.22Z"/><path class="cls-7" d="M2039.44,399l-16-5.86h0a10.29,10.29,0,0,0-4-.79c-4.7,0-8.51,3-8.51,6.65s3.81,6.65,8.51,6.65a10.48,10.48,0,0,0,4-.79h0Z"/><path class="cls-7" d="M2041.85,400.68,2036,416.63h0a10.49,10.49,0,0,0-.79,4c0,4.69,3,8.5,6.65,8.5s6.65-3.81,6.65-8.5a10.31,10.31,0,0,0-.79-4Z"/><path class="cls-7" d="M2063.56,392.39a10.31,10.31,0,0,0-4,.79l-16,5.86,16,5.86h0a10.49,10.49,0,0,0,4,.79c4.69,0,8.5-3,8.5-6.65S2068.25,392.39,2063.56,392.39Z"/><path class="cls-7" d="M2041.85,396.57l5.86-15.95h0a10.31,10.31,0,0,0,.79-4c0-4.7-3-8.5-6.65-8.5s-6.65,3.8-6.65,8.5a10.49,10.49,0,0,0,.79,4Z"/></g><path class="cls-8" d="M2091.75,456.71h0l10,4.64-4.62-10a6.65,6.65,0,0,0-1.5-2.23c-2.16-2.16-5.28-2.55-7-.86s-1.31,4.81.85,7A6.76,6.76,0,0,0,2091.75,456.71Z"/><path class="cls-8" d="M2097.49,473.24l4.63-10-10,4.63a6.78,6.78,0,0,0-2.24,1.5c-2.16,2.15-2.54,5.27-.85,7s4.8,1.3,7-.85a6.79,6.79,0,0,0,1.49-2.21Z"/><path class="cls-8" d="M2113.7,467.89h0l-10-4.64,4.62,10a6.65,6.65,0,0,0,1.5,2.23c2.16,2.16,5.27,2.55,7,.86s1.31-4.81-.85-7A6.76,6.76,0,0,0,2113.7,467.89Z"/><path class="cls-8" d="M2108.65,451.3l-4.63,10,10-4.62a6.75,6.75,0,0,0,2.23-1.5c2.16-2.16,2.54-5.28.85-7s-4.8-1.31-7,.85a6.79,6.79,0,0,0-1.49,2.21Z"/><path class="cls-8" d="M2100.5,462.57l-15.95-5.86h0a10.48,10.48,0,0,0-4-.79c-4.7,0-8.51,3-8.51,6.65s3.81,6.65,8.51,6.65a10.29,10.29,0,0,0,4-.79h0Z"/><path class="cls-8" d="M2102.91,464.22l-5.86,15.95h0a10.48,10.48,0,0,0-.79,4c0,4.7,3,8.51,6.65,8.51s6.65-3.81,6.65-8.51a10.29,10.29,0,0,0-.79-4Z"/><path class="cls-8" d="M2124.62,455.92a10.49,10.49,0,0,0-4,.79l-16,5.86,16,5.86h0a10.31,10.31,0,0,0,4,.79c4.69,0,8.5-3,8.5-6.65S2129.31,455.92,2124.62,455.92Z"/><path class="cls-8" d="M2102.91,460.1l5.86-16h0a10.29,10.29,0,0,0,.79-4c0-4.7-3-8.51-6.65-8.51s-6.65,3.81-6.65,8.51a10.48,10.48,0,0,0,.79,4Z"/><g class="cls-16"><path class="cls-8" d="M2030.69,520.68h0l10,4.64-4.62-10a6.65,6.65,0,0,0-1.5-2.23c-2.16-2.16-5.28-2.54-7-.86s-1.31,4.81.85,7A6.76,6.76,0,0,0,2030.69,520.68Z"/><path class="cls-8" d="M2036.43,537.21l4.63-10-10,4.62a6.78,6.78,0,0,0-2.24,1.5c-2.16,2.15-2.54,5.27-.85,7s4.8,1.31,7-.85a6.79,6.79,0,0,0,1.49-2.21Z"/><path class="cls-8" d="M2052.64,531.86h0l-10-4.64,4.62,10a6.78,6.78,0,0,0,1.5,2.24c2.16,2.15,5.27,2.54,7,.85s1.31-4.81-.85-7A6.92,6.92,0,0,0,2052.64,531.86Z"/><path class="cls-8" d="M2047.59,515.27l-4.63,10,10-4.62a6.75,6.75,0,0,0,2.23-1.5c2.16-2.16,2.54-5.28.85-7s-4.8-1.31-7,.85a6.79,6.79,0,0,0-1.49,2.21Z"/><path class="cls-8" d="M2039.44,526.54l-16-5.86h0a10.48,10.48,0,0,0-4-.79c-4.7,0-8.51,3-8.51,6.65s3.81,6.65,8.51,6.65a10.29,10.29,0,0,0,4-.79h0Z"/><path class="cls-8" d="M2041.85,528.19,2036,544.14h0a10.48,10.48,0,0,0-.79,4c0,4.7,3,8.51,6.65,8.51s6.65-3.81,6.65-8.51a10.29,10.29,0,0,0-.79-4Z"/><path class="cls-8" d="M2063.56,519.89a10.49,10.49,0,0,0-4,.79l-16,5.86,16,5.86h0a10.31,10.31,0,0,0,4,.79c4.69,0,8.5-3,8.5-6.65S2068.25,519.89,2063.56,519.89Z"/><path class="cls-8" d="M2041.85,524.07l5.86-16h0a10.29,10.29,0,0,0,.79-4c0-4.7-3-8.51-6.65-8.51s-6.65,3.81-6.65,8.51a10.4,10.4,0,0,0,.79,4Z"/></g><line class="cls-1" x1="1864.88" y1="400.38" x2="2010.46" y2="400.38"/><line class="cls-1" x1="1925.78" y1="464.13" x2="2071.36" y2="464.13"/><line class="cls-1" x1="1866.78" y1="525.98" x2="2012.37" y2="525.98"/><path class="cls-3" d="M2379.65,536.4h0l10,4.64-4.62-10a6.78,6.78,0,0,0-1.5-2.24c-2.16-2.15-5.28-2.54-7-.85s-1.31,4.81.85,7A6.92,6.92,0,0,0,2379.65,536.4Z"/><path class="cls-3" d="M2385.39,552.92l4.64-10-10,4.63a6.91,6.91,0,0,0-2.24,1.49c-2.16,2.16-2.54,5.28-.85,7s4.81,1.3,7-.86a6.59,6.59,0,0,0,1.49-2.21Z"/><path class="cls-3" d="M2401.6,547.58h0l-10-4.64,4.62,10a6.65,6.65,0,0,0,1.5,2.23c2.16,2.16,5.28,2.54,7,.86s1.31-4.81-.85-7A6.76,6.76,0,0,0,2401.6,547.58Z"/><path class="cls-3" d="M2396.55,531l-4.63,10,10-4.63a6.71,6.71,0,0,0,2.23-1.49c2.16-2.16,2.54-5.28.85-7s-4.8-1.31-7,.85a6.79,6.79,0,0,0-1.49,2.21Z"/><path class="cls-3" d="M2388.4,542.26l-16-5.86h0a10.48,10.48,0,0,0-4-.79c-4.7,0-8.51,3-8.51,6.65s3.81,6.65,8.51,6.65a10.48,10.48,0,0,0,4-.79h0Z"/><path class="cls-3" d="M2390.81,543.91l-5.86,16h0a10.4,10.4,0,0,0-.79,4c0,4.7,3,8.51,6.65,8.51s6.65-3.81,6.65-8.51a10.22,10.22,0,0,0-.79-4Z"/><path class="cls-3" d="M2412.52,535.61a10.49,10.49,0,0,0-4,.79l-15.95,5.86,15.95,5.86h0a10.49,10.49,0,0,0,4,.79c4.7,0,8.5-3,8.5-6.65S2417.22,535.61,2412.52,535.61Z"/><path class="cls-3" d="M2390.81,539.79l5.86-15.95h0a10.29,10.29,0,0,0,.79-4c0-4.7-3-8.51-6.65-8.51s-6.65,3.81-6.65,8.51a10.48,10.48,0,0,0,.79,4Z"/><path class="cls-7" d="M2440.75,599.84l10.2,4.27-.68.68-3.56-7.17-.89-1.79-.45-.89a5.82,5.82,0,0,0-.42-.79,6,6,0,0,0-2.59-2.22,4.24,4.24,0,0,0-3.08-.28,2.63,2.63,0,0,0-1.78,2.13,5.16,5.16,0,0,0,.65,3.33A7.22,7.22,0,0,0,2440.75,599.84Zm-.08.19a6.61,6.61,0,0,1-3.49-2.26,6,6,0,0,1-1.42-4.2,4.6,4.6,0,0,1,.81-2.32,4.44,4.44,0,0,1,2-1.54,5.78,5.78,0,0,1,4.66.44,8,8,0,0,1,3.17,3.14,6.36,6.36,0,0,1,.46,1l.39.91.79,1.83,3.14,7.33.56,1.3-1.23-.63Z"/><path class="cls-7" d="M2446.43,616.36c.77-1.62,1.53-3.34,2.2-5.08s1.31-3.42,2-5l.68.67-7.16,3.56-1.8.89-.89.45a6.49,6.49,0,0,0-.79.42,6,6,0,0,0-2.22,2.59,4.29,4.29,0,0,0-.28,3.08,2.79,2.79,0,0,0,2.13,1.83,5,5,0,0,0,3.45-.53,5.91,5.91,0,0,0,1.53-1.15,5,5,0,0,0,.61-.76c.09-.14.18-.28.26-.42l.11-.22.05-.11,0,0v0h0S2446.28,616.48,2446.43,616.36Zm0,.2.07-.06h0v0l0,.06-.05.11-.1.24c-.07.15-.15.3-.23.45a9.71,9.71,0,0,1-.54.87,9.18,9.18,0,0,1-1.41,1.52,6.15,6.15,0,0,1-4.08,1.55,4.36,4.36,0,0,1-2.32-.76,4.3,4.3,0,0,1-1.54-2,5.74,5.74,0,0,1,.43-4.66,8,8,0,0,1,3.14-3.17,6.8,6.8,0,0,1,1-.46l.92-.39,1.83-.79,7.32-3.14,1.3-.56-.62,1.23c-.87,1.71-1.77,3.37-2.65,5S2447.25,614.84,2446.47,616.56Z"/><path class="cls-7" d="M2462.56,611.13l.05.07h0l0,0-.08,0-.16-.07-.32-.13-.64-.27-1.27-.53-2.55-1.07-5.1-2.13.68-.68,3.56,7.17.89,1.79.45.89a5.82,5.82,0,0,0,.42.79,6,6,0,0,0,2.59,2.22,4.24,4.24,0,0,0,3.08.28,2.63,2.63,0,0,0,1.78-2.13,5.16,5.16,0,0,0-.65-3.33,8,8,0,0,0-1.09-1.52,7.3,7.3,0,0,0-.71-.65l-.39-.29C2462.9,611.36,2462.78,611.34,2462.56,611.13Zm.2,0c.09-.08.27,0,.43.07a4.14,4.14,0,0,1,.49.19,7.51,7.51,0,0,1,.92.5,7,7,0,0,1,1.59,1.43,6,6,0,0,1,1.42,4.19,4.64,4.64,0,0,1-.81,2.33,4.35,4.35,0,0,1-2,1.53,5.74,5.74,0,0,1-4.66-.43,8,8,0,0,1-3.17-3.14,6.36,6.36,0,0,1-.46-1l-.39-.91-.79-1.83-3.14-7.33-.56-1.3,1.23.63,4.93,2.5,2.46,1.25,1.23.63.62.31.3.15.16.08.07,0,0,0h0Z"/><path class="cls-7" d="M2457.63,594.62c-.77,1.63-1.53,3.35-2.2,5.09s-1.31,3.41-2,5l-.68-.67,7.17-3.56,1.79-.89.89-.45a5.82,5.82,0,0,0,.79-.42,6.1,6.1,0,0,0,2.22-2.59,4.24,4.24,0,0,0,.28-3.08,2.78,2.78,0,0,0-2.12-1.84,5.05,5.05,0,0,0-3.46.53,5.73,5.73,0,0,0-1.53,1.16,5,5,0,0,0-.61.76,4.23,4.23,0,0,0-.25.42l-.12.21,0,.11,0,.06v0h0Zm0-.19c-.16.12,0,0-.08.05h0v0l0-.06.05-.12.1-.23c.07-.16.15-.31.23-.46s.35-.58.55-.86a8.48,8.48,0,0,1,1.41-1.53,6.1,6.1,0,0,1,4.07-1.55,4.37,4.37,0,0,1,2.32.77,4.31,4.31,0,0,1,1.55,2,5.77,5.77,0,0,1-.44,4.66,8,8,0,0,1-3.14,3.18,7.42,7.42,0,0,1-1,.46l-.91.39-1.83.78-7.33,3.15-1.3.56.63-1.24c.86-1.7,1.76-3.37,2.64-5S2456.82,596.14,2457.6,594.43Z"/><path class="cls-7" d="M2449.36,605.8c-2.73-1-5.45-1.88-8.13-2.76l-7.9-2.63.69-.47h0v.74l-.71-.28a10,10,0,0,0-7.4.07,7.56,7.56,0,0,0-3,2.12,5.84,5.84,0,0,0-.88,1.52,4.93,4.93,0,0,0-.29,1.69,5.19,5.19,0,0,0,.36,1.65,5.85,5.85,0,0,0,.94,1.44,7.29,7.29,0,0,0,3,1.93,10.37,10.37,0,0,0,7.09-.09l1.39.93-1.35-.95c2.54-.87,5.05-1.64,7.74-2.39,1.35-.37,2.73-.76,4.12-1.18S2447.87,606.27,2449.36,605.8Zm.2,0c-1.17.49-2.42,1-3.64,1.59l-3.85,1.74c-2.63,1.21-5.43,2.39-8.21,3.47l-1.35-.94,1.39.92a11.39,11.39,0,0,1-4.3.91,11.79,11.79,0,0,1-4.3-.84,9.26,9.26,0,0,1-3.58-2.6,7.38,7.38,0,0,1-1.15-2,6.77,6.77,0,0,1-.39-2.27,6.6,6.6,0,0,1,.47-2.25,7.33,7.33,0,0,1,1.19-1.9,8.92,8.92,0,0,1,3.59-2.4,11.18,11.18,0,0,1,8.28.22l-.71.47h0v-.75l.68.27c2.72,1.06,5.41,2.16,8.06,3.23S2447,604.81,2449.56,605.8Z"/><path class="cls-7" d="M2451.87,607.54c-1,2.73-1.87,5.45-2.75,8.13l-2.63,7.9-.48-.69h.75l-.28.71a10,10,0,0,0-.45,5.71,8,8,0,0,0,2.81,4.77,5,5,0,0,0,2.43,1,4.5,4.5,0,0,0,2.52-.46,6.86,6.86,0,0,0,3.24-4.14,9.69,9.69,0,0,0,.45-2.73,10.12,10.12,0,0,0-.27-2.75c-.57-1.76-1.23-3.64-1.78-5.49C2454.3,615.81,2453.29,611.8,2451.87,607.54Zm0-.2c1.42,3.44,3.22,7.11,4.92,11.08l1.24,3c.2.5.41,1,.6,1.5a12.22,12.22,0,0,1,.55,1.58,11.28,11.28,0,0,1-.27,6.63,8.62,8.62,0,0,1-4.4,5,6.3,6.3,0,0,1-3.46.47,6.58,6.58,0,0,1-3.12-1.43,9.32,9.32,0,0,1-3.12-5.69,11.15,11.15,0,0,1,.73-6.33l.47.7h-.74l.27-.68c1.06-2.71,2.15-5.41,3.23-8.05S2450.88,609.93,2451.87,607.34Z"/><path class="cls-7" d="M2473.58,599.25a9.89,9.89,0,0,0-2.6.3,22.71,22.71,0,0,0-2.46.9q-2.46,1-4.9,2c-3.25,1.35-6.53,2.64-9.82,3.9v-1.09l16.07,5.55-1.23.86v-1.34l1.27.49a9.85,9.85,0,0,0,6.23.24,7.13,7.13,0,0,0,4.7-3.59,4.92,4.92,0,0,0,.37-2.9,5.56,5.56,0,0,0-1.49-2.77A8.7,8.7,0,0,0,2473.58,599.25Zm0-.2a10.73,10.73,0,0,1,6.74,2.08,6.89,6.89,0,0,1,2.24,3.06,5.92,5.92,0,0,1,0,4,7.24,7.24,0,0,1-2.37,3.18,10.05,10.05,0,0,1-3.46,1.73,11.37,11.37,0,0,1-7.5-.56l1.27-.84V613l-1.23-.48-15.84-6.18-1.48-.57,1.48-.52c3.32-1.16,6.65-2.3,10-3.38,1.68-.53,3.35-1.09,5-1.65.84-.26,1.64-.63,2.51-.84A11.16,11.16,0,0,1,2473.58,599.05Z"/><path class="cls-7" d="M2451.87,603.23c1-2.73,1.88-5.46,2.76-8.13l2.63-7.9.47.68H2457l.29-.7a10.06,10.06,0,0,0,.45-5.72,8,8,0,0,0-2.81-4.77,5,5,0,0,0-2.43-1,4.4,4.4,0,0,0-2.52.46,6.8,6.8,0,0,0-3.24,4.14,9.35,9.35,0,0,0-.45,2.73,10.12,10.12,0,0,0,.27,2.75c.57,1.76,1.23,3.64,1.78,5.48C2449.44,595,2450.46,599,2451.87,603.23Zm0,.2c-1.41-3.44-3.22-7.11-4.92-11.08l-1.23-3c-.21-.5-.42-1-.6-1.51a12.08,12.08,0,0,1-.55-1.57,11.28,11.28,0,0,1,.27-6.63,8.59,8.59,0,0,1,4.4-5,6.21,6.21,0,0,1,3.46-.47,6.58,6.58,0,0,1,3.12,1.43,9.32,9.32,0,0,1,3.12,5.68,11.1,11.1,0,0,1-.74,6.34l-.47-.7h.75l-.27.68c-1.06,2.71-2.16,5.41-3.23,8.05S2452.86,600.84,2451.87,603.43Z"/><path class="cls-7" d="M2378.29,664.4l10,4.64a2.47,2.47,0,0,0,1.67-.1c.2-.07,1.31-.43,1.14-.79l-4-8.75c-.19-.4-.38-.81-.56-1.21a7.49,7.49,0,0,0-2.85-3.37,6.82,6.82,0,0,0-4.32-1,6.4,6.4,0,0,0-4.5,2.23c-2.2,3,.54,7.08,3.45,8.32a2.61,2.61,0,0,0,1.86-.16c.12,0,1.33-.63.87-.83-2.48-1.06-4.81-4-3.84-6.86a3,3,0,0,1,1-1.42l.29-.17c-.32.13,0,0,.18,0a5.75,5.75,0,0,1,3.58,1.8,12.46,12.46,0,0,1,2.18,3.8l2.27,4.89,1.58,3.43,2.82-.88-10-4.64a2.64,2.64,0,0,0-1.87.16C2379,663.62,2377.83,664.19,2378.29,664.4Z"/><path class="cls-7" d="M2386.78,680.6l4.63-10c.57-1.24-1.32-1.36-2-1l-8.75,4.05-1.23.57a8.87,8.87,0,0,0-3.89,3.28c-1.63,2.56-1.53,6.24,1.5,7.68,3.71,1.75,8.29-1.07,9.77-4.53l-2.51.67h0c1,.85,3.5-.57,2.24-1.68h0a1.86,1.86,0,0,0-2.51.67,5.42,5.42,0,0,1-2.84,3,3.64,3.64,0,0,1-1.26.26,2.34,2.34,0,0,1-1.35-.42c-2.16-1.47-1.05-4.68.5-6.14a12.5,12.5,0,0,1,3.39-1.84l4.91-2.28,3.32-1.53-2-1-4.64,10c-.3.65.28,1.15.89,1.23A1.9,1.9,0,0,0,2386.78,680.6Z"/><path class="cls-7" d="M2402.78,675.41h0a.65.65,0,0,0-.05-1.09l-10-4.63a2.08,2.08,0,0,0-1.74,0c-.33.15-1.06.63-.84,1.1l4,8.75.57,1.23a8.09,8.09,0,0,0,2.9,3.52c2.68,1.76,6.87,1.63,8.79-1.21,2.18-3.24-.6-7.48-3.71-8.81a2.2,2.2,0,0,0-2.06.23c-.38.26-.88,1-.21,1.29,2.32,1,4.64,3.9,3.55,6.55a2.14,2.14,0,0,1-.9,1.1l-.1,0c-.41.18.21,0-.23.07a2.08,2.08,0,0,1-.55,0,5.12,5.12,0,0,1-3.36-1.74,13.3,13.3,0,0,1-2-3.62l-2.24-4.86-1.56-3.37-2.59,1.15,10,4.63-.05-1.08h0a.67.67,0,0,0,.32,1.19A2.29,2.29,0,0,0,2402.78,675.41Z"/><path class="cls-7" d="M2395.11,658.71l-4.63,10c-.37.79,1.77.37,2,.27l8.84-4.09c1.93-.89,3.85-1.78,5.08-3.64,1.57-2.38,1.68-6-1.4-7.26a7.43,7.43,0,0,0-5.55.43,8.3,8.3,0,0,0-4.32,4.27l2.8-.75h0c-.6-.65-3.34.39-2.71,1.07h0c.31.34,1.15.17,1.52.07a1.85,1.85,0,0,0,1.27-.82,5.62,5.62,0,0,1,2.87-3,2,2,0,0,1,1-.15,2.79,2.79,0,0,1,1.53.64c2.12,1.75,1.11,5-.59,6.68a11.57,11.57,0,0,1-3.26,1.82l-4.87,2.25-3.32,1.53,2,.27,4.63-10c.26-.56-1-.51-1.21-.47A2.17,2.17,0,0,0,2395.11,658.71Z"/><path class="cls-7" d="M2389.56,669.1l-15.95-5.86c-.71-.26-2.61,0-2.61,1h0l2.61-1a13,13,0,0,0-10,.26c-2.56,1.14-5,3.34-5.1,6.32s1.89,5.11,4.33,6.28a12.84,12.84,0,0,0,10.19,0l-2-.13h0c0,.7,1.79.21,2,.13l15.95-5.86c.42-.15,1.12-.56.8-1.07s-1.54-.11-1.9,0l-15.95,5.86,2,.14h0c0-.7-1.79-.22-2-.14-4,1.57-10.1-.47-10.51-5.27a5.45,5.45,0,0,1,2.72-5,8.09,8.09,0,0,1,7.18-.3c.71.28,2.61-.06,2.61-1.05h0l-2.61,1.05,15.95,5.86a2.5,2.5,0,0,0,2-.3C2389.61,669.94,2390.22,669.34,2389.56,669.1Z"/><path class="cls-7" d="M2389.39,671.68l-5.86,16c-.1.28.3.29.47.29h0l-.47-.29c-1.64,4.14-.79,10.27,3.73,12.27,3.85,1.71,8.76-.56,10.57-4.18,1.63-3.23,1.1-6.56-.09-9.8l-3-8.09-2.5-6.81c-.23-.62-3.08.28-2.9.78l4.53,12.33a46.87,46.87,0,0,1,1.83,5.14,10.3,10.3,0,0,1-.66,6.83c-.72,1.49-2.08,3.48-3.95,3.18-5.29-.86-6.34-8.12-4.73-12.18.11-.28-.31-.29-.48-.29h0l.48.29,5.86-16C2392.4,670.72,2389.65,671,2389.39,671.68Z"/><path class="cls-7" d="M2413.08,662.29c-4,.08-7.93,2-11.62,3.39l-9.49,3.49c-.35.13-1.45,1-.58,1.3l16,5.86c.58.21,2.6.06,2.6-.88h0l-2.6.88c4.89,1.94,12.52.75,14.72-4.7a6.06,6.06,0,0,0-1.46-6.5,10.77,10.77,0,0,0-7.52-2.84c-.58,0-1.63.2-1.91.79s.24.85.78.86c3.65.07,8.29,2.63,7.55,6.91-.78,4.5-6.22,5.51-9.85,4.07-.58-.22-2.61,0-2.61.89h0l2.61-.88-16-5.87-.58,1.31,8.79-3.24,5.48-2a13.9,13.9,0,0,1,4.56-1.18c.59,0,1.62-.19,1.92-.79S2413.63,662.28,2413.08,662.29Z"/><path class="cls-7" d="M2392.25,667.06l5.86-15.95c.16-.43-.62-.42-.83-.42h0l.83.42c1.66-4.19.74-10.2-3.71-12.32-3.92-1.87-8.76.48-10.61,4.16-1.63,3.24-1.09,6.59.1,9.84l3,8.09,2.51,6.81c.28.78,3.15-.09,2.89-.78l-4.53-12.33a49,49,0,0,1-1.82-5.14,10.22,10.22,0,0,1,.67-6.8c.7-1.46,2.08-3.36,3.92-3.14,2.24.27,3.93,2.27,4.75,4.24a10.47,10.47,0,0,1,0,7.84c-.17.43.63.42.83.42h0l-.83-.42-5.86,15.95C2389.14,668.19,2392,667.87,2392.25,667.06Z"/><line class="cls-1" x1="2274.74" y1="607.36" x2="2420.32" y2="607.36"/><path class="cls-7" d="M735.46,93.44h0l25,11.57-11.55-25a17.08,17.08,0,0,0-3.73-5.58c-5.39-5.39-13.18-6.34-17.39-2.13s-3.26,12,2.13,17.39A16.94,16.94,0,0,0,735.46,93.44Z"/><path class="cls-7" d="M749.79,134.7l11.57-25-25,11.54a16.85,16.85,0,0,0-5.58,3.74c-5.39,5.39-6.35,13.18-2.13,17.39s12,3.26,17.39-2.13a16.94,16.94,0,0,0,3.71-5.52Z"/><path class="cls-7" d="M790.26,121.35h0l-25-11.57,11.55,25a16.57,16.57,0,0,0,3.73,5.58c5.39,5.39,13.18,6.35,17.39,2.13s3.26-12-2.13-17.39A16.75,16.75,0,0,0,790.26,121.35Z"/><path class="cls-7" d="M777.66,79.93l-11.57,25,25-11.55a16.94,16.94,0,0,0,5.57-3.73c5.39-5.39,6.34-13.18,2.13-17.39s-12-3.26-17.39,2.13a16.94,16.94,0,0,0-3.71,5.52Z"/><path class="cls-8" d="M757.3,108.07,717.47,93.44h0a25.9,25.9,0,0,0-10-2c-11.73,0-21.24,7.43-21.24,16.6s9.51,16.61,21.24,16.61a26.08,26.08,0,0,0,10-2h0Z"/><path class="cls-8" d="M763.33,112.18,748.7,152h0a25.91,25.91,0,0,0-2,10.05c0,11.73,7.43,21.24,16.6,21.24s16.61-9.51,16.61-21.24A26.1,26.1,0,0,0,778,152Z"/><path class="cls-8" d="M817.52,91.46a25.9,25.9,0,0,0-10,2l-39.83,14.63,39.83,14.64h0a25.9,25.9,0,0,0,10,2c11.74,0,21.25-7.44,21.25-16.61S829.26,91.46,817.52,91.46Z"/><path class="cls-8" d="M763.33,101.9,778,62.08h0a26.17,26.17,0,0,0,2-10c0-11.73-7.44-21.24-16.61-21.24S746.72,40.3,746.72,52a25.92,25.92,0,0,0,2,10Z"/><line class="cls-14" x1="1132.44" y1="167.71" x2="1290.92" y2="167.71"/><line class="cls-14" x1="1192.39" y1="224.8" x2="1350.87" y2="224.8"/><line class="cls-14" x1="1129.59" y1="291.41" x2="1288.07" y2="291.41"/><path class="cls-8" d="M1445.25,321.17h0l25,11.57-11.55-25a16.57,16.57,0,0,0-3.73-5.58c-5.39-5.39-13.18-6.35-17.39-2.13s-3.26,12,2.13,17.39A16.94,16.94,0,0,0,1445.25,321.17Z"/><path class="cls-8" d="M1459.58,362.43l11.58-25-25,11.55a17,17,0,0,0-5.58,3.74c-5.39,5.39-6.34,13.17-2.13,17.39s12,3.26,17.39-2.13a16.87,16.87,0,0,0,3.71-5.53Z"/><path class="cls-8" d="M1500.05,349.07h0l-25-11.57,11.55,25a17,17,0,0,0,3.73,5.58c5.39,5.39,13.18,6.35,17.39,2.13s3.26-12-2.13-17.39A16.94,16.94,0,0,0,1500.05,349.07Z"/><path class="cls-8" d="M1487.45,307.66l-11.57,25,25-11.55a16.82,16.82,0,0,0,5.57-3.74c5.39-5.39,6.35-13.17,2.13-17.39s-12-3.26-17.39,2.13a16.87,16.87,0,0,0-3.71,5.53Z"/><path class="cls-8" d="M1467.1,335.8l-39.83-14.64h0a26.1,26.1,0,0,0-10-2c-11.73,0-21.24,7.44-21.24,16.61s9.51,16.6,21.24,16.6a25.91,25.91,0,0,0,10-2h0Z"/><path class="cls-8" d="M1473.12,339.91l-14.63,39.83h0a25.9,25.9,0,0,0-2,10c0,11.74,7.43,21.25,16.6,21.25s16.61-9.51,16.61-21.25a25.9,25.9,0,0,0-2-10Z"/><path class="cls-8" d="M1527.32,319.19a26.1,26.1,0,0,0-10,2l-39.83,14.64,39.83,14.63h0a25.91,25.91,0,0,0,10,2c11.73,0,21.24-7.43,21.24-16.6S1539.05,319.19,1527.32,319.19Z"/><path class="cls-8" d="M1473.12,329.63l14.64-39.83h0a25.9,25.9,0,0,0,2-10c0-11.73-7.43-21.25-16.61-21.25s-16.6,9.52-16.6,21.25a26,26,0,0,0,2,10.05Z"/><path class="cls-7" d="M1827.23,447.85h0l25,11.58-11.55-25a17.08,17.08,0,0,0-3.73-5.58c-5.39-5.39-13.18-6.34-17.39-2.13s-3.26,12,2.13,17.39A16.94,16.94,0,0,0,1827.23,447.85Z"/><path class="cls-7" d="M1841.56,489.11l11.57-25-25,11.55a16.67,16.67,0,0,0-5.58,3.73c-5.39,5.39-6.35,13.18-2.13,17.39s12,3.26,17.39-2.13a16.94,16.94,0,0,0,3.71-5.52Z"/><path class="cls-7" d="M1882,475.76h0l-25-11.58,11.55,25a16.77,16.77,0,0,0,3.73,5.58c5.39,5.39,13.18,6.34,17.39,2.13s3.26-12-2.13-17.39A16.78,16.78,0,0,0,1882,475.76Z"/><path class="cls-7" d="M1869.43,434.34l-11.57,25,25-11.55a16.94,16.94,0,0,0,5.57-3.73c5.39-5.39,6.34-13.18,2.13-17.39s-12-3.26-17.39,2.13a16.94,16.94,0,0,0-3.71,5.52Z"/><path class="cls-7" d="M1849.07,462.48l-39.83-14.63h0a25.9,25.9,0,0,0-10-2c-11.73,0-21.24,7.43-21.24,16.6s9.51,16.61,21.24,16.61a26.08,26.08,0,0,0,10-2h0Z"/><path class="cls-7" d="M1855.1,466.59l-14.63,39.83h0a25.91,25.91,0,0,0-2,10.05c0,11.73,7.43,21.24,16.6,21.24s16.61-9.51,16.61-21.24a25.92,25.92,0,0,0-2-10.05Z"/><path class="cls-7" d="M1909.29,445.88a25.9,25.9,0,0,0-10,2l-39.83,14.63,39.83,14.64h0a26.08,26.08,0,0,0,10,2c11.73,0,21.25-7.44,21.25-16.61S1921,445.88,1909.29,445.88Z"/><path class="cls-7" d="M1855.1,456.32l14.64-39.83h0a25.92,25.92,0,0,0,2-10.05c0-11.73-7.44-21.24-16.61-21.24s-16.61,9.51-16.61,21.24a25.92,25.92,0,0,0,2,10.05Z"/><path class="cls-3" d="M2174.5,590.6h0l25,11.57-11.55-25a17,17,0,0,0-3.74-5.58c-5.39-5.39-13.17-6.34-17.39-2.13s-3.26,12,2.14,17.39A16.84,16.84,0,0,0,2174.5,590.6Z"/><path class="cls-3" d="M2188.83,631.86l11.57-25-25,11.54a16.75,16.75,0,0,0-5.58,3.74c-5.39,5.39-6.35,13.17-2.13,17.39s12,3.26,17.39-2.13a16.75,16.75,0,0,0,3.7-5.52Z"/><path class="cls-3" d="M2229.3,618.5h0l-25-11.57,11.55,25a16.57,16.57,0,0,0,3.73,5.58c5.39,5.39,13.18,6.35,17.39,2.13s3.26-12-2.13-17.39A16.94,16.94,0,0,0,2229.3,618.5Z"/><path class="cls-3" d="M2216.7,577.09l-11.58,25,25-11.55a17,17,0,0,0,5.57-3.73c5.39-5.4,6.34-13.18,2.13-17.39s-12-3.26-17.39,2.13a16.94,16.94,0,0,0-3.71,5.52Z"/><path class="cls-3" d="M2196.34,605.23l-39.83-14.64h0a25.9,25.9,0,0,0-10-2c-11.74,0-21.25,7.44-21.25,16.61s9.51,16.61,21.25,16.61a25.9,25.9,0,0,0,10-2h0Z"/><path class="cls-3" d="M2202.37,609.34l-14.64,39.83h0a25.9,25.9,0,0,0-2,10c0,11.74,7.44,21.25,16.61,21.25S2219,671,2219,659.21a25.9,25.9,0,0,0-2-10Z"/><path class="cls-3" d="M2256.56,588.62a26,26,0,0,0-10,2l-39.82,14.63,39.83,14.63h0a25.9,25.9,0,0,0,10,2c11.73,0,21.24-7.44,21.24-16.61S2268.29,588.62,2256.56,588.62Z"/><path class="cls-3" d="M2202.37,599.06,2217,559.23h0a25.9,25.9,0,0,0,2-10c0-11.73-7.44-21.24-16.61-21.24s-16.61,9.51-16.61,21.24a26,26,0,0,0,2,10Z"/></g></svg>