<svg xmlns="http://www.w3.org/2000/svg" width="292.095" height="291.963" viewBox="0 0 292.095 291.963"><defs><style>.a{fill:#7fd3f8;}.b{fill:#167394;}</style></defs><g transform="translate(478.812 -2317.592)"><ellipse class="a" cx="40.668" cy="31.79" rx="40.668" ry="31.79" transform="translate(-478.812 2433.752)"/><path class="a" d="M-391.92,2547.607l76.245-28.016-76.245-28.016" transform="translate(-26.994 -54.05)"/><ellipse class="a" cx="31.79" cy="40.668" rx="31.79" ry="40.668" transform="translate(-362.917 2528.219)"/><path class="a" d="M-249.181,2619.88l-28.016-76.245-28.016,76.245" transform="translate(-53.931 -70.223)"/><ellipse class="a" cx="40.668" cy="31.79" rx="40.668" ry="31.79" transform="translate(-268.052 2433.751)"/><path class="a" d="M-176.332,2491.576l-76.245,28.016,76.245,28.016" transform="translate(-70.283 -54.05)"/><ellipse class="a" cx="31.79" cy="40.668" rx="31.79" ry="40.668" transform="translate(-362.918 2317.592)"/><path class="a" d="M-305.212,2404.484l28.016,76.245,28.016-76.245" transform="translate(-53.931 -26.994)"/><ellipse class="b" cx="20.656" cy="26.425" rx="20.656" ry="26.425" transform="translate(-413.741 2411.746) rotate(-45)"/><path class="b" d="M-341.977,2479.983l47.9,22.159-22.159-47.9" transform="translate(-42.51 -42.451)"/><ellipse class="b" cx="26.425" cy="20.656" rx="26.425" ry="20.656" transform="translate(-412.054 2516.557) rotate(-45)"/><path class="b" d="M-313.786,2584.574l22.159-47.9-47.9,22.159" transform="translate(-43.27 -68.059)"/><ellipse class="b" cx="20.656" cy="26.425" rx="20.656" ry="26.425" transform="translate(-316.905 2508.581) rotate(-45)"/><path class="b" d="M-211.377,2559.094l-47.9-22.159,22.159,47.9" transform="translate(-68.2 -68.142)"/><ellipse class="b" cx="26.425" cy="20.656" rx="26.425" ry="20.656" transform="translate(-315.28 2419.782) rotate(-45)"/><path class="b" d="M-234.763,2454.063l-22.159,47.9,47.9-22.159" transform="translate(-68.933 -42.396)"/></g></svg>