<svg width="114" height="92" viewBox="0 0 114 92" fill="none" xmlns="http://www.w3.org/2000/svg">
<path d="M35.0224 28.651H52.9124V21.6833H35.0224C24.665 21.6833 16.1908 30.7225 16.1908 41.8331V77.6759L5.51958 66.1886L1 71.0848L19.4549 90.9208L37.9099 71.0848L33.3903 66.1886L22.7191 77.6759V41.8959C22.7191 34.5516 28.243 28.651 35.0224 28.651Z" stroke="#00D2D9" stroke-miterlimit="10"/>
<path d="M3.00885 71.0848L5.51972 68.3856L17.6975 81.4422V41.8958C17.6975 31.6013 25.4812 23.1898 35.0225 23.1898H51.406V27.2072H35.0225C27.4271 27.2072 21.2127 33.7983 21.2127 41.8958V81.5049L33.3905 68.4484L35.9013 71.1476L19.4551 88.7865L3.00885 71.0848Z" stroke="#00D2D9" stroke-miterlimit="10"/>
<path d="M112.546 43.5907L94.0909 23.7548L75.636 43.5907L80.1556 48.4869L90.8268 36.9996V71.0848C90.8268 78.3663 85.3028 84.3297 78.5235 84.3297H35.713V91.2973H78.5235C88.8808 91.2973 97.3551 82.2582 97.3551 71.1476V36.9996L108.026 48.4869L112.546 43.5907Z" stroke="#00D2D9" stroke-miterlimit="10"/>
<path d="M37.1562 89.7908V85.7734H78.4602C86.0556 85.7734 92.27 79.1824 92.27 71.0848V33.2333L80.0922 46.2899L77.5813 43.5907L94.0276 25.9518L110.474 43.5907L107.963 46.2899L95.7852 33.2333V71.0848C95.7852 81.3794 88.0015 89.7908 78.4602 89.7908H37.1562Z" stroke="#00D2D9" stroke-miterlimit="10"/>
<path d="M53.3515 36.2464L51.4056 45.9761C51.28 46.7294 51.7194 47.4199 52.4727 47.6082C52.5355 47.6082 52.661 47.6082 52.7238 47.6082H52.9749L62.579 45.6622C62.8301 45.5995 63.0812 45.4739 63.2695 45.2856L91.6424 16.9127L82.0383 7.30859L53.6654 35.556C53.5398 35.807 53.4143 35.9954 53.3515 36.2464Z" stroke="#00D2D9" stroke-miterlimit="10"/>
<path d="M54.7953 36.6231L82.0384 9.44287L89.571 16.9127L62.2652 44.2185L52.8494 46.1017L54.7953 36.6231Z" fill="#00D2D9"/>
<path d="M96.7897 5.73928L93.2744 2.22405C91.5796 0.591983 88.8804 0.591983 87.2483 2.22405L84.047 5.36265L93.6511 14.9668L96.8524 11.8909C98.4845 10.1961 98.4845 7.49689 96.8524 5.86482V5.73928H96.7897Z" stroke="#00D2D9" stroke-miterlimit="10"/>
<path d="M86.1185 5.36276L88.2527 3.22851C88.8177 2.72634 89.5082 2.41248 90.2614 2.41248C91.0147 2.41248 91.7052 2.72634 92.2074 3.22851L95.2832 6.30433V6.42988L95.7226 6.86928C96.7897 7.9364 96.7897 9.75679 95.7226 10.8239L93.5884 12.8326L86.1185 5.36276Z" fill="#00D2D9"/>
</svg>
