<svg xmlns="http://www.w3.org/2000/svg" xmlns:xlink="http://www.w3.org/1999/xlink" width="375" height="81" viewBox="0 0 375 81">
  <defs>
    <linearGradient id="linear-gradient" y1="0.5" x2="1.041" y2="0.5" gradientUnits="objectBoundingBox">
      <stop offset="0" stop-color="#edfcfa"/>
      <stop offset="1" stop-color="#00d2d9"/>
    </linearGradient>
  </defs>
  <path id="Union_7" data-name="Union 7" d="M371,79a2,2,0,1,1,2,2A2,2,0,0,1,371,79Zm-7,0a2,2,0,1,1,2,2A2,2,0,0,1,364,79Zm-7,0a2,2,0,1,1,2,2A2,2,0,0,1,357,79Zm-7,0a2,2,0,1,1,2,2A2,2,0,0,1,350,79Zm-7,0a2,2,0,1,1,2,2A2,2,0,0,1,343,79Zm-7,0a2,2,0,1,1,2,2A2,2,0,0,1,336,79Zm-7,0a2,2,0,1,1,2,2A2,2,0,0,1,329,79Zm-7,0a2,2,0,1,1,2,2A2,2,0,0,1,322,79Zm-7,0a2,2,0,1,1,2,2A2,2,0,0,1,315,79Zm-7,0a2,2,0,1,1,2,2A2,2,0,0,1,308,79Zm-7,0a2,2,0,1,1,2,2A2,2,0,0,1,301,79Zm-7,0a2,2,0,1,1,2,2A2,2,0,0,1,294,79Zm-7,0a2,2,0,1,1,2,2A2,2,0,0,1,287,79Zm-7,0a2,2,0,1,1,2,2A2,2,0,0,1,280,79Zm-7,0a2,2,0,1,1,2,2A2,2,0,0,1,273,79Zm-7,0a2,2,0,1,1,2,2A2,2,0,0,1,266,79Zm-7,0a2,2,0,1,1,2,2A2,2,0,0,1,259,79Zm-7,0a2,2,0,1,1,2,2A2,2,0,0,1,252,79Zm-7,0a2,2,0,1,1,2,2A2,2,0,0,1,245,79Zm-7,0a2,2,0,1,1,2,2A2,2,0,0,1,238,79Zm-7,0a2,2,0,1,1,2,2A2,2,0,0,1,231,79Zm-7,0a2,2,0,1,1,2,2A2,2,0,0,1,224,79Zm-7,0a2,2,0,1,1,2,2A2,2,0,0,1,217,79Zm-7,0a2,2,0,1,1,2,2A2,2,0,0,1,210,79Zm-7,0a2,2,0,1,1,2,2A2,2,0,0,1,203,79Zm-7,0a2,2,0,1,1,2,2A2,2,0,0,1,196,79Zm-7,0a2,2,0,1,1,2,2A2,2,0,0,1,189,79Zm-7,0a2,2,0,1,1,2,2A2,2,0,0,1,182,79Zm-7,0a2,2,0,1,1,2,2A2,2,0,0,1,175,79Zm-7,0a2,2,0,1,1,2,2A2,2,0,0,1,168,79Zm-7,0a2,2,0,1,1,2,2A2,2,0,0,1,161,79Zm-7,0a2,2,0,1,1,2,2A2,2,0,0,1,154,79Zm-7,0a2,2,0,1,1,2,2A2,2,0,0,1,147,79Zm-7,0a2,2,0,1,1,2,2A2,2,0,0,1,140,79Zm-7,0a2,2,0,1,1,2,2A2,2,0,0,1,133,79Zm-7,0a2,2,0,1,1,2,2A2,2,0,0,1,126,79Zm-7,0a2,2,0,1,1,2,2A2,2,0,0,1,119,79Zm-7,0a2,2,0,1,1,2,2A2,2,0,0,1,112,79Zm-7,0a2,2,0,1,1,2,2A2,2,0,0,1,105,79Zm-7,0a2,2,0,1,1,2,2A2,2,0,0,1,98,79Zm-7,0a2,2,0,1,1,2,2A2,2,0,0,1,91,79Zm-7,0a2,2,0,1,1,2,2A2,2,0,0,1,84,79Zm-7,0a2,2,0,1,1,2,2A2,2,0,0,1,77,79Zm-7,0a2,2,0,1,1,2,2A2,2,0,0,1,70,79Zm-7,0a2,2,0,1,1,2,2A2,2,0,0,1,63,79Zm-7,0a2,2,0,1,1,2,2A2,2,0,0,1,56,79Zm-7,0a2,2,0,1,1,2,2A2,2,0,0,1,49,79Zm-7,0a2,2,0,1,1,2,2A2,2,0,0,1,42,79Zm-7,0a2,2,0,1,1,2,2A2,2,0,0,1,35,79Zm-7,0a2,2,0,1,1,2,2A2,2,0,0,1,28,79Zm-7,0a2,2,0,1,1,2,2A2,2,0,0,1,21,79Zm-7,0a2,2,0,1,1,2,2A2,2,0,0,1,14,79ZM7,79a2,2,0,1,1,2,2A2,2,0,0,1,7,79ZM0,79a2,2,0,1,1,2,2A2,2,0,0,1,0,79Zm371-7a2,2,0,1,1,2,2A2,2,0,0,1,371,72Zm-7,0a2,2,0,1,1,2,2A2,2,0,0,1,364,72Zm-7,0a2,2,0,1,1,2,2A2,2,0,0,1,357,72Zm-7,0a2,2,0,1,1,2,2A2,2,0,0,1,350,72Zm-7,0a2,2,0,1,1,2,2A2,2,0,0,1,343,72Zm-7,0a2,2,0,1,1,2,2A2,2,0,0,1,336,72Zm-7,0a2,2,0,1,1,2,2A2,2,0,0,1,329,72Zm-7,0a2,2,0,1,1,2,2A2,2,0,0,1,322,72Zm-7,0a2,2,0,1,1,2,2A2,2,0,0,1,315,72Zm-7,0a2,2,0,1,1,2,2A2,2,0,0,1,308,72Zm-7,0a2,2,0,1,1,2,2A2,2,0,0,1,301,72Zm-7,0a2,2,0,1,1,2,2A2,2,0,0,1,294,72Zm-7,0a2,2,0,1,1,2,2A2,2,0,0,1,287,72Zm-7,0a2,2,0,1,1,2,2A2,2,0,0,1,280,72Zm-7,0a2,2,0,1,1,2,2A2,2,0,0,1,273,72Zm-7,0a2,2,0,1,1,2,2A2,2,0,0,1,266,72Zm-7,0a2,2,0,1,1,2,2A2,2,0,0,1,259,72Zm-7,0a2,2,0,1,1,2,2A2,2,0,0,1,252,72Zm-7,0a2,2,0,1,1,2,2A2,2,0,0,1,245,72Zm-7,0a2,2,0,1,1,2,2A2,2,0,0,1,238,72Zm-7,0a2,2,0,1,1,2,2A2,2,0,0,1,231,72Zm-7,0a2,2,0,1,1,2,2A2,2,0,0,1,224,72Zm-7,0a2,2,0,1,1,2,2A2,2,0,0,1,217,72Zm-7,0a2,2,0,1,1,2,2A2,2,0,0,1,210,72Zm-7,0a2,2,0,1,1,2,2A2,2,0,0,1,203,72Zm-7,0a2,2,0,1,1,2,2A2,2,0,0,1,196,72Zm-7,0a2,2,0,1,1,2,2A2,2,0,0,1,189,72Zm-7,0a2,2,0,1,1,2,2A2,2,0,0,1,182,72Zm-7,0a2,2,0,1,1,2,2A2,2,0,0,1,175,72Zm-7,0a2,2,0,1,1,2,2A2,2,0,0,1,168,72Zm-7,0a2,2,0,1,1,2,2A2,2,0,0,1,161,72Zm-7,0a2,2,0,1,1,2,2A2,2,0,0,1,154,72Zm-7,0a2,2,0,1,1,2,2A2,2,0,0,1,147,72Zm-7,0a2,2,0,1,1,2,2A2,2,0,0,1,140,72Zm-7,0a2,2,0,1,1,2,2A2,2,0,0,1,133,72Zm-7,0a2,2,0,1,1,2,2A2,2,0,0,1,126,72Zm-7,0a2,2,0,1,1,2,2A2,2,0,0,1,119,72Zm-7,0a2,2,0,1,1,2,2A2,2,0,0,1,112,72Zm-7,0a2,2,0,1,1,2,2A2,2,0,0,1,105,72Zm-7,0a2,2,0,1,1,2,2A2,2,0,0,1,98,72Zm-7,0a2,2,0,1,1,2,2A2,2,0,0,1,91,72Zm-7,0a2,2,0,1,1,2,2A2,2,0,0,1,84,72Zm-7,0a2,2,0,1,1,2,2A2,2,0,0,1,77,72Zm-7,0a2,2,0,1,1,2,2A2,2,0,0,1,70,72Zm-7,0a2,2,0,1,1,2,2A2,2,0,0,1,63,72Zm-7,0a2,2,0,1,1,2,2A2,2,0,0,1,56,72Zm-7,0a2,2,0,1,1,2,2A2,2,0,0,1,49,72Zm-7,0a2,2,0,1,1,2,2A2,2,0,0,1,42,72Zm-7,0a2,2,0,1,1,2,2A2,2,0,0,1,35,72Zm-7,0a2,2,0,1,1,2,2A2,2,0,0,1,28,72Zm-7,0a2,2,0,1,1,2,2A2,2,0,0,1,21,72Zm-7,0a2,2,0,1,1,2,2A2,2,0,0,1,14,72ZM7,72a2,2,0,1,1,2,2A2,2,0,0,1,7,72ZM0,72a2,2,0,1,1,2,2A2,2,0,0,1,0,72Zm371-7a2,2,0,1,1,2,2A2,2,0,0,1,371,65Zm-7,0a2,2,0,1,1,2,2A2,2,0,0,1,364,65Zm-7,0a2,2,0,1,1,2,2A2,2,0,0,1,357,65Zm-7,0a2,2,0,1,1,2,2A2,2,0,0,1,350,65Zm-7,0a2,2,0,1,1,2,2A2,2,0,0,1,343,65Zm-7,0a2,2,0,1,1,2,2A2,2,0,0,1,336,65Zm-7,0a2,2,0,1,1,2,2A2,2,0,0,1,329,65Zm-7,0a2,2,0,1,1,2,2A2,2,0,0,1,322,65Zm-7,0a2,2,0,1,1,2,2A2,2,0,0,1,315,65Zm-7,0a2,2,0,1,1,2,2A2,2,0,0,1,308,65Zm-7,0a2,2,0,1,1,2,2A2,2,0,0,1,301,65Zm-7,0a2,2,0,1,1,2,2A2,2,0,0,1,294,65Zm-7,0a2,2,0,1,1,2,2A2,2,0,0,1,287,65Zm-7,0a2,2,0,1,1,2,2A2,2,0,0,1,280,65Zm-7,0a2,2,0,1,1,2,2A2,2,0,0,1,273,65Zm-7,0a2,2,0,1,1,2,2A2,2,0,0,1,266,65Zm-7,0a2,2,0,1,1,2,2A2,2,0,0,1,259,65Zm-7,0a2,2,0,1,1,2,2A2,2,0,0,1,252,65Zm-7,0a2,2,0,1,1,2,2A2,2,0,0,1,245,65Zm-7,0a2,2,0,1,1,2,2A2,2,0,0,1,238,65Zm-7,0a2,2,0,1,1,2,2A2,2,0,0,1,231,65Zm-7,0a2,2,0,1,1,2,2A2,2,0,0,1,224,65Zm-7,0a2,2,0,1,1,2,2A2,2,0,0,1,217,65Zm-7,0a2,2,0,1,1,2,2A2,2,0,0,1,210,65Zm-7,0a2,2,0,1,1,2,2A2,2,0,0,1,203,65Zm-7,0a2,2,0,1,1,2,2A2,2,0,0,1,196,65Zm-7,0a2,2,0,1,1,2,2A2,2,0,0,1,189,65Zm-7,0a2,2,0,1,1,2,2A2,2,0,0,1,182,65Zm-7,0a2,2,0,1,1,2,2A2,2,0,0,1,175,65Zm-7,0a2,2,0,1,1,2,2A2,2,0,0,1,168,65Zm-7,0a2,2,0,1,1,2,2A2,2,0,0,1,161,65Zm-7,0a2,2,0,1,1,2,2A2,2,0,0,1,154,65Zm-7,0a2,2,0,1,1,2,2A2,2,0,0,1,147,65Zm-7,0a2,2,0,1,1,2,2A2,2,0,0,1,140,65Zm-7,0a2,2,0,1,1,2,2A2,2,0,0,1,133,65Zm-7,0a2,2,0,1,1,2,2A2,2,0,0,1,126,65Zm-7,0a2,2,0,1,1,2,2A2,2,0,0,1,119,65Zm-7,0a2,2,0,1,1,2,2A2,2,0,0,1,112,65Zm-7,0a2,2,0,1,1,2,2A2,2,0,0,1,105,65Zm-7,0a2,2,0,1,1,2,2A2,2,0,0,1,98,65Zm-7,0a2,2,0,1,1,2,2A2,2,0,0,1,91,65Zm-7,0a2,2,0,1,1,2,2A2,2,0,0,1,84,65Zm-7,0a2,2,0,1,1,2,2A2,2,0,0,1,77,65Zm-7,0a2,2,0,1,1,2,2A2,2,0,0,1,70,65Zm-7,0a2,2,0,1,1,2,2A2,2,0,0,1,63,65Zm-7,0a2,2,0,1,1,2,2A2,2,0,0,1,56,65Zm-7,0a2,2,0,1,1,2,2A2,2,0,0,1,49,65Zm-7,0a2,2,0,1,1,2,2A2,2,0,0,1,42,65Zm-7,0a2,2,0,1,1,2,2A2,2,0,0,1,35,65Zm-7,0a2,2,0,1,1,2,2A2,2,0,0,1,28,65Zm-7,0a2,2,0,1,1,2,2A2,2,0,0,1,21,65Zm-7,0a2,2,0,1,1,2,2A2,2,0,0,1,14,65ZM7,65a2,2,0,1,1,2,2A2,2,0,0,1,7,65ZM0,65a2,2,0,1,1,2,2A2,2,0,0,1,0,65Zm371-7a2,2,0,1,1,2,2A2,2,0,0,1,371,58Zm-7,0a2,2,0,1,1,2,2A2,2,0,0,1,364,58Zm-7,0a2,2,0,1,1,2,2A2,2,0,0,1,357,58Zm-7,0a2,2,0,1,1,2,2A2,2,0,0,1,350,58Zm-7,0a2,2,0,1,1,2,2A2,2,0,0,1,343,58Zm-7,0a2,2,0,1,1,2,2A2,2,0,0,1,336,58Zm-7,0a2,2,0,1,1,2,2A2,2,0,0,1,329,58Zm-7,0a2,2,0,1,1,2,2A2,2,0,0,1,322,58Zm-7,0a2,2,0,1,1,2,2A2,2,0,0,1,315,58Zm-7,0a2,2,0,1,1,2,2A2,2,0,0,1,308,58Zm-7,0a2,2,0,1,1,2,2A2,2,0,0,1,301,58Zm-7,0a2,2,0,1,1,2,2A2,2,0,0,1,294,58Zm-7,0a2,2,0,1,1,2,2A2,2,0,0,1,287,58Zm-7,0a2,2,0,1,1,2,2A2,2,0,0,1,280,58Zm-7,0a2,2,0,1,1,2,2A2,2,0,0,1,273,58Zm-7,0a2,2,0,1,1,2,2A2,2,0,0,1,266,58Zm-7,0a2,2,0,1,1,2,2A2,2,0,0,1,259,58Zm-7,0a2,2,0,1,1,2,2A2,2,0,0,1,252,58Zm-7,0a2,2,0,1,1,2,2A2,2,0,0,1,245,58Zm-7,0a2,2,0,1,1,2,2A2,2,0,0,1,238,58Zm-7,0a2,2,0,1,1,2,2A2,2,0,0,1,231,58Zm-7,0a2,2,0,1,1,2,2A2,2,0,0,1,224,58Zm-7,0a2,2,0,1,1,2,2A2,2,0,0,1,217,58Zm-7,0a2,2,0,1,1,2,2A2,2,0,0,1,210,58Zm-7,0a2,2,0,1,1,2,2A2,2,0,0,1,203,58Zm-7,0a2,2,0,1,1,2,2A2,2,0,0,1,196,58Zm-7,0a2,2,0,1,1,2,2A2,2,0,0,1,189,58Zm-7,0a2,2,0,1,1,2,2A2,2,0,0,1,182,58Zm-7,0a2,2,0,1,1,2,2A2,2,0,0,1,175,58Zm-7,0a2,2,0,1,1,2,2A2,2,0,0,1,168,58Zm-7,0a2,2,0,1,1,2,2A2,2,0,0,1,161,58Zm-7,0a2,2,0,1,1,2,2A2,2,0,0,1,154,58Zm-7,0a2,2,0,1,1,2,2A2,2,0,0,1,147,58Zm-7,0a2,2,0,1,1,2,2A2,2,0,0,1,140,58Zm-7,0a2,2,0,1,1,2,2A2,2,0,0,1,133,58Zm-7,0a2,2,0,1,1,2,2A2,2,0,0,1,126,58Zm-7,0a2,2,0,1,1,2,2A2,2,0,0,1,119,58Zm-7,0a2,2,0,1,1,2,2A2,2,0,0,1,112,58Zm-7,0a2,2,0,1,1,2,2A2,2,0,0,1,105,58Zm-7,0a2,2,0,1,1,2,2A2,2,0,0,1,98,58Zm-7,0a2,2,0,1,1,2,2A2,2,0,0,1,91,58Zm-7,0a2,2,0,1,1,2,2A2,2,0,0,1,84,58Zm-7,0a2,2,0,1,1,2,2A2,2,0,0,1,77,58Zm-7,0a2,2,0,1,1,2,2A2,2,0,0,1,70,58Zm-7,0a2,2,0,1,1,2,2A2,2,0,0,1,63,58Zm-7,0a2,2,0,1,1,2,2A2,2,0,0,1,56,58Zm-7,0a2,2,0,1,1,2,2A2,2,0,0,1,49,58Zm-7,0a2,2,0,1,1,2,2A2,2,0,0,1,42,58Zm-7,0a2,2,0,1,1,2,2A2,2,0,0,1,35,58Zm-7,0a2,2,0,1,1,2,2A2,2,0,0,1,28,58Zm-7,0a2,2,0,1,1,2,2A2,2,0,0,1,21,58Zm-7,0a2,2,0,1,1,2,2A2,2,0,0,1,14,58ZM7,58a2,2,0,1,1,2,2A2,2,0,0,1,7,58ZM0,58a2,2,0,1,1,2,2A2,2,0,0,1,0,58Zm371-7a2,2,0,1,1,2,2A2,2,0,0,1,371,51Zm-7,0a2,2,0,1,1,2,2A2,2,0,0,1,364,51Zm-7,0a2,2,0,1,1,2,2A2,2,0,0,1,357,51Zm-7,0a2,2,0,1,1,2,2A2,2,0,0,1,350,51Zm-7,0a2,2,0,1,1,2,2A2,2,0,0,1,343,51Zm-7,0a2,2,0,1,1,2,2A2,2,0,0,1,336,51Zm-7,0a2,2,0,1,1,2,2A2,2,0,0,1,329,51Zm-7,0a2,2,0,1,1,2,2A2,2,0,0,1,322,51Zm-7,0a2,2,0,1,1,2,2A2,2,0,0,1,315,51Zm-7,0a2,2,0,1,1,2,2A2,2,0,0,1,308,51Zm-7,0a2,2,0,1,1,2,2A2,2,0,0,1,301,51Zm-7,0a2,2,0,1,1,2,2A2,2,0,0,1,294,51Zm-7,0a2,2,0,1,1,2,2A2,2,0,0,1,287,51Zm-7,0a2,2,0,1,1,2,2A2,2,0,0,1,280,51Zm-7,0a2,2,0,1,1,2,2A2,2,0,0,1,273,51Zm-7,0a2,2,0,1,1,2,2A2,2,0,0,1,266,51Zm-7,0a2,2,0,1,1,2,2A2,2,0,0,1,259,51Zm-7,0a2,2,0,1,1,2,2A2,2,0,0,1,252,51Zm-7,0a2,2,0,1,1,2,2A2,2,0,0,1,245,51Zm-7,0a2,2,0,1,1,2,2A2,2,0,0,1,238,51Zm-7,0a2,2,0,1,1,2,2A2,2,0,0,1,231,51Zm-7,0a2,2,0,1,1,2,2A2,2,0,0,1,224,51Zm-7,0a2,2,0,1,1,2,2A2,2,0,0,1,217,51Zm-7,0a2,2,0,1,1,2,2A2,2,0,0,1,210,51Zm-7,0a2,2,0,1,1,2,2A2,2,0,0,1,203,51Zm-7,0a2,2,0,1,1,2,2A2,2,0,0,1,196,51Zm-7,0a2,2,0,1,1,2,2A2,2,0,0,1,189,51Zm-7,0a2,2,0,1,1,2,2A2,2,0,0,1,182,51Zm-7,0a2,2,0,1,1,2,2A2,2,0,0,1,175,51Zm-7,0a2,2,0,1,1,2,2A2,2,0,0,1,168,51Zm-7,0a2,2,0,1,1,2,2A2,2,0,0,1,161,51Zm-7,0a2,2,0,1,1,2,2A2,2,0,0,1,154,51Zm-7,0a2,2,0,1,1,2,2A2,2,0,0,1,147,51Zm-7,0a2,2,0,1,1,2,2A2,2,0,0,1,140,51Zm-7,0a2,2,0,1,1,2,2A2,2,0,0,1,133,51Zm-7,0a2,2,0,1,1,2,2A2,2,0,0,1,126,51Zm-7,0a2,2,0,1,1,2,2A2,2,0,0,1,119,51Zm-7,0a2,2,0,1,1,2,2A2,2,0,0,1,112,51Zm-7,0a2,2,0,1,1,2,2A2,2,0,0,1,105,51Zm-7,0a2,2,0,1,1,2,2A2,2,0,0,1,98,51Zm-7,0a2,2,0,1,1,2,2A2,2,0,0,1,91,51Zm-7,0a2,2,0,1,1,2,2A2,2,0,0,1,84,51Zm-7,0a2,2,0,1,1,2,2A2,2,0,0,1,77,51Zm-7,0a2,2,0,1,1,2,2A2,2,0,0,1,70,51Zm-7,0a2,2,0,1,1,2,2A2,2,0,0,1,63,51Zm-7,0a2,2,0,1,1,2,2A2,2,0,0,1,56,51Zm-7,0a2,2,0,1,1,2,2A2,2,0,0,1,49,51Zm-7,0a2,2,0,1,1,2,2A2,2,0,0,1,42,51Zm-7,0a2,2,0,1,1,2,2A2,2,0,0,1,35,51Zm-7,0a2,2,0,1,1,2,2A2,2,0,0,1,28,51Zm-7,0a2,2,0,1,1,2,2A2,2,0,0,1,21,51Zm-7,0a2,2,0,1,1,2,2A2,2,0,0,1,14,51ZM7,51a2,2,0,1,1,2,2A2,2,0,0,1,7,51ZM0,51a2,2,0,1,1,2,2A2,2,0,0,1,0,51Zm371-7a2,2,0,1,1,2,2A2,2,0,0,1,371,44Zm-7,0a2,2,0,1,1,2,2A2,2,0,0,1,364,44Zm-7,0a2,2,0,1,1,2,2A2,2,0,0,1,357,44Zm-7,0a2,2,0,1,1,2,2A2,2,0,0,1,350,44Zm-7,0a2,2,0,1,1,2,2A2,2,0,0,1,343,44Zm-7,0a2,2,0,1,1,2,2A2,2,0,0,1,336,44Zm-7,0a2,2,0,1,1,2,2A2,2,0,0,1,329,44Zm-7,0a2,2,0,1,1,2,2A2,2,0,0,1,322,44Zm-7,0a2,2,0,1,1,2,2A2,2,0,0,1,315,44Zm-7,0a2,2,0,1,1,2,2A2,2,0,0,1,308,44Zm-7,0a2,2,0,1,1,2,2A2,2,0,0,1,301,44Zm-7,0a2,2,0,1,1,2,2A2,2,0,0,1,294,44Zm-7,0a2,2,0,1,1,2,2A2,2,0,0,1,287,44Zm-7,0a2,2,0,1,1,2,2A2,2,0,0,1,280,44Zm-7,0a2,2,0,1,1,2,2A2,2,0,0,1,273,44Zm-7,0a2,2,0,1,1,2,2A2,2,0,0,1,266,44Zm-7,0a2,2,0,1,1,2,2A2,2,0,0,1,259,44Zm-7,0a2,2,0,1,1,2,2A2,2,0,0,1,252,44Zm-7,0a2,2,0,1,1,2,2A2,2,0,0,1,245,44Zm-7,0a2,2,0,1,1,2,2A2,2,0,0,1,238,44Zm-7,0a2,2,0,1,1,2,2A2,2,0,0,1,231,44Zm-7,0a2,2,0,1,1,2,2A2,2,0,0,1,224,44Zm-7,0a2,2,0,1,1,2,2A2,2,0,0,1,217,44Zm-7,0a2,2,0,1,1,2,2A2,2,0,0,1,210,44Zm-7,0a2,2,0,1,1,2,2A2,2,0,0,1,203,44Zm-7,0a2,2,0,1,1,2,2A2,2,0,0,1,196,44Zm-7,0a2,2,0,1,1,2,2A2,2,0,0,1,189,44Zm-7,0a2,2,0,1,1,2,2A2,2,0,0,1,182,44Zm-7,0a2,2,0,1,1,2,2A2,2,0,0,1,175,44Zm-7,0a2,2,0,1,1,2,2A2,2,0,0,1,168,44Zm-7,0a2,2,0,1,1,2,2A2,2,0,0,1,161,44Zm-7,0a2,2,0,1,1,2,2A2,2,0,0,1,154,44Zm-7,0a2,2,0,1,1,2,2A2,2,0,0,1,147,44Zm-7,0a2,2,0,1,1,2,2A2,2,0,0,1,140,44Zm-7,0a2,2,0,1,1,2,2A2,2,0,0,1,133,44Zm-7,0a2,2,0,1,1,2,2A2,2,0,0,1,126,44Zm-7,0a2,2,0,1,1,2,2A2,2,0,0,1,119,44Zm-7,0a2,2,0,1,1,2,2A2,2,0,0,1,112,44Zm-7,0a2,2,0,1,1,2,2A2,2,0,0,1,105,44Zm-7,0a2,2,0,1,1,2,2A2,2,0,0,1,98,44Zm-7,0a2,2,0,1,1,2,2A2,2,0,0,1,91,44Zm-7,0a2,2,0,1,1,2,2A2,2,0,0,1,84,44Zm-7,0a2,2,0,1,1,2,2A2,2,0,0,1,77,44Zm-7,0a2,2,0,1,1,2,2A2,2,0,0,1,70,44Zm-7,0a2,2,0,1,1,2,2A2,2,0,0,1,63,44Zm-7,0a2,2,0,1,1,2,2A2,2,0,0,1,56,44Zm-7,0a2,2,0,1,1,2,2A2,2,0,0,1,49,44Zm-7,0a2,2,0,1,1,2,2A2,2,0,0,1,42,44Zm-7,0a2,2,0,1,1,2,2A2,2,0,0,1,35,44Zm-7,0a2,2,0,1,1,2,2A2,2,0,0,1,28,44Zm-7,0a2,2,0,1,1,2,2A2,2,0,0,1,21,44Zm-7,0a2,2,0,1,1,2,2A2,2,0,0,1,14,44ZM7,44a2,2,0,1,1,2,2A2,2,0,0,1,7,44ZM0,44a2,2,0,1,1,2,2A2,2,0,0,1,0,44Zm371-7a2,2,0,1,1,2,2A2,2,0,0,1,371,37Zm-7,0a2,2,0,1,1,2,2A2,2,0,0,1,364,37Zm-7,0a2,2,0,1,1,2,2A2,2,0,0,1,357,37Zm-7,0a2,2,0,1,1,2,2A2,2,0,0,1,350,37Zm-7,0a2,2,0,1,1,2,2A2,2,0,0,1,343,37Zm-7,0a2,2,0,1,1,2,2A2,2,0,0,1,336,37Zm-7,0a2,2,0,1,1,2,2A2,2,0,0,1,329,37Zm-7,0a2,2,0,1,1,2,2A2,2,0,0,1,322,37Zm-7,0a2,2,0,1,1,2,2A2,2,0,0,1,315,37Zm-7,0a2,2,0,1,1,2,2A2,2,0,0,1,308,37Zm-7,0a2,2,0,1,1,2,2A2,2,0,0,1,301,37Zm-7,0a2,2,0,1,1,2,2A2,2,0,0,1,294,37Zm-7,0a2,2,0,1,1,2,2A2,2,0,0,1,287,37Zm-7,0a2,2,0,1,1,2,2A2,2,0,0,1,280,37Zm-7,0a2,2,0,1,1,2,2A2,2,0,0,1,273,37Zm-7,0a2,2,0,1,1,2,2A2,2,0,0,1,266,37Zm-7,0a2,2,0,1,1,2,2A2,2,0,0,1,259,37Zm-7,0a2,2,0,1,1,2,2A2,2,0,0,1,252,37Zm-7,0a2,2,0,1,1,2,2A2,2,0,0,1,245,37Zm-7,0a2,2,0,1,1,2,2A2,2,0,0,1,238,37Zm-7,0a2,2,0,1,1,2,2A2,2,0,0,1,231,37Zm-7,0a2,2,0,1,1,2,2A2,2,0,0,1,224,37Zm-7,0a2,2,0,1,1,2,2A2,2,0,0,1,217,37Zm-7,0a2,2,0,1,1,2,2A2,2,0,0,1,210,37Zm-7,0a2,2,0,1,1,2,2A2,2,0,0,1,203,37Zm-7,0a2,2,0,1,1,2,2A2,2,0,0,1,196,37Zm-7,0a2,2,0,1,1,2,2A2,2,0,0,1,189,37Zm-7,0a2,2,0,1,1,2,2A2,2,0,0,1,182,37Zm-7,0a2,2,0,1,1,2,2A2,2,0,0,1,175,37Zm-7,0a2,2,0,1,1,2,2A2,2,0,0,1,168,37Zm-7,0a2,2,0,1,1,2,2A2,2,0,0,1,161,37Zm-7,0a2,2,0,1,1,2,2A2,2,0,0,1,154,37Zm-7,0a2,2,0,1,1,2,2A2,2,0,0,1,147,37Zm-7,0a2,2,0,1,1,2,2A2,2,0,0,1,140,37Zm-7,0a2,2,0,1,1,2,2A2,2,0,0,1,133,37Zm-7,0a2,2,0,1,1,2,2A2,2,0,0,1,126,37Zm-7,0a2,2,0,1,1,2,2A2,2,0,0,1,119,37Zm-7,0a2,2,0,1,1,2,2A2,2,0,0,1,112,37Zm-7,0a2,2,0,1,1,2,2A2,2,0,0,1,105,37Zm-7,0a2,2,0,1,1,2,2A2,2,0,0,1,98,37Zm-7,0a2,2,0,1,1,2,2A2,2,0,0,1,91,37Zm-7,0a2,2,0,1,1,2,2A2,2,0,0,1,84,37Zm-7,0a2,2,0,1,1,2,2A2,2,0,0,1,77,37Zm-7,0a2,2,0,1,1,2,2A2,2,0,0,1,70,37Zm-7,0a2,2,0,1,1,2,2A2,2,0,0,1,63,37Zm-7,0a2,2,0,1,1,2,2A2,2,0,0,1,56,37Zm-7,0a2,2,0,1,1,2,2A2,2,0,0,1,49,37Zm-7,0a2,2,0,1,1,2,2A2,2,0,0,1,42,37Zm-7,0a2,2,0,1,1,2,2A2,2,0,0,1,35,37Zm-7,0a2,2,0,1,1,2,2A2,2,0,0,1,28,37Zm-7,0a2,2,0,1,1,2,2A2,2,0,0,1,21,37Zm-7,0a2,2,0,1,1,2,2A2,2,0,0,1,14,37ZM7,37a2,2,0,1,1,2,2A2,2,0,0,1,7,37ZM0,37a2,2,0,1,1,2,2A2,2,0,0,1,0,37Zm371-7a2,2,0,1,1,2,2A2,2,0,0,1,371,30Zm-7,0a2,2,0,1,1,2,2A2,2,0,0,1,364,30Zm-7,0a2,2,0,1,1,2,2A2,2,0,0,1,357,30Zm-7,0a2,2,0,1,1,2,2A2,2,0,0,1,350,30Zm-7,0a2,2,0,1,1,2,2A2,2,0,0,1,343,30Zm-7,0a2,2,0,1,1,2,2A2,2,0,0,1,336,30Zm-7,0a2,2,0,1,1,2,2A2,2,0,0,1,329,30Zm-7,0a2,2,0,1,1,2,2A2,2,0,0,1,322,30Zm-7,0a2,2,0,1,1,2,2A2,2,0,0,1,315,30Zm-7,0a2,2,0,1,1,2,2A2,2,0,0,1,308,30Zm-7,0a2,2,0,1,1,2,2A2,2,0,0,1,301,30Zm-7,0a2,2,0,1,1,2,2A2,2,0,0,1,294,30Zm-7,0a2,2,0,1,1,2,2A2,2,0,0,1,287,30Zm-7,0a2,2,0,1,1,2,2A2,2,0,0,1,280,30Zm-7,0a2,2,0,1,1,2,2A2,2,0,0,1,273,30Zm-7,0a2,2,0,1,1,2,2A2,2,0,0,1,266,30Zm-7,0a2,2,0,1,1,2,2A2,2,0,0,1,259,30Zm-7,0a2,2,0,1,1,2,2A2,2,0,0,1,252,30Zm-7,0a2,2,0,1,1,2,2A2,2,0,0,1,245,30Zm-7,0a2,2,0,1,1,2,2A2,2,0,0,1,238,30Zm-7,0a2,2,0,1,1,2,2A2,2,0,0,1,231,30Zm-7,0a2,2,0,1,1,2,2A2,2,0,0,1,224,30Zm-7,0a2,2,0,1,1,2,2A2,2,0,0,1,217,30Zm-7,0a2,2,0,1,1,2,2A2,2,0,0,1,210,30Zm-7,0a2,2,0,1,1,2,2A2,2,0,0,1,203,30Zm-7,0a2,2,0,1,1,2,2A2,2,0,0,1,196,30Zm-7,0a2,2,0,1,1,2,2A2,2,0,0,1,189,30Zm-7,0a2,2,0,1,1,2,2A2,2,0,0,1,182,30Zm-7,0a2,2,0,1,1,2,2A2,2,0,0,1,175,30Zm-7,0a2,2,0,1,1,2,2A2,2,0,0,1,168,30Zm-7,0a2,2,0,1,1,2,2A2,2,0,0,1,161,30Zm-7,0a2,2,0,1,1,2,2A2,2,0,0,1,154,30Zm-7,0a2,2,0,1,1,2,2A2,2,0,0,1,147,30Zm-7,0a2,2,0,1,1,2,2A2,2,0,0,1,140,30Zm-7,0a2,2,0,1,1,2,2A2,2,0,0,1,133,30Zm-7,0a2,2,0,1,1,2,2A2,2,0,0,1,126,30Zm-7,0a2,2,0,1,1,2,2A2,2,0,0,1,119,30Zm-7,0a2,2,0,1,1,2,2A2,2,0,0,1,112,30Zm-7,0a2,2,0,1,1,2,2A2,2,0,0,1,105,30Zm-7,0a2,2,0,1,1,2,2A2,2,0,0,1,98,30Zm-7,0a2,2,0,1,1,2,2A2,2,0,0,1,91,30Zm-7,0a2,2,0,1,1,2,2A2,2,0,0,1,84,30Zm-7,0a2,2,0,1,1,2,2A2,2,0,0,1,77,30Zm-7,0a2,2,0,1,1,2,2A2,2,0,0,1,70,30Zm-7,0a2,2,0,1,1,2,2A2,2,0,0,1,63,30Zm-7,0a2,2,0,1,1,2,2A2,2,0,0,1,56,30Zm-7,0a2,2,0,1,1,2,2A2,2,0,0,1,49,30Zm-7,0a2,2,0,1,1,2,2A2,2,0,0,1,42,30Zm-7,0a2,2,0,1,1,2,2A2,2,0,0,1,35,30Zm-7,0a2,2,0,1,1,2,2A2,2,0,0,1,28,30Zm-7,0a2,2,0,1,1,2,2A2,2,0,0,1,21,30Zm-7,0a2,2,0,1,1,2,2A2,2,0,0,1,14,30ZM7,30a2,2,0,1,1,2,2A2,2,0,0,1,7,30ZM0,30a2,2,0,1,1,2,2A2,2,0,0,1,0,30Zm371-7a2,2,0,1,1,2,2A2,2,0,0,1,371,23Zm-7,0a2,2,0,1,1,2,2A2,2,0,0,1,364,23Zm-7,0a2,2,0,1,1,2,2A2,2,0,0,1,357,23Zm-7,0a2,2,0,1,1,2,2A2,2,0,0,1,350,23Zm-7,0a2,2,0,1,1,2,2A2,2,0,0,1,343,23Zm-7,0a2,2,0,1,1,2,2A2,2,0,0,1,336,23Zm-7,0a2,2,0,1,1,2,2A2,2,0,0,1,329,23Zm-7,0a2,2,0,1,1,2,2A2,2,0,0,1,322,23Zm-7,0a2,2,0,1,1,2,2A2,2,0,0,1,315,23Zm-7,0a2,2,0,1,1,2,2A2,2,0,0,1,308,23Zm-7,0a2,2,0,1,1,2,2A2,2,0,0,1,301,23Zm-7,0a2,2,0,1,1,2,2A2,2,0,0,1,294,23Zm-7,0a2,2,0,1,1,2,2A2,2,0,0,1,287,23Zm-7,0a2,2,0,1,1,2,2A2,2,0,0,1,280,23Zm-7,0a2,2,0,1,1,2,2A2,2,0,0,1,273,23Zm-7,0a2,2,0,1,1,2,2A2,2,0,0,1,266,23Zm-7,0a2,2,0,1,1,2,2A2,2,0,0,1,259,23Zm-7,0a2,2,0,1,1,2,2A2,2,0,0,1,252,23Zm-7,0a2,2,0,1,1,2,2A2,2,0,0,1,245,23Zm-7,0a2,2,0,1,1,2,2A2,2,0,0,1,238,23Zm-7,0a2,2,0,1,1,2,2A2,2,0,0,1,231,23Zm-7,0a2,2,0,1,1,2,2A2,2,0,0,1,224,23Zm-7,0a2,2,0,1,1,2,2A2,2,0,0,1,217,23Zm-7,0a2,2,0,1,1,2,2A2,2,0,0,1,210,23Zm-7,0a2,2,0,1,1,2,2A2,2,0,0,1,203,23Zm-7,0a2,2,0,1,1,2,2A2,2,0,0,1,196,23Zm-7,0a2,2,0,1,1,2,2A2,2,0,0,1,189,23Zm-7,0a2,2,0,1,1,2,2A2,2,0,0,1,182,23Zm-7,0a2,2,0,1,1,2,2A2,2,0,0,1,175,23Zm-7,0a2,2,0,1,1,2,2A2,2,0,0,1,168,23Zm-7,0a2,2,0,1,1,2,2A2,2,0,0,1,161,23Zm-7,0a2,2,0,1,1,2,2A2,2,0,0,1,154,23Zm-7,0a2,2,0,1,1,2,2A2,2,0,0,1,147,23Zm-7,0a2,2,0,1,1,2,2A2,2,0,0,1,140,23Zm-7,0a2,2,0,1,1,2,2A2,2,0,0,1,133,23Zm-7,0a2,2,0,1,1,2,2A2,2,0,0,1,126,23Zm-7,0a2,2,0,1,1,2,2A2,2,0,0,1,119,23Zm-7,0a2,2,0,1,1,2,2A2,2,0,0,1,112,23Zm-7,0a2,2,0,1,1,2,2A2,2,0,0,1,105,23Zm-7,0a2,2,0,1,1,2,2A2,2,0,0,1,98,23Zm-7,0a2,2,0,1,1,2,2A2,2,0,0,1,91,23Zm-7,0a2,2,0,1,1,2,2A2,2,0,0,1,84,23Zm-7,0a2,2,0,1,1,2,2A2,2,0,0,1,77,23Zm-7,0a2,2,0,1,1,2,2A2,2,0,0,1,70,23Zm-7,0a2,2,0,1,1,2,2A2,2,0,0,1,63,23Zm-7,0a2,2,0,1,1,2,2A2,2,0,0,1,56,23Zm-7,0a2,2,0,1,1,2,2A2,2,0,0,1,49,23Zm-7,0a2,2,0,1,1,2,2A2,2,0,0,1,42,23Zm-7,0a2,2,0,1,1,2,2A2,2,0,0,1,35,23Zm-7,0a2,2,0,1,1,2,2A2,2,0,0,1,28,23Zm-7,0a2,2,0,1,1,2,2A2,2,0,0,1,21,23Zm-7,0a2,2,0,1,1,2,2A2,2,0,0,1,14,23ZM7,23a2,2,0,1,1,2,2A2,2,0,0,1,7,23ZM0,23a2,2,0,1,1,2,2A2,2,0,0,1,0,23Zm371-7a2,2,0,1,1,2,2A2,2,0,0,1,371,16Zm-7,0a2,2,0,1,1,2,2A2,2,0,0,1,364,16Zm-7,0a2,2,0,1,1,2,2A2,2,0,0,1,357,16Zm-7,0a2,2,0,1,1,2,2A2,2,0,0,1,350,16Zm-7,0a2,2,0,1,1,2,2A2,2,0,0,1,343,16Zm-7,0a2,2,0,1,1,2,2A2,2,0,0,1,336,16Zm-7,0a2,2,0,1,1,2,2A2,2,0,0,1,329,16Zm-7,0a2,2,0,1,1,2,2A2,2,0,0,1,322,16Zm-7,0a2,2,0,1,1,2,2A2,2,0,0,1,315,16Zm-7,0a2,2,0,1,1,2,2A2,2,0,0,1,308,16Zm-7,0a2,2,0,1,1,2,2A2,2,0,0,1,301,16Zm-7,0a2,2,0,1,1,2,2A2,2,0,0,1,294,16Zm-7,0a2,2,0,1,1,2,2A2,2,0,0,1,287,16Zm-7,0a2,2,0,1,1,2,2A2,2,0,0,1,280,16Zm-7,0a2,2,0,1,1,2,2A2,2,0,0,1,273,16Zm-7,0a2,2,0,1,1,2,2A2,2,0,0,1,266,16Zm-7,0a2,2,0,1,1,2,2A2,2,0,0,1,259,16Zm-7,0a2,2,0,1,1,2,2A2,2,0,0,1,252,16Zm-7,0a2,2,0,1,1,2,2A2,2,0,0,1,245,16Zm-7,0a2,2,0,1,1,2,2A2,2,0,0,1,238,16Zm-7,0a2,2,0,1,1,2,2A2,2,0,0,1,231,16Zm-7,0a2,2,0,1,1,2,2A2,2,0,0,1,224,16Zm-7,0a2,2,0,1,1,2,2A2,2,0,0,1,217,16Zm-7,0a2,2,0,1,1,2,2A2,2,0,0,1,210,16Zm-7,0a2,2,0,1,1,2,2A2,2,0,0,1,203,16Zm-7,0a2,2,0,1,1,2,2A2,2,0,0,1,196,16Zm-7,0a2,2,0,1,1,2,2A2,2,0,0,1,189,16Zm-7,0a2,2,0,1,1,2,2A2,2,0,0,1,182,16Zm-7,0a2,2,0,1,1,2,2A2,2,0,0,1,175,16Zm-7,0a2,2,0,1,1,2,2A2,2,0,0,1,168,16Zm-7,0a2,2,0,1,1,2,2A2,2,0,0,1,161,16Zm-7,0a2,2,0,1,1,2,2A2,2,0,0,1,154,16Zm-7,0a2,2,0,1,1,2,2A2,2,0,0,1,147,16Zm-7,0a2,2,0,1,1,2,2A2,2,0,0,1,140,16Zm-7,0a2,2,0,1,1,2,2A2,2,0,0,1,133,16Zm-7,0a2,2,0,1,1,2,2A2,2,0,0,1,126,16Zm-7,0a2,2,0,1,1,2,2A2,2,0,0,1,119,16Zm-7,0a2,2,0,1,1,2,2A2,2,0,0,1,112,16Zm-7,0a2,2,0,1,1,2,2A2,2,0,0,1,105,16Zm-7,0a2,2,0,1,1,2,2A2,2,0,0,1,98,16Zm-7,0a2,2,0,1,1,2,2A2,2,0,0,1,91,16Zm-7,0a2,2,0,1,1,2,2A2,2,0,0,1,84,16Zm-7,0a2,2,0,1,1,2,2A2,2,0,0,1,77,16Zm-7,0a2,2,0,1,1,2,2A2,2,0,0,1,70,16Zm-7,0a2,2,0,1,1,2,2A2,2,0,0,1,63,16Zm-7,0a2,2,0,1,1,2,2A2,2,0,0,1,56,16Zm-7,0a2,2,0,1,1,2,2A2,2,0,0,1,49,16Zm-7,0a2,2,0,1,1,2,2A2,2,0,0,1,42,16Zm-7,0a2,2,0,1,1,2,2A2,2,0,0,1,35,16Zm-7,0a2,2,0,1,1,2,2A2,2,0,0,1,28,16Zm-7,0a2,2,0,1,1,2,2A2,2,0,0,1,21,16Zm-7,0a2,2,0,1,1,2,2A2,2,0,0,1,14,16ZM7,16a2,2,0,1,1,2,2A2,2,0,0,1,7,16ZM0,16a2,2,0,1,1,2,2A2,2,0,0,1,0,16ZM371,9a2,2,0,1,1,2,2A2,2,0,0,1,371,9Zm-7,0a2,2,0,1,1,2,2A2,2,0,0,1,364,9Zm-7,0a2,2,0,1,1,2,2A2,2,0,0,1,357,9Zm-7,0a2,2,0,1,1,2,2A2,2,0,0,1,350,9Zm-7,0a2,2,0,1,1,2,2A2,2,0,0,1,343,9Zm-7,0a2,2,0,1,1,2,2A2,2,0,0,1,336,9Zm-7,0a2,2,0,1,1,2,2A2,2,0,0,1,329,9Zm-7,0a2,2,0,1,1,2,2A2,2,0,0,1,322,9Zm-7,0a2,2,0,1,1,2,2A2,2,0,0,1,315,9Zm-7,0a2,2,0,1,1,2,2A2,2,0,0,1,308,9Zm-7,0a2,2,0,1,1,2,2A2,2,0,0,1,301,9Zm-7,0a2,2,0,1,1,2,2A2,2,0,0,1,294,9Zm-7,0a2,2,0,1,1,2,2A2,2,0,0,1,287,9Zm-7,0a2,2,0,1,1,2,2A2,2,0,0,1,280,9Zm-7,0a2,2,0,1,1,2,2A2,2,0,0,1,273,9Zm-7,0a2,2,0,1,1,2,2A2,2,0,0,1,266,9Zm-7,0a2,2,0,1,1,2,2A2,2,0,0,1,259,9Zm-7,0a2,2,0,1,1,2,2A2,2,0,0,1,252,9Zm-7,0a2,2,0,1,1,2,2A2,2,0,0,1,245,9Zm-7,0a2,2,0,1,1,2,2A2,2,0,0,1,238,9Zm-7,0a2,2,0,1,1,2,2A2,2,0,0,1,231,9Zm-7,0a2,2,0,1,1,2,2A2,2,0,0,1,224,9Zm-7,0a2,2,0,1,1,2,2A2,2,0,0,1,217,9Zm-7,0a2,2,0,1,1,2,2A2,2,0,0,1,210,9Zm-7,0a2,2,0,1,1,2,2A2,2,0,0,1,203,9Zm-7,0a2,2,0,1,1,2,2A2,2,0,0,1,196,9Zm-7,0a2,2,0,1,1,2,2A2,2,0,0,1,189,9Zm-7,0a2,2,0,1,1,2,2A2,2,0,0,1,182,9Zm-7,0a2,2,0,1,1,2,2A2,2,0,0,1,175,9Zm-7,0a2,2,0,1,1,2,2A2,2,0,0,1,168,9Zm-7,0a2,2,0,1,1,2,2A2,2,0,0,1,161,9Zm-7,0a2,2,0,1,1,2,2A2,2,0,0,1,154,9Zm-7,0a2,2,0,1,1,2,2A2,2,0,0,1,147,9Zm-7,0a2,2,0,1,1,2,2A2,2,0,0,1,140,9Zm-7,0a2,2,0,1,1,2,2A2,2,0,0,1,133,9Zm-7,0a2,2,0,1,1,2,2A2,2,0,0,1,126,9Zm-7,0a2,2,0,1,1,2,2A2,2,0,0,1,119,9Zm-7,0a2,2,0,1,1,2,2A2,2,0,0,1,112,9Zm-7,0a2,2,0,1,1,2,2A2,2,0,0,1,105,9ZM98,9a2,2,0,1,1,2,2A2,2,0,0,1,98,9ZM91,9a2,2,0,1,1,2,2A2,2,0,0,1,91,9ZM84,9a2,2,0,1,1,2,2A2,2,0,0,1,84,9ZM77,9a2,2,0,1,1,2,2A2,2,0,0,1,77,9ZM70,9a2,2,0,1,1,2,2A2,2,0,0,1,70,9ZM63,9a2,2,0,1,1,2,2A2,2,0,0,1,63,9ZM56,9a2,2,0,1,1,2,2A2,2,0,0,1,56,9ZM49,9a2,2,0,1,1,2,2A2,2,0,0,1,49,9ZM42,9a2,2,0,1,1,2,2A2,2,0,0,1,42,9ZM35,9a2,2,0,1,1,2,2A2,2,0,0,1,35,9ZM28,9a2,2,0,1,1,2,2A2,2,0,0,1,28,9ZM21,9a2,2,0,1,1,2,2A2,2,0,0,1,21,9ZM14,9a2,2,0,1,1,2,2A2,2,0,0,1,14,9ZM7,9a2,2,0,1,1,2,2A2,2,0,0,1,7,9ZM0,9a2,2,0,1,1,2,2A2,2,0,0,1,0,9ZM371,2a2,2,0,1,1,2,2A2,2,0,0,1,371,2Zm-7,0a2,2,0,1,1,2,2A2,2,0,0,1,364,2Zm-7,0a2,2,0,1,1,2,2A2,2,0,0,1,357,2Zm-7,0a2,2,0,1,1,2,2A2,2,0,0,1,350,2Zm-7,0a2,2,0,1,1,2,2A2,2,0,0,1,343,2Zm-7,0a2,2,0,1,1,2,2A2,2,0,0,1,336,2Zm-7,0a2,2,0,1,1,2,2A2,2,0,0,1,329,2Zm-7,0a2,2,0,1,1,2,2A2,2,0,0,1,322,2Zm-7,0a2,2,0,1,1,2,2A2,2,0,0,1,315,2Zm-7,0a2,2,0,1,1,2,2A2,2,0,0,1,308,2Zm-7,0a2,2,0,1,1,2,2A2,2,0,0,1,301,2Zm-7,0a2,2,0,1,1,2,2A2,2,0,0,1,294,2Zm-7,0a2,2,0,1,1,2,2A2,2,0,0,1,287,2Zm-7,0a2,2,0,1,1,2,2A2,2,0,0,1,280,2Zm-7,0a2,2,0,1,1,2,2A2,2,0,0,1,273,2Zm-7,0a2,2,0,1,1,2,2A2,2,0,0,1,266,2Zm-7,0a2,2,0,1,1,2,2A2,2,0,0,1,259,2Zm-7,0a2,2,0,1,1,2,2A2,2,0,0,1,252,2Zm-7,0a2,2,0,1,1,2,2A2,2,0,0,1,245,2Zm-7,0a2,2,0,1,1,2,2A2,2,0,0,1,238,2Zm-7,0a2,2,0,1,1,2,2A2,2,0,0,1,231,2Zm-7,0a2,2,0,1,1,2,2A2,2,0,0,1,224,2Zm-7,0a2,2,0,1,1,2,2A2,2,0,0,1,217,2Zm-7,0a2,2,0,1,1,2,2A2,2,0,0,1,210,2Zm-7,0a2,2,0,1,1,2,2A2,2,0,0,1,203,2Zm-7,0a2,2,0,1,1,2,2A2,2,0,0,1,196,2Zm-7,0a2,2,0,1,1,2,2A2,2,0,0,1,189,2Zm-7,0a2,2,0,1,1,2,2A2,2,0,0,1,182,2Zm-7,0a2,2,0,1,1,2,2A2,2,0,0,1,175,2Zm-7,0a2,2,0,1,1,2,2A2,2,0,0,1,168,2Zm-7,0a2,2,0,1,1,2,2A2,2,0,0,1,161,2Zm-7,0a2,2,0,1,1,2,2A2,2,0,0,1,154,2Zm-7,0a2,2,0,1,1,2,2A2,2,0,0,1,147,2Zm-7,0a2,2,0,1,1,2,2A2,2,0,0,1,140,2Zm-7,0a2,2,0,1,1,2,2A2,2,0,0,1,133,2Zm-7,0a2,2,0,1,1,2,2A2,2,0,0,1,126,2Zm-7,0a2,2,0,1,1,2,2A2,2,0,0,1,119,2Zm-7,0a2,2,0,1,1,2,2A2,2,0,0,1,112,2Zm-7,0a2,2,0,1,1,2,2A2,2,0,0,1,105,2ZM98,2a2,2,0,1,1,2,2A2,2,0,0,1,98,2ZM91,2a2,2,0,1,1,2,2A2,2,0,0,1,91,2ZM84,2a2,2,0,1,1,2,2A2,2,0,0,1,84,2ZM77,2a2,2,0,1,1,2,2A2,2,0,0,1,77,2ZM70,2a2,2,0,1,1,2,2A2,2,0,0,1,70,2ZM63,2a2,2,0,1,1,2,2A2,2,0,0,1,63,2ZM56,2a2,2,0,1,1,2,2A2,2,0,0,1,56,2ZM49,2a2,2,0,1,1,2,2A2,2,0,0,1,49,2ZM42,2a2,2,0,1,1,2,2A2,2,0,0,1,42,2ZM35,2a2,2,0,1,1,2,2A2,2,0,0,1,35,2ZM28,2a2,2,0,1,1,2,2A2,2,0,0,1,28,2ZM21,2a2,2,0,1,1,2,2A2,2,0,0,1,21,2ZM14,2a2,2,0,1,1,2,2A2,2,0,0,1,14,2ZM7,2A2,2,0,1,1,9,4,2,2,0,0,1,7,2ZM0,2A2,2,0,1,1,2,4,2,2,0,0,1,0,2Z" fill="url(#linear-gradient)"/>
</svg>
