<?xml version="1.0" encoding="utf-8"?>
<!-- Generator: Adobe Illustrator 24.3.0, SVG Export Plug-In . SVG Version: 6.00 Build 0)  -->
<svg version="1.1" id="Layer_1" xmlns="http://www.w3.org/2000/svg" xmlns:xlink="http://www.w3.org/1999/xlink" x="0px" y="0px"
	 viewBox="0 0 264.2 166.9" style="enable-background:new 0 0 264.2 166.9;" xml:space="preserve">
<style type="text/css">
	.st0{fill:#3F7B9E;}
	.st1{fill:#407B9E;}
	.st2{fill:#6E6B6B;}
	.st3{fill:#5C5CA7;}
	.st4{fill:#5D5BA7;}
	.st5{fill:#494A9E;}
	.st6{fill:#131111;}
	.st7{fill:#151313;}
	.st8{fill:#161515;}
	.st9{fill:#171515;}
	.st10{fill:#121111;}
	.st11{fill:#181717;}
	.st12{fill:#292727;}
	.st13{fill:#1F1D1D;}
	.st14{fill:#141312;}
	.st15{fill:#FFFFFF;}
	.st16{fill:#383636;}
	.st17{fill:#486AB2;}
</style>
<g transform="translate(1053.345 1721)">
	<path class="st0" d="M-828-1599.9c-0.2-0.2-0.3-0.5-0.5-0.7c-0.8-1.1-1.7-2.2-2.7-3.1c-0.8-0.8-1.7-1.4-2.6-2
		c-0.7-0.4-1.5-0.8-2.3-1.2c-0.8-0.4-1.7-0.7-2.5-0.9c-0.5-0.1-1-0.3-1.5-0.3c-0.6-0.1-1.1-0.2-1.7-0.2c-0.6,0-1.1-0.1-1.7-0.1
		c-0.7,0-1.4,0-2.1,0.1c-0.9,0.1-1.7,0.3-2.6,0.5c-0.9,0.2-1.8,0.6-2.7,1c-0.9,0.4-1.7,0.9-2.5,1.4c-1,0.7-1.9,1.5-2.8,2.3
		c-0.8,0.8-1.4,1.6-2,2.5c-0.1,0.2-0.2,0.2-0.4,0.1c-0.8-0.5-1.6-1.1-2.5-1.6c-0.1-0.1-0.2-0.2-0.1-0.3c0.9-1.4,2-2.7,3.2-3.8
		c0.1-0.1,0.3-0.2,0.4-0.4c0.1-0.1,0.1-0.2,0-0.3c-1-0.9-1.9-2-2.6-3.2c-0.4-0.7-0.7-1.4-1-2.1c-0.2-0.6-0.3-1.2-0.2-1.9
		c0-0.5,0.5-0.9,1-0.9c0.1,0,0.1,0,0.2,0c0.7,0.1,1.3,0.5,1.8,0.9c1.2,1,2.2,2.2,3,3.6c0.2,0.4,0.4,0.9,0.7,1.3
		c0,0.1,0.1,0.1,0.1,0.2c0.3-0.2,0.7-0.4,1-0.6c0.8-0.4,1.5-0.8,2.3-1.1c0.7-0.3,1.4-0.5,2.2-0.7c1.1-0.3,2.2-0.5,3.3-0.6
		c0.2,0,0.5,0,0.7-0.1c0.1,0,0.2-0.1,0.2-0.2c-0.2-0.8-0.3-1.6-0.3-2.4c0-0.7,0-1.4,0-2c0.1-0.6,0.2-1.3,0.3-1.9
		c0.1-0.5,0.3-1,0.6-1.4c0.2-0.3,0.5-0.6,0.8-0.8c0.3-0.1,0.7-0.1,1,0.2c0.3,0.3,0.6,0.7,0.8,1.2c0.5,1.2,0.7,2.4,0.7,3.7
		c0,0.8,0,1.6-0.1,2.3c-0.1,0.4-0.2,0.8-0.2,1.1c0,0.1,0,0.2,0.1,0.2c0.7,0.1,1.5,0.2,2.2,0.4c0.8,0.2,1.5,0.4,2.3,0.6
		c0.8,0.2,1.5,0.6,2.2,0.9c0.9,0.4,1.8,0.9,2.6,1.4c0.1,0.1,0.2,0.1,0.2-0.1c0.6-1.6,1.5-3,2.6-4.3c0.5-0.6,1.2-1.1,1.8-1.6
		c0.4-0.2,0.8-0.4,1.2-0.5c0.5-0.1,1,0.3,1.1,0.8c0,0,0,0,0,0.1c0.1,0.7,0,1.5-0.3,2.2c-0.4,1.2-1.1,2.3-1.9,3.3
		c-0.6,0.8-1.2,1.4-1.9,2c-0.1,0.1-0.1,0.2,0,0.3c0.6,0.6,1.3,1.2,1.8,1.9c0.6,0.8,1.2,1.6,1.8,2.4c0.1,0.2,0.1,0.2-0.1,0.3
		C-826.2-1601-827.1-1600.5-828-1599.9z"/>
	<path class="st0" d="M-858-1580.5c0.2,0.2,0.3,0.5,0.5,0.7c0.7,1,1.6,1.9,2.5,2.6c0.5,0.4,0.9,0.8,1.4,1.1c0.5,0.4,1.1,0.7,1.7,1
		c0.9,0.5,1.9,1,3,1.3c0.8,0.2,1.6,0.4,2.4,0.6c0.5,0.1,1.1,0.2,1.6,0.2c0.6,0.1,1.2,0.1,1.8,0.1c1,0,1.9-0.1,2.9-0.3
		c0.9-0.1,1.7-0.4,2.6-0.6c0.6-0.2,1.2-0.4,1.8-0.7c0.8-0.4,1.6-0.8,2.4-1.3c1-0.7,1.9-1.4,2.8-2.2c0.7-0.7,1.3-1.4,1.9-2.2
		c0.3-0.4,0.3-0.4,0.7-0.1c0.7,0.5,1.5,1,2.2,1.5c0.1,0.1,0.2,0.1,0.1,0.3c-0.8,1.1-1.7,2.1-2.6,3c-0.2,0.2-0.2,0.2,0,0.3
		c0.9,0.8,1.7,1.8,2.4,2.8c0.5,0.8,0.9,1.7,1.2,2.6c0.2,0.6,0.3,1.3,0.2,1.9c0,0.5-0.4,0.8-0.9,0.8c-0.4,0-0.9-0.1-1.3-0.4
		c-1-0.6-1.9-1.4-2.6-2.4c-0.6-0.8-1.2-1.7-1.7-2.6c-0.1-0.2-0.2-0.5-0.3-0.8c-0.2,0.2-0.5,0.3-0.7,0.4c-0.7,0.4-1.3,0.7-2,1.1
		c-0.6,0.3-1.3,0.6-2,0.8c-0.6,0.2-1.1,0.4-1.7,0.5c-0.5,0.1-1,0.3-1.5,0.4c-0.5,0.1-1.1,0.2-1.6,0.2c-0.2,0-0.2,0-0.2,0.2
		c0.1,0.5,0.2,1.1,0.2,1.6c0,0.7,0,1.4,0,2c0,0.7-0.2,1.4-0.3,2.1c-0.1,0.6-0.4,1.1-0.7,1.6c-0.2,0.3-0.4,0.5-0.7,0.6
		c-0.3,0.2-0.8,0.1-1-0.2c-0.3-0.3-0.6-0.7-0.7-1.1c-0.3-0.7-0.5-1.5-0.6-2.3c-0.1-0.6-0.1-1.2-0.1-1.8c0-0.9,0.1-1.8,0.3-2.7
		c0-0.1,0-0.2-0.1-0.2c-0.8-0.1-1.5-0.2-2.3-0.3c-0.6-0.1-1.2-0.3-1.8-0.4c-0.6-0.2-1.2-0.4-1.8-0.6c-0.7-0.3-1.4-0.6-2.1-0.9
		c-0.5-0.3-1-0.6-1.5-0.9c-0.1-0.1-0.2,0-0.2,0.1c-0.5,1.1-1.1,2.1-1.9,3.1c-0.7,0.9-1.6,1.7-2.6,2.3c-0.3,0.2-0.7,0.3-1,0.3
		c-0.5,0-0.9-0.3-0.9-0.8c-0.1-0.6,0-1.1,0.1-1.7c0.4-1.2,0.9-2.4,1.7-3.4c0.5-0.7,1-1.4,1.7-2c0.2-0.1,0.1-0.2,0-0.3
		c-0.7-0.7-1.3-1.4-2-2.1c-0.4-0.4-0.7-0.8-1-1.2c-0.1-0.2-0.1-0.2,0-0.3c0.7-0.5,1.5-1,2.2-1.5
		C-858.2-1580.3-858.1-1580.4-858-1580.5z"/>
	<path class="st0" d="M-826.4-1592.7c0,0.3,0.1,0.6,0.1,0.9c0.1,0.4,0.1,0.8,0.2,1.2c0.1,0.8,0.2,1.6,0.2,2.5c0,0.3,0,0.6,0,0.9
		c0,1.4,0,2.9,0,4.3c0,0.2-0.1,0.2-0.2,0.2c-1.1,0-2.2,0-3.2,0c-0.2,0-0.2,0-0.2-0.2c0-2.3,0-4.6,0-6.9v-8.1c0-0.2,0-0.2,0.2-0.2
		c1.3,0,2.6,0,3.9,0c0.1,0,0.3,0.1,0.3,0.2c0.3,0.7,0.6,1.5,0.8,2.2c0.2,0.6,0.5,1.3,0.7,1.9s0.5,1.3,0.7,1.9
		c0.2,0.5,0.3,0.9,0.4,1.4c0.1,0.4,0.2,0.8,0.4,1.2c0,0,0.1,0.1,0.1,0.1c0,0,0.1-0.1,0.1-0.1c0.1-0.4,0.2-0.7,0.3-1.1
		c0.2-0.7,0.4-1.3,0.6-2c0.2-0.6,0.4-1.2,0.6-1.8c0.2-0.6,0.4-1.2,0.6-1.8s0.4-1.2,0.6-1.7c0.1-0.2,0.1-0.4,0.2-0.5
		c0-0.1,0.1-0.1,0.2-0.1c1.4,0,2.7,0,4.1,0c0.1,0,0.2,0,0.2,0.2c0,0.1,0,0.1,0,0.2v14.9c0,0.3,0,0.3-0.3,0.3c-1.1,0-2.1,0-3.2,0
		c-0.2,0-0.2,0-0.2-0.2c0-1.4,0-2.9,0-4.3c0-1,0.1-2.1,0.2-3.1c0.1-0.7,0.2-1.4,0.2-2.1c0-0.1,0-0.2,0-0.4l-0.1,0
		c0,0.1-0.1,0.1-0.1,0.2c-0.2,0.5-0.4,1.1-0.6,1.6c-0.2,0.6-0.4,1.2-0.6,1.8c-0.2,0.5-0.4,1.1-0.6,1.6l-0.7,2
		c-0.2,0.5-0.4,1-0.6,1.5c0,0.1-0.1,0.1-0.2,0.1c-0.6,0-1.3,0-1.9,0c-0.1,0-0.1-0.1-0.2-0.1c-0.2-0.5-0.4-1-0.6-1.4
		c-0.2-0.5-0.4-1-0.5-1.5c-0.2-0.6-0.5-1.3-0.7-1.9c-0.3-0.8-0.6-1.6-0.8-2.4c-0.1-0.4-0.3-0.9-0.4-1.3
		C-826.3-1592.6-826.3-1592.6-826.4-1592.7L-826.4-1592.7z"/>
	<path class="st1" d="M-871.6-1590.4v-7.5c0-0.2,0-0.2,0.2-0.2h3.6c0.2,0,0.2,0,0.2,0.2v5.3c0,0.3,0,0.3,0.3,0.3h4.1
		c0.2,0,0.2,0,0.2-0.2v-5.3c0-0.2,0-0.2,0.3-0.2c1.2,0,2.4,0,3.6,0c0.2,0,0.2,0,0.2,0.2c0,5,0,10,0,15c0,0.2-0.1,0.2-0.2,0.2
		c-1.2,0-2.4,0-3.7,0c-0.2,0-0.2-0.1-0.2-0.2c0-1.9,0-3.8,0-5.7c0-0.3,0-0.3-0.3-0.3h-4.1c-0.2,0-0.3,0-0.3,0.3v5.6
		c0,0.3,0,0.3-0.3,0.3c-1.2,0-2.4,0-3.6,0c-0.2,0-0.2,0-0.2-0.2C-871.6-1585.3-871.6-1587.9-871.6-1590.4z"/>
	<path class="st1" d="M-855.5-1590.4v-7.5c0-0.3,0-0.3,0.3-0.3c3.2,0,6.3,0,9.5,0c0.2,0,0.2,0.1,0.2,0.2c0,1,0,2,0,3
		c0,0.2,0,0.2-0.2,0.2c-1.8,0-3.6,0-5.4,0c-0.3,0-0.3,0-0.3,0.3c0,0.6,0,1.3,0,1.9c0,0.3,0,0.3,0.3,0.3c1.5,0,3,0,4.5,0
		c0.2,0,0.2,0,0.2,0.2c0,1,0,2,0,3c0,0.2,0,0.2-0.2,0.2c-1.5,0-3,0-4.5,0c-0.3,0-0.3,0-0.3,0.3c0,0.8,0,1.5,0,2.3
		c0,0.2,0.1,0.2,0.2,0.2c1.9,0,3.8,0,5.6,0c0.3,0,0.3,0,0.3,0.3c0,1,0,2,0,2.9c0,0.2,0,0.2-0.2,0.2c-3.3,0-6.6,0-9.9,0
		c-0.2,0-0.2-0.1-0.2-0.2C-855.5-1585.3-855.5-1587.8-855.5-1590.4z"/>
	<path class="st1" d="M-842.2-1590.4v-7c0-0.2,0-0.4,0-0.6c0-0.1,0-0.2,0.2-0.2c1.3,0,2.5,0,3.8,0c0.1,0,0.2,0,0.2,0.2
		c0,0.1,0,0.1,0,0.2v11.4c0,0.3,0,0.3,0.3,0.3h5.3c0.2,0,0.2,0,0.2,0.2c0,1,0,2,0,3c0,0.2,0,0.2-0.2,0.2c-3.2,0-6.4,0-9.6,0
		c-0.1,0-0.2,0-0.2-0.2c0-0.6,0-1.2,0-1.8C-842.2-1586.5-842.2-1588.4-842.2-1590.4z"/>
</g>
<g transform="translate(896.908 1830.98)">
	<g transform="translate(0 0)">
		<path class="st2" d="M-740.7-1776.4l-0.3,0.1c0-3.5,0-7,0-10.5c0.1,0,0.2,0,0.3,0.1V-1776.4z"/>
		<path class="st3" d="M-878.3-1787c-5.2-3-10.1-5.8-15-8.7c-0.4-0.2-0.6-0.6-0.6-1c0-5.7,0-11.4,0-17.3c1.6,0.9,3,1.7,4.4,2.5
			c3.4,2,6.8,3.9,10.1,5.9c0.6,0.3,1,0.9,1.1,1.6C-878.3-1798.5-878.3-1792.9-878.3-1787z"/>
		<path class="st3" d="M-876.6-1804c5.2,3,10.1,5.8,15,8.7c0.4,0.3,0.6,0.8,0.6,1.4c0,5.5,0,11.1,0,16.9c-0.6-0.3-1.1-0.5-1.5-0.8
			c-4.4-2.5-8.7-5-13.1-7.6c-0.6-0.3-1-0.9-1.1-1.6C-876.7-1792.5-876.6-1798.1-876.6-1804z"/>
		<path class="st4" d="M-876.6-1784c4.5,2.6,8.5,5.1,12.8,7.3c2.3,1.2,3.1,2.6,3,5.2c-0.3,4.7-0.1,9.5-0.1,14.5
			c-0.6-0.3-1.1-0.5-1.5-0.7c-4.4-2.5-8.8-5-13.2-7.6c-0.5-0.3-0.9-0.9-1-1.5C-876.7-1772.5-876.6-1778.1-876.6-1784z"/>
		<path class="st5" d="M-843.6-1804c0,6,0,11.6,0,17.2c0,0.5-0.3,0.9-0.7,1.2c-4.9,2.8-9.8,5.6-14.9,8.6v-4.1c0-4.2,0-8.4,0-12.6
			c0-0.6,0.2-1.2,0.7-1.7C-853.7-1798.2-848.8-1801-843.6-1804z"/>
		<path class="st6" d="M-741-1786.9c0,3.5,0,7,0,10.5l-3.1,0.2c0-2.8,0-5.5,0-8.2c0-0.8,0.3-1.9-1.2-1.9c-1.8,0-3.2,0.8-3.2,2.1
			c0,2.6,0,5.1,0,7.8h-3.3c0-2.7,0-5.5,0-8.2c0-1.7-0.4-2-2-1.6c-1.5,0.3-2.6,0.9-2.4,2.8c0.2,2.3,0.1,4.6,0.1,7h-3.2v-13.1l3.1,0.7
			c2.5-0.2,5-2.1,7.3,0.3c1.6-0.4,3.1-0.9,4.7-1.1C-742.3-1789.7-741.5-1788.9-741-1786.9z"/>
		<path class="st7" d="M-780.4-1782.8v-0.5c0-5.1,3.5-7.5,8.4-5.8c1.4,0.3,2.5,1.5,2.7,2.9c0.2,2.3,0.2,4.5,0,6.8
			c-0.1,1.5-1.2,2.7-2.7,2.9c-1.7,0.3-3.5,0.3-5.3,0c-2-0.4-3-1.9-3.1-4.1C-780.4-1781.2-780.4-1782-780.4-1782.8L-780.4-1782.8z
			 M-772.4-1782.6L-772.4-1782.6c0-0.7,0-1.4,0-2.2c-0.2-1.5-1.2-1.8-2.5-1.8c-1.3,0.1-2.1,0.6-2.1,2c0,1.2,0,2.3,0,3.5
			c-0.2,1.1,0.6,2.1,1.7,2.3c0.2,0,0.4,0,0.5,0c1.1,0.2,2.2-0.5,2.5-1.6c0-0.2,0.1-0.4,0-0.6
			C-772.3-1781.5-772.4-1782.1-772.4-1782.6L-772.4-1782.6z"/>
		<path class="st8" d="M-819.3-1779.1l0.5,2.3c-2.8,0.9-5.6,1.5-8.4,0.1c-0.9-0.5-1.5-1.3-1.7-2.3c-0.3-2.4-0.3-4.8,0-7.1
			c0.3-2.2,2.4-3.3,5.3-3.3c2.7,0.1,4.2,1.1,4.7,3.4c0.2,1.5,0.3,3.1,0.4,4.6h-7.2c-0.2,2.2,0.2,2.8,2.2,2.7
			C-822-1778.8-820.7-1779-819.3-1779.1z M-821.9-1784.2c0.2-1.9-0.3-2.5-1.7-2.6c-1.6-0.1-2.2,0.7-2.1,2.6H-821.9z"/>
		<path class="st9" d="M-800.5-1786.4l-0.4-2.4c2.4-1,5-1,7.4-0.2c1.1,0.5,1.9,1.5,2.1,2.6c0.3,3.3,0.1,6.7,0.1,10.4
			c-1-0.3-1.9-0.5-2.7-0.7c-0.3,0-0.6,0-0.9,0.1c-0.6,0.2-1.3,0.4-1.9,0.6c-3.4,0.5-5.4-1.9-4.4-5.2c0.4-1.3,1.7-2.2,3-2.1
			c1.2,0,2.3,0,3.5,0c0.4-2.9-0.1-3.4-2.9-3.2C-798.4-1786.6-799.4-1786.5-800.5-1786.4z M-794.5-1781.4c-1.1,1-3.2-1-3.5,1.7
			c-0.1,1.2,0.7,1.2,1.5,1.1C-794.6-1778.7-794.3-1779.1-794.5-1781.4z"/>
		<path class="st10" d="M-839.5-1793.9h13.2v2.9h-4.8v14.7h-3.4v-14.6h-4.9L-839.5-1793.9z"/>
		<path class="st11" d="M-787.8-1786.5l-1.9-0.1v-2.5l1.8-0.1c0.2-1.8-0.4-4.2,1.6-5.1c1.6-0.7,3.5-0.6,5.5-0.9l-0.4,2.8
			c-3.5,0.4-3.5,0.4-3.3,3.1h3.1c0.2,2.4,0.2,2.4-3.1,2.8v10.1h-3.4L-787.8-1786.5z"/>
		<path class="st12" d="M-764-1776.2h-3.3v-12.9c1.1,0.2,2.5-0.9,3.1,1l3.3-1.5c0,0.7,0.1,1.3,0.2,2c0.3,0.6,0,1.3-0.5,1.5
			c-0.1,0.1-0.2,0.1-0.3,0.1c-1.9,0.6-2.6,1.9-2.4,3.9C-764-1780.1-764-1778.2-764-1776.2z"/>
		<path class="st13" d="M-810.3-1789.5c0.6,2.8,0.6,2.8-1.7,4.1c-0.9,0.4-1.4,1.3-1.3,2.2c0.1,2.3,0,4.6,0,6.9h-3.3v-12.9
			c1,0.4,2.6-1.1,3,1.2L-810.3-1789.5z"/>
		<path class="st14" d="M-808.6-1789.2c1.1,0.4,2.6-0.8,3,1.2l3.1-1.4c0.8,2.7,0.8,2.8-1.6,4c-0.9,0.4-1.5,1.3-1.4,2.3
			c0.1,2.2,0,4.4,0,6.8h-3.3V-1789.2z"/>
	</g>
</g>
<g transform="translate(1103.546 1818.006)">
	<path d="M-865.7-1736.1c-0.3-0.1-0.6-0.1-0.9-0.2c-0.9-0.2-1.6-1-1.5-2c0-0.6,0.3-1.1,0.8-1.4c0.1,0,0.2-0.1,0.2-0.1l-0.2-0.1
		c-0.5-0.4-0.8-1.1-0.7-1.7c0.1-0.6,0.5-1.1,1.1-1.3c0.4-0.1,0.9-0.2,1.3-0.2c0.9-0.1,1.7,0,2.6,0.2l-0.1,0.8
		c-0.4,0-0.8-0.1-1.2-0.1c-0.6,0-1.2,0-1.8,0c-0.1,0-0.2,0-0.3,0.1c-0.4,0.1-0.6,0.4-0.7,0.8c-0.1,0.4,0.1,0.8,0.5,1
		c0.3,0.2,0.6,0.2,0.9,0.3c0.5,0,1,0,1.5,0c0.3,0,0.5,0.1,0.5,0.4c0,0.3-0.2,0.4-0.5,0.4c-0.6,0-1.2,0-1.7,0c-0.2,0-0.5,0.1-0.7,0.1
		c-0.4,0.1-0.7,0.5-0.7,0.9c0,0.4,0.2,0.8,0.5,1c0.4,0.2,0.9,0.3,1.3,0.3c0.7,0,1.5-0.1,2.2-0.2c0,0,0.1,0,0.1,0l0.1,0.8l-1.4,0.2
		c-0.1,0-0.2,0-0.3,0.1L-865.7-1736.1z"/>
	<path d="M-898.4-1736.1c-0.4-0.1-0.8-0.2-1.2-0.2c-0.3-0.1-0.6-0.2-0.9-0.3l0.2-0.7c0.6,0.1,1.1,0.2,1.6,0.3c0.6,0.1,1.2,0.1,1.7,0
		c0.4,0,0.7-0.3,0.9-0.7c0.1-0.2,0-0.5-0.2-0.6c-0.2-0.2-0.4-0.3-0.6-0.4c-0.7-0.4-1.5-0.7-2.2-1.1c-0.3-0.1-0.5-0.3-0.7-0.5
		c-0.4-0.3-0.6-0.9-0.5-1.4c0.1-0.5,0.4-0.9,0.9-1.1c0.5-0.2,1-0.3,1.5-0.3c0.9,0,1.7,0.1,2.5,0.3l-0.1,0.8
		c-0.4-0.1-0.7-0.1-1.1-0.2c-0.7,0-1.4-0.1-2,0c-0.4,0-0.7,0.2-0.8,0.6c-0.1,0.3,0,0.5,0.2,0.7c0.3,0.2,0.5,0.4,0.8,0.5
		c0.6,0.3,1.3,0.6,1.9,0.9c0.2,0.1,0.5,0.3,0.7,0.4c0.7,0.5,0.8,1.5,0.2,2.2c-0.1,0.1-0.1,0.1-0.2,0.2c-0.4,0.3-0.9,0.5-1.4,0.6
		c-0.1,0-0.1,0-0.2,0.1L-898.4-1736.1z"/>
	<path d="M-891.6-1745.8c-15.9,0-28.7-12.9-28.7-28.8c0-15.9,12.9-28.7,28.7-28.7c0,0,0,0,0,0c15.9,0,28.7,12.9,28.7,28.7
		c0,0,0,0,0,0C-862.8-1758.7-875.7-1745.8-891.6-1745.8z M-896.2-1772.9c0.7,0.6,1.3,1.1,2,1.6c3.9,3.1,7.8,6.3,11.7,9.4
		c0.5,0.5,1.1,0.9,1.7,1.3c1,0.6,2.2,0.3,2.8-0.6c0,0,0-0.1,0-0.1c0.3-0.6,0.3-1.4,0-2c-2.7-6.5-5.4-13.1-8.2-19.6
		c-1.1-2.6-2.1-5.1-3.2-7.7c-0.2-0.6-0.7-1-1.3-1.2c-1-0.3-2.1,0.2-2.4,1.2c-4.1,10-8.3,19.9-12.4,29.9c0,0.1-0.1,0.1-0.1,0.2h0.3
		c1.2,0,2.5,0,3.7,0c0.2,0,0.3-0.1,0.4-0.2c1.3-3.4,2.7-6.8,4-10.2C-896.7-1771.6-896.4-1772.2-896.2-1772.9L-896.2-1772.9z"/>
	<path d="M-881.3-1739.8c0,0,0.1,0,0.1,0.1c0.7,0.2,1.1,0.8,1.2,1.6c0,0.7-0.3,1.4-1,1.7c-0.4,0.2-0.8,0.3-1.2,0.3
		c-0.9,0-1.7,0-2.6,0c-0.4,0-0.6-0.2-0.6-0.6c0-1.9,0-3.8,0-5.7c0-0.4,0.2-0.6,0.5-0.6c0.8,0,1.6,0,2.4,0c0.3,0,0.6,0.1,0.9,0.2
		c0.9,0.3,1.3,1.2,1,2.1c-0.1,0.3-0.3,0.5-0.5,0.7C-881.1-1740-881.2-1739.9-881.3-1739.8z M-884.5-1739.3v2.3c0.8,0,1.6,0,2.4,0
		c0.6,0,1.1-0.5,1.2-1.1c0,0,0,0,0,0c0-0.6-0.4-1.1-1-1.2c0,0,0,0,0,0C-882.8-1739.3-883.7-1739.3-884.5-1739.3L-884.5-1739.3z
		 M-884.5-1740.1c0.7,0,1.4,0,2.1,0c0.6-0.1,1-0.5,1-1.1c0-0.5-0.4-1-1-1c0,0,0,0,0,0c-0.4,0-0.8,0-1.1,0c-0.3,0-0.7,0-1,0
		L-884.5-1740.1z"/>
	<path d="M-909.5-1741.4v5.2h-0.9c0-0.1,0-0.1,0-0.2c0-2,0-4.1,0-6.1c0,0,0-0.1,0-0.1c0-0.2,0.1-0.4,0.3-0.4c0.2-0.1,0.4,0,0.5,0.2
		c0.4,0.6,0.9,1.1,1.3,1.7c0.8,1.1,1.6,2.1,2.4,3.2c0,0.1,0.1,0.1,0.2,0.2v-5.2h0.9c0,0.1,0,0.1,0,0.2c0,2.1,0,4.1,0,6.2
		c0,0.3-0.1,0.5-0.4,0.5c-0.1,0-0.2,0-0.3,0c-0.1-0.1-0.2-0.1-0.2-0.2c-1.2-1.6-2.4-3.2-3.6-4.8
		C-909.3-1741.2-909.4-1741.3-909.5-1741.4z"/>
	<path d="M-920.4-1736.2c0-0.1,0.1-0.2,0.1-0.3c0.9-2.1,1.7-4.2,2.6-6.3l0,0c0.1-0.2,0.2-0.3,0.4-0.3c0.2,0,0.4,0.1,0.4,0.3
		c0.8,2,1.6,4,2.4,6c0.1,0.2,0.1,0.5-0.1,0.6c-0.2,0.1-0.4,0.1-0.6-0.1c-1-0.8-2-1.6-3-2.5c-0.1-0.1-0.1-0.1-0.2-0.2
		c-0.2,0.5-0.4,1.1-0.6,1.6c-0.1,0.3-0.3,0.7-0.4,1c0,0.1-0.1,0.2-0.2,0.2C-919.9-1736.2-920.1-1736.2-920.4-1736.2z M-917.2-1741.7
		c0,0.1-0.1,0.2-0.1,0.2c-0.2,0.5-0.4,1-0.6,1.5c-0.1,0.3-0.1,0.4,0.2,0.6c0.1,0.1,0.2,0.2,0.3,0.3l1.8,1.4l0,0L-917.2-1741.7z"/>
	<path d="M-871.5-1736.2c-0.1,0-0.2,0-0.2,0c-1.2,0-2.5,0-3.7,0c-0.5,0-0.6-0.2-0.6-0.6v-6c0-0.1,0-0.2,0-0.2h0.9v6h3.7
		L-871.5-1736.2z"/>
	<path d="M-890.1-1736.2h-0.9v-6.8h0.9V-1736.2z"/>
	<path class="st15" d="M-896.2-1772.9c-0.3,0.7-0.6,1.4-0.8,2.1c-1.3,3.4-2.7,6.8-4,10.1c0,0.2-0.2,0.3-0.4,0.2c-1.2,0-2.5,0-3.7,0
		h-0.3c0-0.1,0.1-0.2,0.1-0.2c4.1-10,8.3-19.9,12.4-29.9c0.3-1,1.4-1.5,2.4-1.2c0.6,0.2,1.1,0.6,1.3,1.2c1.1,2.6,2.1,5.1,3.2,7.7
		c2.7,6.5,5.4,13.1,8.2,19.6c0.3,0.6,0.3,1.4,0,2c-0.6,1-1.8,1.3-2.8,0.8c0,0-0.1,0-0.1,0c-0.6-0.4-1.1-0.8-1.7-1.3
		c-3.9-3.1-7.8-6.3-11.7-9.4C-894.8-1771.9-895.5-1772.4-896.2-1772.9z M-883.7-1767.5L-883.7-1767.5l-7.3-18.3
		c0,0.1-0.1,0.2-0.1,0.2c-1.2,3-2.4,6-3.6,9c-0.1,0.2,0,0.3,0.1,0.4c3.1,2.4,6.1,4.8,9.2,7.3
		C-884.9-1768.4-884.3-1767.9-883.7-1767.5L-883.7-1767.5z"/>
	<path d="M-883.7-1767.5c-0.6-0.4-1.1-0.9-1.7-1.3c-3.1-2.4-6.1-4.8-9.2-7.3c-0.1-0.1-0.2-0.2-0.1-0.4c1.2-3,2.4-6,3.6-9
		c0-0.1,0.1-0.1,0.1-0.2L-883.7-1767.5L-883.7-1767.5z"/>
</g>
<g transform="translate(923.181 1732.071)">
	<path class="st16" d="M-873.8-1576.4c-0.8-0.1-1.5-0.2-2.3-0.4c-0.2-0.1-0.2,0-0.2-0.2v-13.3c0-0.2,0-0.2,0.1-0.2
		c0.3-0.1,0.6-0.1,0.9-0.2l1.3-0.2c0,0,0.1,0,0.1,0v4.8c0.1,0,0.1,0,0.2,0c0.9-0.4,1.9-0.5,2.8-0.2c0.8,0.2,1.5,0.7,2,1.4
		c0.4,0.6,0.7,1.3,0.8,2.1c0.1,0.8,0.2,1.6,0.1,2.3c-0.1,0.8-0.3,1.5-0.7,2.2c-0.6,1-1.6,1.7-2.8,1.9c-0.1,0-0.2,0-0.3,0
		c-0.3,0-0.5,0-0.8,0.1h-0.4C-873.1-1576.4-873.5-1576.4-873.8-1576.4z M-873.7-1581.3L-873.7-1581.3c0,0.8,0,1.7,0,2.5
		c0,0.2,0,0.2,0.1,0.2c0.4,0.1,0.7,0.1,1.1,0.1c0.8,0,1.5-0.5,1.8-1.3c0-0.1,0.1-0.2,0.1-0.3c0.2-0.8,0.2-1.6,0.1-2.4
		c0-0.3-0.1-0.6-0.3-0.8c-0.2-0.5-0.7-0.9-1.3-0.9c-0.5,0-1,0.1-1.5,0.3c-0.1,0-0.2,0.2-0.2,0.3
		C-873.7-1582.9-873.7-1582.1-873.7-1581.3z"/>
	<path class="st16" d="M-896.9-1590.5l2.5-0.4c0.1,0,0.1,0,0.1,0.1c0,0.2,0,0.4,0,0.5v7.5c0,0.1,0,0.2,0,0.2c0,0,0.1-0.1,0.1-0.1
		c0.9-1.1,1.8-2.3,2.5-3.5c0.1-0.1,0.2-0.2,0.3-0.2c0.9,0,1.8,0,2.7,0c0.1,0,0.1,0,0.2,0c0,0.1-0.1,0.1-0.1,0.2
		c-1,1.3-2.1,2.5-3.3,3.7c-0.1,0.1-0.2,0.2-0.2,0.2s-0.1,0.1,0,0.2c0.4,0.4,0.9,0.9,1.2,1.4c0.9,1,1.6,2.1,2.3,3.2
		c0.2,0.3,0.3,0.5,0.4,0.8h-0.2c-0.9,0-1.7,0-2.6,0c-0.1,0-0.2-0.1-0.3-0.2c-0.8-1.5-1.8-2.9-2.9-4.1c-0.1-0.1-0.1-0.1-0.2-0.2
		c0,0,0,0-0.1,0c0,0.1,0,0.1,0,0.2c0,1.3,0,2.7,0,4c0,0.3,0,0.3-0.3,0.3c-0.7,0-1.4,0-2.1,0c-0.1,0-0.1,0-0.2,0L-896.9-1590.5z"/>
	<path class="st16" d="M-830.8-1576.4c-0.2,0-0.3-0.1-0.5-0.1c-0.7-0.1-1.3-0.3-1.9-0.5c-1.1-0.5-1.9-1.5-2.2-2.6
		c-0.4-1.3-0.3-2.7,0.1-4c0.4-1.1,1.2-2,2.2-2.5c0.6-0.3,1.2-0.5,1.8-0.5c0.6,0,1.2,0,1.7,0.2c1.2,0.3,2.2,1.3,2.5,2.5
		c0.2,0.6,0.3,1.2,0.3,1.8c0,0.5,0,1,0,1.4h-6.3c0,0.1,0,0.2,0,0.3c0.1,0.4,0.3,0.9,0.7,1.1c0.4,0.3,0.9,0.5,1.4,0.6
		c0.9,0.1,1.8,0,2.7-0.3c0.2-0.1,0.4-0.1,0.6-0.2c0,0.3,0.1,0.5,0.1,0.8c0.1,0.4,0.1,0.8,0.2,1.2c0,0.2,0,0.2-0.1,0.2
		c-0.7,0.2-1.5,0.4-2.2,0.5c0,0-0.1,0-0.1,0L-830.8-1576.4z M-833-1582.4c0.1,0,0.1,0,0.2,0c1.2,0,2.3,0,3.5,0c0,0,0.1,0,0.1,0
		c0.1,0,0.1,0,0.1-0.1c0-0.2,0-0.4-0.1-0.5c-0.1-0.6-0.6-1.1-1.2-1.3c-0.3-0.1-0.6-0.1-0.9-0.1c-0.4,0-0.8,0.2-1.1,0.5
		C-832.7-1583.5-832.9-1583-833-1582.4z"/>
	<path class="st16" d="M-810.2-1576.4c-0.2,0-0.3-0.1-0.5-0.1c-0.6-0.1-1.3-0.2-1.8-0.5c-1.2-0.5-2-1.6-2.3-2.9
		c-0.2-0.8-0.2-1.6-0.1-2.4c0.1-0.8,0.4-1.7,0.8-2.4c0.8-1.3,2.2-2,3.7-2c0.6,0,1.3,0.1,1.9,0.3c1,0.4,1.8,1.2,2.1,2.2
		c0.2,0.6,0.3,1.2,0.4,1.8c0,0.4,0,0.9,0,1.3c0,0,0,0.1,0,0.1c0,0.1,0,0.1-0.1,0.1c-0.1,0-0.2,0-0.3,0c-1.9,0-3.7,0-5.6,0
		c-0.1,0-0.2,0-0.2,0c0,0.4,0.2,0.8,0.4,1.1c0.4,0.4,0.9,0.7,1.4,0.8c0.7,0.1,1.4,0.1,2.1,0c0.4-0.1,0.8-0.2,1.2-0.3l0.2-0.1
		l0.1,0.9c0.1,0.4,0.1,0.8,0.2,1.1c0,0.1,0,0.1-0.1,0.2c-0.6,0.2-1.2,0.3-1.9,0.4c-0.3,0-0.5,0.1-0.8,0.1c0,0,0,0,0,0L-810.2-1576.4
		z M-812.3-1582.4L-812.3-1582.4c1.3,0,2.5,0,3.8,0c0.1,0,0.1,0,0.1-0.1c0-0.4-0.1-0.8-0.3-1.1c-0.2-0.3-0.6-0.6-1-0.7
		c-0.2-0.1-0.5-0.1-0.7-0.1c-0.6,0-1.2,0.4-1.5,0.9C-812.2-1583.1-812.3-1582.8-812.3-1582.4z"/>
	<path class="st16" d="M-883.6-1576.4c-0.8-0.1-1.6-0.5-2.1-1.1c-0.4-0.4-0.6-1-0.7-1.5c-0.1-0.5-0.2-1.1-0.2-1.6c0-1.8,0-3.6,0-5.4
		c0-0.2,0-0.2,0.2-0.2c0.7,0,1.4,0,2.1,0c0.2,0,0.2,0,0.2,0.2c0,1.6,0,3.3,0,4.9c0,0.5,0,1,0.1,1.4c0,0.1,0.1,0.3,0.1,0.4
		c0.2,0.4,0.6,0.7,1,0.8c0.4,0,0.9,0,1.3-0.1c0.1,0,0.1,0,0.1-0.1c0-0.1,0-0.1,0-0.2c0-2.4,0-4.7,0-7.1c0-0.3,0-0.3,0.3-0.3
		c0.7,0,1.4,0,2.1,0c0.2,0,0.2,0,0.2,0.2v8.9c0,0,0,0.1,0,0.1c0,0.1,0,0.1-0.1,0.2c-0.5,0.1-0.9,0.2-1.4,0.3
		c-0.4,0.1-0.8,0.1-1.1,0.2c-0.3,0-0.6,0.1-0.8,0.1c0,0,0,0,0,0h-0.6C-883.1-1576.4-883.4-1576.4-883.6-1576.4z"/>
	<path class="st16" d="M-801.6-1576.4c-0.4,0-0.8-0.1-1.2-0.3c-0.4-0.1-0.8-0.3-1.2-0.4c-0.2-0.1-0.2-0.1-0.1-0.2
		c0.1-0.5,0.2-0.9,0.3-1.4c0-0.2,0.1-0.4,0.1-0.6c0.1,0,0.1,0,0.2,0c0.6,0.2,1.2,0.4,1.8,0.6c0.8,0.2,1.7,0.2,2.5,0
		c0.1,0,0.1,0,0.2-0.1c0.3-0.1,0.5-0.4,0.4-0.7c0-0.1-0.1-0.1-0.1-0.2c-0.1-0.2-0.3-0.3-0.4-0.4c-0.3-0.1-0.6-0.3-0.9-0.3
		c-0.5-0.2-1-0.3-1.5-0.5c-0.4-0.1-0.8-0.3-1.2-0.6c-0.6-0.3-1-0.9-1.1-1.5c-0.3-1.4,0.4-2.8,1.7-3.3c0.5-0.2,1.1-0.4,1.7-0.4
		c0.9-0.1,1.9,0,2.8,0.2c0.3,0.1,0.6,0.2,0.9,0.3c0.1,0,0.1,0,0.1,0.1c-0.1,0.7-0.2,1.3-0.4,2c0,0,0,0,0,0.1
		c-0.2-0.1-0.4-0.1-0.6-0.2c-0.4-0.1-0.8-0.3-1.2-0.3c-0.6-0.1-1.2-0.1-1.9,0c-0.2,0-0.3,0.1-0.5,0.2c-0.2,0.2-0.3,0.5-0.1,0.8
		c0,0,0.1,0.1,0.1,0.1c0.1,0.1,0.2,0.2,0.4,0.3c0.3,0.2,0.7,0.3,1.1,0.4c0.5,0.2,1,0.3,1.5,0.5c0.4,0.2,0.8,0.4,1.2,0.7
		c0.5,0.3,0.8,0.9,0.9,1.4c0.1,0.5,0.1,1.1-0.1,1.6c-0.2,0.6-0.6,1-1.1,1.3c-0.5,0.3-1.1,0.5-1.7,0.6c-0.3,0-0.5,0.1-0.8,0.1
		c0,0-0.1,0-0.1,0h-0.4c-0.1,0-0.2,0-0.2,0C-801-1576.4-801.3-1576.4-801.6-1576.4z"/>
	<path class="st17" d="M-860.2-1576.4c-0.1,0.1-0.2,0-0.2,0.1h-1.5c-0.1-0.1-0.2,0-0.2-0.1c0.1,0,0.2,0,0.2,0c0.4,0,0.9,0.1,1.3,0
		C-860.5-1576.4-860.4-1576.4-860.2-1576.4z"/>
	<path class="st17" d="M-818.8-1576.4L-818.8-1576.4L-818.8-1576.4l-1.2,0c-0.1-0.1-0.2,0-0.2-0.1c0.3,0,0.5,0,0.8,0
		C-819.3-1576.4-819-1576.4-818.8-1576.4z"/>
	<path class="st17" d="M-801.6-1576.4c0.3,0,0.6,0.1,0.9,0.1c0.1,0,0.2,0,0.2,0h-0.9C-801.4-1576.4-801.6-1576.4-801.6-1576.4z"/>
	<path class="st17" d="M-873.8-1576.4c0.3,0,0.6,0,1,0.1h-0.6C-873.5-1576.5-873.7-1576.4-873.8-1576.4z"/>
	<path class="st17" d="M-882.3-1576.4C-882.3-1576.4-882.3-1576.4-882.3-1576.4c0.3,0,0.6-0.1,0.9-0.1c-0.1,0.1-0.2,0-0.3,0.1
		H-882.3z"/>
	<path class="st17" d="M-809.4-1576.4C-809.4-1576.4-809.4-1576.4-809.4-1576.4c0.3,0,0.6-0.1,0.8-0.1c-0.1,0.1-0.2,0-0.2,0.1
		H-809.4z"/>
	<path class="st17" d="M-872.4-1576.4c0.2,0,0.5-0.1,0.8-0.1c-0.1,0-0.2,0-0.2,0.1H-872.4z"/>
	<path class="st17" d="M-883.6-1576.4c0.3,0,0.5,0,0.8,0.1h-0.5C-883.4-1576.5-883.6-1576.4-883.6-1576.4z"/>
	<path class="st17" d="M-848.9-1594.1c-3.3,0-6.7,0-10,0c-0.4,0-0.8,0-1.2-0.1c-0.8-0.2-1.4-0.7-1.9-1.3l-7.7-9.6
		c-1.8-2.2-3.5-4.4-5.3-6.6c-0.5-0.6-0.9-1.4-0.9-2.2c0-0.4,0-0.8,0.1-1.2c1.4-6.1,2.8-12.1,4.2-18.2c0.1-0.6,0.3-1.2,0.4-1.8
		c0.2-1.2,1-2.2,2.1-2.6c5.9-2.8,11.8-5.6,17.7-8.5c0.3-0.2,0.7-0.3,1-0.5c1.1-0.6,2.4-0.6,3.5,0c4,1.9,7.9,3.8,11.9,5.7
		c2.3,1.1,4.6,2.2,6.9,3.3c1,0.5,1.8,1.4,2,2.5c0.1,0.5,0.2,1.1,0.4,1.6c1,4.4,2,8.8,3,13.2c0.4,1.8,0.8,3.6,1.2,5.4
		c0.3,1,0.1,2.2-0.5,3.1c-0.1,0.2-0.3,0.4-0.4,0.6c-4.1,5.1-8.2,10.2-12.4,15.4c-0.2,0.2-0.4,0.5-0.6,0.7c-0.6,0.7-1.5,1.2-2.5,1.2
		c-0.5,0-1,0-1.5,0C-842.5-1594.1-845.7-1594.1-848.9-1594.1L-848.9-1594.1z M-849.5-1636.1c0,0.2,0,0.3,0,0.5
		c0,0.3-0.1,0.5-0.3,0.7c-0.1,0.1-0.2,0.2-0.1,0.4c0,0.2-0.1,0.2-0.2,0.2c-0.2,0-0.4,0-0.7,0.1c-2.3,0.3-4.5,1.2-6.4,2.6
		c-0.7,0.5-1.4,1.1-2,1.7c-0.1,0.1-0.2,0.2-0.4,0c-0.1-0.1-0.3-0.2-0.4-0.1c-0.2,0-0.4,0-0.6-0.2c-0.4-0.3-0.8-0.6-1.1-1
		c-0.3-0.3-0.7-0.7-1-1.1c-0.3-0.3-0.6-0.5-1-0.5c-0.6-0.1-1.1,0.3-1.2,0.9c0,0,0,0.1,0,0.1c0,0.5,0.2,0.9,0.6,1.2
		c0.3,0.2,0.6,0.4,1,0.6c0.6,0.3,1.2,0.7,1.7,1.2c0.2,0.1,0.3,0.4,0.3,0.6c0,0.1,0.1,0.3,0.2,0.3c0.2,0.2,0.2,0.2,0.1,0.4
		c-1.8,2.9-2.6,6.4-2.2,9.8c0,0.2,0,0.2-0.2,0.3c-0.2,0-0.4,0.2-0.5,0.4c-0.1,0.1-0.2,0.2-0.4,0.3c-0.3,0.1-0.6,0.2-1,0.2
		c-0.7,0.1-1.3,0.1-2,0.2c-0.3,0-0.6,0.1-0.8,0.3c-0.4,0.2-0.6,0.6-0.5,1.1c0,0.4,0.3,0.8,0.8,0.9c0.2,0.1,0.4,0.1,0.6,0.1
		c0.4,0,0.8-0.2,1.1-0.3c0.7-0.3,1.4-0.5,2.2-0.7c0.2-0.1,0.4,0,0.6,0.1c0.1,0.1,0.3,0.1,0.5,0.1c0.1-0.1,0.3,0,0.3,0.2
		c0,0.1,0,0.1,0.1,0.2c0.7,2,1.9,3.9,3.4,5.5c0.8,0.8,1.7,1.6,2.7,2.2c0.3,0.2,0.3,0.1,0.1,0.4c-0.1,0.1-0.1,0.3,0,0.4
		c0.1,0.2,0.1,0.5-0.1,0.7c-0.3,0.7-0.8,1.4-1.2,2c-0.2,0.2-0.3,0.5-0.5,0.8c-0.1,0.2-0.1,0.5-0.1,0.7c0,0.6,0.5,1.1,1.1,1
		c0.1,0,0.3,0,0.4-0.1c0.3-0.1,0.5-0.4,0.7-0.6c0.2-0.4,0.3-0.8,0.5-1.2c0.2-0.6,0.4-1.3,0.7-1.8c0.1-0.2,0.3-0.4,0.5-0.4
		c0.2,0,0.3-0.2,0.4-0.3c0.1-0.2,0.1-0.2,0.4-0.1c1.1,0.4,2.3,0.6,3.4,0.8c1.2,0.1,2.5,0.1,3.7-0.1c1-0.1,2-0.4,2.9-0.7
		c0.2-0.1,0.3,0,0.3,0.1c0,0.1,0.2,0.2,0.3,0.3c0.3,0.1,0.5,0.3,0.6,0.5c0.2,0.5,0.4,1,0.6,1.6c0.1,0.4,0.2,0.7,0.3,1.1
		c0.1,0.3,0.2,0.5,0.4,0.8c0.3,0.3,0.9,0.4,1.3,0.2c0.4-0.2,0.7-0.6,0.6-1.1c0-0.3-0.1-0.6-0.2-0.8c-0.2-0.3-0.3-0.6-0.5-0.8
		c-0.4-0.6-0.7-1.1-1-1.8c-0.1-0.2-0.1-0.4-0.1-0.5c0.1-0.2,0.1-0.4,0-0.6c-0.1-0.1,0-0.2,0.1-0.3c0.1,0,0.1-0.1,0.2-0.1
		c2.2-1.4,4-3.4,5.2-5.7c0.3-0.6,0.6-1.3,0.8-2c0.1-0.3,0.1-0.3,0.4-0.2c0.1,0,0.2,0,0.3,0c0.3-0.2,0.6-0.2,0.9-0.1
		c0.2,0,0.3,0.1,0.5,0.1c0.6,0.2,1.2,0.4,1.8,0.7c0.3,0.2,0.7,0.2,1.1,0.2c0.5,0,0.9-0.3,1.1-0.8c0.1-0.5,0-1-0.4-1.2
		c-0.2-0.2-0.4-0.3-0.7-0.3c-0.4-0.1-0.8-0.1-1.2-0.1c-0.6,0-1.3-0.1-1.9-0.3c-0.2,0-0.4-0.1-0.5-0.3c-0.1-0.2-0.3-0.3-0.5-0.3
		c-0.1,0-0.2-0.1-0.1-0.2c0-0.3,0.1-0.6,0.1-0.9c0.1-1.7-0.1-3.4-0.6-5c-0.4-1.4-1-2.7-1.8-3.9c-0.1-0.2-0.2-0.2,0.1-0.4
		c0.1-0.1,0.2-0.2,0.2-0.3c0-0.3,0.2-0.6,0.5-0.8c0.5-0.4,1.1-0.8,1.7-1.1c0.4-0.2,0.7-0.4,1-0.7c0.2-0.2,0.3-0.4,0.4-0.7
		c0.1-0.6-0.2-1.1-0.8-1.3c-0.1,0-0.2,0-0.2,0c-0.3,0-0.6,0.1-0.8,0.2c-0.3,0.2-0.6,0.4-0.8,0.7c-0.5,0.6-1,1.1-1.6,1.6
		c-0.2,0.2-0.5,0.3-0.8,0.3c-0.1,0-0.3,0-0.4,0.1c-0.2,0.1-0.2,0.1-0.4,0c-0.5-0.6-1.1-1.1-1.8-1.5c-2.1-1.6-4.6-2.5-7.2-2.8
		c-0.2,0-0.3-0.1-0.3-0.3c0-0.1,0-0.3-0.1-0.4c-0.2-0.2-0.3-0.5-0.3-0.8c0-0.7,0.1-1.5,0.2-2.2c0.1-0.5,0.1-0.9,0-1.4
		c-0.1-0.5-0.6-0.9-1.2-0.9c-0.5,0-0.9,0.4-1,0.8c-0.1,0.4-0.1,0.7,0,1.1C-849.6-1637.6-849.5-1636.8-849.5-1636.1L-849.5-1636.1z"
		/>
	<path class="st16" d="M-860.2-1576.4c-0.2,0-0.3,0-0.5,0c-0.4,0-0.9,0-1.3,0c-0.1,0-0.2,0-0.2,0c-1.2-0.1-2.2-0.6-3.1-1.4
		c-0.6-0.6-1-1.5-1.2-2.4c-0.2-1-0.1-1.9,0.1-2.9c0.3-1.1,0.9-2.1,1.9-2.7c0.7-0.5,1.5-0.7,2.3-0.8c0.6,0,1.2,0,1.7,0.2
		c1.2,0.3,2.1,1.2,2.5,2.3c0.2,0.6,0.3,1.1,0.4,1.7c0,0.5,0,1,0,1.5c0,0.2,0,0.2-0.2,0.2c-0.6,0-1.1,0-1.7,0h-4.2c0,0-0.1,0-0.1,0
		c-0.1,0-0.1,0-0.1,0.1c0,0.5,0.2,0.9,0.6,1.2c0.4,0.4,0.9,0.6,1.5,0.6c0.9,0.1,1.8,0,2.6-0.2c0.2-0.1,0.5-0.1,0.7-0.2
		c0.1,0.2,0.1,0.4,0.1,0.6c0.1,0.5,0.2,1,0.2,1.5c0,0.1,0,0.1-0.1,0.2C-858.9-1576.7-859.5-1576.5-860.2-1576.4z M-860.1-1582.4
		c0-0.2,0-0.4,0-0.5c-0.1-0.8-0.7-1.3-1.5-1.5c-0.2,0-0.4,0-0.6,0c-0.4,0-0.8,0.2-1.1,0.5c-0.4,0.4-0.6,0.9-0.6,1.5H-860.1z"/>
	<path class="st16" d="M-845.3-1581.3v-4.5c0,0,0-0.1,0-0.1c0-0.1,0-0.1,0.1-0.1c0.5-0.1,1-0.2,1.4-0.3c0.9-0.2,1.8-0.2,2.8-0.2
		c0.6,0,1.3,0.2,1.8,0.5c0.7,0.4,1.2,1.1,1.4,1.8c0.2,0.7,0.3,1.3,0.3,2c0,1.8,0,3.6,0,5.4c0,0,0,0.1,0,0.1c0,0.1,0,0.1-0.1,0.1
		h-0.1c-0.7,0-1.5,0-2.2,0c-0.2,0-0.2,0-0.2-0.2c0-1.6,0-3.3,0-4.9c0-0.5,0-1-0.1-1.4c0-0.1-0.1-0.2-0.1-0.4
		c-0.1-0.4-0.5-0.7-0.9-0.7c-0.3,0-0.7-0.1-1,0c-0.1,0-0.3,0-0.4,0c-0.1,0-0.1,0.1-0.1,0.2c0,0,0,0.1,0,0.1v7.1c0,0.3,0,0.2-0.2,0.2
		c-0.7,0-1.4,0-2.1,0c-0.2,0-0.2,0-0.2-0.2L-845.3-1581.3z"/>
	<path class="st16" d="M-818.8-1576.4c-0.2,0-0.5,0-0.7,0c-0.3,0-0.5-0.1-0.8,0c-0.5,0-1-0.2-1.4-0.4c-0.5-0.3-0.8-0.8-1-1.3
		c-0.2-0.5-0.3-1.1-0.3-1.6c0-0.8,0-1.7,0-2.5c0-0.6,0-1.2,0-1.7c0-0.2,0-0.2-0.2-0.2h-1.8c-0.2,0-0.2,0-0.2-0.2c0-0.6,0-1.2,0-1.8
		c0-0.2,0-0.2,0.2-0.2c0.6,0,1.3,0,1.9,0c0.2,0,0.2,0,0.2-0.2c0-0.7,0-1.4,0-2.1c0-0.2,0-0.2,0.2-0.2l2.3-0.4c0.1,0.1,0,0.1,0,0.2
		c0,0.8,0,1.6,0,2.4c0,0,0,0.1,0,0.1c0,0.1,0,0.1,0.1,0.1c0,0,0.1,0,0.1,0h3.6h0.2c0.1,0,0.1,0,0.1,0.1c0,0.1,0,0.2,0,0.3v1.6
		c0,0.2,0,0.2-0.2,0.2h-3.6c-0.3,0-0.3,0-0.3,0.2c0,1.2,0,2.4,0,3.6c0,0.3,0,0.5,0.1,0.8c0,0.1,0.1,0.3,0.1,0.4
		c0.2,0.3,0.6,0.6,0.9,0.5c0.9,0.1,1.8-0.1,2.6-0.4c0,0,0.1,0,0.1,0c0.1,0.2,0.1,0.4,0.1,0.6c0.1,0.5,0.2,1,0.2,1.5
		c0,0.1,0,0.2-0.1,0.2c-0.5,0.2-1,0.3-1.5,0.4C-818.2-1576.4-818.5-1576.4-818.8-1576.4z"/>
	<path class="st16" d="M-855.1-1581.1v-4.3c0-0.2,0-0.2,0.2-0.3c0.8-0.3,1.6-0.5,2.4-0.6c0.7-0.1,1.5-0.2,2.2-0.1
		c0.8,0,1.5,0.1,2.3,0.3c0.1,0,0.3,0.1,0.4,0.1c0.1,0,0.1,0.1,0.1,0.2c-0.1,0.3-0.1,0.6-0.2,0.9c-0.1,0.4-0.2,0.8-0.2,1.2
		c0,0.2,0,0.2-0.2,0.1c-0.9-0.2-1.7-0.3-2.6-0.3c-0.6,0-1.1,0.1-1.7,0.2c-0.2,0-0.2,0-0.2,0.2v6.8c0,0.3,0,0.2-0.2,0.2
		c-0.7,0-1.4,0-2.2,0c-0.2,0-0.2,0-0.2-0.2C-855.1-1578.2-855.1-1579.7-855.1-1581.1L-855.1-1581.1z"/>
	<path class="st15" d="M-849.5-1636.1c0-0.7-0.1-1.4-0.2-2.1c-0.1-0.4-0.1-0.7,0-1.1c0.1-0.5,0.5-0.8,1-0.8c0.6,0,1.1,0.3,1.2,0.9
		c0.1,0.5,0.1,0.9,0,1.4c-0.1,0.7-0.2,1.4-0.2,2.2c0,0.3,0.1,0.6,0.3,0.8c0.1,0.1,0.1,0.2,0.1,0.4c0,0.2,0.1,0.3,0.3,0.3
		c2.6,0.3,5.1,1.2,7.2,2.8c0.6,0.5,1.2,1,1.8,1.5c0.2,0.2,0.2,0.2,0.4,0c0.1-0.1,0.3-0.1,0.4-0.1c0.3,0,0.6-0.1,0.8-0.3
		c0.6-0.5,1.1-1,1.6-1.6c0.2-0.3,0.5-0.5,0.8-0.7c0.2-0.2,0.5-0.2,0.8-0.2c0.6,0,1.1,0.5,1.1,1.1c0,0.1,0,0.2,0,0.2
		c-0.1,0.3-0.2,0.5-0.4,0.7c-0.3,0.3-0.6,0.5-1,0.7c-0.6,0.3-1.2,0.7-1.7,1.1c-0.3,0.2-0.5,0.5-0.5,0.8c0,0.1-0.1,0.2-0.2,0.3
		c-0.2,0.2-0.2,0.2-0.1,0.4c0.8,1.2,1.4,2.5,1.8,3.9c0.5,1.6,0.6,3.3,0.6,5c0,0.3,0,0.6-0.1,0.9c0,0.1,0,0.2,0.1,0.2
		c0.2,0,0.4,0.2,0.5,0.3c0.1,0.1,0.3,0.2,0.5,0.3c0.6,0.1,1.3,0.2,1.9,0.3c0.4,0,0.8,0.1,1.2,0.1c0.2,0.1,0.5,0.2,0.7,0.3
		c0.4,0.3,0.5,0.8,0.4,1.2c-0.2,0.5-0.6,0.8-1.1,0.8c-0.4,0-0.7-0.1-1.1-0.2c-0.6-0.3-1.2-0.5-1.8-0.7c-0.2,0-0.3-0.1-0.5-0.1
		c-0.3-0.1-0.6-0.1-0.9,0.1c-0.1,0.1-0.2,0.1-0.3,0c-0.3,0-0.3,0-0.4,0.2c-0.2,0.7-0.5,1.3-0.8,2c-1.2,2.3-3,4.3-5.2,5.7
		c-0.1,0-0.1,0.1-0.2,0.1c-0.1,0.1-0.2,0.2-0.1,0.3c0.1,0.2,0.1,0.4,0,0.6c-0.1,0.2,0,0.4,0.1,0.5c0.3,0.6,0.6,1.2,1,1.8
		c0.2,0.3,0.4,0.5,0.5,0.8c0.1,0.3,0.2,0.5,0.2,0.8c0,0.5-0.2,0.9-0.6,1.1c-0.4,0.2-1,0.1-1.3-0.2c-0.2-0.2-0.4-0.5-0.4-0.8
		c-0.1-0.4-0.2-0.7-0.3-1.1c-0.2-0.5-0.4-1.1-0.6-1.6c-0.1-0.3-0.3-0.4-0.6-0.5c-0.1,0-0.3-0.1-0.3-0.3c-0.1-0.2-0.2-0.2-0.3-0.1
		c-0.9,0.3-1.9,0.6-2.9,0.7c-1.2,0.2-2.4,0.2-3.7,0.1c-1.2-0.1-2.3-0.4-3.4-0.8c-0.2-0.1-0.2-0.1-0.4,0.1c-0.1,0.2-0.2,0.3-0.4,0.3
		c-0.2,0.1-0.4,0.2-0.5,0.4c-0.3,0.6-0.5,1.2-0.7,1.8c-0.1,0.4-0.3,0.8-0.5,1.2c-0.1,0.3-0.4,0.5-0.7,0.6c-0.5,0.3-1.2,0-1.5-0.5
		c-0.1-0.1-0.1-0.3-0.1-0.4c0-0.2,0-0.5,0.1-0.7c0.1-0.3,0.3-0.5,0.5-0.8c0.5-0.6,0.9-1.3,1.2-2c0.1-0.2,0.1-0.5,0.1-0.7
		c-0.1-0.1,0-0.3,0-0.4c0.1-0.3,0.2-0.2-0.1-0.4c-1-0.6-1.9-1.3-2.7-2.2c-1.5-1.5-2.7-3.4-3.4-5.5c0-0.1,0-0.1-0.1-0.2
		c0-0.2-0.2-0.2-0.3-0.2c-0.2,0.1-0.4,0-0.5-0.1c-0.2-0.1-0.4-0.1-0.6-0.1c-0.7,0.2-1.5,0.4-2.2,0.7c-0.4,0.2-0.7,0.3-1.1,0.3
		c-0.2,0-0.4,0-0.6-0.1c-0.4-0.1-0.7-0.5-0.8-0.9c0-0.4,0.2-0.8,0.5-1.1c0.3-0.2,0.5-0.3,0.8-0.3c0.7-0.1,1.3-0.1,2-0.2
		c0.3,0,0.7-0.1,1-0.2c0.2,0,0.3-0.1,0.4-0.3c0.1-0.2,0.3-0.3,0.5-0.3c0.1,0,0.2-0.1,0.2-0.3c-0.4-3.4,0.3-6.9,2.2-9.8
		c0.1-0.2,0.1-0.2-0.1-0.4c-0.1-0.1-0.2-0.2-0.2-0.3c0-0.2-0.1-0.5-0.3-0.6c-0.5-0.4-1.1-0.8-1.7-1.2c-0.3-0.2-0.7-0.4-1-0.6
		c-0.4-0.3-0.6-0.7-0.6-1.2c0-0.6,0.5-1,1.1-1c0,0,0.1,0,0.1,0c0.4,0.1,0.7,0.2,1,0.5c0.3,0.3,0.7,0.7,1,1.1c0.3,0.4,0.7,0.7,1.1,1
		c0.2,0.1,0.4,0.2,0.6,0.2c0.2,0,0.3,0,0.4,0.1c0.1,0.1,0.2,0.1,0.4,0c0.6-0.6,1.3-1.2,2-1.7c1.9-1.4,4.1-2.2,6.4-2.6
		c0.2,0,0.4-0.1,0.7-0.1c0.1,0,0.2-0.1,0.2-0.2c0-0.1,0-0.3,0.1-0.4c0.2-0.2,0.3-0.4,0.3-0.7C-849.5-1635.8-849.5-1636-849.5-1636.1
		z M-856.9-1628.1c0.1,0.1,0.2,0.1,0.3,0.2l2.9,2.1c0.6,0.4,1.1,0.8,1.7,1.2c0.4,0.3,1,0.2,1.4-0.2c0.1-0.2,0.2-0.4,0.2-0.6
		c0.1-1.2,0.1-2.3,0.2-3.5c0-0.5,0.1-1,0.1-1.6c0-0.3,0-0.6,0-0.9C-852.7-1631.1-855-1629.9-856.9-1628.1L-856.9-1628.1z
		 M-838.6-1625.8c-0.1,0.1-0.1,0.1-0.2,0.2l-3.1,2.8c-0.4,0.3-0.7,0.7-1.1,1c-0.4,0.3-0.5,1-0.1,1.4c0.1,0.1,0.3,0.2,0.4,0.3
		c0.1,0,0.2,0.1,0.3,0.1c0.3,0.1,0.5,0.2,0.8,0.2c1.5,0.4,3,0.9,4.5,1.3c0.2,0.1,0.3,0.1,0.3-0.2c0-0.1,0-0.2,0-0.2
		c0-0.6,0-1.2,0-1.8c-0.2-1.7-0.7-3.3-1.5-4.8C-838.5-1625.7-838.5-1625.8-838.6-1625.8L-838.6-1625.8z M-837.6-1615.7
		c-0.1,0-0.2-0.1-0.3-0.1c-1.4-0.2-2.8-0.5-4.2-0.7c-0.5-0.1-1-0.2-1.5-0.2c-0.3-0.1-0.7,0.1-0.9,0.4c-0.2,0.3-0.3,0.7-0.1,1
		c0.4,1,0.9,2.1,1.3,3.1c0.3,0.7,0.6,1.4,0.9,2.1c0.1,0.3,0.1,0.3,0.4,0.1c1.9-1.3,3.4-3.2,4.3-5.4
		C-837.6-1615.4-837.6-1615.5-837.6-1615.7L-837.6-1615.7z M-860.3-1618.6c0.1,0,0.2,0,0.4-0.1c1.5-0.4,3.1-0.9,4.6-1.3
		c0.3-0.1,0.5-0.1,0.8-0.2c0.3-0.1,0.5-0.3,0.6-0.6c0.2-0.4,0-0.8-0.3-1.1c-1.2-1.1-2.4-2.2-3.6-3.2c-0.3-0.2-0.5-0.5-0.8-0.7
		C-860-1623.6-860.6-1621.1-860.3-1618.6L-860.3-1618.6z M-840.5-1628.2c0-0.1-0.1-0.1-0.1-0.1c-0.8-0.7-1.7-1.4-2.7-1.9
		c-1.2-0.6-2.4-1-3.7-1.2c-0.2,0-0.2,0-0.2,0.2c0,0.5,0.1,1,0.1,1.6c0.1,1,0.1,2,0.2,3c0,0.4,0,0.8,0.1,1.2c0,0.4,0.3,0.8,0.8,0.9
		c0.3,0.1,0.6,0,0.8-0.2c1.5-1.1,3.1-2.2,4.6-3.3C-840.6-1628-840.5-1628-840.5-1628.2L-840.5-1628.2z M-844.9-1608.6
		c0,0,0-0.1,0-0.1c-1-1.7-1.9-3.4-2.9-5.1c-0.3-0.5-0.9-0.6-1.3-0.3c-0.1,0.1-0.3,0.2-0.3,0.4c-0.9,1.7-1.8,3.3-2.7,5
		c-0.1,0.3-0.1,0.3,0.2,0.3c0,0,0,0,0.1,0c1.8,0.5,3.7,0.6,5.5,0.3C-845.9-1608.2-845.4-1608.4-844.9-1608.6L-844.9-1608.6z
		 M-855-1609.9c0.1-0.1,0.1-0.1,0.1-0.2c0.4-1.1,0.9-2.1,1.3-3.2c0.3-0.6,0.5-1.2,0.8-1.9c0.1-0.2,0.2-0.5,0.1-0.7
		c-0.1-0.5-0.6-0.9-1.2-0.8c0,0,0,0-0.1,0c-1.5,0.3-3.1,0.5-4.6,0.8c-0.4,0-0.8,0.1-1.2,0.2C-858.8-1613.3-857.1-1611.2-855-1609.9
		L-855-1609.9z M-848.6-1621.6L-848.6-1621.6c-0.2,0-0.5,0-0.7,0c-0.1,0-0.2,0-0.3,0.2c-0.3,0.4-0.6,0.7-0.9,1.1
		c-0.1,0.1-0.1,0.2-0.1,0.3c0.1,0.5,0.2,0.9,0.3,1.4c0,0.1,0.1,0.2,0.2,0.2c0.4,0.2,0.8,0.4,1.2,0.6c0.2,0.1,0.3,0.1,0.5,0
		c0.4-0.2,0.8-0.4,1.2-0.6c0.1-0.1,0.2-0.2,0.2-0.3c0.1-0.5,0.2-0.9,0.3-1.4c0-0.1,0-0.3-0.1-0.4c-0.2-0.3-0.5-0.6-0.7-0.9
		c-0.2-0.3-0.5-0.4-0.7-0.3C-848.3-1621.6-848.5-1621.6-848.6-1621.6L-848.6-1621.6z"/>
	<path class="st17" d="M-856.9-1628.1c1.8-1.8,4.2-2.9,6.7-3.3c0,0.3,0,0.6,0,0.9c0,0.5-0.1,1-0.1,1.6c-0.1,1.2-0.1,2.3-0.2,3.5
		c0,0.5-0.4,1-0.9,1c-0.2,0-0.4-0.1-0.6-0.2c-0.6-0.4-1.1-0.8-1.7-1.2l-2.9-2.1C-856.7-1628-856.8-1628-856.9-1628.1z"/>
	<path class="st17" d="M-838.6-1625.8c0.1,0.1,0.1,0.2,0.2,0.2c0.8,1.5,1.4,3.1,1.5,4.8c0,0.6,0.1,1.2,0,1.8c0,0.1,0,0.2,0,0.2
		c0,0.3,0,0.3-0.3,0.2c-1.5-0.4-3-0.9-4.5-1.3c-0.3-0.1-0.6-0.2-0.8-0.2c-0.1,0-0.2-0.1-0.3-0.1c-0.5-0.2-0.8-0.7-0.6-1.3
		c0.1-0.2,0.2-0.3,0.3-0.4c0.4-0.3,0.7-0.7,1.1-1l3.1-2.8C-838.8-1625.7-838.7-1625.8-838.6-1625.8z"/>
	<path class="st17" d="M-837.6-1615.6c0,0.1,0,0.2-0.1,0.3c-0.9,2.2-2.4,4.1-4.3,5.4c-0.3,0.2-0.3,0.2-0.4-0.1
		c-0.3-0.7-0.6-1.4-0.9-2.1c-0.4-1-0.8-2.1-1.3-3.1c-0.2-0.3-0.1-0.7,0.1-1c0.2-0.3,0.5-0.4,0.9-0.4c0.5,0.1,1,0.2,1.5,0.2
		c1.4,0.2,2.8,0.5,4.2,0.7C-837.8-1615.7-837.7-1615.7-837.6-1615.6z"/>
	<path class="st17" d="M-860.3-1618.5c-0.2-2.5,0.3-5.1,1.6-7.3c0.3,0.3,0.6,0.5,0.8,0.7c1.2,1.1,2.4,2.2,3.6,3.2
		c0.3,0.3,0.5,0.7,0.3,1.1c-0.1,0.3-0.3,0.5-0.6,0.6c-0.3,0.1-0.5,0.2-0.8,0.2c-1.5,0.4-3.1,0.9-4.6,1.3
		C-860.1-1618.5-860.2-1618.5-860.3-1618.5z"/>
	<path class="st17" d="M-840.5-1628.1c0,0.1-0.1,0.1-0.2,0.2c-1.5,1.1-3.1,2.2-4.6,3.3c-0.2,0.2-0.5,0.3-0.8,0.2
		c-0.4-0.1-0.7-0.5-0.8-0.9c0-0.4-0.1-0.8-0.1-1.2c-0.1-1-0.1-2-0.2-3c0-0.5-0.1-1-0.1-1.6c0-0.2,0-0.2,0.2-0.2
		c1.3,0.2,2.5,0.6,3.7,1.2c1,0.5,1.9,1.1,2.7,1.9C-840.5-1628.2-840.5-1628.2-840.5-1628.1z"/>
	<path class="st17" d="M-844.9-1608.5c-0.5,0.2-1,0.3-1.6,0.4c-1.8,0.3-3.7,0.2-5.5-0.3c0,0,0,0-0.1,0c-0.3-0.1-0.3-0.1-0.2-0.3
		c0.9-1.7,1.8-3.3,2.7-5c0.3-0.5,0.9-0.6,1.3-0.4c0.1,0.1,0.3,0.2,0.4,0.3c1,1.7,1.9,3.4,2.9,5.1
		C-844.9-1608.6-844.9-1608.6-844.9-1608.5z"/>
	<path class="st17" d="M-855-1609.8c-2.1-1.4-3.8-3.4-4.6-5.8c0.4-0.1,0.8-0.2,1.2-0.2c1.5-0.3,3.1-0.5,4.6-0.8
		c0.5-0.1,1.1,0.2,1.2,0.7c0,0,0,0,0,0.1c0,0.2,0,0.5-0.1,0.7c-0.3,0.6-0.5,1.2-0.8,1.9c-0.4,1.1-0.9,2.1-1.3,3.2
		C-854.9-1610-854.9-1609.9-855-1609.8z"/>
	<path class="st17" d="M-848.6-1621.6c0.1,0,0.3,0,0.4,0c0.3-0.1,0.6,0.1,0.7,0.3c0.2,0.3,0.5,0.6,0.7,0.9c0.1,0.1,0.1,0.2,0.1,0.4
		c-0.1,0.4-0.2,0.9-0.3,1.4c0,0.1-0.1,0.2-0.2,0.3c-0.4,0.2-0.8,0.4-1.2,0.6c-0.2,0.1-0.3,0.1-0.5,0c-0.4-0.2-0.8-0.4-1.2-0.6
		c-0.1,0-0.2-0.1-0.2-0.2c-0.1-0.5-0.2-0.9-0.3-1.4c0-0.1,0-0.2,0.1-0.3c0.3-0.4,0.6-0.7,0.9-1.1c0.1-0.1,0.2-0.2,0.3-0.2
		C-849.1-1621.6-848.9-1621.6-848.6-1621.6L-848.6-1621.6z"/>
</g>
</svg>
