<svg id="Layer_1" data-name="Layer 1" xmlns="http://www.w3.org/2000/svg" viewBox="0 0 168.42 330.18"><defs><style>.cls-1{fill:#a4f7f8;}.cls-2{fill:#00d2d9;}.cls-3{fill:#e0e0e0;}.cls-4{fill:#fff;}.cls-5{fill:#3f7b9e;}.cls-6{fill:#407b9e;}.cls-7{fill:#6e6b6b;}.cls-8{fill:#5c5ca7;}.cls-9{fill:#5d5ba7;}.cls-10{fill:#494a9e;}.cls-11{fill:#131111;}.cls-12{fill:#151313;}.cls-13{fill:#161515;}.cls-14{fill:#171515;}.cls-15{fill:#121111;}.cls-16{fill:#181717;}.cls-17{fill:#292727;}.cls-18{fill:#1f1d1d;}.cls-19{fill:#141312;}.cls-20{fill:#edfcfa;}</style></defs><g id="Arrow_7" data-name="Arrow 7"><g id="Group_2175" data-name="Group 2175"><g id="Group_2163" data-name="Group 2163"><g id="Group_1545" data-name="Group 1545"><g id="Group_206" data-name="Group 206"><g id="Ellipse_13" data-name="Ellipse 13"><ellipse id="Ellipse_22138" data-name="Ellipse 22138" class="cls-1" cx="67.35" cy="285.36" rx="7.7" ry="6.02"/></g><g id="Path_355" data-name="Path 355"><path id="Path_1876" data-name="Path 1876" class="cls-1" d="M71,290.66l14.43-5.3L71,280.05"/></g><g id="Ellipse_14" data-name="Ellipse 14"><ellipse id="Ellipse_22139" data-name="Ellipse 22139" class="cls-1" cx="87.61" cy="304.93" rx="6.02" ry="7.7"/></g><g id="Path_356" data-name="Path 356"><path id="Path_1877" data-name="Path 1877" class="cls-1" d="M92.91,301.28l-5.3-14.43L82.3,301.28"/></g><g id="Ellipse_15" data-name="Ellipse 15"><ellipse id="Ellipse_22140" data-name="Ellipse 22140" class="cls-1" cx="107.25" cy="285.36" rx="7.7" ry="6.02"/></g><g id="Path_357" data-name="Path 357"><path id="Path_1878" data-name="Path 1878" class="cls-1" d="M103.61,280.05l-14.43,5.31,14.43,5.3"/></g><g id="Ellipse_16" data-name="Ellipse 16"><ellipse id="Ellipse_22141" data-name="Ellipse 22141" class="cls-1" cx="87.61" cy="265.04" rx="6.02" ry="7.7"/></g><g id="Path_358" data-name="Path 358"><path id="Path_1879" data-name="Path 1879" class="cls-1" d="M82.3,268.68l5.31,14.44,5.3-14.44"/></g></g><g id="Group_207" data-name="Group 207"><g id="Ellipse_17" data-name="Ellipse 17"><ellipse id="Ellipse_22142" data-name="Ellipse 22142" class="cls-2" cx="78.27" cy="275.94" rx="3.91" ry="5" transform="translate(-172.2 136.17) rotate(-45)"/></g><g id="Path_359" data-name="Path 359"><path id="Path_1880" data-name="Path 1880" class="cls-2" d="M77.5,280.05l9.08,4.2-4.2-9.07"/></g><g id="Ellipse_18" data-name="Ellipse 18"><ellipse id="Ellipse_22143" data-name="Ellipse 22143" class="cls-2" cx="78.59" cy="294.24" rx="5" ry="3.91" transform="translate(-185.04 141.75) rotate(-45)"/></g><g id="Path_360" data-name="Path 360"><path id="Path_1881" data-name="Path 1881" class="cls-2" d="M82.7,295l4.2-9.07-9.08,4.19"/></g><g id="Ellipse_19" data-name="Ellipse 19"><ellipse id="Ellipse_22144" data-name="Ellipse 22144" class="cls-2" cx="96.61" cy="294.28" rx="3.91" ry="5" transform="translate(-179.79 154.5) rotate(-45)"/></g><g id="Path_361" data-name="Path 361"><path id="Path_1882" data-name="Path 1882" class="cls-2" d="M97.37,290.17,88.3,286,92.49,295"/></g><g id="Ellipse_20" data-name="Ellipse 20"><ellipse id="Ellipse_22145" data-name="Ellipse 22145" class="cls-2" cx="96.91" cy="275.92" rx="5" ry="3.91" transform="translate(-166.72 149.34) rotate(-45)"/></g><g id="Path_362" data-name="Path 362"><path id="Path_1883" data-name="Path 1883" class="cls-2" d="M92.8,275.16l-4.19,9.06L97.68,280"/></g></g><g id="Group_1544" data-name="Group 1544"><g id="Ellipse_13-2" data-name="Ellipse 13-2"><ellipse id="Ellipse_22146" data-name="Ellipse 22146" class="cls-1" cx="67.35" cy="285.36" rx="7.7" ry="6.02"/></g><g id="Path_355-2" data-name="Path 355-2"><path id="Path_1884" data-name="Path 1884" class="cls-1" d="M71,290.66l14.43-5.3L71,280.05"/></g><g id="Ellipse_14-2" data-name="Ellipse 14-2"><ellipse id="Ellipse_22147" data-name="Ellipse 22147" class="cls-1" cx="87.61" cy="304.93" rx="6.02" ry="7.7"/></g><g id="Path_356-2" data-name="Path 356-2"><path id="Path_1885" data-name="Path 1885" class="cls-1" d="M92.91,301.28l-5.3-14.43L82.3,301.28"/></g><g id="Ellipse_15-2" data-name="Ellipse 15-2"><ellipse id="Ellipse_22148" data-name="Ellipse 22148" class="cls-1" cx="107.25" cy="285.36" rx="7.7" ry="6.02"/></g><g id="Path_357-2" data-name="Path 357-2"><path id="Path_1886" data-name="Path 1886" class="cls-1" d="M103.61,280.05l-14.43,5.31,14.43,5.3"/></g><g id="Ellipse_16-2" data-name="Ellipse 16-2"><ellipse id="Ellipse_22149" data-name="Ellipse 22149" class="cls-1" cx="87.61" cy="265.04" rx="6.02" ry="7.7"/></g><g id="Path_358-2" data-name="Path 358-2"><path id="Path_1887" data-name="Path 1887" class="cls-1" d="M82.3,268.68l5.31,14.44,5.3-14.44"/></g></g></g><g id="Group_132" data-name="Group 132"><g id="Path_1219" data-name="Path 1219"><path id="Path_1891" data-name="Path 1891" class="cls-3" d="M153.87,290.22a29.67,29.67,0,0,0-32.07-27.06,28.58,28.58,0,0,0-4.32.69A29.77,29.77,0,0,0,94.54,236.5l-.62-.13a20.41,20.41,0,0,0-37.14,5.55,18.22,18.22,0,0,0-25.71,16.59,17.74,17.74,0,0,0,.16,2.41,15.89,15.89,0,0,0-8.75,27.39c-.27.31-.56.62-.81,1a20.28,20.28,0,0,0-4.25,12.46A20.49,20.49,0,0,0,37.89,322.2h86.45c.84,0,1.66,0,2.46-.1A29.57,29.57,0,0,0,153.87,290.22Zm-129-21.06a11.36,11.36,0,0,1,8.5-3.83h.4a2.26,2.26,0,0,0,2.42-2.91,14,14,0,0,1-.55-3.91,13.65,13.65,0,0,1,13.65-13.65,13.34,13.34,0,0,1,7.86,2.5,2.29,2.29,0,0,0,3.6-1.65,16,16,0,0,1,16.8-14.49,15.75,15.75,0,0,1,10.19,4.54l-.43,0H87.2A30.35,30.35,0,0,0,84,236l-.13,0a28.58,28.58,0,0,0-3,.58l-.17,0c-1,.25-1.93.54-2.87.88l-.26.1A27.32,27.32,0,0,0,75,238.77l-.4.18c-.78.41-1.55.84-2.3,1.31l-.51.31c-.7.46-1.39,1-2,1.49-.18.15-.36.27-.54.41a29.94,29.94,0,0,0-2.35,2.15A27.91,27.91,0,0,0,62.06,251v0l0,0a2.68,2.68,0,0,0-.18.33,29.07,29.07,0,0,0-3.31,10.78,24.22,24.22,0,0,0-.18,3.18v.45A23,23,0,0,0,44,267.56a23.33,23.33,0,0,0-2.83,1.63,11.71,11.71,0,0,0-1.54,1.16,20.1,20.1,0,0,0-2.41,2.2,20.73,20.73,0,0,0-2,2.47,22.76,22.76,0,0,0-3.34,7.14,17.72,17.72,0,0,0-2.9,1.16A22.05,22.05,0,0,0,26.11,285c-.1.07-.21.11-.3.18A11.36,11.36,0,0,1,24.85,269.16Zm101.56,48.41c-.69.06-1.37.08-2.07.08H37.89A15.94,15.94,0,0,1,22,301.72,15.76,15.76,0,0,1,25.29,292a15,15,0,0,1,2.08-2.21A16.31,16.31,0,0,1,31,287.39a14.93,14.93,0,0,1,3.3-1.18A2.25,2.25,0,0,0,36,284.46a18.22,18.22,0,0,1,2.93-6.81,15.83,15.83,0,0,1,1.59-2,19.1,19.1,0,0,1,2-1.87,10.54,10.54,0,0,1,1.14-.85A18.3,18.3,0,0,1,46,271.66a16.91,16.91,0,0,1,1.77-.73c.44-.15.88-.27,1.33-.39a3.81,3.81,0,0,1,.45-.13c.48-.12,1-.2,1.44-.29l.42-.06c.43-.06.87-.1,1.3-.12.23,0,.44,0,.66,0H54.6a3.46,3.46,0,0,1,.46,0c.42,0,.84.08,1.26.13l.47.06c.43.07.85.17,1.27.27l.39.09a14.93,14.93,0,0,1,1.6.52,2.28,2.28,0,0,0,3.07-2.43,25.18,25.18,0,0,1-.21-3.24,23.36,23.36,0,0,1,.15-2.64,25.44,25.44,0,0,1,.85-4.41,23.75,23.75,0,0,1,2-4.86l0-.09a1.37,1.37,0,0,0,.08-.14,23.58,23.58,0,0,1,4-5.37,24.9,24.9,0,0,1,17.9-7.51c.75,0,1.51,0,2.24.1s1.29.15,1.92.27l.13,0a11.46,11.46,0,0,1,1.28.23A25.18,25.18,0,0,1,113,265.32c0,.5,0,1,0,1.48a2.27,2.27,0,0,0,2.18,2.37A2.31,2.31,0,0,0,116,269a24.64,24.64,0,0,1,8.37-1.44,25,25,0,0,1,2.07,50Z"/></g></g></g><g id="Group_2164" data-name="Group 2164"><g id="Group_1710" data-name="Group 1710"><g id="Rectangle_1193" data-name="Rectangle 1193"><path id="Path_1889" data-name="Path 1889" class="cls-3" d="M25.53,105.26a4.17,4.17,0,0,1-4.16-4.17v-88a4.16,4.16,0,0,1,4.16-4.16H147.18a4.16,4.16,0,0,1,4.16,4.16v88a4.18,4.18,0,0,1-4.16,4.17ZM145.28,99.2V15H27.43V99.2Z"/><path id="Path_1890" data-name="Path 1890" class="cls-3" d="M147.18,103.83H25.53a2.74,2.74,0,0,1-2.73-2.74v-88a2.74,2.74,0,0,1,2.73-2.74H147.18a2.74,2.74,0,0,1,2.73,2.74v88A2.74,2.74,0,0,1,147.18,103.83ZM26,100.63H146.71V13.51H26Z"/></g><g id="Line_5" data-name="Line 5"><rect id="Rectangle_1300" data-name="Rectangle 1300" class="cls-3" x="22.97" y="21.4" width="126.77" height="6.06"/><rect id="Rectangle_1301" data-name="Rectangle 1301" class="cls-3" x="24.4" y="22.83" width="123.91" height="3.2"/></g></g><g id="Rectangle_1238" data-name="Rectangle 1238"><path id="Path_1892" data-name="Path 1892" class="cls-3" d="M15,108.24H156.78a5.28,5.28,0,0,1,5.52,5v1.6a5.28,5.28,0,0,1-5.52,5H15a5.28,5.28,0,0,1-5.52-5v-1.6A5.28,5.28,0,0,1,15,108.24Z"/></g><g id="Rectangle_1239" data-name="Rectangle 1239"><rect id="Rectangle_1302" data-name="Rectangle 1302" class="cls-4" x="63.09" y="109.09" width="46.22" height="4" rx="1.01"/></g><g id="Group_2155" data-name="Group 2155"><path id="Path_1893" data-name="Path 1893" class="cls-5" d="M78,44.85c-.1-.14-.18-.27-.27-.39a9.69,9.69,0,0,0-1.47-1.72,8.07,8.07,0,0,0-1.44-1.1A9.94,9.94,0,0,0,73.61,41a11.12,11.12,0,0,0-1.4-.51,5.88,5.88,0,0,0-.81-.18,7.58,7.58,0,0,0-.94-.13c-.3,0-.61,0-.91,0a9.23,9.23,0,0,0-1.18.08,13.93,13.93,0,0,0-1.43.29,7.42,7.42,0,0,0-1.49.55,9,9,0,0,0-1.39.78,9.88,9.88,0,0,0-1.52,1.29,9.41,9.41,0,0,0-1.13,1.39c-.07.11-.08.12-.2,0l-1.35-.87c-.08-.05-.08-.09,0-.17a12.29,12.29,0,0,1,1.78-2.1l.22-.19c.06-.05.06-.09,0-.14A7.18,7.18,0,0,1,60.4,39.3a5.68,5.68,0,0,1-.53-1.18,2.27,2.27,0,0,1-.12-1,.53.53,0,0,1,.56-.49l.09,0a2,2,0,0,1,1,.51,6.58,6.58,0,0,1,1.65,2c.14.24.25.49.37.74l.06.11.57-.32c.42-.2.83-.41,1.26-.59s.8-.26,1.2-.39a12.31,12.31,0,0,1,1.81-.35c.13,0,.27,0,.4,0s.12,0,.1-.13a5.22,5.22,0,0,1-.18-1.3c0-.38,0-.75,0-1.12s.11-.69.19-1a2.48,2.48,0,0,1,.32-.79.92.92,0,0,1,.44-.43.49.49,0,0,1,.55.11,1.7,1.7,0,0,1,.42.64,5.71,5.71,0,0,1,.37,2,7.91,7.91,0,0,1-.07,1.29,6.39,6.39,0,0,1-.13.63c0,.08,0,.11.08.12.4.06.81.11,1.2.2a9,9,0,0,1,1.26.33c.42.14.82.31,1.23.48a11.36,11.36,0,0,1,1.45.8c.06,0,.09,0,.12,0a7.33,7.33,0,0,1,1.45-2.35,5,5,0,0,1,1-.87,1.71,1.71,0,0,1,.66-.25.53.53,0,0,1,.62.44v0a2.46,2.46,0,0,1-.18,1.2,6.48,6.48,0,0,1-1,1.83,5.58,5.58,0,0,1-1.06,1.11c-.07.05-.07.09,0,.15.34.35.7.69,1,1.07s.65.88,1,1.32c.08.1.07.12,0,.19Z"/><path id="Path_1894" data-name="Path 1894" class="cls-5" d="M61.52,55.54c.09.12.18.25.28.37a9,9,0,0,0,1.37,1.45c.25.21.5.42.77.61s.61.39.92.57a7.54,7.54,0,0,0,1.65.71c.43.13.86.25,1.3.34a6.42,6.42,0,0,0,.88.12c.33,0,.67,0,1,0a8.56,8.56,0,0,0,1.59-.15,7.36,7.36,0,0,0,1.4-.35c.34-.12.67-.24,1-.38a10.26,10.26,0,0,0,1.3-.72,10.06,10.06,0,0,0,1.53-1.23,8.81,8.81,0,0,0,1-1.18c.16-.23.16-.24.39-.08l1.22.85c.07,0,.08.08,0,.16a12.15,12.15,0,0,1-1.45,1.67c-.1.1-.1.1,0,.19a7.06,7.06,0,0,1,1.32,1.57,5.8,5.8,0,0,1,.68,1.42,2.09,2.09,0,0,1,.12,1,.51.51,0,0,1-.5.45,1.32,1.32,0,0,1-.69-.2,5.11,5.11,0,0,1-1.44-1.3,8.32,8.32,0,0,1-.91-1.44l-.19-.43a4,4,0,0,1-.38.24c-.36.2-.72.41-1.1.59a10.4,10.4,0,0,1-1.09.45c-.31.12-.62.2-.94.29s-.54.15-.82.2-.59.08-.88.12c-.11,0-.11,0-.1.13.06.3.1.61.13.91a10.46,10.46,0,0,1,0,1.12,5.37,5.37,0,0,1-.19,1.19,3.08,3.08,0,0,1-.38.9.86.86,0,0,1-.38.35.49.49,0,0,1-.56-.1,1.59,1.59,0,0,1-.42-.63,4.25,4.25,0,0,1-.32-1.26c0-.34-.07-.67-.07-1a7.16,7.16,0,0,1,.15-1.46c0-.08,0-.09-.08-.1-.41-.05-.83-.09-1.25-.16s-.66-.15-1-.24-.67-.2-1-.32-.77-.32-1.15-.51-.57-.31-.85-.47c-.06,0-.09,0-.11,0a7.07,7.07,0,0,1-1.06,1.69,4.5,4.5,0,0,1-1.45,1.26,1.29,1.29,0,0,1-.57.16.5.5,0,0,1-.52-.46,2,2,0,0,1,.07-.92,6.2,6.2,0,0,1,.94-1.87,6.68,6.68,0,0,1,.91-1.08c.09-.08.08-.1,0-.18-.36-.37-.73-.75-1.08-1.13-.19-.22-.36-.46-.54-.69s-.07-.11,0-.17l1.21-.85Z"/><path id="Path_1895" data-name="Path 1895" class="cls-5" d="M78.92,48.84l.06.51.09.69.12,1.36c0,.16,0,.32,0,.48v2.38c0,.1,0,.12-.12.12H77.3c-.09,0-.12,0-.12-.12V46c0-.13,0-.13.14-.13h2.16a.15.15,0,0,1,.16.11l.45,1.24.39,1.07c.13.35.27.7.4,1.06s.15.51.23.77.13.44.2.66l0,.06,0-.06.17-.59c.11-.36.22-.72.34-1.08s.23-.65.34-1l.34-1c.12-.32.23-.64.34-1l.11-.29a.11.11,0,0,1,.09,0h2.23q.1,0,.09.09v8.29c0,.14,0,.14-.15.14H83.55c-.09,0-.13,0-.13-.12,0-.79,0-1.57,0-2.36,0-.57.08-1.14.13-1.7,0-.39.08-.77.13-1.15a1.23,1.23,0,0,1,0-.19l0,0-.06.09-.3.88c-.11.32-.22.65-.34,1s-.21.59-.33.89-.26.73-.4,1.09-.21.56-.32.84a.15.15,0,0,1-.11.08h-1a.11.11,0,0,1-.09-.07c-.11-.26-.21-.53-.31-.8l-.3-.79c-.13-.35-.26-.69-.38-1s-.31-.9-.46-1.35c-.08-.23-.15-.47-.23-.7a.21.21,0,0,0-.06-.1Z"/><path id="Path_1896" data-name="Path 1896" class="cls-6" d="M54,50.11V46c0-.13,0-.13.13-.13h2c.13,0,.13,0,.13.13v2.9c0,.15,0,.15.16.15h2.27c.13,0,.13,0,.13-.14V46c0-.13,0-.13.14-.13h2c.09,0,.12,0,.12.12v8.29c0,.1,0,.12-.12.12q-1,0-2,0c-.09,0-.12,0-.12-.12V51.13c0-.14,0-.14-.15-.14H56.39c-.14,0-.15,0-.15.14v3.1c0,.15,0,.15-.14.15h-2c-.1,0-.12,0-.12-.12C54,52.88,54,51.49,54,50.11Z"/><path id="Path_1897" data-name="Path 1897" class="cls-6" d="M62.9,50.11V46c0-.14,0-.14.14-.14h5.23c.1,0,.13,0,.13.13,0,.54,0,1.09,0,1.64,0,.09,0,.12-.12.12h-3c-.14,0-.14,0-.14.14V49c0,.14,0,.14.15.14h2.5c.09,0,.13,0,.13.12,0,.55,0,1.09,0,1.64,0,.09,0,.12-.13.12H65.3c-.15,0-.15,0-.15.15,0,.42,0,.84,0,1.26,0,.1,0,.12.13.12h3.1c.17,0,.17,0,.17.16v1.61c0,.08,0,.11-.11.11H63c-.09,0-.11,0-.11-.11C62.9,52.88,62.9,51.49,62.9,50.11Z"/><path id="Path_1898" data-name="Path 1898" class="cls-6" d="M70.23,50.11V46.24c0-.1,0-.2,0-.31s0-.08.09-.08h2.08c.07,0,.09,0,.08.08v6.41c0,.16,0,.16.16.16h2.94c.14,0,.14,0,.14.13v1.63c0,.1,0,.12-.12.12-1.75,0-3.51,0-5.26,0-.08,0-.11,0-.11-.11,0-.33,0-.66,0-1Z"/></g><g id="A6IjLT.tif"><g id="Group_2156" data-name="Group 2156"><path id="Path_1899" data-name="Path 1899" class="cls-7" d="M105.8,85.41l-.13,0V80.88a.31.31,0,0,1,.13,0Z"/><path id="Path_1900" data-name="Path 1900" class="cls-8" d="M46.23,80.82c-2.25-1.29-4.38-2.51-6.51-3.75a.63.63,0,0,1-.27-.45c0-2.46,0-4.91,0-7.5.69.4,1.3.73,1.89,1.08,1.47.84,2.94,1.68,4.39,2.55a1,1,0,0,1,.48.68C46.24,75.85,46.23,78.26,46.23,80.82Z"/><path id="Path_1901" data-name="Path 1901" class="cls-8" d="M47,73.47c2.25,1.3,4.39,2.52,6.51,3.77a.76.76,0,0,1,.28.59c0,2.4,0,4.79,0,7.32-.27-.14-.48-.22-.67-.33-1.89-1.09-3.78-2.17-5.65-3.28a1,1,0,0,1-.47-.68C47,78.44,47,76,47,73.47Z"/><path id="Path_1902" data-name="Path 1902" class="cls-9" d="M47,82.13c1.93,1.11,3.7,2.2,5.54,3.15a2,2,0,0,1,1.29,2.23c-.1,2,0,4.09,0,6.26-.28-.13-.47-.2-.64-.3-1.91-1.09-3.83-2.18-5.72-3.3a.93.93,0,0,1-.42-.65C47,87.11,47,84.7,47,82.13Z"/><path id="Path_1903" data-name="Path 1903" class="cls-10" d="M61.25,73.48c0,2.58,0,5,0,7.46a.68.68,0,0,1-.28.51c-2.11,1.23-4.22,2.44-6.46,3.73V83.39c0-1.82,0-3.63,0-5.45a.94.94,0,0,1,.29-.72C56.9,76,59,74.77,61.25,73.48Z"/><path id="Path_1904" data-name="Path 1904" class="cls-11" d="M105.67,80.88v4.56l-1.36.1c0-1.23,0-2.38,0-3.54,0-.35.14-.82-.5-.83s-1.37.36-1.38.9c0,1.11,0,2.22,0,3.39H101V81.91c0-.72-.17-.85-.88-.7s-1.12.37-1,1.23,0,2,0,3h-1.4V79.8l1.33.3c1.06-.08,2.17-.92,3.18.14.7-.17,1.35-.38,2-.47C105.09,79.66,105.47,80,105.67,80.88Z"/><path id="Path_1905" data-name="Path 1905" class="cls-12" d="M88.61,82.65v-.22c0-2.21,1.53-3.26,3.64-2.49a1.54,1.54,0,0,1,1.15,1.28,18,18,0,0,1,0,2.94,1.35,1.35,0,0,1-1.16,1.24,7,7,0,0,1-2.28,0,1.67,1.67,0,0,1-1.34-1.75c0-.34,0-.68,0-1Zm3.49.06h0c0-.31,0-.62,0-.94C92,81.13,91.56,81,91,81s-.92.25-.92.87,0,1,0,1.51a.86.86,0,0,0,.72,1,.6.6,0,0,0,.23,0,.91.91,0,0,0,1.08-.7,1.06,1.06,0,0,0,0-.25c0-.25,0-.49,0-.73Z"/><path id="Path_1906" data-name="Path 1906" class="cls-13" d="M71.8,84.24l.23,1a4.47,4.47,0,0,1-3.62,0,1.54,1.54,0,0,1-.74-1,14.51,14.51,0,0,1,0-3.09c.12-1,1-1.44,2.31-1.42s1.84.48,2,1.48a18.89,18.89,0,0,1,.17,2H69.05c-.1.94.11,1.21,1,1.19C70.6,84.39,71.17,84.3,71.8,84.24Zm-1.14-2.19c.07-.83-.11-1.1-.73-1.13s-1,.31-.92,1.13Z"/><path id="Path_1907" data-name="Path 1907" class="cls-14" d="M79.93,81.09l-.15-1A4.5,4.5,0,0,1,83,80a1.66,1.66,0,0,1,.93,1.13c.11,1.44,0,2.89,0,4.5-.42-.12-.8-.23-1.18-.32a.77.77,0,0,0-.37,0,6,6,0,0,1-.83.24,1.62,1.62,0,0,1-1.91-2.26A1.27,1.27,0,0,1,81,82.37c.51,0,1,0,1.51,0,.17-1.24-.06-1.48-1.25-1.38Zm2.58,2.14c-.49.45-1.37-.42-1.5.71-.06.5.29.51.66.49.78,0,.92-.19.84-1.2Z"/><path id="Path_1908" data-name="Path 1908" class="cls-15" d="M63,77.84h5.7V79.1h-2.1v6.38H65.15V79.14H63Z"/><path id="Path_1909" data-name="Path 1909" class="cls-16" d="M85.43,81.05l-.83,0V79.92l.79-.06c.11-.78-.17-1.8.72-2.19a9.29,9.29,0,0,1,2.39-.37l-.15,1.21c-1.5.17-1.5.17-1.43,1.35h1.33c.1,1,.1,1-1.36,1.21v4.37H85.43Z"/><path id="Path_1910" data-name="Path 1910" class="cls-17" d="M95.7,85.48H94.25V79.91c.47.07,1.08-.4,1.33.45L97,79.74a4.89,4.89,0,0,0,.08.85.49.49,0,0,1-.23.66.42.42,0,0,1-.15,0,1.38,1.38,0,0,0-1,1.65v0C95.73,83.82,95.73,84.65,95.7,85.48Z"/><path id="Path_1911" data-name="Path 1911" class="cls-18" d="M75.68,79.75c.25,1.22.26,1.23-.72,1.77a.93.93,0,0,0-.57,1c0,1,0,2,0,3H73v-5.6c.45.17,1.12-.46,1.29.5Z"/><path id="Path_1912" data-name="Path 1912" class="cls-19" d="M76.42,79.86c.47.17,1.12-.34,1.31.53l1.35-.63c.34,1.19.35,1.2-.68,1.76a1,1,0,0,0-.59,1c0,1,0,1.93,0,2.94H76.41Z"/></g></g><g id="Group_2157" data-name="Group 2157"><path id="Path_1913" data-name="Path 1913" d="M130.21,69.89c-.14,0-.29,0-.43-.09a.88.88,0,0,1-.7-.9.77.77,0,0,1,.39-.66l.11-.06-.08-.07a.75.75,0,0,1-.3-.78.68.68,0,0,1,.5-.58,2.6,2.6,0,0,1,.62-.11,4,4,0,0,1,1.19.1l0,.34a4.93,4.93,0,0,0-.54,0c-.28,0-.57,0-.85,0a.42.42,0,0,0-.16,0,.46.46,0,0,0-.31.36.44.44,0,0,0,.21.46,1,1,0,0,0,.41.13c.23,0,.47,0,.71,0s.21.07.21.18-.08.18-.21.19h-.8a1.14,1.14,0,0,0-.32.07.44.44,0,0,0-.31.42.5.5,0,0,0,.25.48,1.11,1.11,0,0,0,.62.13c.34,0,.68-.06,1-.09h.07l.06.36-.63.1-.13,0Z"/><path id="Path_1914" data-name="Path 1914" d="M115.11,69.89l-.57-.11-.4-.12.09-.33.75.15a1.76,1.76,0,0,0,.79,0,.46.46,0,0,0,.39-.32.26.26,0,0,0-.07-.29,1.57,1.57,0,0,0-.26-.19c-.34-.18-.68-.34-1-.52a1.36,1.36,0,0,1-.35-.24.67.67,0,0,1-.23-.65.58.58,0,0,1,.4-.51,1.74,1.74,0,0,1,.71-.12,3.88,3.88,0,0,1,1.17.15l-.06.34L116,67c-.32,0-.63,0-.94,0a.33.33,0,0,0-.37.27.33.33,0,0,0,.11.32,3.11,3.11,0,0,0,.38.25l.88.43a3.28,3.28,0,0,1,.31.2.72.72,0,0,1,.11,1l-.08.08a1.31,1.31,0,0,1-.65.28l-.1,0Z"/><path id="Path_1915" data-name="Path 1915" d="M118.29,65.39a13.27,13.27,0,1,1,13.27-13.27h0A13.28,13.28,0,0,1,118.29,65.39Zm-2.13-12.52.92.74,5.4,4.36a9.1,9.1,0,0,0,.78.61,1,1,0,0,0,1.3-.3l0,0a1,1,0,0,0,0-.91q-1.89-4.55-3.77-9.07l-1.48-3.55a.88.88,0,0,0-.58-.56.9.9,0,0,0-1.11.57L111.93,58.5a.76.76,0,0,1,0,.11h1.86a.14.14,0,0,0,.17-.11q.93-2.34,1.87-4.68l.37-1Z"/><path id="Path_1916" data-name="Path 1916" d="M123,68.16l0,0a.8.8,0,0,1,.54.72.88.88,0,0,1-.45.8,1.3,1.3,0,0,1-.58.14h-1.21c-.18,0-.26-.07-.26-.26V66.93c0-.18.07-.26.25-.26h1.13a1.43,1.43,0,0,1,.42.09.75.75,0,0,1,.46,1,.81.81,0,0,1-.24.34Zm-1.48.25v1.07h1.09a.52.52,0,0,0,.54-.5v0a.5.5,0,0,0-.47-.54h0C122.31,68.39,121.93,68.41,121.55,68.41Zm0-.38c.34,0,.66,0,1,0a.5.5,0,0,0,.45-.51.46.46,0,0,0-.45-.47h0c-.17,0-.35,0-.53,0h-.45Z"/><path id="Path_1917" data-name="Path 1917" d="M110,67.43v2.41h-.41s0-.07,0-.1V66.85a.21.21,0,0,1,.16-.2.19.19,0,0,1,.23.08l.59.78L111.68,69l.08.09V66.68h.41a.22.22,0,0,1,0,.08v2.87a.2.2,0,0,1-.18.23.17.17,0,0,1-.12,0,.22.22,0,0,1-.1-.09l-1.68-2.22Z"/><path id="Path_1918" data-name="Path 1918" d="M105,69.84l0-.11c.4-1,.8-2,1.19-2.92v0a.21.21,0,0,1,.2-.15.2.2,0,0,1,.19.15c.37.92.75,1.83,1.12,2.75a.2.2,0,0,1,0,.28c-.09.07-.18.06-.29,0L106,68.66l-.1-.08c-.1.25-.2.49-.29.73a4.37,4.37,0,0,0-.18.46.1.1,0,0,1-.12.08Zm1.44-2.56-.05.11c-.09.23-.17.47-.28.69a.17.17,0,0,0,0,.24l0,0a1.58,1.58,0,0,1,.15.12l.81.65,0,0Z"/><path id="Path_1919" data-name="Path 1919" d="M127.57,69.84h-1.83c-.22,0-.29-.08-.29-.29V66.68h.43v2.77h1.68Z"/><path id="Path_1920" data-name="Path 1920" d="M119,69.84h-.41V66.68H119Z"/><path id="Path_1921" data-name="Path 1921" class="cls-4" d="M116.16,52.87c-.13.33-.25.64-.38,1l-1.86,4.68a.14.14,0,0,1-.17.11h-1.86a.49.49,0,0,1,0-.11l5.73-13.78a.88.88,0,0,1,1.1-.57.87.87,0,0,1,.59.56l1.47,3.55q1.89,4.55,3.77,9.07a1,1,0,0,1,0,.91.94.94,0,0,1-1.29.36l0,0a9.1,9.1,0,0,1-.78-.61l-5.39-4.35Zm5.75,2.52h0L118.52,47l0,.11-1.66,4.17c0,.08,0,.12,0,.17l4.26,3.35Z"/><path id="Path_1922" data-name="Path 1922" d="M121.91,55.39l-.8-.62-4.25-3.35c-.06-.05-.09-.09-.06-.17l1.67-4.17,0-.11,3.4,8.4Z"/></g></g><g id="Group_2174" data-name="Group 2174"><g id="Group_2171" data-name="Group 2171"><path id="Path_1954" data-name="Path 1954" class="cls-20" d="M55.93,131.05,85.5,148.16l29.57-17.11v18.16L85.5,166.33,55.93,149.21Z"/></g><g id="Group_2172" data-name="Group 2172"><path id="Path_1955" data-name="Path 1955" class="cls-1" d="M55.93,155.15,85.5,172.26l29.57-17.11v18.16L85.5,190.42,55.93,173.31Z"/></g><g id="Group_2173" data-name="Group 2173"><path id="Path_1956" data-name="Path 1956" class="cls-2" d="M55.84,179.94l29.58,17.11L115,179.94v18.17L85.42,215.22,55.84,198.11Z"/></g></g></g></g></svg>