<svg xmlns="http://www.w3.org/2000/svg" width="304.064" height="85.367" viewBox="0 0 304.064 85.367">
  <defs>
    <style>
      .cls-1 {
        fill: #a4f7f8;
      }

      .cls-2 {
        fill: #00d2d9;
      }

      .cls-3 {
        fill: #e0e0e0;
      }

      .cls-4 {
        fill: #fff;
      }

      .cls-5 {
        fill: #3f7b9e;
      }

      .cls-6 {
        fill: #407b9e;
      }

      .cls-7 {
        fill: #6e6b6b;
      }

      .cls-8 {
        fill: #5c5ca7;
      }

      .cls-9 {
        fill: #5d5ba7;
      }

      .cls-10 {
        fill: #494a9e;
      }

      .cls-11 {
        fill: #131111;
      }

      .cls-12 {
        fill: #151313;
      }

      .cls-13 {
        fill: #161515;
      }

      .cls-14 {
        fill: #171515;
      }

      .cls-15 {
        fill: #121111;
      }

      .cls-16 {
        fill: #181717;
      }

      .cls-17 {
        fill: #292727;
      }

      .cls-18 {
        fill: #1f1d1d;
      }

      .cls-19 {
        fill: #141312;
      }

      .cls-20 {
        fill: #edfcfa;
      }
    </style>
  </defs>
  <g id="Group_2374" data-name="Group 2374" transform="translate(-31 -2205)">
    <g id="Group_2163" data-name="Group 2163" transform="translate(230 2211)">
      <g id="Group_1545" data-name="Group 1545" transform="translate(32.49 23.615)">
        <g id="Group_206" data-name="Group 206">
          <g id="Ellipse_13" data-name="Ellipse 13" transform="translate(0 16.923)">
            <ellipse id="Ellipse_22138" data-name="Ellipse 22138" class="cls-1" cx="5.925" cy="4.631" rx="5.925" ry="4.631"/>
          </g>
          <g id="Path_355" data-name="Path 355" transform="translate(8.726 17.473)">
            <path id="Path_1876" data-name="Path 1876" class="cls-1" d="M360.506,154.189l11.108-4.082-11.108-4.081" transform="translate(-360.506 -146.026)"/>
          </g>
          <g id="Ellipse_14" data-name="Ellipse 14" transform="translate(16.884 30.685)">
            <ellipse id="Ellipse_22139" data-name="Ellipse 22139" class="cls-1" cx="4.631" cy="5.925" rx="4.631" ry="5.925"/>
          </g>
          <g id="Path_356" data-name="Path 356" transform="translate(17.434 22.701)">
            <path id="Path_1877" data-name="Path 1877" class="cls-1" d="M373.926,160.291l-4.081-11.108-4.081,11.108" transform="translate(-365.764 -149.183)"/>
          </g>
          <g id="Ellipse_15" data-name="Ellipse 15" transform="translate(30.705 16.923)">
            <ellipse id="Ellipse_22140" data-name="Ellipse 22140" class="cls-1" cx="5.925" cy="4.631" rx="5.925" ry="4.631"/>
          </g>
          <g id="Path_357" data-name="Path 357" transform="translate(22.721 17.473)">
            <path id="Path_1878" data-name="Path 1878" class="cls-1" d="M380.062,146.026l-11.106,4.081,11.106,4.082" transform="translate(-368.956 -146.026)"/>
          </g>
          <g id="Ellipse_16" data-name="Ellipse 16" transform="translate(16.884)">
            <ellipse id="Ellipse_22141" data-name="Ellipse 22141" class="cls-1" cx="4.631" cy="5.925" rx="4.631" ry="5.925"/>
          </g>
          <g id="Path_358" data-name="Path 358" transform="translate(17.434 8.726)">
            <path id="Path_1879" data-name="Path 1879" class="cls-1" d="M365.764,140.745l4.081,11.108,4.082-11.108" transform="translate(-365.764 -140.745)"/>
          </g>
        </g>
        <g id="Group_207" data-name="Group 207" transform="translate(9.48 9.443)">
          <g id="Ellipse_17" data-name="Ellipse 17" transform="translate(0 0.017)">
            <ellipse id="Ellipse_22142" data-name="Ellipse 22142" class="cls-2" cx="3.009" cy="3.85" rx="3.009" ry="3.85" transform="translate(0 4.256) rotate(-45)"/>
          </g>
          <g id="Path_359" data-name="Path 359" transform="translate(4.261 4.28)">
            <path id="Path_1880" data-name="Path 1880" class="cls-2" d="M363.534,147.513l6.979,3.228-3.228-6.979" transform="translate(-363.534 -143.762)"/>
          </g>
          <g id="Ellipse_18" data-name="Ellipse 18" transform="translate(0.246 14.099)">
            <ellipse id="Ellipse_22143" data-name="Ellipse 22143" class="cls-2" cx="3.85" cy="3.009" rx="3.85" ry="3.009" transform="translate(0 5.444) rotate(-45)"/>
          </g>
          <g id="Path_360" data-name="Path 360" transform="translate(4.508 12.56)">
            <path id="Path_1881" data-name="Path 1881" class="cls-2" d="M367.434,155.741l3.228-6.979-6.979,3.228" transform="translate(-363.683 -148.762)"/>
          </g>
          <g id="Ellipse_19" data-name="Ellipse 19" transform="translate(14.107 14.125)">
            <ellipse id="Ellipse_22144" data-name="Ellipse 22144" class="cls-2" cx="3.009" cy="3.85" rx="3.009" ry="3.85" transform="translate(0 4.256) rotate(-45)"/>
          </g>
          <g id="Path_361" data-name="Path 361" transform="translate(12.567 12.585)">
            <path id="Path_1882" data-name="Path 1882" class="cls-2" d="M375.528,152l-6.979-3.228,3.228,6.977" transform="translate(-368.549 -148.777)"/>
          </g>
          <g id="Ellipse_20" data-name="Ellipse 20" transform="translate(14.344 0)">
            <ellipse id="Ellipse_22145" data-name="Ellipse 22145" class="cls-2" cx="3.85" cy="3.009" rx="3.85" ry="3.009" transform="translate(0 5.444) rotate(-45)"/>
          </g>
          <g id="Path_362" data-name="Path 362" transform="translate(12.805 4.263)">
            <path id="Path_1883" data-name="Path 1883" class="cls-2" d="M371.921,143.752l-3.228,6.977,6.979-3.228" transform="translate(-368.693 -143.752)"/>
          </g>
        </g>
        <g id="Group_1544" data-name="Group 1544">
          <g id="Ellipse_13-2" data-name="Ellipse 13-2" transform="translate(0 16.923)">
            <ellipse id="Ellipse_22146" data-name="Ellipse 22146" class="cls-1" cx="5.925" cy="4.631" rx="5.925" ry="4.631"/>
          </g>
          <g id="Path_355-2" data-name="Path 355-2" transform="translate(8.726 17.473)">
            <path id="Path_1884" data-name="Path 1884" class="cls-1" d="M360.506,154.189l11.108-4.082-11.108-4.081" transform="translate(-360.506 -146.026)"/>
          </g>
          <g id="Ellipse_14-2" data-name="Ellipse 14-2" transform="translate(16.884 30.685)">
            <ellipse id="Ellipse_22147" data-name="Ellipse 22147" class="cls-1" cx="4.631" cy="5.925" rx="4.631" ry="5.925"/>
          </g>
          <g id="Path_356-2" data-name="Path 356-2" transform="translate(17.434 22.701)">
            <path id="Path_1885" data-name="Path 1885" class="cls-1" d="M373.926,160.291l-4.081-11.108-4.081,11.108" transform="translate(-365.764 -149.183)"/>
          </g>
          <g id="Ellipse_15-2" data-name="Ellipse 15-2" transform="translate(30.705 16.923)">
            <ellipse id="Ellipse_22148" data-name="Ellipse 22148" class="cls-1" cx="5.925" cy="4.631" rx="5.925" ry="4.631"/>
          </g>
          <g id="Path_357-2" data-name="Path 357-2" transform="translate(22.721 17.473)">
            <path id="Path_1886" data-name="Path 1886" class="cls-1" d="M380.062,146.026l-11.106,4.081,11.106,4.082" transform="translate(-368.956 -146.026)"/>
          </g>
          <g id="Ellipse_16-2" data-name="Ellipse 16-2" transform="translate(16.884)">
            <ellipse id="Ellipse_22149" data-name="Ellipse 22149" class="cls-1" cx="4.631" cy="5.925" rx="4.631" ry="5.925"/>
          </g>
          <g id="Path_358-2" data-name="Path 358-2" transform="translate(17.434 8.726)">
            <path id="Path_1887" data-name="Path 1887" class="cls-1" d="M365.764,140.745l4.081,11.108,4.082-11.108" transform="translate(-365.764 -140.745)"/>
          </g>
        </g>
      </g>
      <g id="Group_132" data-name="Group 132" transform="translate(0 0)">
        <g id="Path_1219" data-name="Path 1219">
          <path id="Path_1891" data-name="Path 1891" class="cls-3" d="M391.567,113.725a22.831,22.831,0,0,0-28-20.291,22.9,22.9,0,0,0-17.647-21.042c-.16-.04-.321-.071-.48-.1a15.7,15.7,0,0,0-28.574,4.268,14.01,14.01,0,0,0-19.777,12.763,14.275,14.275,0,0,0,.121,1.858,12.227,12.227,0,0,0-6.731,21.07c-.21.243-.43.483-.622.739a15.567,15.567,0,0,0-3.27,9.587,15.77,15.77,0,0,0,15.751,15.752h66.509c.649,0,1.278-.019,1.893-.074A22.756,22.756,0,0,0,391.567,113.725ZM292.3,97.517a8.745,8.745,0,0,1,6.539-2.946h.136a1.4,1.4,0,0,1,.176,0,1.748,1.748,0,0,0,1.865-2.24,10.619,10.619,0,0,1-.426-3.011,10.511,10.511,0,0,1,10.5-10.5,10.27,10.27,0,0,1,6.049,1.926,1.753,1.753,0,0,0,2.766-1.271,12.312,12.312,0,0,1,12.924-11.146,12.13,12.13,0,0,1,7.84,3.49c-.11,0-.218.017-.328.019h-.069a23.423,23.423,0,0,0-2.433.194l-.1.015a22.386,22.386,0,0,0-2.343.444l-.13.035a22.32,22.32,0,0,0-2.205.673l-.2.075a21.713,21.713,0,0,0-2,.862c-.1.05-.2.1-.3.145q-.907.464-1.771,1.009c-.132.081-.264.155-.393.238-.544.351-1.069.742-1.576,1.146-.138.109-.281.2-.418.316a23.441,23.441,0,0,0-1.809,1.649,21.541,21.541,0,0,0-3.654,4.932v-.01l-.014.023a1.588,1.588,0,0,0-.138.255A21.794,21.794,0,0,0,319,88.157a22.552,22.552,0,0,0-.775,3.973,19.226,19.226,0,0,0-.14,2.442v.351a17.675,17.675,0,0,0-11.06,1.366,18.779,18.779,0,0,0-2.181,1.255,10.278,10.278,0,0,0-1.184.891,16.894,16.894,0,0,0-1.853,1.694,15.979,15.979,0,0,0-1.554,1.9,17.392,17.392,0,0,0-2.569,5.489,14.1,14.1,0,0,0-2.233.894,16.6,16.6,0,0,0-2.181,1.314c-.074.052-.16.088-.233.142A8.753,8.753,0,0,1,292.3,97.517Zm78.138,37.246c-.525.048-1.05.062-1.589.062H302.336a12.266,12.266,0,0,1-12.252-12.252,12.142,12.142,0,0,1,2.552-7.47,11.44,11.44,0,0,1,1.6-1.706,12.412,12.412,0,0,1,2.781-1.849,11.354,11.354,0,0,1,2.539-.907,1.752,1.752,0,0,0,1.3-1.354,14,14,0,0,1,2.252-5.238,12.618,12.618,0,0,1,1.226-1.509,14.207,14.207,0,0,1,1.575-1.433,7.8,7.8,0,0,1,.875-.654,14.736,14.736,0,0,1,1.751-1.012,13.974,13.974,0,0,1,1.359-.557c.337-.119.679-.212,1.024-.306.116-.031.228-.071.351-.1.368-.09.739-.156,1.109-.216.106-.015.211-.038.316-.052.333-.045.67-.071,1.007-.093.175-.01.335-.025.506-.028.328-.01.654,0,.979,0a2.659,2.659,0,0,1,.351.015c.326.021.649.059.969.1.12.015.243.028.362.047.33.055.654.128.977.207.1.025.2.041.306.069a12.181,12.181,0,0,1,1.226.4,1.752,1.752,0,0,0,2.364-1.87,17.817,17.817,0,0,1-.159-2.486,16.682,16.682,0,0,1,.112-2.033,19.58,19.58,0,0,1,.658-3.393,18.161,18.161,0,0,1,1.549-3.737c.012-.022.024-.047.034-.069s.042-.072.062-.112a18.049,18.049,0,0,1,3.068-4.134,19.149,19.149,0,0,1,13.768-5.776c.584,0,1.164.035,1.727.08.5.048.989.11,1.475.206l.1.015q.5.062.985.174a19.378,19.378,0,0,1,14.968,18.779c0,.378-.017.756-.035,1.133a1.752,1.752,0,0,0,2.343,1.721,18.937,18.937,0,0,1,6.442-1.1,19.253,19.253,0,0,1,1.589,38.443Z" transform="translate(-286.579 -64.81)"/>
        </g>
      </g>
    </g>
    <g id="Group_2164" data-name="Group 2164" transform="translate(31 2205)">
      <g id="Group_1710" data-name="Group 1710" transform="translate(9.149 0)">
        <g id="Rectangle_1193" data-name="Rectangle 1193">
          <path id="Path_1889" data-name="Path 1889" class="cls-3" d="M25.888,147.985a3.207,3.207,0,0,1-3.2-3.2V77.044a3.207,3.207,0,0,1,3.2-3.2h93.59a3.208,3.208,0,0,1,3.2,3.2v67.737a3.208,3.208,0,0,1-3.2,3.2Zm92.132-4.661V78.5H27.346v64.822Z" transform="translate(-22.684 -73.84)"/>
          <path id="Path_1890" data-name="Path 1890" class="cls-3" d="M119.8,147.2H26.206a2.107,2.107,0,0,1-2.1-2.1V77.362a2.107,2.107,0,0,1,2.1-2.1H119.8a2.107,2.107,0,0,1,2.1,2.1V145.1A2.107,2.107,0,0,1,119.8,147.2ZM26.565,144.74h92.873V77.721H26.565Z" transform="translate(-23.002 -74.158)"/>
        </g>
        <g id="Line_5" data-name="Line 5" transform="translate(1.232 9.627)">
          <rect id="Rectangle_1300" data-name="Rectangle 1300" class="cls-3" width="97.534" height="4.662"/>
          <rect id="Rectangle_1301" data-name="Rectangle 1301" class="cls-3" width="95.336" height="2.463" transform="translate(1.099 1.099)"/>
        </g>
      </g>
      <g id="Rectangle_1238" data-name="Rectangle 1238" transform="translate(0 76.439)">
        <path id="Path_1892" data-name="Path 1892" class="cls-3" d="M15.135,172.4H124.223a4.063,4.063,0,0,1,4.248,3.848v1.232a4.063,4.063,0,0,1-4.248,3.848H15.135a4.063,4.063,0,0,1-4.248-3.848v-1.232A4.063,4.063,0,0,1,15.135,172.4Z" transform="translate(-10.887 -172.4)"/>
      </g>
      <g id="Rectangle_1239" data-name="Rectangle 1239" transform="translate(41.246 77.091)">
        <rect id="Rectangle_1302" data-name="Rectangle 1302" class="cls-4" width="35.564" height="3.079" rx="1.54"/>
      </g>
      <g id="Group_2155" data-name="Group 2155" transform="translate(34.252 18.891)">
        <path id="Path_1893" data-name="Path 1893" class="cls-5" d="M95.65,114.99l-.2-.3a7.339,7.339,0,0,0-1.134-1.323,6.516,6.516,0,0,0-1.1-.844,9.084,9.084,0,0,0-.959-.509,10.925,10.925,0,0,0-1.078-.394,4.757,4.757,0,0,0-.626-.137c-.239-.042-.479-.081-.72-.1a6.533,6.533,0,0,0-.705-.023,7.438,7.438,0,0,0-.908.055c-.368.053-.732.141-1.095.226a5.892,5.892,0,0,0-1.151.419,7.415,7.415,0,0,0-1.066.607,7.684,7.684,0,0,0-1.173.988,7.341,7.341,0,0,0-.864,1.071c-.055.084-.066.09-.154.032-.346-.223-.692-.447-1.039-.67-.06-.038-.065-.072-.024-.132a9.3,9.3,0,0,1,1.365-1.619c.055-.053.113-.1.172-.149s.046-.066,0-.106a5.5,5.5,0,0,1-1.1-1.361,4.506,4.506,0,0,1-.415-.908,1.7,1.7,0,0,1-.089-.8.4.4,0,0,1,.5-.36,1.641,1.641,0,0,1,.771.393,5.106,5.106,0,0,1,1.27,1.534c.1.184.188.378.282.566.014.028.031.053.051.085.148-.084.289-.174.438-.247.321-.157.64-.319.971-.451.3-.12.611-.208.92-.3a8.585,8.585,0,0,1,1.389-.271c.1-.013.209-.015.313-.023.062-.006.094-.022.073-.1a4.049,4.049,0,0,1-.135-1c0-.288-.01-.576.016-.861a7.22,7.22,0,0,1,.144-.792,1.957,1.957,0,0,1,.242-.606.742.742,0,0,1,.339-.334.384.384,0,0,1,.426.088,1.233,1.233,0,0,1,.322.493,4.313,4.313,0,0,1,.286,1.57,6.069,6.069,0,0,1-.052.993c-.025.163-.065.322-.1.483-.014.06,0,.081.061.091.311.045.621.085.927.151a9.014,9.014,0,0,1,.966.255c.321.106.634.239.944.373a8.369,8.369,0,0,1,1.117.611c.043.028.07.031.092-.029a5.557,5.557,0,0,1,1.119-1.8,3.649,3.649,0,0,1,.783-.67,1.337,1.337,0,0,1,.506-.2.416.416,0,0,1,.485.364,1.925,1.925,0,0,1-.135.92,5.27,5.27,0,0,1-.792,1.413,4.537,4.537,0,0,1-.817.852c-.051.04-.054.067-.006.117.262.27.537.53.775.82.268.326.5.679.749,1.021.055.079.052.092-.028.141Z" transform="translate(-77.154 -106.213)"/>
        <path id="Path_1894" data-name="Path 1894" class="cls-5" d="M82.942,120.939c.074.1.143.192.215.284a7.032,7.032,0,0,0,1.058,1.119c.193.16.386.322.591.464.229.159.466.3.709.441a6.036,6.036,0,0,0,1.265.551c.331.1.666.189,1,.263a5.082,5.082,0,0,0,.675.091c.257.021.516.037.775.036a7.267,7.267,0,0,0,1.225-.112,6.568,6.568,0,0,0,1.082-.272c.257-.091.516-.185.767-.3a7.118,7.118,0,0,0,1-.548,7.614,7.614,0,0,0,1.177-.947,6.889,6.889,0,0,0,.787-.912c.126-.177.124-.178.3-.055.313.216.626.434.94.649.054.037.065.061.022.121a9.2,9.2,0,0,1-1.113,1.292c-.076.074-.077.076,0,.143a5.433,5.433,0,0,1,1.015,1.207,4.591,4.591,0,0,1,.523,1.089,1.692,1.692,0,0,1,.088.809.388.388,0,0,1-.379.351.976.976,0,0,1-.533-.156,3.96,3.96,0,0,1-1.107-1,5.915,5.915,0,0,1-.7-1.107c-.051-.1-.095-.212-.147-.33-.1.067-.2.133-.292.186-.279.156-.558.316-.846.455s-.557.246-.842.351c-.234.087-.477.154-.717.221-.209.057-.419.111-.632.15s-.454.067-.681.1c-.085.01-.089.02-.075.1a6.846,6.846,0,0,1,.1.7,7.958,7.958,0,0,1,0,.862,4.14,4.14,0,0,1-.145.911,2.362,2.362,0,0,1-.291.7.692.692,0,0,1-.293.274.382.382,0,0,1-.434-.082,1.22,1.22,0,0,1-.318-.478,3.267,3.267,0,0,1-.245-.974c-.023-.257-.054-.515-.053-.772a5.152,5.152,0,0,1,.109-1.129c.013-.058-.008-.067-.055-.073-.322-.04-.644-.07-.963-.127a7.2,7.2,0,0,1-.76-.184c-.255-.073-.51-.15-.757-.247-.3-.117-.6-.247-.888-.388-.224-.109-.438-.24-.655-.365-.044-.024-.066-.014-.084.029a5.517,5.517,0,0,1-.814,1.3,3.67,3.67,0,0,1-1.118.968.948.948,0,0,1-.442.119.387.387,0,0,1-.4-.348,1.589,1.589,0,0,1,.058-.712,4.839,4.839,0,0,1,.717-1.441,5.125,5.125,0,0,1,.705-.827c.064-.06.057-.075,0-.139-.279-.289-.561-.576-.831-.874-.149-.166-.276-.353-.413-.531-.055-.072-.055-.08.021-.133l.932-.648Z" transform="translate(-77.154 -103.936)"/>
        <path id="Path_1895" data-name="Path 1895" class="cls-5" d="M94.534,116.787c.015.13.029.261.045.391.022.177.05.352.067.529.033.349.063.7.092,1.046.01.122.017.246.017.368,0,.61,0,1.22,0,1.83,0,.077-.029.091-.1.091q-.688,0-1.374,0c-.073,0-.094-.02-.094-.092q0-1.469,0-2.937v-3.431c0-.1,0-.1.1-.1.555,0,1.11,0,1.665,0a.111.111,0,0,1,.12.085c.115.318.234.635.351.953.1.274.2.548.3.822s.209.545.3.82c.068.194.119.394.179.591.051.17.1.339.154.508.006.016.024.029.037.043.013-.015.033-.027.038-.044.046-.15.088-.3.134-.45.085-.278.171-.558.262-.834.083-.251.173-.5.261-.746s.177-.5.264-.744l.26-.737c.025-.074.048-.149.081-.221a.1.1,0,0,1,.069-.044c.574,0,1.147,0,1.72,0,.046,0,.069.016.066.063,0,.024,0,.047,0,.07v6.315c0,.114,0,.114-.117.114-.45,0-.9,0-1.351,0-.073,0-.1-.017-.1-.1,0-.605-.01-1.21.006-1.814.013-.439.061-.875.1-1.313.027-.293.065-.587.1-.88.006-.05.014-.1.021-.15l-.025-.01a.292.292,0,0,0-.044.069q-.12.334-.234.671c-.087.251-.169.5-.257.754-.081.231-.169.46-.254.689-.1.278-.207.557-.311.835-.081.217-.159.435-.245.65a.117.117,0,0,1-.089.058c-.267,0-.533,0-.8,0a.1.1,0,0,1-.07-.051c-.082-.2-.158-.408-.236-.613s-.154-.409-.23-.614c-.1-.266-.2-.53-.294-.8-.121-.344-.236-.69-.352-1.037-.06-.18-.117-.363-.177-.543a.342.342,0,0,0-.047-.075Z" transform="translate(-75.357 -104.935)"/>
        <path id="Path_1896" data-name="Path 1896" class="cls-6" d="M77.746,117.758v-3.173c0-.105,0-.105.1-.105h1.524c.1,0,.1,0,.1.1v2.231c0,.117,0,.117.118.117h1.743c.1,0,.106,0,.106-.105v-2.239c0-.105,0-.105.109-.105.508,0,1.016,0,1.524,0,.074,0,.1.02.1.1q0,3.188,0,6.377c0,.075-.023.091-.094.091q-.774,0-1.547,0c-.073,0-.094-.021-.094-.094q0-1.2,0-2.4c0-.113,0-.113-.114-.113H79.585c-.106,0-.11,0-.11.112v2.387c0,.11,0,.11-.112.11-.51,0-1.022,0-1.532,0-.07,0-.087-.02-.087-.089Q77.747,119.357,77.746,117.758Z" transform="translate(-77.745 -104.935)"/>
        <path id="Path_1897" data-name="Path 1897" class="cls-6" d="M83.677,117.758v-3.165c0-.113,0-.113.11-.113q2.011,0,4.021,0c.081,0,.1.023.1.1,0,.421,0,.843,0,1.264,0,.069-.021.09-.089.09-.768,0-1.534,0-2.3,0-.112,0-.112,0-.112.112,0,.272,0,.544,0,.816,0,.111,0,.111.114.111.641,0,1.283,0,1.924,0,.073,0,.1.015.1.095,0,.419,0,.837,0,1.256,0,.075-.021.1-.1.1-.641,0-1.283,0-1.924,0-.118,0-.118,0-.118.114,0,.322,0,.644,0,.966,0,.076.024.1.1.1q1.193,0,2.388,0c.125,0,.125,0,.125.121,0,.413,0,.828,0,1.241,0,.065-.017.087-.083.087q-2.089,0-4.178,0c-.07,0-.08-.028-.08-.088Q83.678,119.357,83.677,117.758Z" transform="translate(-76.828 -104.935)"/>
        <path id="Path_1898" data-name="Path 1898" class="cls-6" d="M88.562,117.759v-2.977c0-.078,0-.157,0-.236,0-.05.017-.068.069-.068q.8,0,1.6,0c.05,0,.067.02.065.066,0,.028,0,.057,0,.085q0,2.423,0,4.846c0,.118,0,.118.122.118h2.262c.1,0,.1,0,.1.1,0,.419,0,.838,0,1.256,0,.07-.018.089-.088.089q-2.026,0-4.053,0c-.06,0-.084-.016-.083-.08,0-.256.006-.513.006-.769Z" transform="translate(-76.074 -104.935)"/>
      </g>
      <g id="A6IjLT.tif" transform="translate(23.053 46.346)">
        <g id="Group_2156" data-name="Group 2156" transform="translate(0 0)">
          <path id="Path_1899" data-name="Path 1899" class="cls-7" d="M120.51,144.429l-.093.021,0-3.5a.193.193,0,0,1,.1.018Z" transform="translate(-69.457 -131.901)"/>
          <path id="Path_1900" data-name="Path 1900" class="cls-8" d="M82.691,142.326c-1.728-.994-3.369-1.934-5-2.888a.479.479,0,0,1-.21-.346c-.013-1.89-.009-3.782-.009-5.768.535.3,1,.561,1.457.825,1.128.65,2.262,1.292,3.377,1.964a.79.79,0,0,1,.371.526C82.7,138.5,82.691,140.353,82.691,142.326Z" transform="translate(-77.469 -133.323)"/>
          <path id="Path_1901" data-name="Path 1901" class="cls-8" d="M82.346,136.141c1.734,1,3.378,1.939,5.011,2.9a.611.611,0,0,1,.215.457c.015,1.84.01,3.681.01,5.627-.208-.1-.363-.172-.51-.256-1.452-.834-2.908-1.664-4.349-2.518a.77.77,0,0,1-.36-.524C82.337,139.968,82.346,138.108,82.346,136.141Z" transform="translate(-76.559 -132.797)"/>
          <path id="Path_1902" data-name="Path 1902" class="cls-9" d="M82.347,141.755c1.483.853,2.843,1.693,4.261,2.423a1.582,1.582,0,0,1,1,1.718c-.084,1.571-.024,3.15-.024,4.814-.215-.1-.363-.149-.5-.227-1.469-.841-2.94-1.68-4.4-2.542a.717.717,0,0,1-.323-.5C82.338,145.589,82.347,143.731,82.347,141.755Z" transform="translate(-76.559 -131.75)"/>
          <path id="Path_1903" data-name="Path 1903" class="cls-10" d="M92.431,136.149c0,1.985,0,3.862-.009,5.739a.533.533,0,0,1-.22.39c-1.618.948-3.248,1.878-4.966,2.867v-1.378c0-1.4-.009-2.791.01-4.186a.747.747,0,0,1,.224-.555C89.08,138.069,90.709,137.141,92.431,136.149Z" transform="translate(-75.647 -132.796)"/>
          <path id="Path_1904" data-name="Path 1904" class="cls-11" d="M121.38,141.09l0,3.5-1.048.081c0-.947.007-1.834,0-2.722,0-.274.107-.634-.386-.642-.591-.008-1.056.278-1.058.693-.006.856,0,1.71,0,2.607h-1.109c0-.914,0-1.82,0-2.727,0-.557-.131-.657-.675-.539-.505.109-.866.284-.8.945.076.755.018,1.522.018,2.323h-1.081V140.26l1.023.229c.818-.066,1.668-.706,2.445.107.542-.131,1.039-.292,1.55-.361C120.935,140.145,121.228,140.4,121.38,141.09Z" transform="translate(-70.423 -132.042)"/>
          <path id="Path_1905" data-name="Path 1905" class="cls-12" d="M109.352,142.452v-.167a1.892,1.892,0,0,1,2.8-1.92,1.184,1.184,0,0,1,.889.982,14.564,14.564,0,0,1,0,2.264,1.04,1.04,0,0,1-.892.958,5.425,5.425,0,0,1-1.751.015,1.293,1.293,0,0,1-1.035-1.35c-.015-.26,0-.521,0-.782Zm2.685.047h-.009a6.112,6.112,0,0,0,0-.723c-.059-.494-.4-.615-.844-.594s-.712.192-.713.666c0,.389.008.78,0,1.169a.668.668,0,0,0,.733.774.7.7,0,0,0,.84-.734C112.048,142.872,112.037,142.684,112.037,142.5Z" transform="translate(-71.521 -132.045)"/>
          <path id="Path_1906" data-name="Path 1906" class="cls-13" d="M98.961,143.669l.176.759a3.429,3.429,0,0,1-2.782.021,1.162,1.162,0,0,1-.566-.765,10.847,10.847,0,0,1,0-2.379c.095-.743.8-1.109,1.777-1.089.893.018,1.413.369,1.556,1.134a14.991,14.991,0,0,1,.131,1.526h-2.4c-.079.724.082.928.748.912C98.037,143.779,98.478,143.713,98.961,143.669Zm-.879-1.69c.055-.632-.083-.841-.556-.863-.521-.024-.736.234-.71.863Z" transform="translate(-74.063 -132.037)"/>
          <path id="Path_1907" data-name="Path 1907" class="cls-14" d="M103.773,141.251l-.117-.793a3.521,3.521,0,0,1,2.454-.07,1.292,1.292,0,0,1,.715.873c.088,1.1.034,2.22.034,3.461-.326-.09-.617-.179-.911-.247a.625.625,0,0,0-.286.027,6.484,6.484,0,0,1-.637.185,1.251,1.251,0,0,1-1.468-1.747.98.98,0,0,1,1.015-.711c.389-.015.78,0,1.163,0,.128-.96-.045-1.144-.96-1.064Zm1.98,1.64c-.374.348-1.054-.317-1.153.549-.044.383.227.4.507.381C105.711,143.79,105.819,143.669,105.753,142.891Z" transform="translate(-72.618 -132.041)"/>
          <path id="Path_1908" data-name="Path 1908" class="cls-15" d="M92.764,138.974h4.384v.972H95.537v4.905H94.392v-4.876H92.764Z" transform="translate(-74.615 -132.269)"/>
          <path id="Path_1909" data-name="Path 1909" class="cls-16" d="M107.393,141.511l-.641-.032v-.841l.611-.04c.081-.6-.129-1.385.547-1.688a7.131,7.131,0,0,1,1.845-.284l-.12.933c-1.156.133-1.156.133-1.1,1.036h1.023c.076.8.076.8-1.042.931v3.36h-1.124Z" transform="translate(-72.006 -132.334)"/>
          <path id="Path_1910" data-name="Path 1910" class="cls-17" d="M114.121,144.627h-1.113v-4.288c.364.056.827-.306,1.026.346l1.1-.482a3.865,3.865,0,0,0,.068.653.382.382,0,0,1-.3.542,1.063,1.063,0,0,0-.795,1.3A17.591,17.591,0,0,1,114.121,144.627Z" transform="translate(-70.838 -132.039)"/>
          <path id="Path_1911" data-name="Path 1911" class="cls-18" d="M101.3,140.216c.193.935.2.946-.557,1.361a.715.715,0,0,0-.438.744c.032.756.009,1.515.009,2.3h-1.1v-4.307c.348.132.864-.357.994.388Z" transform="translate(-73.411 -132.037)"/>
          <path id="Path_1912" data-name="Path 1912" class="cls-19" d="M101.445,140.3c.363.127.863-.266,1.01.4l1.043-.479c.261.91.267.922-.522,1.347a.74.74,0,0,0-.453.783c.037.739.011,1.481.011,2.258h-1.088Z" transform="translate(-72.996 -132.036)"/>
        </g>
      </g>
      <g id="Group_2157" data-name="Group 2157" transform="translate(73.487 23.057)">
        <path id="Path_1913" data-name="Path 1913" d="M128.514,124.11c-.111-.024-.224-.04-.332-.072a.668.668,0,0,1-.538-.693.584.584,0,0,1,.294-.507c.027-.018.054-.032.087-.049l-.062-.049a.6.6,0,0,1-.234-.6.537.537,0,0,1,.388-.444,2,2,0,0,1,.473-.089,3.2,3.2,0,0,1,.92.076l-.033.267c-.14-.016-.277-.04-.414-.044-.218-.006-.437,0-.654.006a.385.385,0,0,0-.123.033.329.329,0,0,0-.235.276.337.337,0,0,0,.161.359.8.8,0,0,0,.311.1c.18.016.363,0,.545.005.105,0,.164.053.164.142s-.061.142-.166.143c-.205,0-.41,0-.614,0a.8.8,0,0,0-.248.051.345.345,0,0,0-.234.326.38.38,0,0,0,.192.364.851.851,0,0,0,.476.108c.263-.013.525-.048.787-.073l.052-.008.049.275-.49.082c-.033.005-.066.013-.1.019Z" transform="translate(-109.108 -100.228)"/>
        <path id="Path_1914" data-name="Path 1914" d="M119.307,124.11c-.147-.029-.295-.054-.44-.087-.1-.024-.2-.059-.311-.092l.075-.257c.195.042.382.087.572.12a1.43,1.43,0,0,0,.609-.009.365.365,0,0,0,.3-.244.212.212,0,0,0-.057-.226.956.956,0,0,0-.2-.146c-.259-.135-.523-.262-.781-.4a1.529,1.529,0,0,1-.266-.183.523.523,0,0,1-.181-.506.477.477,0,0,1,.313-.392,1.416,1.416,0,0,1,.543-.091,3.4,3.4,0,0,1,.9.114l-.047.267a3.479,3.479,0,0,0-.38-.061c-.24-.011-.482-.018-.722-.006a.26.26,0,0,0-.281.213.242.242,0,0,0,.084.245,1.98,1.98,0,0,0,.292.189c.224.116.453.221.678.337a2.014,2.014,0,0,1,.235.152.545.545,0,0,1,.025.829.991.991,0,0,1-.5.216.691.691,0,0,0-.073.019Z" transform="translate(-111.519 -100.228)"/>
        <path id="Path_1915" data-name="Path 1915" d="M123.22,125.123a10.208,10.208,0,1,1,10.207-10.2A10.213,10.213,0,0,1,123.22,125.123Zm-1.639-9.631.707.572q2.076,1.678,4.153,3.354a7.276,7.276,0,0,0,.6.463.727.727,0,0,0,1.02-.256.756.756,0,0,0,.009-.7q-1.45-3.488-2.9-6.977-.567-1.368-1.135-2.736a.674.674,0,0,0-.45-.43.692.692,0,0,0-.852.44q-2.2,5.3-4.408,10.606c-.01.024-.018.049-.03.085h.1c.444,0,.887,0,1.331,0a.115.115,0,0,0,.129-.087q.716-1.8,1.436-3.6C121.385,115.982,121.481,115.742,121.581,115.492Z" transform="translate(-112.987 -104.708)"/>
        <path id="Path_1916" data-name="Path 1916" d="M124.272,122.766a.42.42,0,0,0,.038.02.6.6,0,0,1,.412.553.652.652,0,0,1-.347.612.872.872,0,0,1-.442.111c-.31,0-.619,0-.929,0-.144,0-.2-.058-.2-.2q0-1.019,0-2.038c0-.142.054-.2.195-.2.29,0,.579,0,.869.006a.991.991,0,0,1,.321.067.581.581,0,0,1,.17,1C124.332,122.72,124.305,122.74,124.272,122.766Zm-1.139.194v.82c.283,0,.562,0,.839,0a.4.4,0,0,0,.416-.4.394.394,0,0,0-.382-.42C123.718,122.949,123.429,122.96,123.134,122.96Zm0-.29c.259,0,.512.013.763-.005a.379.379,0,0,0,.343-.391.352.352,0,0,0-.348-.359c-.134-.015-.272-.01-.407-.013-.115,0-.232,0-.351,0Z" transform="translate(-110.392 -100.221)"/>
        <path id="Path_1917" data-name="Path 1917" d="M116.112,122.209v1.855H115.8c0-.028,0-.053,0-.077q0-1.087,0-2.175c0-.014,0-.028,0-.042a.165.165,0,0,1,.121-.158.152.152,0,0,1,.178.065l.454.6.855,1.126.061.072v-1.835h.316a.435.435,0,0,1,.006.057V123.9a.162.162,0,0,1-.233.166.245.245,0,0,1-.078-.075q-.649-.85-1.294-1.7C116.165,122.27,116.146,122.249,116.112,122.209Z" transform="translate(-112.252 -100.226)"/>
        <path id="Path_1918" data-name="Path 1918" d="M112.994,124.069c.013-.038.02-.065.03-.09l.919-2.245.006-.015a.155.155,0,0,1,.152-.116.153.153,0,0,1,.143.114q.435,1.061.867,2.119a.163.163,0,0,1-.04.216c-.07.052-.138.047-.224-.024l-1.062-.871c-.024-.02-.048-.039-.08-.063-.077.192-.151.38-.224.566-.047.116-.094.233-.137.349a.076.076,0,0,1-.086.061C113.175,124.066,113.09,124.069,112.994,124.069ZM114.1,122.1c-.018.038-.029.063-.039.089-.07.177-.132.358-.211.53a.131.131,0,0,0,.058.2,1.068,1.068,0,0,1,.113.09c.209.166.416.333.624.5l.014-.009Z" transform="translate(-112.994 -100.226)"/>
        <path id="Path_1919" data-name="Path 1919" d="M127.063,124.058c-.03,0-.058,0-.086,0-.44,0-.881,0-1.321,0-.163,0-.221-.058-.221-.221v-2.123c0-.028,0-.056,0-.089h.326v2.131h1.3Z" transform="translate(-109.694 -100.219)"/>
        <path id="Path_1920" data-name="Path 1920" d="M121.561,124.058h-.316v-2.427h.316Z" transform="translate(-110.805 -100.219)"/>
        <path id="Path_1921" data-name="Path 1921" class="cls-4" d="M120.475,114.644c-.1.251-.2.49-.291.729q-.719,1.8-1.436,3.6a.115.115,0,0,1-.129.087c-.444,0-.887,0-1.331,0h-.1c.013-.035.02-.061.03-.085q2.2-5.3,4.408-10.606a.692.692,0,0,1,.852-.44.675.675,0,0,1,.45.43q.566,1.368,1.135,2.736,1.45,3.488,2.9,6.977a.756.756,0,0,1-.009.7.727.727,0,0,1-1.02.256,7.275,7.275,0,0,1-.6-.463q-2.078-1.676-4.153-3.354Zm4.42,1.941.015-.014-2.619-6.468c-.018.039-.029.062-.038.086-.428,1.069-.853,2.138-1.283,3.206-.025.066-.006.094.042.133q1.638,1.287,3.275,2.579Z" transform="translate(-111.881 -103.86)"/>
        <path id="Path_1922" data-name="Path 1922" d="M124.1,116.124l-.609-.478q-1.636-1.291-3.275-2.579c-.048-.039-.067-.067-.042-.133.43-1.068.855-2.137,1.283-3.206.009-.024.02-.047.038-.086l2.619,6.468Z" transform="translate(-111.091 -103.399)"/>
      </g>
    </g>
    <g id="Group_2174" data-name="Group 2174" transform="translate(153 2225)">
      <g id="Group_2171" data-name="Group 2171">
        <path id="Path_1954" data-name="Path 1954" class="cls-20" d="M0,45.51,13.163,22.755,0,0H13.975L27.141,22.755,13.975,45.51Z"/>
      </g>
      <g id="Group_2172" data-name="Group 2172" transform="translate(18.54)">
        <path id="Path_1955" data-name="Path 1955" class="cls-1" d="M0,45.51,13.163,22.755,0,0H13.975L27.141,22.755,13.975,45.51Z"/>
      </g>
      <g id="Group_2173" data-name="Group 2173" transform="translate(37.617 0.062)">
        <path id="Path_1956" data-name="Path 1956" class="cls-2" d="M0,45.51,13.163,22.755,0,0H13.975L27.141,22.755,13.975,45.51Z"/>
      </g>
    </g>
  </g>
</svg>
