<svg xmlns="http://www.w3.org/2000/svg" width="315.009" height="404.777" viewBox="0 0 315.009 404.777"><defs><style>.a{fill:#00d2d9;}.b{fill:#a4f7f8;}.c{fill:#fff;}.d{fill:#e0e0e0;}.e{fill:#edf7e2;}.f{fill:#81cf09;}.g{fill:#414238;}.h{fill:#ddfcec;}.i{fill:#349b29;}</style></defs><g transform="translate(-6149.191 -5361)"><g transform="translate(284 462)"><ellipse class="a" cx="30.885" cy="8.03" rx="30.885" ry="8.03" transform="translate(5883.411 5141.889)"/><rect class="a" width="61.77" height="40.906" transform="translate(5883.411 5109.013)"/><ellipse class="b" cx="30.885" cy="8.03" rx="30.885" ry="8.03" transform="translate(5883.411 5100.983)"/></g><g transform="translate(-130 342)"><rect class="a" width="93.911" height="19.777" transform="translate(6280.498 5404)"/><circle class="c" cx="3.19" cy="3.19" r="3.19" transform="translate(6287.082 5410.699)"/><circle class="c" cx="3.19" cy="3.19" r="3.19" transform="translate(6296.12 5410.699)"/><circle class="c" cx="3.19" cy="3.19" r="3.19" transform="translate(6305.158 5410.699)"/><rect class="c" width="46.784" height="2.339" rx="1.17" transform="translate(6320.256 5412.719)"/></g><g transform="translate(89 342)"><rect class="a" width="93.911" height="19.777" transform="translate(6280.498 5404)"/><circle class="c" cx="3.19" cy="3.19" r="3.19" transform="translate(6287.082 5410.699)"/><circle class="c" cx="3.19" cy="3.19" r="3.19" transform="translate(6296.12 5410.699)"/><circle class="c" cx="3.19" cy="3.19" r="3.19" transform="translate(6305.158 5410.699)"/><rect class="c" width="46.784" height="2.339" rx="1.17" transform="translate(6320.256 5412.719)"/></g><path class="b" d="M478.064,434.7l-23.436,11.509,11.743-23.245,3.486,3.5,47.819-47.36,4.209,4.225-47.819,47.36Z" transform="translate(5779.653 5738.96) rotate(-45)"/><path class="b" d="M478.064,434.7l-23.436,11.509,11.743-23.245,3.486,3.5,47.819-47.36,4.209,4.225-47.819,47.36Z" transform="translate(5559.653 5739.96) rotate(-45)"/><g transform="translate(6392.541 5528.708) rotate(-90)"><path class="d" d="M1459.742,1515.335h41.648v18.114l41.407-23.872-41.407-23.869v18.111h-41.648Z" transform="translate(-1459.742 -1485.708)"/></g><g transform="translate(6343.938 5614.05) rotate(180)"><path class="d" d="M1459.742,1515.335h41.648v18.114l41.407-23.872-41.407-23.869v18.111h-41.648Z" transform="translate(-1459.742 -1485.708)"/></g><rect class="e" width="74" height="74" rx="25" transform="translate(6380 5553)"/><g transform="translate(297 129)"><g transform="translate(-47.629 14.548)"><path class="f" d="M3635.466-3299.029c.619-.292,1.094-.514,1.566-.74.218-.1.368.045.529.137a10.857,10.857,0,0,1,1.239.741,1.364,1.364,0,0,0,1.751.04c2.52-1.509,5.075-2.96,7.631-4.41a.953.953,0,0,0,.56-.964q-.033-4.581,0-9.162a.911.911,0,0,0-.519-.918q-4.021-2.282-8.018-4.607a.909.909,0,0,0-1.052.012q-3.994,2.327-8.017,4.609a.86.86,0,0,0-.5.857q.025,4.653,0,9.306a.789.789,0,0,0,.457.805c.723.383,1.41.838,2.144,1.2,1.23.6,2.04.077,2.042-1.274,0-3.031.022-6.061-.016-9.09-.01-.718.324-.739.876-.761.614-.022.775.192.77.784-.026,3.054,0,6.107-.015,9.162-.009,2.57-1.743,3.724-4.106,2.683a27.516,27.516,0,0,1-2.841-1.572,1.8,1.8,0,0,1-.88-1.642q-.012-4.94,0-9.883a1.944,1.944,0,0,1,1.037-1.78q4.255-2.456,8.513-4.906a2,2,0,0,1,2.129,0q4.256,2.454,8.513,4.906a1.992,1.992,0,0,1,1.046,1.849q0,4.871,0,9.74a1.993,1.993,0,0,1-1.061,1.84l-8.513,4.906a1.689,1.689,0,0,1-1.658.183C3637.89-3297.606,3636.742-3298.3,3635.466-3299.029Z" transform="translate(2527.556 8769.994)"/><path class="f" d="M3643.6-3302.714a7.327,7.327,0,0,1-2.689-.466,2.763,2.763,0,0,1-1.795-2.257c-.041-.281-.193-.729.284-.734.45,0,1.153-.36,1.316.328.273,1.153,1.066,1.435,2.064,1.55a7.67,7.67,0,0,0,2.3-.075,1.707,1.707,0,0,0,.907-.414.96.96,0,0,0-.318-1.671,12.017,12.017,0,0,0-2.839-.5,8.064,8.064,0,0,1-1.9-.425,2.138,2.138,0,0,1-1.54-1.823,2.47,2.47,0,0,1,.992-2.41,6.412,6.412,0,0,1,6.261.042,2.935,2.935,0,0,1,1.067,2.054.344.344,0,0,1-.122.382,1.306,1.306,0,0,1-1.6-.505,1.754,1.754,0,0,0-.529-.76,4.729,4.729,0,0,0-3.9-.1.988.988,0,0,0-.447.927c.024.4.31.577.651.68a20.363,20.363,0,0,0,2.7.479,10.4,10.4,0,0,1,1.97.446,2.11,2.11,0,0,1,1.6,1.758,2.607,2.607,0,0,1-1.113,2.705A6.022,6.022,0,0,1,3643.6-3302.714Z" transform="translate(2526.238 8768.898)"/></g><path class="g" d="M3500.927-3316.767a2.559,2.559,0,0,1,.655-.527c1.769-1.006,3.537-2.014,5.293-3.041a1,1,0,0,1,1.134-.011q2.694,1.575,5.411,3.108a1,1,0,0,1,.563.983c-.015,2.815-.01,5.63-.014,8.445,0,.674-.2.786-.786.452-.983-.559-1.957-1.133-2.95-1.673a1.041,1.041,0,0,1-.614-1.046c.026-1.219,0-2.439.015-3.658a.959.959,0,0,0-.556-.986c-.4-.2-.787-.445-1.176-.675a.829.829,0,0,0-.9,0c-.417.244-.832.49-1.254.721a.863.863,0,0,0-.475.849c.012,1.249-.013,2.5.013,3.748a1.044,1.044,0,0,1-.614,1.046c-1.019.556-2.022,1.139-3.024,1.726a.5.5,0,0,1-.721-.065Z" transform="translate(2586.073 8769.904)"/><path class="g" d="M3578.213-3325c0,2.679-.009,5.359.008,8.038a1.061,1.061,0,0,1-.6,1.051c-1.812,1.022-3.611,2.066-5.407,3.115a.944.944,0,0,1-1.056-.006q-2.733-1.595-5.484-3.161a.916.916,0,0,1-.517-.874q.014-3.185,0-6.368a.917.917,0,0,1,.521-.872q2.749-1.568,5.487-3.158a.918.918,0,0,1,1.055,0c.342.219.7.412,1.057.611.466.26.588.192.588-.335q0-2.506,0-5.013c0-1.144,0-2.288,0-3.432,0-.546.23-.68.706-.417,1.043.575,2.079,1.162,3.124,1.733a.931.931,0,0,1,.524.914C3578.208-3330.452,3578.213-3327.727,3578.213-3325Zm-8.656,4.969c-.357,1.014.16,1.568,1.054,1.906a.122.122,0,0,1,.039.022c.693.622,1.312.443,2.086.02a1.919,1.919,0,0,0,1.157-1.984,1.869,1.869,0,0,0-1.077-1.85,1.883,1.883,0,0,0-2.266-.009C3569.786-3321.452,3569.219-3321.029,3569.558-3320.034Z" transform="translate(2556.743 8776.953)"/><path class="f" d="M3546.127-3313.076c0,1.039-.011,2.077.005,3.116a1,1,0,0,1-.575.98q-2.715,1.536-5.408,3.112a.974.974,0,0,1-1.094.008q-2.734-1.594-5.486-3.16a.908.908,0,0,1-.5-.882q.015-3.16,0-6.321a.936.936,0,0,1,.525-.912q2.77-1.577,5.525-3.181a.865.865,0,0,1,.938,0q2.8,1.616,5.6,3.224a.886.886,0,0,1,.465.858C3546.122-3315.183,3546.127-3314.129,3546.127-3313.076Z" transform="translate(2571.394 8769.876)"/><path class="g" d="M3597.184-3313.014c0-1.054.009-2.108,0-3.162a.909.909,0,0,1,.51-.878q2.77-1.58,5.526-3.182a.914.914,0,0,1,1.016.016q2.713,1.587,5.441,3.149a.941.941,0,0,1,.536.91c-.04,2.2.278,1.627-1.546,2.717-.7.417-1.4.823-2.111,1.228-.5.287-.717.158-.723-.428,0-.422-.01-.843,0-1.265a.546.546,0,0,0-.32-.542c-.515-.284-1.024-.579-1.529-.879a.557.557,0,0,0-.633-.012q-.775.465-1.568.9a.557.557,0,0,0-.31.551c.009.512.028,1.026-.006,1.535a.848.848,0,0,0,.51.9c1.777.992,3.537,2.014,5.3,3.027.18.1.407.18.408.436s-.228.333-.409.434c-1.028.571-2.062,1.131-3.083,1.715a.961.961,0,0,1-1.058-.008q-2.7-1.557-5.426-3.085a.935.935,0,0,1-.531-.912C3597.195-3310.906,3597.184-3311.96,3597.184-3313.014Z" transform="translate(2542.119 8769.843)"/><path class="f" d="M3606.826-3308.024c.072-.252-.134-.576.136-.76.358-.243.735-.623,1.136-.59a2.361,2.361,0,0,1,1.135.609c.268.217.094.6.108.9.01.211.112.48-.122.629-.366.232-.735.622-1.14.585a2.6,2.6,0,0,1-1.137-.606C3606.693-3307.437,3606.9-3307.768,3606.826-3308.024Z" transform="translate(2537.719 8764.816)"/></g><g transform="translate(0 31)"><rect class="h" width="74" height="74" rx="25" transform="translate(6380 5330)"/><g transform="translate(4569.907 7516.091)"><path class="i" d="M3210.915-2138.554a1.352,1.352,0,0,0-.091.177,1.574,1.574,0,0,1-1.415,1,2.532,2.532,0,0,1-1.832-.759c-1.249-1.213-2.481-2.443-3.72-3.667-.19-.187-.207-.188-.4,0q-1.76,1.755-3.52,3.51a3,3,0,0,1-1.561.884,1.557,1.557,0,0,1-1.963-1.5,2.364,2.364,0,0,1,.736-1.776c1.239-1.27,2.495-2.523,3.744-3.783.041-.042.079-.086.135-.146-.062-.065-.119-.126-.178-.185q-1.773-1.77-3.545-3.541a3.037,3.037,0,0,1-.828-1.375,1.717,1.717,0,0,1,.283-1.577,1.457,1.457,0,0,1,1.091-.547,2.409,2.409,0,0,1,1.862.727c1.25,1.212,2.482,2.443,3.721,3.666.209.206.272.208.481,0,1.2-1.2,2.395-2.4,3.607-3.591a2.6,2.6,0,0,1,1.816-.806,1.529,1.529,0,0,1,1.522,1.167.376.376,0,0,0,.051.089v.752c-.015.01-.041.018-.043.03a2.941,2.941,0,0,1-.9,1.5q-1.755,1.757-3.514,3.509c-.058.058-.113.12-.2.21.093.075.17.127.235.191,1.173,1.168,2.352,2.331,3.511,3.513a5.316,5.316,0,0,1,.651.9,4,4,0,0,1,.258.591Z" transform="translate(-1328.126 -5.045)"/><path class="i" d="M2666.716-2157.091c.052.031.1.066.156.092a1.453,1.453,0,0,1,.859,1.361c.028.728.035,1.457.041,2.186,0,.294-.033.588-.034.882,0,.261.031.522.035.783s-.051.3-.3.3h-2.317c-.247,0-.295-.049-.295-.3,0-1.172-.011-2.345.006-3.517a2.1,2.1,0,0,1,.34-1.241,1.338,1.338,0,0,1,.723-.5.267.267,0,0,0,.068-.05Z" transform="translate(-817.67 0)"/><path class="i" d="M1824.793-2141.975v-.234c0-2.69,0-5.38,0-8.07a1.531,1.531,0,0,1,.507-1.226,1.441,1.441,0,0,1,.844-.323,2,2,0,0,1,1.317.28,1.231,1.231,0,0,1,.548.971c.041.49.044.984.045,1.476,0,3.211.008,6.421-.005,9.632a2.165,2.165,0,0,1-.305,1.33,1.592,1.592,0,0,1-1.264.677,3.084,3.084,0,0,1-1.516-.235,2.855,2.855,0,0,1-1.02-.771c-.311-.379-.638-.744-.953-1.12-.369-.44-.733-.884-1.1-1.325-.342-.412-.687-.822-1.029-1.234q-.589-.708-1.175-1.418-.523-.634-1.043-1.271c-.454-.555-.9-1.114-1.361-1.668-.18-.219-.371-.43-.557-.644l-.049.018v.226c0,2.624.006,5.248,0,7.872a1.453,1.453,0,0,1-1.583,1.574,1.594,1.594,0,0,1-1.358-.525,1.144,1.144,0,0,1-.321-.777q0-5.657,0-11.313c0-.865.324-1.253,1.206-1.6a2.412,2.412,0,0,1,2.761.824c.549.705,1.138,1.379,1.706,2.07.647.786,1.287,1.577,1.935,2.362.416.5.843,1,1.261,1.5.479.577.951,1.161,1.43,1.738.341.41.688.815,1.032,1.222Z" transform="translate(0 -5.044)"/><path class="i" d="M2220.266-2139.319c-.108-.009-.183-.021-.258-.021-1.375,0-2.749.009-4.123-.006a1.473,1.473,0,0,1-1.252-.625,1.377,1.377,0,0,1,.837-2.145,4.007,4.007,0,0,1,1.026-.123c2.767,0,5.533.021,8.3.034.045,0,.089,0,.163.009-.388.707-.767,1.395-1.143,2.084-.271.5-.536,1-.807,1.5q-.846,1.552-1.7,3.1c-.119.217-.236.435-.347.656a.44.44,0,0,1-.435.266q-3.865-.005-7.731,0a.467.467,0,0,1-.45-.275c-.635-1.144-1.278-2.283-1.915-3.427-.364-.654-.719-1.313-1.082-1.968-.24-.433-.5-.855-.72-1.3a.585.585,0,0,1-.011-.462c.4-.762.826-1.507,1.239-2.261.3-.549.589-1.1.887-1.653.482-.887.969-1.771,1.45-2.658a.411.411,0,0,1,.4-.22h8.029a.485.485,0,0,1,.458.265c.731,1.23,1.473,2.454,2.212,3.68.242.4.485.8.725,1.2a.43.43,0,0,1,.022.129h-1.1c-.667,0-1.335,0-2,0a.334.334,0,0,1-.322-.172c-.413-.67-.836-1.334-1.236-2.012a.5.5,0,0,0-.461-.27c-1.46-.005-2.921,0-4.381,0a.449.449,0,0,0-.418.243c-.266.479-.523.961-.786,1.441-.435.793-.858,1.594-1.316,2.375-.174.3-.034.5.091.732.376.685.76,1.365,1.141,2.047q.514.921,1.027,1.843a.389.389,0,0,0,.37.21c1.361,0,2.723,0,4.084,0a.406.406,0,0,0,.36-.233c.367-.591.721-1.191,1.078-1.789A1.975,1.975,0,0,0,2220.266-2139.319Z" transform="translate(-379.488 -7.95)"/><path class="i" d="M2796.022-2140.091c.188-.214.378-.425.563-.642.249-.294.492-.592.739-.888q.5-.594.994-1.186c.317-.374.639-.743.956-1.118.4-.469.787-.942,1.183-1.411.316-.375.639-.744.955-1.119.383-.454.756-.917,1.144-1.367.419-.486.822-.991,1.283-1.434a2.1,2.1,0,0,1,1.851-.526,2.316,2.316,0,0,1,1.336.678,1.15,1.15,0,0,1,.325.736c.034.4.043.8.043,1.2q0,4.856,0,9.712a4.462,4.462,0,0,1-.07.738,1.261,1.261,0,0,1-1.13,1.039,2.135,2.135,0,0,1-1.249-.11,1.355,1.355,0,0,1-.814-1.153q0-4.016,0-8.031c0-.087-.013-.173-.02-.26l-.053-.013c-.151.176-.3.349-.452.527-.363.437-.722.876-1.084,1.314q-.642.777-1.285,1.553c-.36.431-.726.858-1.086,1.289s-.723.875-1.087,1.311c-.293.351-.59.7-.884,1.05-.395.47-.781.947-1.184,1.41a2.873,2.873,0,0,1-2.521,1.148,3.272,3.272,0,0,1-.972-.259,1.164,1.164,0,0,1-.7-1.118q-.02-5.746,0-11.492a1.265,1.265,0,0,1,1.146-1.265,2.452,2.452,0,0,1,.99.039,1.281,1.281,0,0,1,1,1.109,4.553,4.553,0,0,1,.039.547q0,3.867,0,7.734v.236Z" transform="translate(-940.519 -6.989)"/><path class="i" d="M2664.914-1978.244q0-1.365,0-2.73c0-.27.027-.3.291-.3.667,0,1.335,0,2,0a2.9,2.9,0,0,1,.468.041c.157.027.143.17.146.281.008.27,0,.541,0,.811,0,.528,0,1.055,0,1.583-.011,1.211-.016,2.422-.043,3.633a1.461,1.461,0,0,1-1.34,1.348A1.4,1.4,0,0,1,2665-1974.8a3.715,3.715,0,0,1-.08-.737C2664.909-1976.437,2664.914-1977.34,2664.914-1978.244Z" transform="translate(-817.719 -168.845)"/></g></g></g></svg>