<svg width="94" height="91" viewBox="0 0 94 91" fill="none" xmlns="http://www.w3.org/2000/svg">
<path d="M68.7307 1C55.4231 1 44.3752 10.6669 44.3752 22.7819V36.215C44.3752 37.1566 45.1913 37.9099 46.2584 37.9099H53.6655C54.7326 37.9099 55.5486 37.1566 55.5486 36.215V22.7819C55.5486 16.3791 61.4492 11.0435 68.668 11.0435C75.8867 11.0435 81.7873 16.3163 81.7873 22.7819V36.215C81.7873 37.1566 82.6033 37.9099 83.6705 37.9099H91.0776C92.1447 37.9099 92.9607 37.1566 92.9607 36.215V22.7819C93.0863 10.8552 82.1012 1 68.7307 1Z" stroke="#00D2D9" stroke-miterlimit="10"/>
<path d="M83.7963 36.5917C83.4197 36.5917 83.2314 36.4034 83.2314 36.2151V22.7819C83.2314 15.5631 76.7659 9.72532 68.7938 9.72532C60.8218 9.72532 54.3563 15.5631 54.3563 22.7819V36.2151C54.3563 36.4034 54.1052 36.5917 53.7913 36.5917H46.3215C45.9448 36.5917 45.7565 36.4034 45.7565 36.2151V22.7819C45.7565 11.4829 56.0511 2.31824 68.7938 2.31824C81.4738 2.31824 91.8311 11.4829 91.8311 22.7819V36.2151C91.8311 36.4034 91.58 36.5917 91.2662 36.5917H83.7963Z" fill="#00D2D9"/>
<path d="M10.2902 37.847H55.1094C60.1939 37.847 64.3996 42.0528 64.3996 47.1373V80.783C64.3996 85.8676 60.1939 90.0733 55.1094 90.0733H10.2902C5.20572 90.0733 1 85.8676 1 80.783V47.1373C1 42.0528 5.0174 37.847 10.2902 37.847Z" stroke="#00D2D9" stroke-miterlimit="10"/>
<path d="M10.2899 88.7551C5.95861 88.7551 2.31784 85.1143 2.31784 80.7831V47.1373C2.31784 42.6805 5.83307 39.1653 10.2899 39.1653H55.109C59.4403 39.1653 63.0811 42.8061 63.0811 47.1373V80.7831C63.0811 85.1143 59.4403 88.7551 55.109 88.7551H10.2899V88.7551Z" stroke="#00D2D9" stroke-miterlimit="10"/>
<path d="M42.0525 58.3735C42.0525 53.289 37.784 49.0205 32.6995 49.0205C27.615 49.0205 23.4092 53.2262 23.4092 58.3108C23.4092 61.8888 25.2924 65.0901 28.6821 66.785L27.1756 76.954C26.9872 78.0211 27.615 78.8372 28.6821 79.0883H36.5286C37.5957 79.0883 38.4117 78.2722 38.4117 77.3934V77.2051L36.9052 67.036C40.1066 65.0901 42.0525 61.9515 42.0525 58.3735Z" fill="#00D2D9"/>
</svg>
