<svg xmlns="http://www.w3.org/2000/svg" width="418.442" height="460.988" viewBox="0 0 418.442 460.988"><defs><style>.a{fill:#fafdfc;}.b{fill:#ddf7fa;opacity:0.496;}.c,.j,.l,.o,.q{fill:none;}.c,.j,.k,.l,.o{stroke:#00d2d9;}.c,.o{stroke-width:3px;}.c{opacity:0.246;}.d{opacity:0.601;}.e,.k,.n{fill:#00d2d9;}.f{opacity:0.474;}.g{opacity:0.668;}.h{opacity:0.346;}.i{opacity:0.597;}.j,.l{stroke-miterlimit:10;}.l{stroke-width:2px;}.m{fill:#b6ecef;}.n,.o{opacity:0.152;}.p{stroke:none;}</style></defs><g transform="translate(12.666)"><rect class="a" width="375.245" height="443.257" transform="translate(-0.256)"/><path class="b" d="M7396.492,241.111v223.44H7021V386.522s78.266-55.254,172.617-94.418S7396.492,241.111,7396.492,241.111Z" transform="translate(-7022.257 -21.215)"/><g class="c" transform="translate(79 353)"><ellipse class="p" cx="23.5" cy="24" rx="23.5" ry="24"/><ellipse class="q" cx="23.5" cy="24" rx="22" ry="22.5"/></g><g class="c" transform="translate(247.981 326.348)"><circle class="p" cx="11.913" cy="11.913" r="11.913"/><circle class="q" cx="11.913" cy="11.913" r="10.413"/></g><g class="c" transform="translate(343.529 260.968)"><circle class="p" cx="11.913" cy="11.913" r="11.913"/><circle class="q" cx="11.913" cy="11.913" r="10.413"/></g><g class="d" transform="translate(271.009 192.385)"><g transform="translate(0 19.783)"><path class="e" d="M61.216,264.187v-5.4l-4.427-.873a12.368,12.368,0,0,0-.961-2.315l2.469-3.7-3.815-3.815-3.7,2.47a12.351,12.351,0,0,0-2.315-.962l-.873-4.427h-5.4l-.872,4.427a12.375,12.375,0,0,0-2.315.961l-3.7-2.469L31.485,251.9l2.469,3.7a12.334,12.334,0,0,0-.962,2.315l-4.426.872v5.4l4.426.872a12.334,12.334,0,0,0,.962,2.315l-2.469,3.7,3.814,3.814,3.7-2.469a12.333,12.333,0,0,0,2.315.962l.872,4.426h5.4l.873-4.426a12.352,12.352,0,0,0,2.315-.962l3.7,2.469,3.814-3.814-2.469-3.7a12.33,12.33,0,0,0,.961-2.315Zm-5.381,6.648-1.6,1.6-3.4-2.265a11.139,11.139,0,0,1-4.023,1.671l-.8,4.062H43.764l-.8-4.062a11.135,11.135,0,0,1-4.023-1.671l-3.4,2.265-1.6-1.6,2.265-3.4a11.143,11.143,0,0,1-1.671-4.023l-4.062-.8v-2.253l4.062-.8a11.146,11.146,0,0,1,1.671-4.023l-2.265-3.4,1.6-1.6,3.4,2.265a11.137,11.137,0,0,1,4.023-1.671l.8-4.063h2.253l.8,4.063a11.132,11.132,0,0,1,4.023,1.671l3.4-2.265,1.6,1.6-2.265,3.4a11.14,11.14,0,0,1,1.67,4.023l4.063.8v2.253l-4.062.8a11.145,11.145,0,0,1-1.671,4.023Z" transform="translate(-28.566 -245.162)"/><g transform="translate(9.629 9.63)"><path class="e" d="M49.023,258.924a6.7,6.7,0,1,0,6.7,6.7A6.7,6.7,0,0,0,49.023,258.924Zm0,11.478a4.783,4.783,0,1,1,4.783-4.783A4.788,4.788,0,0,1,49.023,270.4Z" transform="translate(-42.327 -258.924)"/></g></g><g class="f" transform="translate(20.635 0)"><path class="e" d="M80.308,229.856v-3.68l-3.017-.594A8.408,8.408,0,0,0,76.635,224l1.683-2.525-2.6-2.6-2.525,1.683a8.36,8.36,0,0,0-1.578-.656l-.594-3.017h-3.68l-.595,3.017a8.4,8.4,0,0,0-1.578.656l-2.525-1.683-2.6,2.6L61.728,224a8.408,8.408,0,0,0-.656,1.578l-3.017.594v3.68l3.017.594a8.435,8.435,0,0,0,.656,1.579l-1.683,2.525,2.6,2.6,2.525-1.683a8.444,8.444,0,0,0,1.578.655l.595,3.017h3.68l.594-3.017a8.406,8.406,0,0,0,1.578-.655l2.525,1.683,2.6-2.6-1.683-2.524a8.435,8.435,0,0,0,.656-1.579Zm-3.667,4.531-1.088,1.088-2.316-1.544A7.591,7.591,0,0,1,70.5,235.07l-.546,2.769H68.414l-.546-2.769a7.591,7.591,0,0,1-2.742-1.138l-2.315,1.544-1.088-1.088,1.544-2.315a7.583,7.583,0,0,1-1.138-2.742l-2.769-.545v-1.536l2.769-.545a7.588,7.588,0,0,1,1.138-2.742l-1.544-2.315,1.088-1.088,2.315,1.544a7.6,7.6,0,0,1,2.742-1.138l.546-2.769h1.535l.546,2.769a7.59,7.59,0,0,1,2.742,1.138l2.316-1.544,1.088,1.088L75.1,223.961a7.6,7.6,0,0,1,1.139,2.742l2.768.545v1.536l-2.768.545a7.593,7.593,0,0,1-1.139,2.742Z" transform="translate(-58.056 -216.89)"/><g transform="translate(6.562 6.563)"><path class="e" d="M72,226.269a4.563,4.563,0,1,0,4.564,4.564A4.569,4.569,0,0,0,72,226.269Zm0,7.823a3.26,3.26,0,1,1,3.26-3.259A3.263,3.263,0,0,1,72,234.092Z" transform="translate(-67.434 -226.269)"/></g></g></g><g class="g" transform="translate(210.563 400.568)"><path class="e" d="M179.731,195.678a.7.7,0,1,0-.957-.256A.7.7,0,0,0,179.731,195.678Z" transform="translate(-170.136 -174.084)"/><path class="e" d="M175.162,196.792l3.528,6.111a2.8,2.8,0,1,0,4.854-2.8l-2.1-3.64,1.82-1.051a.7.7,0,0,0,.257-.957l-.911-1.578,13.418-2.633a2.1,2.1,0,0,0,1.7-3.149l-2.329-4.032,1.488-2.254a.7.7,0,0,0,.022-.737l-1.4-2.427a.7.7,0,0,0-.649-.349l-2.7.162-2.585-4.478a2.084,2.084,0,0,0-1.793-1.05h-.027a2.084,2.084,0,0,0-1.77.969l-9.152,11.659-5.95,3.435a4.9,4.9,0,0,0,4.273,8.8Zm7.169,4.01a1.4,1.4,0,0,1-2.427,1.4l-3.5-6.068,2.427-1.4C182.882,201.757,182.265,200.69,182.331,200.8Zm-1.59-5.555-.7-1.214,1.213-.7.7,1.214Zm13.773-16.528.968,1.677-.863,1.307-1.668-2.89Zm-7.351-5.053a.7.7,0,0,1,1.2.014l8.149,14.114a.7.7,0,0,1-.59,1.05,2.714,2.714,0,0,0-.384.065l-8.62-14.93C187.1,173.746,187.128,173.725,187.163,173.666Zm-1.172,1.5,8.1,14.027-12.222,2.4-3.716-6.436ZM170.308,193.99a3.5,3.5,0,0,1,1.282-4.786l5.461-3.152,3.5,6.067-5.46,3.153A3.507,3.507,0,0,1,170.308,193.99Z" transform="translate(-168.437 -170.362)"/><path class="e" d="M176.457,196.4a.7.7,0,0,0-.958-.256l-1.213.7a.7.7,0,0,1-.958-.256.7.7,0,1,0-1.213.7,2.1,2.1,0,0,0,2.87.769l1.214-.7A.7.7,0,0,0,176.457,196.4Z" transform="translate(-169.032 -174.363)"/><path class="e" d="M209.342,173.707l-3.9,2.172a.7.7,0,0,0,.682,1.225l3.9-2.172a.7.7,0,0,0-.682-1.225Z" transform="translate(-174.513 -170.643)"/><path class="e" d="M208.986,182.274l-2.707-.725a.7.7,0,1,0-.362,1.353l2.707.726a.7.7,0,1,0,.362-1.354Z" transform="translate(-174.566 -171.954)"/><path class="e" d="M201.4,170.571l-.727,2.707a.7.7,0,0,0,1.354.363l.726-2.707a.7.7,0,1,0-1.353-.363Z" transform="translate(-173.778 -170.051)"/></g><g transform="translate(216.199 270.938)"><g transform="translate(0)"><path class="e" d="M535.243,188.656a8.722,8.722,0,0,0-10.7-7.752,8.75,8.75,0,0,0-6.742-8.039c-.061-.015-.123-.027-.183-.039a6,6,0,0,0-10.917,1.631,5.352,5.352,0,0,0-7.556,4.876,5.441,5.441,0,0,0,.046.71,4.671,4.671,0,0,0-2.572,8.05c-.081.093-.164.185-.238.282a5.948,5.948,0,0,0-1.25,3.663,6.025,6.025,0,0,0,6.018,6.018h25.41c.248,0,.488-.007.723-.028A8.693,8.693,0,0,0,535.243,188.656Zm-37.927-6.192a3.341,3.341,0,0,1,2.5-1.125h.052a.575.575,0,0,1,.067,0,.668.668,0,0,0,.712-.856,4.064,4.064,0,0,1-.163-1.151,4.016,4.016,0,0,1,4.012-4.012,3.924,3.924,0,0,1,2.311.736.669.669,0,0,0,1.057-.486,4.7,4.7,0,0,1,4.938-4.259,4.635,4.635,0,0,1,3,1.333c-.042,0-.083.007-.125.007h-.026a8.939,8.939,0,0,0-.929.074l-.036.006a8.6,8.6,0,0,0-.9.17l-.049.013a8.55,8.55,0,0,0-.842.257l-.078.028q-.391.145-.765.329l-.116.055q-.346.177-.677.385c-.05.031-.1.059-.15.091-.208.134-.408.284-.6.438-.053.042-.108.078-.16.121a8.945,8.945,0,0,0-.691.63,8.224,8.224,0,0,0-1.4,1.884v0l-.005.009a.61.61,0,0,0-.053.1,8.308,8.308,0,0,0-.678,1.651,8.611,8.611,0,0,0-.3,1.518,7.344,7.344,0,0,0-.053.933v.134a6.754,6.754,0,0,0-4.225.522,7.2,7.2,0,0,0-.833.48,3.917,3.917,0,0,0-.453.34,6.445,6.445,0,0,0-.708.647,6.094,6.094,0,0,0-.594.728,6.647,6.647,0,0,0-.982,2.1,5.351,5.351,0,0,0-.853.342,6.317,6.317,0,0,0-.833.5c-.028.02-.061.034-.089.054A3.344,3.344,0,0,1,497.315,182.464Zm29.853,14.23c-.2.018-.4.024-.607.024h-25.41a4.686,4.686,0,0,1-4.681-4.681,4.638,4.638,0,0,1,.975-2.854,4.375,4.375,0,0,1,.613-.652,4.738,4.738,0,0,1,1.063-.707,4.34,4.34,0,0,1,.97-.347.669.669,0,0,0,.5-.517,5.349,5.349,0,0,1,.86-2,4.8,4.8,0,0,1,.468-.577,5.438,5.438,0,0,1,.6-.548,3.03,3.03,0,0,1,.334-.25,5.663,5.663,0,0,1,.669-.387,5.381,5.381,0,0,1,.519-.213c.129-.046.259-.081.391-.117.044-.012.087-.027.134-.038.141-.034.282-.059.424-.082.04-.006.081-.014.121-.02.127-.017.256-.027.385-.036.067,0,.128-.009.193-.011.125,0,.25,0,.374,0a1.007,1.007,0,0,1,.134.006c.125.008.248.022.37.039.046.006.093.011.138.018.126.021.25.049.373.079.039.009.078.016.117.026a4.669,4.669,0,0,1,.468.152.669.669,0,0,0,.9-.714,6.84,6.84,0,0,1-.061-.95,6.371,6.371,0,0,1,.043-.776,7.463,7.463,0,0,1,.251-1.3,6.942,6.942,0,0,1,.592-1.428l.013-.026c0-.009.016-.028.024-.043a6.89,6.89,0,0,1,1.172-1.579,7.316,7.316,0,0,1,5.26-2.207c.223,0,.445.013.66.03.192.018.378.042.563.078l.038.006a3.8,3.8,0,0,1,.376.067,7.4,7.4,0,0,1,5.719,7.174c0,.144-.007.289-.013.433a.669.669,0,0,0,.9.658,7.241,7.241,0,0,1,2.461-.422,7.356,7.356,0,0,1,.607,14.687Z" transform="translate(-495.131 -169.968)"/></g></g><g class="h" transform="translate(117.777 218.457)"><g transform="translate(0 12.309)"><path class="e" d="M262.078,261.5h-6.839a1.368,1.368,0,0,0,0,2.735h6.839a1.368,1.368,0,0,1,1.368,1.368v17.78a1.368,1.368,0,0,1-1.368,1.368H234.725a1.368,1.368,0,0,1-1.368-1.368v-17.78a1.368,1.368,0,0,1,1.368-1.368h6.838a1.368,1.368,0,1,0,0-2.735h-6.838a4.1,4.1,0,0,0-4.1,4.1v17.78a4.1,4.1,0,0,0,4.1,4.1h27.353a4.1,4.1,0,0,0,4.1-4.1v-17.78A4.1,4.1,0,0,0,262.078,261.5Z" transform="translate(-230.622 -261.504)"/></g><g transform="translate(9.591)"><path class="e" d="M255.35,269.8a1.368,1.368,0,0,0-1.9,0l-4.506,4.5V251.623a1.368,1.368,0,0,0-2.735,0v22.684l-4.5-4.5a1.367,1.367,0,0,0-1.933,1.933l6.838,6.839a1.369,1.369,0,0,0,1.935,0l0,0,6.839-6.839A1.368,1.368,0,0,0,255.35,269.8Z" transform="translate(-239.387 -250.255)"/></g></g><g class="i" transform="translate(300.743 323.383)"><circle class="j" cx="22.415" cy="22.415" r="22.415" transform="translate(0 0)"/><g transform="translate(0.049 1.451)"><path class="k" d="M456.832,302.808c0,.008-.009.014-.014.022.034.008.066.019.1.026Z" transform="translate(-445.359 -263.034)"/><path class="k" d="M454.55,251.757l-.045-.092c.374-.056.4-.32.685-.417.324-.107.213.01.532,0,.258-.011.415.177.71.039a1.016,1.016,0,0,1-.3.3,2.3,2.3,0,0,1-.781.417A.764.764,0,0,1,454.55,251.757Z" transform="translate(-444.487 -243.575)"/><path class="k" d="M452.97,269.639a1.148,1.148,0,0,1-.223.538,5.451,5.451,0,0,0-.784,2.449c-.06.827-.024,1.845-.744,2.252-.411.229-.989.188-1.263.574a1.3,1.3,0,0,0-.167.4c-.176.644-.355,1.288-.531,1.932-.229-.019-.462-.045-.689-.07a.5.5,0,0,1,.295.7.588.588,0,0,0-.741.285,1.193,1.193,0,0,0-.041.857,2.505,2.505,0,0,0,1.8,1.723c-.147.279-.6.157-.873-.03a10.444,10.444,0,0,1-4.121-5.62,8.231,8.231,0,0,0-.858-2.342c-.39-.582-.979-1.009-1.37-1.591-.547-.836-.649-1.921-1.283-2.685-.355-.436-.9-.972-.589-1.44.126-.192.4-.374.289-.578a.841.841,0,0,0-.163-.163c-.213-.229-.066-.588.041-.883a3.456,3.456,0,0,0,.1-1.607,4.612,4.612,0,0,1-1.218-1.734c-.158-.406-.366-.912-.8-.918-.113-.315-.229-.629-.341-.943a.325.325,0,0,1-.273.2,22.288,22.288,0,0,1,5.631-13.409,2.331,2.331,0,0,0,.213-.112c.765-.446,1.374-1.116,2.113-1.6a.8.8,0,0,1,.512-.178c.183.015.355.2.289.374a.386.386,0,0,1-.147.173,15.67,15.67,0,0,1-2.823,1.914.6.6,0,0,0-.3.254.427.427,0,0,0,.288.541,1.264,1.264,0,0,0,.685-.019,1.106,1.106,0,0,0-.148.943c.207.02.273-.264.335-.462.253-.786,1.506-1.106,1.425-1.933.34.176.685-.219.892-.543s.669-.654.923-.365c.014.161.034.325.049.487.446-.112.9-.229,1.344-.341a.647.647,0,0,0,.607,1.131c0,.239-.217.421-.411.563a5.608,5.608,0,0,1-1.591.933l.132.273a.128.128,0,0,1-.046.011c-.364.035-.751-.227-1.141-.177-.239.031-.531.031-.669.274-.02.031-.105.456-.045.421l.634-.364a1.037,1.037,0,0,1,.045.553,1.242,1.242,0,0,1,.756.167,1.5,1.5,0,0,1-1.455.877c-.006-.182-.015-.365-.021-.548a1.357,1.357,0,0,0-1.151.812,3.265,3.265,0,0,1-.862,1.2,7.592,7.592,0,0,1-.837.38.758.758,0,0,0-.46.726,2.13,2.13,0,0,1,.112.421c-.016.273-.334.4-.548.578-.364.3-.456.863-.846,1.131a3.393,3.393,0,0,1-.989.295c-.33.1-.659.43-.526.751a.294.294,0,0,1-.376-.239,11.117,11.117,0,0,0-1.124,3.672c.289.2.582-.26.639-.609s.364-.807.648-.6c-.066.5-.131,1-.2,1.5a.44.44,0,0,0,.021.283c.056.107.177.151.269.227.259.223.223.619.239.958a2.441,2.441,0,0,0,.371,1.175c-.021-.071-.035-.141-.05-.213a1.418,1.418,0,0,0,1.105-.341,1.652,1.652,0,0,1,.487-.4,1.046,1.046,0,0,1,.634.035,3.382,3.382,0,0,1,1.76.881,5.431,5.431,0,0,0,.614.8c.588.5,1.583.278,2.12.831a2,2,0,0,1,.234,1.779c-.295-.161-.688.244-.516.533a.846.846,0,0,1,.568-.355c.233-.006.436.314.263.462a.934.934,0,0,1,1.556.339c.568.04,1.141.08,1.709.126C451.26,268.753,453.005,268.8,452.97,269.639Z" transform="translate(-438.423 -241.478)"/><path class="k" d="M455.85,245.461a.435.435,0,1,1-.29-.814c.15-.035.359-.018.406-.166a.48.48,0,0,0,.006-.14.642.642,0,0,1,.51-.578,1.886,1.886,0,0,1,.824.038,1.025,1.025,0,0,1,.078.651l-.56.024c.017.31-.014.7-.3.815-.258.1-.595-.088-.81.085" transform="translate(-444.759 -240.758)"/><path class="k" d="M460.892,240.565c.51-.244.941-.629,1.443-.886a6.633,6.633,0,0,1,2.844-.514l6.63-.206q-.768.421-1.538.843a1.865,1.865,0,0,1-1.352.335.718.718,0,0,0,.7.709c-.908.561-2.168-.013-3.126.458-.4.2-.726.571-1.167.642-.255.04-.521-.028-.774.028-.425.092-.693.5-1.008.8a1.4,1.4,0,0,1-1.366.418c-.473-.166-.72-.868-.341-1.2a3.212,3.212,0,0,1,.673-.3c.221-.112.394-.414.229-.6-.072-.08-.19-.111-.255-.2s-.065-.225-.124-.326c-.224-.394-.848.136-1.274-.022" transform="translate(-446.895 -238.958)"/><path class="k" d="M471.665,244.219a4.489,4.489,0,0,0,.838-.375,1.044,1.044,0,0,1,.885-.069c.082.2-.153.389-.359.462a2.508,2.508,0,0,1-1.239.108" transform="translate(-450.957 -240.747)"/><path class="k" d="M489.9,246.355a.722.722,0,0,1-.254-.016,3.19,3.19,0,0,1-.995-.588,2.644,2.644,0,0,0-2.586-.156,1.543,1.543,0,0,0,.268-.964l-.116.04c-1.329-.77-2.886-1.57-4.335-1.052-.336.122-.638.3-.978.421a4.006,4.006,0,0,0-1.07.4c-.314.223-.481.715-.212.984.229.229.594.167.914.2s.675.344.5.613q-2.084.975-4.171,1.96a1.424,1.424,0,0,1,.923,1.591c-.467.082-.918-.2-1.389-.233a1.281,1.281,0,1,0-.059,2.561c.513-.006,1.015-.315,1.511-.184a1.936,1.936,0,0,1,.668-1.2,2.447,2.447,0,0,1,2.4-.9,2.738,2.738,0,0,1,.751.475q.768.608,1.537,1.227c.163-.167.324-.335.487-.5l.842.886c.142-.1.289-.188.431-.285.1.264.207.522.31.786.041-.289.076-.572.111-.857a2.063,2.063,0,0,0,.994-.132.694.694,0,0,0,.4-.826c-.066-.167-.223-.3-.254-.477-.066-.355.44-.6.771-.437a1.526,1.526,0,0,1,.624.867c.076-.345.146-.685.223-1.03a8.131,8.131,0,0,0,1.343,2.3,5.524,5.524,0,0,0-3.108.316,1.629,1.629,0,0,0,1.375.673c.239-.006.5-.06.685.092a.735.735,0,0,1,.2.477c.081.487.163.968.239,1.449a3.26,3.26,0,0,0-2.054-.414c-.716-.02-1.552-.217-1.815-.881a1.434,1.434,0,0,0-.328,1.2c-.741-.177-1.593-.46-1.806-1.192a1.152,1.152,0,0,1-1.455-.749c-.056-.208-.072-.462-.254-.572a.62.62,0,0,0-.386-.041c-1.1.128-2.2.25-3.29.377a4.685,4.685,0,0,0-1.744.437,1.585,1.585,0,0,0-.887,1.456,6.832,6.832,0,0,0-2.443,2.486,1.52,1.52,0,0,0-.268,1.03c.05.273.233.506.289.776a3.2,3.2,0,0,1-.278,1.364c-.315,1.3.67,2.52,1.584,3.5a2.485,2.485,0,0,0,1.557.978,2.876,2.876,0,0,0,1.125-.3,8.161,8.161,0,0,1,3.3-.554c-.254.2.009.629.325.695a7.487,7.487,0,0,1,.958.07c.695.249.6,1.267.285,1.932.157-.031.32-.062.481-.092-.085.224-.173.447-.258.664.952.121,1.313,1.374,1.091,2.31a13.739,13.739,0,0,0-.79,2.765,4.907,4.907,0,0,0,.32,1.54q.61,1.908,1.219,3.822c1.136.136,1.789-1.309,2.844-1.761a3.733,3.733,0,0,0,1.172-.5c.3-.283.2-.949-.182-.949a1.138,1.138,0,0,0,.984-1.06c.006-.148-.016-.295,0-.441a1.454,1.454,0,0,1,.293-.568,18.542,18.542,0,0,0,1.849-3.788c.136-.351.273-.695.41-1.045.516-1.3,1.028-2.6,1.545-3.9.2-.513.406-1.019.607-1.532a.986.986,0,0,1-1.425.056,7.038,7.038,0,0,1-.97-1.3,3.9,3.9,0,0,1-.787-1.151,6.831,6.831,0,0,1-.107-.807,6.153,6.153,0,0,0-.751-1.6,1.593,1.593,0,0,1-.031-1.674,64.248,64.248,0,0,1,2.913,5.739,1.24,1.24,0,0,1,.6-.716c.208-.112.441-.157.66-.249a1.625,1.625,0,0,0-.011-2.986,6.241,6.241,0,0,1-.893-.33.619.619,0,0,1-.3-.8.636.636,0,0,1,.82-.107c.27.147.467.4.72.563.183.122.4.2.593.314,1.071.614,1.334,2.008,1.559,3.224.122.654.259,1.3.422,1.942.006-.137,0-.279,0-.415A22.336,22.336,0,0,0,489.9,246.355Zm2.053,7.366a.787.787,0,0,1-.4-.2,1.1,1.1,0,0,1-.442-.568c-.066-.283.07-.609-.081-.861a1.148,1.148,0,0,0-.3-.283,1.6,1.6,0,0,1-.559-.887c-.065-.3.03-.71.34-.761a.362.362,0,0,1,.374.193l-.207.112a.479.479,0,0,1,.244.8c-.035.035-.081.066-.081.116a.109.109,0,0,0,.046.082,2.813,2.813,0,0,0,.827.475c.283.148.563.421.518.736l-.268.1c-.1.1-.02.269.081.365s.233.192.239.334A.293.293,0,0,1,491.949,253.721Z" transform="translate(-451.121 -240.654)"/><path class="k" d="M502.878,284.976l-.366.26a.991.991,0,0,1-.561,1.15c-.229.093-.533.133-.61.368-.065.2.09.4.111.609.034.345-.289.6-.522.86s-.356.739-.047.894a.65.65,0,0,0,.234.05,1.456,1.456,0,0,0,.981-.158c.789-.562.039-2.089.818-2.667.111-.082.25-.141.31-.264C503.41,285.715,502.733,285.355,502.878,284.976Z" transform="translate(-461.905 -256.31)"/></g></g><g class="g" transform="translate(29.359 286.855)"><g transform="translate(0 0)"><path class="e" d="M487.516,136.007c0-8.525-8.987-14.113-17.959-14.113-9.008,0-17.959,5.614-17.959,14.113a12.418,12.418,0,0,0,3.966,8.853.386.386,0,0,1,.1.379,20.592,20.592,0,0,1-3.486,6.606,1.015,1.015,0,0,0,.8,1.638H453c3.82-.1,8.247-1.173,10.984-3.864a.391.391,0,0,1,.367-.1,22.577,22.577,0,0,0,5.2.6c9.005,0,17.959-5.612,17.959-14.114ZM464.67,148.189a1.751,1.751,0,0,0-1.641.455c-2.737,2.691-7.206,3.3-9.322,3.438a21.3,21.3,0,0,0,3.274-6.483,1.753,1.753,0,0,0-.462-1.717,10.919,10.919,0,0,1-3.553-7.875c0-7.028,7.443-12.745,16.591-12.745s16.591,5.717,16.591,12.745-7.443,12.746-16.591,12.746a21.2,21.2,0,0,1-4.887-.565Z" transform="translate(-451.598 -121.894)"/><path class="e" d="M496.428,148.21c3.987-2.015,6.367-5.449,6.367-9.186,0-5.282-4.774-9.8-11.353-10.732a.684.684,0,0,0-.193,1.354c5.9.84,10.179,4.784,10.179,9.378,0,3.21-2.1,6.188-5.617,7.966a1.688,1.688,0,0,0-.891,1.858,14.234,14.234,0,0,0,1.611,4c-4.039-.672-5.569-2.61-6.053-3.448a1.687,1.687,0,0,0-1.46-.839h-.056a16.2,16.2,0,0,1-2.256-.156.684.684,0,1,0-.19,1.355,17.735,17.735,0,0,0,2.447.169h.056a.315.315,0,0,1,.274.155c1.852,3.21,6.11,4.029,7.855,4.232a.992.992,0,0,0,.951-1.522,13.58,13.58,0,0,1-1.841-4.231.322.322,0,0,1,.17-.353Z" transform="translate(-456.112 -122.734)"/><path class="e" d="M459.665,135.328a2.37,2.37,0,1,0,2.37,2.37A2.373,2.373,0,0,0,459.665,135.328Zm0,3.372a1,1,0,1,1,1-1A1,1,0,0,1,459.665,138.7Z" transform="translate(-452.347 -123.661)"/><path class="e" d="M467.45,135.328a2.37,2.37,0,1,0,2.37,2.37A2.373,2.373,0,0,0,467.45,135.328Zm0,3.372a1,1,0,1,1,1-1A1,1,0,0,1,467.45,138.7Z" transform="translate(-453.371 -123.661)"/><path class="e" d="M475.235,135.328a2.37,2.37,0,1,0,2.369,2.37A2.373,2.373,0,0,0,475.235,135.328Zm0,3.372a1,1,0,1,1,1-1A1,1,0,0,1,475.235,138.7Z" transform="translate(-454.395 -123.661)"/><path class="e" d="M483.019,135.328a2.37,2.37,0,1,0,2.37,2.37A2.372,2.372,0,0,0,483.019,135.328Zm0,3.372a1,1,0,1,1,1-1A1,1,0,0,1,483.019,138.7Z" transform="translate(-455.418 -123.661)"/></g></g><g class="i" transform="translate(164.772 348.724)"><g transform="translate(5.514 8.274)"><path class="k" d="M347.274,182.075v1.735l-10.139,3.927a.276.276,0,0,0-.132.241c0,.132.044.213.132.242l10.139,3.929v1.711L336.432,189.6a1.353,1.353,0,0,1-.745-.593,2.118,2.118,0,0,1-.219-1.032,2.05,2.05,0,0,1,.219-1.02,1.464,1.464,0,0,1,.745-.6Z" transform="translate(-335.467 -178.739)"/><path class="k" d="M360.726,178.015l-7.242,21.266h-2.261l7.264-21.266Z" transform="translate(-338.275 -178.015)"/><path class="k" d="M364.176,193.887v-1.734l10.139-3.929a.273.273,0,0,0,.131-.242c0-.13-.044-.21-.131-.241l-10.139-3.927V182.1l10.841,4.258a1.35,1.35,0,0,1,.746.592,2.124,2.124,0,0,1,.219,1.03,2.066,2.066,0,0,1-.219,1.021,1.471,1.471,0,0,1-.746.6Z" transform="translate(-340.584 -178.743)"/></g><rect class="l" width="46.134" height="33.623" rx="5.669"/><line class="j" x2="46.134" transform="translate(0 4.659)"/></g><circle class="m" cx="10.527" cy="10.527" r="10.527" transform="translate(252.509 396.235)"/><circle class="n" cx="9.609" cy="9.609" r="9.609" transform="translate(298.958 100.76)"/><ellipse class="n" cx="13" cy="13.5" rx="13" ry="13.5" transform="translate(139 299)"/><circle class="n" cx="13.481" cy="13.481" r="13.481" transform="translate(324.869 412.972)"/><circle class="n" cx="19.393" cy="19.393" r="19.393" transform="translate(366.991 159.382)"/><circle class="n" cx="17.73" cy="17.73" r="17.73" transform="translate(79.292 425.527)"/><circle class="n" cx="16.5" cy="16.5" r="16.5" transform="translate(15 271)"/><g class="o" transform="translate(-12.666 388.731)"><circle class="p" cx="12.19" cy="12.19" r="12.19"/><circle class="q" cx="12.19" cy="12.19" r="10.69"/></g></g></svg>