<svg xmlns="http://www.w3.org/2000/svg" width="1790.361" height="983" viewBox="0 0 1790.361 983"><defs><style>.a{fill:#fafdfc;}.b{opacity:0.1;}.c,.l{fill:#00d2d9;}.d,.e,.h,.m,.n,.q{fill:none;}.d,.e,.h,.l,.m,.n{stroke:#00d2d9;}.e,.h{stroke-width:3px;}.f,.g{fill:#b6ecef;}.g{opacity:0.496;}.h{opacity:0.246;}.i{fill:#ddf7fa;opacity:0.496;}.j{opacity:0.645;}.k{opacity:0.474;}.m,.n{stroke-miterlimit:10;}.m{stroke-width:2px;}.o{opacity:0.346;}.p{stroke:none;}</style></defs><g transform="translate(23)"><g transform="translate(-23)"><rect class="a" width="1767.361" height="800" transform="translate(23)"/><g class="b" transform="translate(0 111)"><circle class="c" cx="39" cy="39" r="39" transform="translate(449.324 51)"/><circle class="c" cx="33" cy="33" r="33" transform="translate(136 190)"/><circle class="c" cx="55" cy="55" r="55" transform="translate(0 559)"/><circle class="c" cx="64" cy="64" r="64" transform="translate(126 744)"/><circle class="c" cx="50.5" cy="50.5" r="50.5" transform="translate(562.868 582)"/><circle class="c" cx="42.5" cy="42.5" r="42.5" transform="translate(895.643 256)"/><circle class="c" cx="49.5" cy="49.5" r="49.5" transform="translate(471.217 299)"/><circle class="c" cx="17.5" cy="17.5" r="17.5" transform="translate(402.54 173)"/><circle class="c" cx="11.5" cy="11.5" r="11.5" transform="translate(1057.194)"/><circle class="c" cx="7" cy="7" r="7" transform="translate(980.491 70)"/><g class="d" transform="translate(977.356 96)"><circle class="p" cx="38.5" cy="38.5" r="38.5"/><circle class="q" cx="38.5" cy="38.5" r="38"/></g><circle class="c" cx="17.5" cy="17.5" r="17.5" transform="translate(308.879 116)"/><circle class="c" cx="40.5" cy="40.5" r="40.5" transform="translate(624.665 367)"/><circle class="c" cx="35" cy="35" r="35" transform="translate(660.549 81)"/><g class="e" transform="translate(723.35 111)"><circle class="p" cx="25" cy="25" r="25"/><circle class="q" cx="25" cy="25" r="23.5"/></g><circle class="c" cx="32" cy="32" r="32" transform="translate(388.564 657)"/><circle class="c" cx="22" cy="22" r="22" transform="translate(488.219 765)"/><circle class="c" cx="35.5" cy="35.5" r="35.5" transform="translate(55 382)"/><circle class="c" cx="22" cy="22" r="22" transform="translate(1243.463 657)"/><circle class="c" cx="28.5" cy="28.5" r="28.5" transform="translate(1532.361 559)"/><circle class="c" cx="29" cy="29" r="29" transform="translate(1228.477 309)"/><circle class="c" cx="24" cy="24" r="24" transform="translate(1388.361 81)"/><g class="e" transform="translate(379.615 744)"><circle class="p" cx="22" cy="22" r="22"/><circle class="q" cx="22" cy="22" r="20.5"/></g></g><circle class="f" cx="30" cy="30" r="30" transform="translate(603.013 371)"/><circle class="f" cx="11" cy="11" r="11" transform="translate(1074.56 547)"/><circle class="f" cx="37.5" cy="37.5" r="37.5" transform="translate(1577.341 271)"/><circle class="g" cx="37.5" cy="37.5" r="37.5" transform="translate(1421.361 510)"/><circle class="f" cx="20.5" cy="20.5" r="20.5" transform="translate(1163.178 230)"/><circle class="f" cx="19" cy="19" r="19" transform="translate(1439.361 291)"/><circle class="f" cx="19" cy="19" r="19" transform="translate(130 431)"/><g class="h" transform="translate(171 638)"><circle class="p" cx="43" cy="43" r="43"/><circle class="q" cx="43" cy="43" r="41.5"/></g><g class="h" transform="translate(1404.361 681)"><circle class="p" cx="36.5" cy="36.5" r="36.5"/><circle class="q" cx="36.5" cy="36.5" r="35"/></g><g class="h" transform="translate(476.439 589)"><circle class="p" cx="21.5" cy="21.5" r="21.5"/><circle class="q" cx="21.5" cy="21.5" r="20"/></g><g class="h" transform="translate(648.885 471)"><circle class="p" cx="21.5" cy="21.5" r="21.5"/><circle class="q" cx="21.5" cy="21.5" r="20"/></g><g class="h" transform="translate(981.799 558)"><circle class="p" cx="26.5" cy="26.5" r="26.5"/><circle class="q" cx="26.5" cy="26.5" r="25"/></g><g class="h" transform="translate(23 385)"><circle class="p" cx="21.5" cy="21.5" r="21.5"/><circle class="q" cx="21.5" cy="21.5" r="20"/></g><g class="h" transform="translate(438.552 375)"><circle class="p" cx="26.5" cy="26.5" r="26.5"/><circle class="q" cx="26.5" cy="26.5" r="25"/></g><path class="i" d="M8788,258.942V673.123H7021V516.166s368.309-111.145,812.307-189.925S8788,258.942,8788,258.942Z" transform="translate(-6998 127.018)"/></g><g class="j" transform="translate(-38 2)"><g transform="translate(116.396 265.938)"><g transform="translate(28.566 264.092)"><path class="c" d="M106.469,290.556V277.673l-10.563-2.082a29.512,29.512,0,0,0-2.294-5.525L99.5,261.23l-9.1-9.1-8.837,5.894a29.472,29.472,0,0,0-5.525-2.3l-2.082-10.563H61.076L59,255.725a29.531,29.531,0,0,0-5.525,2.294l-8.839-5.892-9.1,9.1,5.892,8.839a29.428,29.428,0,0,0-2.3,5.525l-10.562,2.08v12.882l10.562,2.08a29.428,29.428,0,0,0,2.3,5.525L35.531,307l9.1,9.1,8.839-5.892A29.429,29.429,0,0,0,59,312.5l2.08,10.562H73.958L76.04,312.5a29.476,29.476,0,0,0,5.525-2.3L90.4,316.1l9.1-9.1-5.892-8.839a29.421,29.421,0,0,0,2.294-5.525ZM93.63,306.418l-3.81,3.808-8.106-5.4a26.577,26.577,0,0,1-9.6,3.987L70.2,318.5H64.829l-1.908-9.692a26.57,26.57,0,0,1-9.6-3.987l-8.106,5.4-3.81-3.808,5.4-8.107a26.588,26.588,0,0,1-3.987-9.6l-9.692-1.91v-5.376l9.692-1.91a26.6,26.6,0,0,1,3.987-9.6l-5.4-8.107L45.215,258l8.106,5.4a26.573,26.573,0,0,1,9.6-3.987l1.908-9.693H70.2l1.91,9.693a26.561,26.561,0,0,1,9.6,3.987L89.82,258l3.81,3.808-5.4,8.107a26.582,26.582,0,0,1,3.985,9.6l9.693,1.91V286.8l-9.692,1.91a26.591,26.591,0,0,1-3.987,9.6Z" transform="translate(-28.566 -245.162)"/><g transform="translate(22.975 22.976)"><path class="c" d="M58.3,258.924A15.976,15.976,0,1,0,74.281,274.9,15.994,15.994,0,0,0,58.3,258.924Zm0,27.387A11.411,11.411,0,1,1,69.716,274.9,11.424,11.424,0,0,1,58.3,286.311Z" transform="translate(-42.327 -258.924)"/></g></g><g class="k" transform="translate(77.801 216.89)"><path class="c" d="M111.15,247.827v-8.78l-7.2-1.417a20.061,20.061,0,0,0-1.564-3.765l4.015-6.024-6.2-6.2-6.024,4.015a19.949,19.949,0,0,0-3.765-1.564l-1.417-7.2h-8.78l-1.419,7.2a20.041,20.041,0,0,0-3.765,1.564L69,221.638l-6.2,6.2,4.015,6.024a20.061,20.061,0,0,0-1.564,3.765l-7.2,1.417v8.78l7.2,1.417a20.124,20.124,0,0,0,1.564,3.767L62.8,259.035l6.2,6.2,6.024-4.015a20.149,20.149,0,0,0,3.765,1.563l1.419,7.2h8.78l1.417-7.2a20.056,20.056,0,0,0,3.765-1.563l6.024,4.015,6.2-6.2-4.015-6.022a20.124,20.124,0,0,0,1.564-3.767Zm-8.75,10.81-2.6,2.6-5.526-3.683a18.112,18.112,0,0,1-6.541,2.716l-1.3,6.606H82.77l-1.3-6.606a18.111,18.111,0,0,1-6.541-2.716L69.4,261.233l-2.6-2.6,3.683-5.525a18.094,18.094,0,0,1-2.716-6.543l-6.606-1.3V241.6l6.606-1.3a18.1,18.1,0,0,1,2.716-6.543l-3.683-5.525,2.6-2.6,5.525,3.683a18.129,18.129,0,0,1,6.541-2.716L82.77,220h3.663l1.3,6.606a18.111,18.111,0,0,1,6.541,2.716L99.8,225.64l2.6,2.6-3.685,5.525a18.141,18.141,0,0,1,2.718,6.543l6.6,1.3v3.665l-6.6,1.3a18.117,18.117,0,0,1-2.718,6.543Z" transform="translate(-58.056 -216.89)"/><g transform="translate(15.657 15.659)"><path class="c" d="M78.323,226.269a10.888,10.888,0,1,0,10.889,10.889A10.9,10.9,0,0,0,78.323,226.269Zm0,18.666a7.778,7.778,0,1,1,7.778-7.777A7.787,7.787,0,0,1,78.323,244.935Z" transform="translate(-67.434 -226.269)"/></g></g></g><g transform="translate(194.977 272.651)"><path class="c" d="M181.187,197.49a1.671,1.671,0,1,0-2.283-.611A1.67,1.67,0,0,0,181.187,197.49Z" transform="translate(10.144 24.085)"/><path class="c" d="M184.483,231.254l8.417,14.581a6.686,6.686,0,1,0,11.582-6.686l-5.016-8.686,4.343-2.508a1.671,1.671,0,0,0,.613-2.283l-2.173-3.766c.259-.05,1.962-.384,32.017-6.282a5.015,5.015,0,0,0,4.066-7.514l-5.557-9.621,3.551-5.378a1.674,1.674,0,0,0,.054-1.757l-3.344-5.79a1.671,1.671,0,0,0-1.548-.832l-6.431.386-6.168-10.684a4.972,4.972,0,0,0-4.279-2.506l-.064,0a4.973,4.973,0,0,0-4.224,2.313L188.486,202.06l-14.2,8.2a11.7,11.7,0,0,0,10.195,21Zm17.105,9.568a3.344,3.344,0,0,1-5.792,3.344l-8.357-14.478,5.79-3.344C202.9,243.1,201.431,240.555,201.588,240.822Zm-3.794-13.254-1.67-2.9L199.018,223l1.672,2.9Zm32.863-39.437,2.309,4-2.06,3.119-3.981-6.9Zm-17.539-12.058a1.67,1.67,0,0,1,2.874.034l19.444,33.677a1.671,1.671,0,0,1-1.407,2.506,6.478,6.478,0,0,0-.916.155l-20.568-35.623C212.977,176.267,213.033,176.215,213.118,176.074Zm-2.8,3.583,19.322,33.47-29.163,5.72-8.867-15.358ZM172.9,224.569a8.352,8.352,0,0,1,3.059-11.419l13.029-7.522,8.357,14.476-13.029,7.523A8.367,8.367,0,0,1,172.9,224.569Z" transform="translate(0 1.859)"/><path class="c" d="M182.6,196.887a1.672,1.672,0,0,0-2.285-.611l-2.894,1.67a1.675,1.675,0,0,1-2.285-.611,1.671,1.671,0,0,0-2.894,1.672,5.019,5.019,0,0,0,6.849,1.835l2.9-1.672A1.672,1.672,0,0,0,182.6,196.887Z" transform="translate(3.55 25.749)"/><path class="c" d="M215.252,173.83l-9.315,5.183a1.672,1.672,0,0,0,1.626,2.922l9.315-5.183a1.672,1.672,0,0,0-1.626-2.922Z" transform="translate(36.288 3.533)"/><path class="c" d="M213.96,183.312l-6.459-1.73a1.671,1.671,0,1,0-.864,3.228l6.459,1.732a1.672,1.672,0,1,0,.864-3.23Z" transform="translate(36.603 11.363)"/><path class="c" d="M202.436,171.291,200.7,177.75a1.672,1.672,0,0,0,3.23.866l1.732-6.459a1.671,1.671,0,1,0-3.228-.866Z" transform="translate(31.897 0)"/></g><g transform="translate(555.307 272.743)"><g transform="translate(341.913 187.688)"><path class="l" d="M363.639,182.075v4.139l-24.192,9.37a.659.659,0,0,0-.316.574c0,.316.106.508.316.576l24.192,9.374v4.082l-25.87-10.155a3.227,3.227,0,0,1-1.778-1.416,5.054,5.054,0,0,1-.523-2.463,4.891,4.891,0,0,1,.523-2.433,3.493,3.493,0,0,1,1.778-1.439Z" transform="translate(-335.467 -174.114)"/><path class="l" d="M373.9,178.015l-17.28,50.742h-5.394l17.333-50.742Z" transform="translate(-320.33 -178.015)"/><path class="l" d="M364.176,210.222v-4.137l24.192-9.374a.651.651,0,0,0,.314-.576c0-.31-.1-.5-.314-.574l-24.192-9.37V182.1l25.868,10.161a3.22,3.22,0,0,1,1.78,1.414,5.066,5.066,0,0,1,.523,2.459,4.929,4.929,0,0,1-.523,2.437,3.51,3.51,0,0,1-1.78,1.441Z" transform="translate(-307.885 -174.089)"/></g><rect class="m" width="110.076" height="80.226" rx="5.669" transform="translate(328.757 167.947)"/><line class="n" x2="110.076" transform="translate(328.757 179.063)"/></g><g transform="translate(655.768 183.106)"><g transform="translate(451.598 121.894)"><path class="c" d="M537.3,155.568c0-20.341-21.444-33.674-42.85-33.674-21.493,0-42.85,13.4-42.85,33.674,0,7.671,3.361,15.175,9.462,21.125a.921.921,0,0,1,.234.9c-1.917,7.019-6.455,13.362-8.318,15.762a2.422,2.422,0,0,0,1.913,3.908h.062c9.114-.228,19.678-2.8,26.208-9.219a.933.933,0,0,1,.877-.236,53.867,53.867,0,0,0,12.413,1.434c21.487,0,42.85-13.391,42.85-33.676Zm-54.511,29.065a4.177,4.177,0,0,0-3.917,1.086c-6.532,6.42-17.193,7.881-22.242,8.2a50.81,50.81,0,0,0,7.812-15.469,4.182,4.182,0,0,0-1.1-4.1c-5.545-5.409-8.478-11.905-8.478-18.789,0-16.769,17.759-30.41,39.586-30.41s39.586,13.642,39.586,30.41-17.759,30.412-39.586,30.412a50.583,50.583,0,0,1-11.661-1.347Z" transform="translate(-451.598 -121.894)"/><path class="c" d="M510.983,175.827c9.514-4.808,15.192-13,15.192-21.918,0-12.6-11.391-23.373-27.088-25.607a1.632,1.632,0,0,0-.46,3.231c14.073,2,24.287,11.414,24.287,22.376,0,7.659-5.011,14.765-13.4,19.007a4.028,4.028,0,0,0-2.126,4.433,33.96,33.96,0,0,0,3.844,9.547c-9.636-1.6-13.287-6.227-14.444-8.227a4.025,4.025,0,0,0-3.483-2h-.133a38.664,38.664,0,0,1-5.384-.373,1.632,1.632,0,1,0-.454,3.233,42.319,42.319,0,0,0,5.838.4h.135a.751.751,0,0,1,.655.369c4.42,7.659,14.578,9.613,18.741,10.1a2.367,2.367,0,0,0,2.269-3.631,32.4,32.4,0,0,1-4.393-10.1.768.768,0,0,1,.406-.843Z" transform="translate(-414.789 -115.041)"/><path class="c" d="M462.95,135.328a5.654,5.654,0,1,0,5.655,5.655A5.661,5.661,0,0,0,462.95,135.328Zm0,8.047a2.391,2.391,0,1,1,2.391-2.391A2.395,2.395,0,0,1,462.95,143.375Z" transform="translate(-445.489 -107.489)"/><path class="c" d="M470.735,135.328a5.654,5.654,0,1,0,5.655,5.655A5.661,5.661,0,0,0,470.735,135.328Zm0,8.047a2.391,2.391,0,1,1,2.391-2.391A2.394,2.394,0,0,1,470.735,143.375Z" transform="translate(-437.142 -107.489)"/><path class="c" d="M478.52,135.328a5.654,5.654,0,1,0,5.653,5.655A5.661,5.661,0,0,0,478.52,135.328Zm0,8.047a2.391,2.391,0,1,1,2.391-2.391A2.4,2.4,0,0,1,478.52,143.375Z" transform="translate(-428.794 -107.489)"/><path class="c" d="M486.3,135.328a5.654,5.654,0,1,0,5.655,5.655A5.661,5.661,0,0,0,486.3,135.328Zm0,8.047a2.391,2.391,0,1,1,2.391-2.391A2.395,2.395,0,0,1,486.3,143.375Z" transform="translate(-420.447 -107.489)"/></g></g><g transform="translate(187.141 51.718)"><g transform="translate(495.131 169.968)"><path class="c" d="M590.838,214.558a20.811,20.811,0,0,0-25.527-18.5,20.878,20.878,0,0,0-16.087-19.182c-.146-.036-.293-.065-.438-.093a14.316,14.316,0,0,0-26.048,3.891,12.771,12.771,0,0,0-18.028,11.634,12.964,12.964,0,0,0,.11,1.694,11.146,11.146,0,0,0-6.136,19.207c-.192.222-.392.441-.567.674a14.191,14.191,0,0,0-2.981,8.739,14.375,14.375,0,0,0,14.359,14.359h60.63c.592,0,1.165-.017,1.725-.068A20.743,20.743,0,0,0,590.838,214.558Zm-90.5-14.775A7.971,7.971,0,0,1,506.3,197.1h.124a1.361,1.361,0,0,1,.161,0,1.593,1.593,0,0,0,1.7-2.042,9.7,9.7,0,0,1-.389-2.745,9.581,9.581,0,0,1,9.572-9.572,9.362,9.362,0,0,1,5.514,1.755,1.6,1.6,0,0,0,2.522-1.159,11.224,11.224,0,0,1,11.782-10.161,11.058,11.058,0,0,1,7.146,3.181c-.1,0-.2.016-.3.017h-.063a21.336,21.336,0,0,0-2.218.176l-.087.014a20.5,20.5,0,0,0-2.136.4l-.118.031a20.4,20.4,0,0,0-2.01.614l-.186.068q-.933.347-1.826.785c-.093.046-.186.087-.277.132q-.826.423-1.615.919c-.12.074-.241.142-.357.217-.5.32-.974.677-1.437,1.045-.126.1-.257.186-.381.288a21.321,21.321,0,0,0-1.65,1.5,19.622,19.622,0,0,0-3.331,4.5v-.009l-.013.02a1.441,1.441,0,0,0-.126.233,19.823,19.823,0,0,0-1.618,3.938,20.539,20.539,0,0,0-.707,3.622,17.515,17.515,0,0,0-.128,2.226v.32a16.115,16.115,0,0,0-10.082,1.245,17.159,17.159,0,0,0-1.988,1.144,9.349,9.349,0,0,0-1.08.812,15.382,15.382,0,0,0-1.689,1.544A14.539,14.539,0,0,0,507.6,203.9a15.862,15.862,0,0,0-2.342,5,12.77,12.77,0,0,0-2.035.815,15.075,15.075,0,0,0-1.988,1.2c-.068.047-.146.08-.213.129A7.979,7.979,0,0,1,500.343,199.783Zm71.23,33.954c-.479.044-.957.057-1.448.057h-60.63a11.181,11.181,0,0,1-11.168-11.168,11.066,11.066,0,0,1,2.327-6.81,10.436,10.436,0,0,1,1.462-1.555,11.307,11.307,0,0,1,2.536-1.686,10.354,10.354,0,0,1,2.314-.828,1.6,1.6,0,0,0,1.188-1.234,12.762,12.762,0,0,1,2.053-4.774,11.435,11.435,0,0,1,1.118-1.376,12.971,12.971,0,0,1,1.436-1.307,7.218,7.218,0,0,1,.8-.6,13.516,13.516,0,0,1,1.6-.922,12.854,12.854,0,0,1,1.239-.508c.307-.109.619-.194.933-.279.105-.028.208-.065.32-.09.335-.082.674-.142,1.011-.2.1-.014.192-.035.288-.047.3-.041.611-.065.918-.085.159-.009.305-.022.461-.025.3-.009.6,0,.892,0a2.4,2.4,0,0,1,.32.014c.3.019.592.054.883.093.11.014.222.025.331.042.3.05.6.117.891.189.093.022.186.038.279.063a11.15,11.15,0,0,1,1.118.362,1.6,1.6,0,0,0,2.155-1.7,16.3,16.3,0,0,1-.145-2.267,15.191,15.191,0,0,1,.1-1.853,17.8,17.8,0,0,1,.6-3.093,16.562,16.562,0,0,1,1.412-3.406c.011-.02.022-.043.031-.063s.038-.066.057-.1a16.443,16.443,0,0,1,2.8-3.768,17.456,17.456,0,0,1,12.55-5.265c.532,0,1.061.032,1.574.072.458.044.9.1,1.344.187l.091.014a9.078,9.078,0,0,1,.9.159A17.664,17.664,0,0,1,562.147,197.1c0,.345-.016.689-.031,1.033a1.6,1.6,0,0,0,2.136,1.569,17.278,17.278,0,0,1,5.873-1.007,17.551,17.551,0,0,1,1.448,35.044Z" transform="translate(-495.131 -169.968)"/></g></g><g transform="translate(581.653 284.371)"><circle class="n" cx="53.483" cy="53.483" r="53.483" transform="translate(438.344 236.629)"/><g transform="translate(438.461 240.09)"><path class="l" d="M456.851,302.808c-.009.019-.022.033-.033.054.08.019.158.046.238.062Z" transform="translate(-429.477 -207.905)"/><path class="l" d="M454.612,252.524l-.107-.218c.893-.134.954-.763,1.633-.994.773-.254.508.024,1.269,0,.615-.027.99.422,1.693.094a2.424,2.424,0,0,1-.725.713,5.486,5.486,0,0,1-1.862.994A1.822,1.822,0,0,1,454.612,252.524Z" transform="translate(-430.602 -233.003)"/><path class="l" d="M473.132,302.9a2.739,2.739,0,0,1-.532,1.283,13,13,0,0,0-1.871,5.844c-.144,1.972-.056,4.4-1.775,5.373-.979.545-2.359.449-3.013,1.369a3.094,3.094,0,0,0-.4.959c-.421,1.535-.847,3.072-1.268,4.609-.545-.046-1.1-.107-1.644-.166a1.2,1.2,0,0,1,.7,1.669,1.4,1.4,0,0,0-1.767.681,2.847,2.847,0,0,0-.1,2.045,5.977,5.977,0,0,0,4.3,4.111c-.351.666-1.425.375-2.082-.071a24.919,24.919,0,0,1-9.832-13.41c-.569-1.913-.933-3.945-2.048-5.589-.93-1.388-2.337-2.406-3.268-3.8-1.3-1.995-1.549-4.582-3.062-6.408-.847-1.04-2.157-2.32-1.406-3.435.3-.458.944-.893.69-1.379a2,2,0,0,0-.389-.388c-.508-.546-.158-1.4.1-2.106a8.247,8.247,0,0,0,.241-3.833,11,11,0,0,1-2.906-4.136c-.376-.968-.874-2.176-1.911-2.189-.269-.751-.545-1.5-.815-2.25a.775.775,0,0,1-.652.473,53.179,53.179,0,0,1,13.435-31.995,5.582,5.582,0,0,0,.508-.268c1.825-1.064,3.277-2.662,5.042-3.823a1.9,1.9,0,0,1,1.222-.425c.435.036.847.482.69.893a.921.921,0,0,1-.351.412,37.4,37.4,0,0,1-6.736,4.566,1.419,1.419,0,0,0-.722.606,1.019,1.019,0,0,0,.688,1.292,3.016,3.016,0,0,0,1.635-.046,2.639,2.639,0,0,0-.352,2.249c.495.048.653-.629.8-1.1.6-1.874,3.592-2.638,3.4-4.612.81.421,1.633-.523,2.128-1.3s1.6-1.561,2.2-.871c.034.385.08.774.117,1.162,1.064-.268,2.142-.546,3.208-.813a1.544,1.544,0,0,0,1.449,2.7c-.01.569-.519,1-.981,1.342a13.383,13.383,0,0,1-3.8,2.227l.315.652a.307.307,0,0,1-.109.027c-.87.083-1.791-.543-2.721-.422-.569.074-1.268.074-1.6.654-.048.073-.251,1.088-.107,1l1.513-.87a2.475,2.475,0,0,1,.107,1.318,2.964,2.964,0,0,1,1.8.4,3.588,3.588,0,0,1-3.472,2.093c-.013-.435-.036-.871-.049-1.306-1.186-.1-2.154.922-2.745,1.938a7.787,7.787,0,0,1-2.056,2.857,18.1,18.1,0,0,1-2,.907,1.809,1.809,0,0,0-1.1,1.732,5.077,5.077,0,0,1,.268,1c-.037.653-.8.957-1.306,1.379-.87.727-1.088,2.059-2.018,2.7a8.1,8.1,0,0,1-2.36.7c-.786.241-1.573,1.027-1.255,1.791a.7.7,0,0,1-.9-.569,26.522,26.522,0,0,0-2.681,8.76c.69.482,1.39-.62,1.523-1.452s.87-1.926,1.546-1.43c-.158,1.2-.314,2.383-.468,3.582a1.05,1.05,0,0,0,.051.676c.134.254.422.361.642.543.617.532.532,1.476.569,2.286a5.825,5.825,0,0,0,.884,2.8c-.051-.169-.085-.337-.12-.508a3.383,3.383,0,0,0,2.637-.813,3.943,3.943,0,0,1,1.162-.944,2.5,2.5,0,0,1,1.513.083,8.07,8.07,0,0,1,4.2,2.1,12.967,12.967,0,0,0,1.466,1.9c1.4,1.186,3.777.663,5.058,1.983,1.029,1.064.837,2.782.559,4.245-.7-.385-1.642.583-1.231,1.272a2.017,2.017,0,0,1,1.356-.847c.556-.013,1.04.749.629,1.1a2.23,2.23,0,0,1,3.713.81c1.356.1,2.721.19,4.077.3C469.052,300.785,473.217,300.9,473.132,302.9Z" transform="translate(-438.423 -235.707)"/><path class="l" d="M456.715,247.859a1.037,1.037,0,1,1-.693-1.941c.358-.083.856-.043.968-.4a1.144,1.144,0,0,0,.013-.334,1.532,1.532,0,0,1,1.217-1.379,4.5,4.5,0,0,1,1.966.091,2.445,2.445,0,0,1,.187,1.553l-1.336.056c.04.74-.034,1.671-.719,1.946-.617.244-1.419-.211-1.932.2" transform="translate(-430.251 -236.637)"/><path class="l" d="M460.892,242.791c1.216-.583,2.244-1.5,3.442-2.115,2.062-1.058,4.469-1.152,6.785-1.226l15.819-.492q-1.833,1.006-3.67,2.013a4.449,4.449,0,0,1-3.227.8,1.713,1.713,0,0,0,1.66,1.691c-2.166,1.339-5.172-.031-7.458,1.094-.957.473-1.732,1.363-2.785,1.531-.609.1-1.243-.067-1.848.067-1.015.22-1.654,1.182-2.4,1.9a3.341,3.341,0,0,1-3.26,1c-1.128-.4-1.718-2.072-.815-2.855a7.665,7.665,0,0,1,1.607-.721c.526-.268.941-.987.547-1.425-.171-.19-.453-.265-.609-.468-.171-.221-.155-.537-.3-.777-.535-.941-2.024.326-3.04-.054" transform="translate(-427.496 -238.958)"/><path class="l" d="M471.665,244.934a10.712,10.712,0,0,0,2-.895,2.491,2.491,0,0,1,2.112-.163c.195.486-.364.927-.856,1.1a5.985,5.985,0,0,1-2.956.257" transform="translate(-422.256 -236.65)"/><path class="l" d="M514.564,250.374a1.724,1.724,0,0,1-.606-.037,7.611,7.611,0,0,1-2.374-1.4,6.308,6.308,0,0,0-6.17-.372,3.683,3.683,0,0,0,.639-2.3l-.278.1c-3.17-1.837-6.886-3.746-10.343-2.51-.8.291-1.523.727-2.334,1a9.559,9.559,0,0,0-2.552.957c-.749.532-1.147,1.706-.505,2.347.547.545,1.416.4,2.18.471s1.61.82,1.2,1.463q-4.972,2.325-9.953,4.677a3.4,3.4,0,0,1,2.2,3.8c-1.115.195-2.189-.482-3.315-.556a3.058,3.058,0,1,0-.141,6.11c1.223-.013,2.421-.751,3.606-.438a4.62,4.62,0,0,1,1.593-2.857c1.523-1.526,3.7-2.906,5.736-2.155a6.53,6.53,0,0,1,1.791,1.134q1.833,1.451,3.668,2.927c.388-.4.773-.8,1.162-1.185.666.7,1.332,1.4,2.008,2.115.339-.23.69-.449,1.029-.679.241.629.495,1.246.739,1.874.1-.69.181-1.366.265-2.045a4.921,4.921,0,0,0,2.371-.315,1.656,1.656,0,0,0,.954-1.971c-.158-.4-.532-.713-.606-1.139-.158-.847,1.051-1.427,1.839-1.042a3.639,3.639,0,0,1,1.489,2.069c.181-.823.348-1.633.532-2.457a19.4,19.4,0,0,0,3.2,5.483,13.18,13.18,0,0,0-7.415.754,3.886,3.886,0,0,0,3.28,1.607c.569-.013,1.2-.143,1.633.219a1.754,1.754,0,0,1,.473,1.139c.193,1.161.388,2.31.569,3.457-1.309-1.075-3.194-.954-4.9-.987s-3.7-.519-4.331-2.1a3.422,3.422,0,0,0-.783,2.87c-1.769-.422-3.8-1.1-4.309-2.843a2.748,2.748,0,0,1-3.472-1.787c-.134-.5-.171-1.1-.606-1.366a1.48,1.48,0,0,0-.92-.1c-2.625.3-5.239.6-7.851.9a11.175,11.175,0,0,0-4.16,1.042,3.781,3.781,0,0,0-2.117,3.475,16.3,16.3,0,0,0-5.828,5.932,3.626,3.626,0,0,0-.639,2.457c.12.653.556,1.208.69,1.852.23,1.1-.4,2.166-.663,3.254-.751,3.1,1.6,6.012,3.78,8.356,1.027,1.088,2.216,2.273,3.716,2.334a6.865,6.865,0,0,0,2.684-.716,19.475,19.475,0,0,1,7.875-1.323c-.606.471.022,1.5.776,1.657a17.863,17.863,0,0,1,2.286.167c1.657.593,1.43,3.023.681,4.611.375-.074.763-.147,1.147-.219-.2.534-.412,1.066-.615,1.584,2.273.288,3.133,3.277,2.6,5.513s-1.848,4.3-1.885,6.6a11.709,11.709,0,0,0,.764,3.676q1.456,4.553,2.909,9.119c2.711.324,4.269-3.123,6.785-4.2.945-.412,2.056-.495,2.8-1.2.713-.676.482-2.264-.435-2.264a2.715,2.715,0,0,0,2.347-2.53c.013-.352-.037-.7.01-1.052a3.472,3.472,0,0,1,.7-1.356,44.232,44.232,0,0,0,4.411-9.038c.326-.837.652-1.657.978-2.494,1.232-3.111,2.454-6.207,3.686-9.316.482-1.223.968-2.432,1.449-3.656-.666,1.1-2.406.957-3.4.134a16.8,16.8,0,0,1-2.314-3.1,9.3,9.3,0,0,1-1.877-2.745,16.33,16.33,0,0,1-.254-1.925,14.676,14.676,0,0,0-1.791-3.81c-.63-1.259-.959-2.889-.074-4a153.252,153.252,0,0,1,6.95,13.694,2.959,2.959,0,0,1,1.439-1.708c.5-.268,1.052-.375,1.574-.593a3.877,3.877,0,0,0-.027-7.124,14.9,14.9,0,0,1-2.13-.786,1.478,1.478,0,0,1-.712-1.911,1.518,1.518,0,0,1,1.958-.254c.644.351,1.115.944,1.718,1.342.435.291.944.482,1.415.749,2.555,1.464,3.184,4.79,3.72,7.693.291,1.561.618,3.111,1.008,4.633.013-.327.01-.666.01-.99A53.293,53.293,0,0,0,514.564,250.374Zm4.9,17.574a1.878,1.878,0,0,1-.957-.471,2.629,2.629,0,0,1-1.055-1.356c-.158-.676.168-1.454-.193-2.056a2.741,2.741,0,0,0-.727-.676,3.806,3.806,0,0,1-1.333-2.117c-.156-.727.071-1.693.812-1.815a.864.864,0,0,1,.893.459l-.495.268a1.142,1.142,0,0,1,.581,1.9c-.083.085-.193.158-.193.278a.26.26,0,0,0,.11.195,6.711,6.711,0,0,0,1.972,1.134c.676.352,1.342,1,1.235,1.755-.219.083-.422.158-.639.241-.232.23-.048.642.193.87s.556.459.569.8A.7.7,0,0,1,519.461,267.948Z" transform="translate(-422.045 -236.771)"/><path class="l" d="M505.9,284.976l-.874.62a2.365,2.365,0,0,1-1.339,2.744c-.546.221-1.272.318-1.455.878-.155.474.214.957.265,1.452.08.823-.69,1.44-1.246,2.053s-.85,1.764-.111,2.133a1.551,1.551,0,0,0,.559.12,3.473,3.473,0,0,0,2.341-.376c1.882-1.342.094-4.984,1.952-6.363.265-.195.6-.336.74-.63C507.169,286.74,505.552,285.88,505.9,284.976Z" transform="translate(-408.136 -216.578)"/></g></g><g class="o" transform="translate(393.378 232.745)"><g transform="translate(230.622 279.624)"><path class="c" d="M305.676,261.5H289.359a3.263,3.263,0,0,0,0,6.527h16.317a3.265,3.265,0,0,1,3.263,3.263v42.422a3.265,3.265,0,0,1-3.263,3.263H240.412a3.265,3.265,0,0,1-3.263-3.263V271.294a3.265,3.265,0,0,1,3.263-3.263h16.315a3.263,3.263,0,0,0,0-6.527H240.412a9.791,9.791,0,0,0-9.79,9.79v42.422a9.788,9.788,0,0,0,9.79,9.788h65.264a9.788,9.788,0,0,0,9.79-9.788V271.294A9.791,9.791,0,0,0,305.676,261.5Z" transform="translate(-230.622 -261.504)"/></g><g transform="translate(253.505 250.255)"><path class="c" d="M277.476,296.9a3.264,3.264,0,0,0-4.535,0l-10.751,10.746V253.518a3.263,3.263,0,0,0-6.527,0v54.124L244.917,296.9a3.263,3.263,0,0,0-4.613,4.613l16.315,16.317a3.267,3.267,0,0,0,4.616.005l.005-.005,16.317-16.317A3.265,3.265,0,0,0,277.476,296.9Z" transform="translate(-239.387 -250.255)"/></g></g></g><g class="h" transform="translate(1014 122)"><circle class="p" cx="14.5" cy="14.5" r="14.5"/><circle class="q" cx="14.5" cy="14.5" r="13"/></g></g></svg>