<?xml version="1.0" encoding="utf-8"?>
<!-- Generator: Adobe Illustrator 24.3.0, SVG Export Plug-In . SVG Version: 6.00 Build 0)  -->
<svg version="1.1" id="Layer_1" xmlns="http://www.w3.org/2000/svg" xmlns:xlink="http://www.w3.org/1999/xlink" x="0px" y="0px"
	 viewBox="0 0 262 131.9" style="enable-background:new 0 0 262 131.9;" xml:space="preserve">
<style type="text/css">
	.st0{fill:#3CB8EF;}
	.st1{fill:#656F6C;}
	.st2{fill:#FFFFFF;}
</style>
<path class="st0" d="M112.2,69.1L104.6,42l-3.3,27.1H97l4-32.5h6.3v0.1c2.8,9.2,5.4,18.2,7.5,27l3.3-27h4.3l-4,32.5L112.2,69.1
	L112.2,69.1z"/>
<polygon class="st0" points="125.7,69.1 129.7,36.6 146.9,36.6 146.4,40.6 133.6,40.6 132.4,50.6 144.2,50.6 143.7,54.5 131.8,54.5 
	130.5,65.1 143.4,65.1 143,69.1 "/>
<path class="st1" d="M94.1,116.6c-3.2,0-5.7-0.8-7.4-2.3c-1.7-1.6-2.6-3.8-2.6-6.7c0-0.6,0.1-1.2,0.1-1.9l1.5-12.3
	c0.5-3.6,1.7-6.2,3.5-7.9c1.9-1.7,4.7-2.5,8.3-2.5c3.1,0,5.6,0.8,7.3,2.4c1.7,1.6,2.6,3.9,2.6,6.7c0,0.8,0,1.4-0.1,1.8l-1.5,12.3
	C105.1,113.1,101.1,116.6,94.1,116.6z M97.3,86.8c-4.3,0-6.7,2.1-7.2,6.2l-1.6,13.2c-0.1,0.6-0.1,1-0.1,1.3c0,1.7,0.5,3,1.5,3.9
	s2.5,1.3,4.4,1.3c4.2,0,6.7-2.1,7.2-6.2l1.6-13.2c0.1-0.6,0.1-1,0.1-1.3c0-1.7-0.5-3-1.5-3.9C100.8,87.2,99.3,86.8,97.3,86.8z"/>
<path class="st1" d="M135,116l2.9-25.9l-9.5,22.5l-5.3,0.1l-3.9-22.5l-3.3,25.8h-4.3l4.3-32.5h6.1v0.1c1.9,9.4,3.3,17.8,4.1,24.8
	c3.5-7.6,6.9-16,10.2-24.9l6.7-0.1l-3.7,32.5H135V116z"/>
<path class="st1" d="M169.5,116l2.9-25.9l-9.5,22.5l-5.3,0.1l-3.9-22.5l-3.3,25.8H146l4.3-32.5h6.1v0.1c1.9,9.4,3.3,17.8,4.1,24.8
	c3.5-7.6,6.9-16,10.2-24.9l6.7-0.1l-3.7,32.5h-4.2L169.5,116L169.5,116z"/>
<path class="st1" d="M191.6,116.6c-3.2,0-5.7-0.8-7.4-2.3c-1.7-1.6-2.6-3.8-2.6-6.7c0-0.6,0.1-1.2,0.1-1.9l1.5-12.3
	c0.5-3.6,1.7-6.2,3.5-7.9c1.9-1.7,4.7-2.5,8.3-2.5c3.1,0,5.6,0.8,7.3,2.4s2.6,3.9,2.6,6.7c0,0.8,0,1.4-0.1,1.8l-1.5,12.3
	C202.6,113.1,198.6,116.6,191.6,116.6z M194.8,86.8c-4.3,0-6.7,2.1-7.2,6.2l-1.6,13.2c-0.1,0.6-0.1,1-0.1,1.3c0,1.7,0.5,3,1.5,3.9
	s2.5,1.3,4.4,1.3c4.2,0,6.7-2.1,7.2-6.2l1.6-13.2c0.1-0.6,0.1-1,0.1-1.3c0-1.7-0.5-3-1.5-3.9C198.3,87.2,196.8,86.8,194.8,86.8z"/>
<path class="st1" d="M224.5,116l-7.6-27.1l-3.3,27.1h-4.3l4-32.5h6.3v0.1c2.8,9.2,5.4,18.2,7.5,27l3.3-27h4.3l-4,32.5L224.5,116
	L224.5,116z"/>
<path class="st1" d="M246.5,116.6c-1.4,0-3-0.2-4.7-0.6s-3.1-0.9-4.3-1.5l0.5-4.4l0.1,0.1c2.3,1.1,4.4,2,6.3,2.4
	c0.6,0.1,1.3,0.1,2.1,0.1c1.7,0,3-0.4,3.8-1c0.9-0.7,1.4-1.8,1.7-3.2l0.1-0.5c0.1-0.6,0.1-1,0.1-1.5c0-1-0.3-1.9-0.8-2.5
	c-0.5-0.7-1.4-1.2-2.6-1.7l-4.4-1.8c-1.8-0.7-3.1-1.7-4-3.1s-1.4-3-1.4-4.8c0-0.8,0.1-1.7,0.3-2.6l0.1-0.4c1-4.3,4.3-6.5,10-6.5
	c1,0,2.2,0.1,3.6,0.3c1.4,0.2,2.7,0.5,3.8,0.8h0.1l-0.6,4.2h-0.1c-1.8-0.5-3.6-1-5.4-1.3c-0.5,0-1.1,0-1.7,0c-3.2,0-5.1,1.2-5.4,3.6
	l-0.1,0.6c-0.1,0.5-0.1,0.9-0.1,1.2c0,1,0.3,1.9,0.8,2.6s1.4,1.3,2.6,1.8l4.1,1.7c1.9,0.8,3.2,1.8,4.2,3c0.9,1.3,1.4,2.8,1.4,4.7
	c0,0.6,0,1.3-0.1,2l-0.1,0.6c-0.4,2.6-1.4,4.6-3.1,5.9C251.8,116,249.4,116.6,246.5,116.6z"/>
<path class="st1" d="M64.9,64.7c-1.2-14.4-17.3-18-28.7-12.5c-12.9,6.3-21,20.4-19,34.7c1.8,12.8,10.9,23.8,23.4,27.2
	c10.7,2.9,23.9-0.4,31.7-8.6l8.2,9.5c-14.4,12.3-34.2,16.1-51.4,7.4c-23-11.8-33.6-44.5-17.5-65.7c4.7-6.2,11.2-11.9,18.1-15.7
	c12.4-6.9,28.8-5.3,39.3,4.5c1.9,1.8,3.6,3.9,5,6.1c1.6,2.7,2.8,5.8,2.9,9C76.8,60.6,64.9,64.7,64.9,64.7z"/>
<path class="st0" d="M76.9,60.5c0.4,7.4-0.4,14-4.5,20.2c-3.7,4.9-8.6,9.1-14.8,10.7c-2.5,0.8-5.4,1.2-8.2,1.2
	c-24.7,0-44.9-20.2-44.9-44.9S24.7,2.9,49.3,2.9s44.9,20.2,44.9,44.9c0,9.1-2.5,17.7-7.4,25.1c-4.1,6.2-9.5,10.3-15.2,14
	c6.6-7.4,9.9-17.7,8.2-27.2c1.2-3.7,2.1-7.8,2.1-11.9c0-18.1-14.4-32.5-32.5-32.5S16.8,29.7,16.8,47.8s14.4,32.5,32.5,32.5
	c8.6,0,15.6-7,15.6-15.6L76.9,60.5z"/>
<g>
	<path class="st2" d="M49.4,86.9c-21.6,0-39.2-17.6-39.2-39.2S27.8,8.6,49.4,8.6s39.2,17.6,39.2,39.2S70.9,86.9,49.4,86.9z
		 M49.4,10.3c-20.7,0-37.5,16.8-37.5,37.5s16.8,37.5,37.5,37.5s37.5-16.8,37.5-37.5S70,10.3,49.4,10.3z"/>
	<path class="st2" d="M49.4,86.9c-21.6,0-39.1-17.6-39.1-39.1S27.8,8.6,49.4,8.6s39.1,17.6,39.1,39.1S70.9,86.9,49.4,86.9z
		 M49.4,10.3C28.8,10.3,12,27.1,12,47.8s16.8,37.5,37.4,37.5s37.4-16.8,37.4-37.5S70,10.3,49.4,10.3z"/>
</g>
</svg>
