<svg width="96" height="46" viewBox="0 0 96 46" fill="none" xmlns="http://www.w3.org/2000/svg">
<path d="M40.7116 24.5727L37.86 14.5853L36.6252 24.5727H35.0083L36.5076 12.5964H38.8742V12.6397C39.9325 16.0265 40.9027 19.3412 41.6964 22.5839L42.9312 12.6397H44.5481L43.0488 24.616L40.7116 24.5727Z" fill="#0099FF"/>
<path d="M45.783 24.5728L47.2823 12.5964H53.7498L53.5587 14.0665H48.7522L48.2965 17.7559H52.7356L52.5445 19.1971H48.076L47.5909 23.1027H52.4416L52.2946 24.5728H45.783Z" fill="#0099FF"/>
<path d="M33.9072 42.084C32.7019 42.084 31.7611 41.7957 31.1291 41.2337C30.497 40.6428 30.1589 39.8357 30.1589 38.7692C30.1589 38.553 30.203 38.3224 30.203 38.063L30.7616 33.5231C30.9527 32.1972 31.3937 31.2316 32.0698 30.6118C32.7901 29.9921 33.8337 29.6895 35.1861 29.6895C36.3473 29.6895 37.2881 29.9777 37.9348 30.5686C38.5816 31.1595 38.905 32.0098 38.905 33.0331C38.905 33.3213 38.905 33.5519 38.8609 33.6961L38.3023 38.2359C38.0377 40.7869 36.5384 42.084 33.9072 42.084ZM35.1126 31.1019C33.4957 31.1019 32.599 31.8801 32.4079 33.3934L31.8052 38.2647C31.7611 38.4809 31.7611 38.6395 31.7611 38.7403C31.7611 39.3601 31.9522 39.8501 32.3197 40.1816C32.7019 40.5131 33.2605 40.6572 33.9807 40.6572C35.5535 40.6572 36.4943 39.8789 36.6854 38.3656L37.2881 33.4943C37.3322 33.2781 37.3322 33.1196 37.3322 33.0187C37.3322 32.399 37.1411 31.9089 36.7736 31.5775C36.4208 31.246 35.8622 31.1019 35.1126 31.1019Z" fill="#07215B"/>
<path d="M49.2822 41.8679L50.3699 32.3268L46.798 40.614L44.799 40.6573L43.329 32.3701L42.0943 41.8823H40.4774L42.0943 29.9055H44.3874V29.9488C45.1076 33.4078 45.6221 36.5065 45.9308 39.0863C47.239 36.2903 48.5178 33.1916 49.7673 29.9055L52.2808 29.8623L50.8844 41.8391L49.2822 41.8679Z" fill="#07215B"/>
<path d="M62.2457 41.8679L63.3335 32.3268L59.7616 40.614L57.7625 40.6573L56.2926 32.3701L55.0579 41.8823H53.3969L55.0138 29.9055H57.3068V29.9488C58.0271 33.4078 58.5415 36.5065 58.8502 39.0863C60.1585 36.2903 61.4373 33.1916 62.6867 29.9055L65.2003 29.8623L63.8038 41.8391L62.2457 41.8679Z" fill="#07215B"/>
<path d="M70.5502 42.084C69.3448 42.084 68.4041 41.7957 67.772 41.2337C67.14 40.6428 66.8019 39.8357 66.8019 38.7692C66.8019 38.553 66.846 38.3224 66.846 38.063L67.4045 33.5231C67.5956 32.1972 68.0366 31.2316 68.7128 30.6118C69.433 29.9921 70.4767 29.6895 71.829 29.6895C72.9902 29.6895 73.931 29.9777 74.5778 30.5686C75.2098 31.1595 75.5479 32.0098 75.5479 33.0331C75.5479 33.3213 75.5479 33.5519 75.5038 33.6961L74.9452 38.2359C74.6807 40.7869 73.1813 42.084 70.5502 42.084ZM71.7555 31.1019C70.1386 31.1019 69.2419 31.8801 69.0509 33.3934L68.4482 38.2647C68.4041 38.4809 68.4041 38.6395 68.4041 38.7403C68.4041 39.3601 68.5952 39.8501 68.9627 40.1816C69.3448 40.5131 69.9034 40.6572 70.6237 40.6572C72.1965 40.6572 73.1372 39.8789 73.3283 38.3656L73.931 33.4943C73.9751 33.2781 73.9751 33.1196 73.9751 33.0187C73.9751 32.399 73.784 31.9089 73.4165 31.5775C73.0637 31.246 72.5052 31.1019 71.7555 31.1019Z" fill="#07215B"/>
<path d="M82.9152 41.8676L80.0636 31.88L78.8288 41.8676H77.2119L78.7112 29.8911H81.0778V29.9344C82.1362 33.3212 83.1063 36.636 83.9001 39.8788L85.1348 29.9344H86.7517L85.2524 41.9109L82.9152 41.8676Z" fill="#07215B"/>
<path d="M91.1899 42.0842C90.6607 42.0842 90.058 42.0122 89.426 41.868C88.7939 41.7239 88.2648 41.5366 87.8091 41.3204L88.0002 39.6917L88.0443 39.735C88.9115 40.1385 89.7053 40.47 90.4108 40.6141C90.6313 40.6574 90.8959 40.6574 91.2046 40.6574C91.8366 40.6574 92.3364 40.5133 92.6304 40.2827C92.9685 40.0232 93.1595 39.6197 93.2624 39.1008L93.3065 38.9135C93.3506 38.6973 93.3506 38.5387 93.3506 38.3658C93.3506 37.9911 93.233 37.6596 93.0567 37.4434C92.8656 37.184 92.5275 36.9966 92.0865 36.8236L90.4255 36.1607C89.7494 35.9012 89.2643 35.5409 88.9262 35.0221C88.5881 34.5032 88.397 33.9123 88.397 33.2493C88.397 32.9611 88.4411 32.6296 88.5146 32.2981L88.5587 32.154C88.9409 30.5686 90.1756 29.7615 92.3217 29.7615C92.7039 29.7615 93.1448 29.8047 93.674 29.8768C94.2032 29.9488 94.6882 30.0641 95.0998 30.165H95.1439L94.9234 31.7072H94.8793C94.2032 31.5198 93.527 31.3324 92.8509 31.2316C92.6598 31.2316 92.4393 31.2316 92.2188 31.2316C91.0135 31.2316 90.3079 31.6783 90.1903 32.5575L90.1462 32.7737C90.1021 32.9611 90.1021 33.1052 90.1021 33.2205C90.1021 33.5952 90.2197 33.9267 90.3961 34.1717C90.5872 34.4312 90.9253 34.6473 91.3663 34.8347L92.9097 35.4544C93.6299 35.7427 94.115 36.1174 94.4825 36.5642C94.8205 37.0398 95.0116 37.6019 95.0116 38.2937C95.0116 38.5099 95.0116 38.7693 94.9675 39.0288L94.9234 39.245C94.7764 40.1962 94.3943 40.9456 93.7622 41.4212C93.1742 41.868 92.2776 42.0842 91.1899 42.0842Z" fill="#07215B"/>
<path d="M22.6317 24.9911C23.3814 23.0311 22.8963 20.7539 21.3529 19.2406C19.5155 17.3959 16.5757 17.0356 14.1062 17.6121C9.44655 18.6786 5.80114 23.1031 5.05148 27.6286C4.33122 32.0532 6.33031 36.7371 10.0198 39.3458C13.8563 42.1129 19.1186 42.2138 23.2491 39.9367C24.2193 39.4178 25.0865 38.7549 25.8803 37.9478C26.821 39.1296 27.9088 40.3835 28.9671 41.45C24.9101 44.9089 19.3097 46.6528 13.9739 45.6439C9.24076 44.7648 5.21317 41.8535 2.72901 37.8613C0.480026 34.215 -0.578317 29.7184 0.318335 25.51C1.37668 20.4945 5.38956 16.3294 9.90222 13.9802C14.3708 11.6166 20.2064 12.1066 24.1164 15.3061C25.0571 16.0844 25.8509 17.0067 26.4829 18.0012C27.0856 18.9956 27.5413 20.9557 27.5707 22.1231" fill="#07215B"/>
<path d="M27.5107 22.1517C27.5548 24.8756 27.0256 27.5707 25.1441 29.6748C23.4096 31.6637 20.8667 32.8455 18.1914 33.1338C17.5887 33.2058 16.9567 33.2058 16.354 33.2058C12.9732 33.0617 9.66587 31.8799 6.96122 29.891C4.33006 27.931 2.25747 25.2503 1.16973 22.1949C0.00849712 19.0243 -0.138495 15.4933 0.787554 12.2505C1.68421 9.07987 3.5363 6.24068 6.04987 4.06444C8.60753 1.8738 11.7679 0.475817 15.1193 0.115513C18.5442 -0.288027 22.0279 0.374932 25.0412 1.96027C27.9664 3.50237 30.4064 5.85155 32.0233 8.73398C33.7578 11.8326 34.3899 15.4068 33.9342 18.909C33.4051 23.0741 31.3031 26.8645 27.9223 29.4442C27.1726 30.0351 26.3789 30.5828 25.5557 31.0728C27.2167 29.156 28.3779 26.8789 28.716 24.3279C28.7895 23.7082 28.8336 23.0741 28.7895 22.4543C28.7454 21.8346 28.5984 21.2005 28.7895 20.5808C29.2011 19.1828 29.4657 17.7416 29.4216 16.2715C29.304 12.0776 26.9374 8.12867 23.1891 6.06773C19.3967 3.96356 14.5754 4.03562 10.8271 6.21185C7.13761 8.34485 4.84453 12.3658 4.81513 16.5598C4.81513 20.7537 7.03471 24.7459 10.7095 26.9077C14.3108 29.0407 20.1464 29.7757 22.366 25.3944C22.4395 25.2503 22.513 25.1062 22.5865 24.9188" fill="#0099FF"/>
</svg>
