<svg xmlns="http://www.w3.org/2000/svg" width="372.878" height="151.316" viewBox="0 0 372.878 151.316"><defs><style>.a{fill:#00D2D9;}.b{fill:#4A5053;}.c{fill:white}</style></defs><g transform="translate(-2476 -1637)"><g transform="translate(-2400 -397)"><circle class="a" cx="14.403" cy="14.403" r="14.403" transform="translate(5139.509 2088.476)"/><circle class="a" cx="14.403" cy="14.403" r="14.403" transform="translate(5220.072 2034)"/><circle class="a" cx="14.403" cy="14.403" r="14.403" transform="translate(5220.072 2154.798)"/><rect class="a" width="81.827" height="5.603" transform="matrix(0.83, -0.558, 0.558, 0.83, 5155.272, 2098.228)"/><rect class="a" width="81.827" height="5.603" transform="matrix(0.772, 0.635, -0.635, 0.772, 5162.326, 2107.655)"/></g><rect class="a" width="122.749" height="150.343" rx="12" transform="translate(2476 1637.973)"/><rect class="c" width="93.251" height="5.665" transform="translate(2491.225 1657.663)"/><rect class="c" width="93.251" height="5.665" transform="translate(2491.225 1693.663)"/><rect class="c" width="93.251" height="5.665" transform="translate(2491.225 1729.663)"/><rect class="c" width="93.251" height="5.665" transform="translate(2491.225 1765.663)"/><g transform="translate(-2400 -397)"><path class="b" d="M1405.55,1868.241c-27.7,27.819-16.722,78.933-16.722,78.933h-15.1c-14.842-46.929,16.893-88.518,16.893-88.518l-23.479-15.076,73.719-46.749-11.83,86.489Z" transform="translate(3670.375 238.142)"/></g></g></svg>
