<svg width="60" height="94" viewBox="0 0 60 94" fill="none" xmlns="http://www.w3.org/2000/svg">
<path d="M25.6932 1C25.0027 1 24.5005 1.56495 24.5005 2.25544V11.6085C24.5005 12.2989 25.0027 12.8011 25.6932 12.8639C26.3836 12.8639 26.8858 12.3617 26.9486 11.6712V2.25544C26.9486 1.56495 26.4464 1 25.6932 1ZM25.6932 1C25.7559 1 25.7559 1 25.6932 1Z" stroke="#00D2D9" stroke-miterlimit="10"/>
<path fill-rule="evenodd" clip-rule="evenodd" d="M10.3761 5.83337C9.68559 5.83337 9.18341 6.39832 9.18341 7.08881C9.18341 7.40267 9.30895 7.71653 9.56004 7.96762L16.2139 14.4959C16.716 14.9981 17.4693 14.9981 17.9087 14.4959C18.4109 13.9937 18.4109 13.2405 17.9087 12.8011L11.1921 6.21001C11.0038 5.95892 10.6899 5.83337 10.3761 5.83337Z" stroke="#00D2D9" stroke-miterlimit="10"/>
<path fill-rule="evenodd" clip-rule="evenodd" d="M40.9465 5.83337C40.6327 5.83337 40.3188 5.95892 40.1305 6.21001L33.4139 12.7383C32.9117 13.1777 32.9117 13.9937 33.3511 14.4331C33.7905 14.9353 34.6066 14.9353 35.046 14.4959L41.7626 7.96762C42.2647 7.52822 42.2647 6.71218 41.8253 6.27278C41.637 5.95892 41.2604 5.83337 40.9465 5.83337Z" stroke="#00D2D9" stroke-miterlimit="10"/>
<path fill-rule="evenodd" clip-rule="evenodd" d="M25.8183 15.6259C22.617 15.6259 19.9805 18.074 19.9805 21.2126L20.0433 53.6029L9.87426 43.8732C8.86991 42.9316 7.5517 42.4295 6.29626 42.4295C5.04082 42.4295 3.72261 42.9316 2.78103 43.936L2.21608 44.5009C1.27451 45.5053 0.897874 46.8235 1.02342 48.0162C1.14896 49.2716 1.65114 50.4015 2.46717 51.4058L19.4784 72.9994C19.4784 72.9994 19.5411 73.0622 19.6039 73.1877C19.6667 73.3132 19.7922 73.5016 19.7294 73.4388C19.7294 73.376 19.7922 73.6899 19.7922 73.8782C19.7922 74.0665 19.7922 74.192 19.855 74.2548V77.9584H16.9675C16.0259 77.9584 15.2726 78.5861 14.8332 79.2766C14.3938 79.9671 14.2055 80.7831 14.2055 81.7247V88.9435C14.2055 89.8223 14.3938 90.7011 14.8332 91.3916C15.2726 92.082 16.0259 92.7098 16.9675 92.7098H56.451C57.3926 92.7098 58.1459 92.082 58.5853 91.3916C59.0247 90.7011 59.213 89.885 59.213 88.9435V81.7247C59.213 80.8459 59.0247 79.9671 58.5853 79.2766C58.1459 78.5861 57.3926 77.9584 56.451 77.9584H53.8146C53.7518 76.954 53.6891 74.3804 53.8774 73.1249C54.0657 72.1834 54.1912 72.0578 54.5679 71.3673C54.9445 70.6768 55.4467 69.5469 56.0744 67.2244C56.8277 64.5252 56.8904 59.1896 56.8904 54.1678C56.8904 49.2088 56.7649 44.752 56.7649 44.752C56.9532 41.6762 54.3168 39.1653 51.3037 39.1653C49.9227 39.1653 48.6673 39.6675 47.7257 40.5463C46.8469 38.6631 45.0265 37.3449 42.8923 37.3449C41.5113 37.3449 40.3186 37.8471 39.3771 38.7259C38.4983 36.8428 36.6779 35.5246 34.5436 35.5246C33.4765 35.5246 32.4094 35.9012 31.5933 36.4661V21.2126C31.6561 18.074 28.9569 15.6259 25.8183 15.6259Z" stroke="#00D2D9" stroke-miterlimit="10"/>
<path fill-rule="evenodd" clip-rule="evenodd" d="M25.8185 18.0739C27.7644 18.0739 29.2082 19.5176 29.2082 21.2124V47.6394C29.2082 48.3299 29.7103 48.8321 30.4008 48.8949C31.0913 48.8949 31.5935 48.3927 31.6563 47.7022V42.8688V42.806V41.3622C31.6563 39.4791 32.9745 38.0981 34.6065 38.0981C36.2386 38.0981 37.5568 39.4791 37.5568 41.3622V42.9315V42.9943C37.5568 43.0571 37.5568 43.0571 37.5568 43.1198V49.397C37.5568 50.0875 38.059 50.5897 38.7495 50.6525C39.44 50.6525 39.9422 50.1503 40.0049 49.4598V43.1826C40.0049 41.2995 41.3231 39.9185 42.9552 39.9185C44.5873 39.9185 45.9055 41.2995 45.9055 43.1826V44.8147V44.8775C45.9055 44.8775 45.9055 44.8775 45.9055 44.9402V51.1547C45.9055 51.8451 46.4077 52.3473 47.0982 52.4101C47.7886 52.4101 48.2908 51.9079 48.3536 51.2174V45.003C48.3536 43.1826 49.6718 41.8016 51.3666 41.8016C52.9987 41.8016 54.5052 43.1826 54.3797 44.8775C54.3797 44.9402 54.3797 45.003 54.3797 45.003C54.3797 45.003 54.5052 49.397 54.5052 54.356C54.5052 59.315 54.2541 64.9645 53.752 66.7849C53.187 68.9819 52.7476 69.7979 52.4338 70.4256C52.1199 71.0534 51.7433 71.6811 51.555 72.8737C51.2411 74.5058 51.3039 76.8284 51.3666 78.1466H22.2405V74.3803V74.3175C22.2405 74.3175 22.2405 74.0664 22.1777 73.8153C22.1149 73.5015 22.1149 73.1876 21.9894 72.811C21.8638 72.4343 21.7383 72.246 21.6128 72.0577C21.4872 71.8694 21.3617 71.7438 21.3617 71.7438L4.2877 49.962C3.72275 49.2715 3.40889 48.5182 3.34612 47.8277C3.28335 47.2 3.47166 46.6351 3.91107 46.1329L4.47601 45.568C5.41759 44.5636 7.04966 44.5636 8.11679 45.6307L19.0391 55.9881C19.1019 56.1136 19.1646 56.1764 19.2274 56.302C19.4785 56.6158 19.9807 57.0552 20.7967 57.0552C21.2361 57.0552 21.55 56.8041 21.7383 56.6158C21.9266 56.4275 22.0522 56.2392 22.1149 56.0509C22.2405 55.737 22.3032 55.4231 22.366 55.1721C22.4288 54.6699 22.4288 54.1677 22.4288 54.1677L22.3032 21.2124C22.366 19.4548 23.8725 18.0739 25.8185 18.0739Z" stroke="#00D2D9" stroke-miterlimit="10"/>
<path fill-rule="evenodd" clip-rule="evenodd" d="M6.42191 21.9032C5.73142 21.9032 5.22925 22.4054 5.16647 23.0959C5.16647 23.7864 5.66865 24.2885 6.35914 24.3513H15.7122C16.4026 24.3513 16.9048 23.8491 16.9676 23.1586C16.9676 22.4681 16.4654 21.966 15.7749 21.9032H6.42191Z" stroke="#00D2D9" stroke-miterlimit="10"/>
<path fill-rule="evenodd" clip-rule="evenodd" d="M35.6733 21.9032C34.9828 21.9032 34.4806 22.4054 34.4179 23.0959C34.4179 23.7864 34.92 24.2885 35.6105 24.3513H44.9635C45.654 24.3513 46.1562 23.8491 46.219 23.1586C46.219 22.4681 45.7168 21.966 45.0263 21.9032H35.6733Z" stroke="#00D2D9" stroke-miterlimit="10"/>
<path fill-rule="evenodd" clip-rule="evenodd" d="M16.9678 80.4065H56.4513C56.3885 80.4065 56.3885 80.3437 56.5141 80.5948C56.6396 80.8459 56.7652 81.2853 56.7652 81.7875V89.0063C56.7652 89.5084 56.6396 89.9478 56.5141 90.1989C56.4513 90.3245 56.3885 90.3245 56.3885 90.3872H17.0305C17.0305 90.3872 16.9678 90.3245 16.905 90.1989C16.7794 89.9478 16.6539 89.5084 16.6539 89.0063V81.7875C16.6539 81.2853 16.7794 80.8459 16.905 80.5948C17.0305 80.3437 17.0933 80.4065 16.9678 80.4065Z" fill="#00D2D9"/>
</svg>
