<svg xmlns="http://www.w3.org/2000/svg" width="160.044" height="208.234" viewBox="0 0 160.044 208.234"><defs><style>.a{fill:#7fd3f8;}.b{fill:#167394;}</style></defs><g transform="translate(-1696.176 -1801.863)"><path class="a" d="M1841.635,1938.993c0,16.377-28.842,17.845-64.42,17.845s-64.42,1.546-64.42-14.833,28.84-44.478,64.42-44.478S1841.635,1922.614,1841.635,1938.993Z" transform="translate(9.246 53.221)"/><path class="b" d="M1807,1893.854c0,14.088-24.808,15.35-55.41,15.35s-55.412,1.329-55.412-12.759,24.809-38.26,55.412-38.26S1807,1879.765,1807,1893.854Z" transform="translate(0 31.334)"/><path class="a" d="M1829.779,1854.878c0,10.941-19.269,11.923-43.037,11.923s-43.039,1.032-43.039-9.911,19.269-29.715,43.039-29.715S1829.779,1843.935,1829.779,1854.878Z" transform="translate(26.441 14.082)"/><path class="b" d="M1778.865,1820.881c0,7.513-13.229,8.185-29.545,8.185s-29.546.708-29.546-6.8,13.227-20.4,29.546-20.4S1778.865,1813.369,1778.865,1820.881Z" transform="translate(13.129)"/></g></svg>