<svg xmlns="http://www.w3.org/2000/svg" width="400.698" height="129.863" viewBox="0 0 400.698 129.863"><defs><style>.a{fill:#91ddff;}.b{fill:#30373f;}</style></defs><g transform="translate(-649.975 -463.842)"><path class="a" d="M8768.76,1666.833a2.93,2.93,0,0,0,1.237,1.67,4.973,4.973,0,0,0,3.333.8,12.459,12.459,0,0,0,6.9-3.276,10.018,10.018,0,0,0,1.23-1.285c2.688-3.416,3.762-7.819,4.336-12.127,1.7-12.771-.826-26.758-9.718-36.082-5.792-6.074-13.793-9.68-21.987-11.5-15.764-3.5-33.453-.313-45.405,10.545-9.819,8.92-15.006,22.266-15.476,35.523-.448,12.673,3.4,25.777,12.033,35.068,6.577,7.081,15.594,11.634,25.017,13.783a61.34,61.34,0,0,0,53.349-13.612q5.481,6.09,10.965,12.181c-13.187,13.146-32.375,18.94-50.994,19.174-14.523.182-29.385-2.88-41.571-10.781-14.209-9.211-23.937-24.726-26.991-41.381-3.924-21.391,3.355-44.648,19.18-59.567,16.99-16.021,42.556-21.521,65.272-16.108,12.011,2.862,23.556,8.726,31.692,18.013,9.249,10.556,13.49,24.967,13.041,38.994-.291,9.131-2.574,18.42-7.975,25.788a35.169,35.169,0,0,1-28.949,14.113,21.644,21.644,0,0,1-11.45-3.244c-3.336-2.243-5.8-6.014-5.776-10.034a24.5,24.5,0,0,1-17.008,9.736,19.89,19.89,0,0,1-17.654-7.771c-2.571-3.588-3.719-8-4.344-12.374-1.921-13.4.594-27.076-.527-40.569l19.564,0q-.023,15.348-.049,30.7c-.006,3.6.068,7.471,2.167,10.4a9.011,9.011,0,0,0,12.039,2.047c4.5-3.158,4.972-9.521,5-15.013q.075-14.067.009-28.134l19.426,0c-.01,0-.06,28.982-.064,31.617q-.009,3.611-.015,7.222,0,1.851,0,3.7A6.706,6.706,0,0,0,8768.76,1666.833Z" transform="translate(-8024 -1124)"/><g transform="translate(790.472 466.628)"><path class="b" d="M8946.537,1706.771V1673.99a26.585,26.585,0,0,0-.422-4.821,13.336,13.336,0,0,0-1.386-4.037,7.22,7.22,0,0,0-2.712-2.772,8.607,8.607,0,0,0-4.4-1.025,10.015,10.015,0,0,0-4.64,1.025,9.391,9.391,0,0,0-3.313,2.833,12.789,12.789,0,0,0-1.989,4.158,17.875,17.875,0,0,0-.663,4.881v32.54h-19.886v-60.019h19.163v8.316h.241a19.8,19.8,0,0,1,2.832-3.8,17,17,0,0,1,4.1-3.194,25.567,25.567,0,0,1,5.122-2.169,20.2,20.2,0,0,1,5.905-.844,22.183,22.183,0,0,1,10.244,2.17,19.594,19.594,0,0,1,6.81,5.6,22.1,22.1,0,0,1,3.736,7.893,35.826,35.826,0,0,1,1.145,8.919v37.12Z" transform="translate(-8907.127 -1613.369)"/><path class="b" d="M9062.48,1609.339a16.817,16.817,0,0,0-2.531-.6,17.635,17.635,0,0,0-2.893-.242,8.951,8.951,0,0,0-4.459.965,7.128,7.128,0,0,0-2.651,2.591,10.824,10.824,0,0,0-1.326,3.675,23.548,23.548,0,0,0-.361,4.1v6.026h13.378v14.7h-13.378v45.316h-19.766v-45.316h-10.967v-14.7h10.967v-5.785a44.834,44.834,0,0,1,1.206-10.546,22.8,22.8,0,0,1,4.157-8.8,20.321,20.321,0,0,1,7.954-6.026,30.674,30.674,0,0,1,12.475-2.229,41.461,41.461,0,0,1,5,.3,28.266,28.266,0,0,1,4.519.9Z" transform="translate(-8951 -1592.466)"/><path class="b" d="M9142.259,1707.885v-8.316h-.241a16.978,16.978,0,0,1-2.832,3.856,17.849,17.849,0,0,1-4.1,3.134,25.067,25.067,0,0,1-5.182,2.17,20.842,20.842,0,0,1-5.966.843,21.818,21.818,0,0,1-10.185-2.169,19.737,19.737,0,0,1-6.749-5.6,22.089,22.089,0,0,1-3.735-7.834,35.434,35.434,0,0,1-1.146-8.979v-37.12h19.886v32.54a30.985,30.985,0,0,0,.361,4.821,12.012,12.012,0,0,0,1.387,4.1,7.639,7.639,0,0,0,2.711,2.832,8.513,8.513,0,0,0,4.459,1.024,9.044,9.044,0,0,0,7.895-3.856,15.306,15.306,0,0,0,2.712-9.039v-32.42H9161.3v60.019Z" transform="translate(-8984.62 -1614.482)"/><path class="b" d="M9264.854,1663.023a15.534,15.534,0,0,0-2.593-.483q-1.264-.118-2.47-.12a14.125,14.125,0,0,0-6.688,1.442,13.634,13.634,0,0,0-4.339,3.486,13.2,13.2,0,0,0-2.351,4.448,14.9,14.9,0,0,0-.724,4.2v30.77h-19.765v-59.948h19.043v8.677h.24a19.559,19.559,0,0,1,6.508-7.523,16.76,16.76,0,0,1,9.763-2.914,22.922,22.922,0,0,1,2.351.121,9.135,9.135,0,0,1,1.867.362Z" transform="translate(-9033.818 -1613.369)"/><path class="b" d="M9305.525,1687.378v-91.113h20.127v91.113Z" transform="translate(-9065.451 -1593.976)"/></g></g></svg>