<svg id="Layer_1" data-name="Layer 1" xmlns="http://www.w3.org/2000/svg" viewBox="0 0 157.42 158.14"><defs><style>.cls-1{fill:#00d2d9;}</style></defs><path class="cls-1" d="M9.56,108.1c-16-42.18,11.78-90.07,56.06-97v9C47.08,24.47,32.55,34.6,23,51.19c-9.47,16.44-11,34-5.54,52.33Z"/><path class="cls-1" d="M92,11c46.68,8.22,71.24,58,55.75,96.62-.27,0-.58.09-.78,0-6.9-3.7-6.9-3.7-5.27-11.28C148.5,64.61,129.63,32.17,98.44,22,90.75,19.5,90.75,19.5,92,11Z"/><path class="cls-1" d="M134.44,131c-30.08,35.75-84.8,33.28-111.49,0,.13-.24.2-.57.4-.7,6.59-4.29,6.6-4.29,12.29.86a64.35,64.35,0,0,0,86.17-.11C127.72,125.63,127.72,125.63,134.44,131Z"/><path class="cls-1" d="M7.23,130.53a5.68,5.68,0,0,1-1.72-.25,5.71,5.71,0,0,1-3.46-3.2c-2.66-5.54,2.16-8.3,4-9.34L21.28,109l5.33-3.07-.21-.38c-.61-1.14-1.18-2.21-1.71-3.33-.94-2-1-3.58-.22-4.76s2.22-1.66,4.28-1.53c5.94.38,11.76.9,17.69,1.44,2.09.19,3.51.91,4.21,2.15s.57,2.89-.39,4.86-2,4.22-3,6.34c-1.24,2.67-2.53,5.43-3.88,8.11-.37.72-2.27,4.28-4.4,3.89-1.61-.3-2.82-1.62-3.89-2.79l-.49-.54a11.35,11.35,0,0,1-1.54-2.22.08.08,0,0,1,0,0l-5.4,3.09c-5.14,3-10.17,5.85-15.22,8.71A10.67,10.67,0,0,1,7.23,130.53Zm20.9-31.69c-.84,0-1.17.18-1.22.25s-.12.64.44,1.84c.5,1,1.06,2.09,1.65,3.19l.89,1.66.65,1.26-7.79,4.49c-5.15,3-10.2,5.87-15.26,8.77-3.22,1.85-3.89,3.18-2.78,5.5a2.87,2.87,0,0,0,1.68,1.66c1.09.35,2.67,0,4.56-1.12,5-2.87,10.07-5.76,15.21-8.71L34,113.12l.75,1.19c.31.48.58.93.82,1.34a9.69,9.69,0,0,0,1.13,1.68l.53.58a9,9,0,0,0,1.92,1.76,9.66,9.66,0,0,0,1.55-2.19c1.33-2.65,2.61-5.39,3.85-8,1-2.13,2-4.27,3-6.39.57-1.16.61-1.85.46-2.12s-.71-.55-1.9-.66c-5.91-.53-11.7-1-17.61-1.42Z"/><path class="cls-1" d="M38.52,90.21l-8.6-1C25.35,70,40,44.61,59.52,37.92L64.47,45C44.47,54.78,36.83,70.31,38.52,90.21Z"/><path class="cls-1" d="M127.51,89.25l-8.93.93C120.4,69.25,112,54.32,92.79,45.27c.85-1.34,1.62-2.59,2.43-3.8s1.61-2.3,2.39-3.4C113.46,42.78,131.35,64.55,127.51,89.25Z"/><path class="cls-1" d="M108.34,122.59c-15,13.55-44.59,13.52-59.45,0l3.71-7.82c21.48,12.21,29.93,12.22,52.05,0Z"/><path class="cls-1" d="M150,126.69a11.27,11.27,0,0,1-4.7-1.32c-5.29-2.53-10.59-5.06-16-7.63l-5.42-2.58c-.07.12-.13.24-.19.36-.59,1.16-1.15,2.25-1.77,3.32-1.1,1.9-2.38,2.87-3.8,2.88h0c-1.37,0-2.6-.89-3.66-2.65-3.08-5.13-6.07-10.41-8.87-15.37-1-1.83-1.24-3.41-.62-4.68s2-2.12,4.22-2.45,4.62-.74,6.92-1.13C119,95,122,94.45,125,94c.8-.11,4.82-.56,5.7,1.41.67,1.5.27,3.25-.09,4.79-.06.24-.11.48-.16.71a12.06,12.06,0,0,1-.95,2.53l0,0,5.49,2.63c5.39,2.57,10.67,5.09,15.93,7.63,2.76,1.33,4.46,3,5,4.9a5.68,5.68,0,0,1-.67,4.67C153.76,125.93,151.82,126.69,150,126.69Zm-27.43-15.42,8,3.8c5.42,2.58,10.72,5.1,16,7.64,3.35,1.6,4.84,1.39,6.11-.84a2.87,2.87,0,0,0,.42-2.32c-.34-1.09-1.56-2.17-3.52-3.12-5.26-2.54-10.54-5.06-15.93-7.63L125.59,105l.55-1.3c.22-.53.44-1,.64-1.43a9.06,9.06,0,0,0,.74-1.89c.06-.25.11-.51.17-.77a8.7,8.7,0,0,0,.37-2.57,9,9,0,0,0-2.69,0c-2.94.4-5.92.91-8.81,1.4-2.32.39-4.64.78-7,1.13-1.28.19-1.88.55-2,.82s0,.9.54,1.94c2.79,4.94,5.77,10.2,8.83,15.3.6,1,1,1.22,1.14,1.22h0c.11,0,.6-.26,1.26-1.4s1.13-2.07,1.7-3.19l.86-1.66Z"/><path class="cls-1" d="M77.68,57.18h-.06c-1.44,0-2.79-1-4-2.78s-2.63-3.88-4-5.8c-1.68-2.42-3.41-4.93-5-7.45-.44-.68-2.55-4.13-1.14-5.76,1.07-1.24,2.83-1.62,4.38-2l.71-.15a11.17,11.17,0,0,1,2.69-.21h0l0-6.12c0-6,.09-11.8.17-17.64,0-3.06.81-5.3,2.29-6.65A5.73,5.73,0,0,1,78.33,1.3c6.12.51,6.07,6.06,6.06,8.15,0,5.88-.09,11.76-.13,17.77l0,6h.4c1.3,0,2.53.1,3.77.21,2.18.18,3.6.93,4.22,2.21s.31,2.75-.84,4.47C88.46,45,85.07,49.77,81.6,54.64Q79.79,57.18,77.68,57.18ZM66,37.09a9.31,9.31,0,0,0,1.12,2.45c1.61,2.49,3.33,5,5,7.38,1.34,1.94,2.68,3.88,4,5.84.71,1.08,1.29,1.47,1.59,1.47h0c.28,0,.83-.34,1.52-1.31,3.45-4.84,6.83-9.6,10.12-14.48.65-1,.67-1.45.62-1.55s-.49-.43-1.81-.54c-1.17-.11-2.36-.15-3.62-.2l-1.85-.07L81.25,36l0-8.82c0-6,.08-11.89.13-17.78,0-3.71-.77-5-3.34-5.18a2.85,2.85,0,0,0-2.28.62c-.84.76-1.31,2.32-1.33,4.5C74.4,15.19,74.36,21,74.31,27l-.07,9L72.83,36c-.57,0-1.09,0-1.56,0a9.89,9.89,0,0,0-2,.13l-.77.17A9.39,9.39,0,0,0,66,37.09Z"/><rect class="cls-1" x="53.93" y="60.8" width="46.72" height="46.72" rx="5.67"/></svg>