<svg id="Layer_1" data-name="Layer 1" xmlns="http://www.w3.org/2000/svg" viewBox="0 0 159.15 158.66"><defs><style>.cls-1{fill:#00d2d9;}.cls-2{fill:#fff;}</style></defs><path class="cls-1" d="M143.55,143.58H15.27V15.29H143.55Zm-125.31-3H140.57V18.27H18.24Z"/><rect class="cls-2" x="2.08" y="2.07" width="29.95" height="29.95" rx="5.67"/><path class="cls-1" d="M26.4,33.52H7.7A7.13,7.13,0,0,1,.59,26.4V7.7A7.13,7.13,0,0,1,7.7.58H26.4A7.14,7.14,0,0,1,33.52,7.7V26.4A7.14,7.14,0,0,1,26.4,33.52ZM7.7,3.56A4.15,4.15,0,0,0,3.56,7.7V26.4A4.15,4.15,0,0,0,7.7,30.54H26.4a4.15,4.15,0,0,0,4.14-4.14V7.7A4.15,4.15,0,0,0,26.4,3.56Z"/><rect class="cls-2" x="2.08" y="64.8" width="29.95" height="29.95" rx="5.67"/><path class="cls-1" d="M26.4,96.24H7.7A7.12,7.12,0,0,1,.59,89.12V70.43A7.12,7.12,0,0,1,7.7,63.31H26.4a7.13,7.13,0,0,1,7.12,7.12V89.12A7.13,7.13,0,0,1,26.4,96.24ZM7.7,66.29a4.14,4.14,0,0,0-4.14,4.14V89.12A4.14,4.14,0,0,0,7.7,93.26H26.4a4.14,4.14,0,0,0,4.14-4.14V70.43a4.14,4.14,0,0,0-4.14-4.14Z"/><rect class="cls-2" x="2.08" y="126.63" width="29.95" height="29.95" rx="5.67"/><path class="cls-1" d="M26.4,158.07H7.7A7.12,7.12,0,0,1,.59,151v-18.7a7.13,7.13,0,0,1,7.11-7.12H26.4a7.14,7.14,0,0,1,7.12,7.12V151A7.13,7.13,0,0,1,26.4,158.07ZM7.7,128.12a4.15,4.15,0,0,0-4.14,4.14V151A4.15,4.15,0,0,0,7.7,155.1H26.4A4.15,4.15,0,0,0,30.54,151v-18.7a4.15,4.15,0,0,0-4.14-4.14Z"/><rect class="cls-2" x="65.32" y="2.07" width="29.95" height="29.95" rx="5.67"/><path class="cls-1" d="M89.64,33.52H71a7.13,7.13,0,0,1-7.12-7.12V7.7A7.13,7.13,0,0,1,71,.58H89.64A7.13,7.13,0,0,1,96.76,7.7V26.4A7.13,7.13,0,0,1,89.64,33.52ZM71,3.56A4.15,4.15,0,0,0,66.81,7.7V26.4A4.15,4.15,0,0,0,71,30.54H89.64a4.14,4.14,0,0,0,4.14-4.14V7.7a4.14,4.14,0,0,0-4.14-4.14Z"/><rect class="cls-2" x="65.32" y="126.63" width="29.95" height="29.95" rx="5.67"/><path class="cls-1" d="M89.64,158.07H71A7.12,7.12,0,0,1,63.83,151v-18.7A7.13,7.13,0,0,1,71,125.14H89.64a7.13,7.13,0,0,1,7.12,7.12V151A7.12,7.12,0,0,1,89.64,158.07ZM71,128.12a4.15,4.15,0,0,0-4.14,4.14V151A4.15,4.15,0,0,0,71,155.1H89.64A4.14,4.14,0,0,0,93.78,151v-18.7a4.14,4.14,0,0,0-4.14-4.14Z"/><rect class="cls-2" x="127.12" y="2.07" width="29.95" height="29.95" rx="5.67"/><path class="cls-1" d="M151.44,33.52H132.75a7.13,7.13,0,0,1-7.12-7.12V7.7A7.13,7.13,0,0,1,132.75.58h18.69a7.13,7.13,0,0,1,7.12,7.12V26.4A7.13,7.13,0,0,1,151.44,33.52Zm-18.69-30a4.14,4.14,0,0,0-4.14,4.14V26.4a4.14,4.14,0,0,0,4.14,4.14h18.69a4.15,4.15,0,0,0,4.14-4.14V7.7a4.15,4.15,0,0,0-4.14-4.14Z"/><rect class="cls-2" x="127.12" y="64.8" width="29.95" height="29.95" rx="5.67"/><path class="cls-1" d="M151.44,96.24H132.75a7.12,7.12,0,0,1-7.12-7.12V70.43a7.12,7.12,0,0,1,7.12-7.12h18.69a7.12,7.12,0,0,1,7.12,7.12V89.12A7.12,7.12,0,0,1,151.44,96.24ZM132.75,66.29a4.14,4.14,0,0,0-4.14,4.14V89.12a4.14,4.14,0,0,0,4.14,4.14h18.69a4.14,4.14,0,0,0,4.14-4.14V70.43a4.14,4.14,0,0,0-4.14-4.14Z"/><rect class="cls-2" x="127.12" y="126.63" width="29.95" height="29.95" rx="5.67"/><path class="cls-1" d="M151.44,158.07H132.75a7.12,7.12,0,0,1-7.12-7.11v-18.7a7.13,7.13,0,0,1,7.12-7.12h18.69a7.13,7.13,0,0,1,7.12,7.12V151A7.12,7.12,0,0,1,151.44,158.07Zm-18.69-29.95a4.14,4.14,0,0,0-4.14,4.14V151a4.14,4.14,0,0,0,4.14,4.14h18.69a4.15,4.15,0,0,0,4.14-4.14v-18.7a4.15,4.15,0,0,0-4.14-4.14Z"/><path class="cls-1" d="M108.42,88a30,30,0,0,1-2.34,5.62l6,9-9.25,9.24-9-6a30,30,0,0,1-5.62,2.34l-2.11,10.73H73l-2.11-10.73a30.69,30.69,0,0,1-5.62-2.33l-9,6-9.25-9.24,6-9A29.26,29.26,0,0,1,50.73,88L40,85.87V72.78l10.74-2.11a29.26,29.26,0,0,1,2.33-5.61l-6-9,9.25-9.25,9,6a30,30,0,0,1,5.62-2.34L73,39.75H86.12l2.11,10.73a30,30,0,0,1,5.62,2.34l9-6,9.25,9.25-6,9a30.59,30.59,0,0,1,2.33,5.61l10.73,2.12V85.88ZM79.57,64.53a14.8,14.8,0,1,0,14.8,14.8A14.8,14.8,0,0,0,79.57,64.53Z"/></svg>