<svg id="Layer_1" data-name="Layer 1" xmlns="http://www.w3.org/2000/svg" viewBox="0 0 160.87 148.21"><defs><style>.cls-1{fill:#fff;}.cls-2{fill:#00d2d9;}</style></defs><path class="cls-1" d="M66.71,12.52,64.61,2.29a67.95,67.95,0,0,0-50,43l-3.34-4.88L2.65,46.3l9.74,14.27a5.25,5.25,0,0,0,6.18,1.93l16.35-6.27-3.73-9.74L24.35,49.1A57.85,57.85,0,0,1,66.71,12.52Z"/><path class="cls-2" d="M16.7,64.33a6.68,6.68,0,0,1-5.54-2.93L.58,45.91l11.08-7.56,2.59,3.79A69.42,69.42,0,0,1,64.32.83L65.77.54l2.69,13.14L67,14A56.38,56.38,0,0,0,27,46.49l5-1.93,4.8,12.53L19.1,63.89A6.8,6.8,0,0,1,16.7,64.33Zm-12-17.64,8.9,13A3.81,3.81,0,0,0,18,61.11l15-5.73-2.67-7-8.5,3.26L23,48.59A59.4,59.4,0,0,1,65,11.38L63.46,4.07A66.39,66.39,0,0,0,16,45.82l-1,2.71-4.13-6.05Z"/><path class="cls-2" d="M152.1,105,144,94.66l-12.14,5.64-4.4-9.46,15.87-7.39a5.22,5.22,0,0,1,6.3,1.5L160.29,98.5Z"/><path class="cls-2" d="M97.44,143.7l-2.06-10.23A57.72,57.72,0,0,0,140.49,87.3l10.28,1.82A67.89,67.89,0,0,1,97.44,143.7Z"/><path class="cls-2" d="M76,112.75a28.73,28.73,0,0,1-1.5,5.78l7.06,7.92-7.73,10.26-9.55-4.6a29,29,0,0,1-5.14,3l-.59,10.73-12.73,1.8-3.53-10.15a28.91,28.91,0,0,1-5.78-1.5l-7.92,7.06-10.26-7.73,4.6-9.56a29.62,29.62,0,0,1-3.05-5.14l-10.72-.59-1.8-12.73,10.15-3.53A29.6,29.6,0,0,1,19,98l-7-7.91,7.73-10.27,9.55,4.6a29.28,29.28,0,0,1,5.15-3L35,70.68l12.73-1.79L51.21,79A28.91,28.91,0,0,1,57,80.54l7.91-7.06,10.26,7.73-4.59,9.55a28.68,28.68,0,0,1,3,5.15l10.73.58,1.8,12.74ZM44.71,93.89a14.54,14.54,0,1,0,16.42,12.36A14.54,14.54,0,0,0,44.71,93.89Z"/><path class="cls-1" d="M136,44.89a26.78,26.78,0,0,1-1,5.33l6.9,6.72-6.34,9.79-9-3.56a26.87,26.87,0,0,1-4.46,3.09l.15,9.75-11.41,2.44-3.84-9a26.88,26.88,0,0,1-5.34-1L95,75.4l-9.79-6.34,3.55-9a26.81,26.81,0,0,1-3.08-4.46L76,55.8,73.52,44.38l9-3.84a26.88,26.88,0,0,1,1-5.34l-6.89-6.71,6.34-9.79,8.95,3.54a26.76,26.76,0,0,1,4.46-3.07l-.16-9.76L107.6,7l3.84,9a26.88,26.88,0,0,1,5.34,1l6.71-6.9,9.79,6.34-3.54,9a27.42,27.42,0,0,1,3.08,4.46l9.75-.15L145,41.05ZM106.51,29.8A13.2,13.2,0,1,0,122.18,40,13.21,13.21,0,0,0,106.51,29.8Z"/><path class="cls-2" d="M110.05,80.17l-4-9.29a26.74,26.74,0,0,1-3.86-.71l-6.95,7.14L83.42,69.64l3.67-9.27a28.93,28.93,0,0,1-2.23-3.23l-10.1.17-3-13.82,9.29-4a28,28,0,0,1,.71-3.85l-7.14-7,7.67-11.84,9.27,3.68a27.65,27.65,0,0,1,3.23-2.23l-.17-10.1,13.81-3,4,9.28a27.78,27.78,0,0,1,3.85.72l7-7.14,11.84,7.67-3.68,9.26a27.28,27.28,0,0,1,2.23,3.23l10.1-.16,2.95,13.81-9.28,4a28.2,28.2,0,0,1-.72,3.86l7.14,7-7.67,11.84-9.26-3.69a26.48,26.48,0,0,1-3.23,2.23l.16,10.11Zm-8.73-13.35.86.25a24.6,24.6,0,0,0,5,.93l.89.07,3.72,8.67,9-1.93-.15-9.42.78-.44A25.26,25.26,0,0,0,125.69,62l.69-.58L135,64.89l5-7.73-6.67-6.5.25-.86a25.21,25.21,0,0,0,.94-5l.07-.89,8.67-3.72-1.93-9-9.43.15-.43-.79a24.85,24.85,0,0,0-2.91-4.21L128,25.6,131.45,17l-7.74-5-6.49,6.66-.86-.25a25.44,25.44,0,0,0-5-.94l-.89-.07-3.72-8.67-9,1.93L97.85,20l-.79.43a24.46,24.46,0,0,0-4.21,2.91l-.69.58-8.64-3.43-5,7.74,6.66,6.49-.25.86a25.43,25.43,0,0,0-.93,5l-.08.89-8.66,3.72,1.92,9,9.43-.15.43.78a25.58,25.58,0,0,0,2.92,4.22l.58.68-3.43,8.65,7.74,5Zm7.92-9.41a14.69,14.69,0,0,1-3-29.06h0a14.69,14.69,0,0,1,6.14,28.73A14.85,14.85,0,0,1,109.24,57.41Zm-2.42-26.15h0a11.71,11.71,0,1,0,13.9,9A11.63,11.63,0,0,0,106.82,31.26Z"/></svg>