<svg id="Layer_1" data-name="Layer 1" xmlns="http://www.w3.org/2000/svg" viewBox="0 0 139.12 159.68"><defs><style>.cls-1{fill:#00d2d9;}.cls-2{fill:none;stroke:#00d2d9;stroke-miterlimit:10;stroke-width:3px;}</style></defs><path class="cls-1" d="M69.23,71.51A33.61,33.61,0,1,0,35.53,38,33.76,33.76,0,0,0,69.23,71.51Z"/><path class="cls-2" d="M98.55,73.42a3.87,3.87,0,0,0-2.85,1.14,38.18,38.18,0,0,1-52.93,0,4.23,4.23,0,0,0-2.86-1.14,40.25,40.25,0,0,0-37.13,40v18.47a24.7,24.7,0,0,0,24.75,24.75h83.21a24.7,24.7,0,0,0,24.75-24.75V113.4A39.93,39.93,0,0,0,98.55,73.42Z"/><path class="cls-1" d="M53.43,127.3a3.69,3.69,0,0,1,0,5.33,3.66,3.66,0,0,1-5.33,0l-9.71-9.71a3.67,3.67,0,0,1,0-5.33l9.71-9.71a3.69,3.69,0,0,1,5.33,0,3.91,3.91,0,0,1,0,5.52l-7,7Z"/><path class="cls-1" d="M78.94,102.55,68.28,140.44a3.67,3.67,0,0,1-3.62,2.86,2.07,2.07,0,0,1-.95-.19A3.83,3.83,0,0,1,61,138.34l10.67-37.89a3.81,3.81,0,0,1,4.76-2.66A3.85,3.85,0,0,1,78.94,102.55Z"/><path class="cls-1" d="M100.08,123.11l-9.71,9.71a3.66,3.66,0,0,1-5.33,0,3.67,3.67,0,0,1,0-5.33l7-7-7-7.24a3.77,3.77,0,0,1,5.33-5.33l9.71,9.9A3.69,3.69,0,0,1,100.08,123.11Z"/></svg>