<svg id="Layer_1" data-name="Layer 1" xmlns="http://www.w3.org/2000/svg" viewBox="0 0 155.02 162.23"><defs><style>.cls-1{fill:#fff;}.cls-2{fill:#00d2d9;}</style></defs><line class="cls-1" x1="29.79" y1="25.67" x2="63.11" y2="79.72"/><rect class="cls-2" x="44.95" y="20.94" width="3" height="63.5" transform="translate(-20.74 32.21) rotate(-31.65)"/><line class="cls-1" x1="83.85" y1="77.87" x2="102.36" y2="37.14"/><rect class="cls-2" x="70.73" y="56.01" width="44.74" height="3" transform="translate(2.22 118.47) rotate(-65.55)"/><line class="cls-1" x1="96.81" y1="108.23" x2="128.65" y2="122.68"/><rect class="cls-2" x="111.23" y="97.97" width="3" height="34.96" transform="matrix(0.41, -0.91, 0.91, 0.41, -38.98, 170.43)"/><line class="cls-1" x1="96.49" y1="89.65" x2="118.85" y2="78.1"/><rect class="cls-2" x="95.08" y="82.38" width="25.16" height="3" transform="translate(-26.49 58.78) rotate(-27.32)"/><line class="cls-1" x1="41.7" y1="72.95" x2="57.67" y2="84.74"/><rect class="cls-2" x="48.18" y="68.92" width="3" height="19.85" transform="translate(-43.25 71.97) rotate(-53.56)"/><line class="cls-1" x1="32.36" y1="133.88" x2="57.18" y2="113.48"/><rect class="cls-2" x="28.71" y="122.18" width="32.12" height="3" transform="translate(-68.34 56.55) rotate(-39.41)"/><line class="cls-1" x1="35.45" y1="12.06" x2="97.41" y2="23.59"/><rect class="cls-2" x="64.93" y="-13.68" width="3" height="63.02" transform="matrix(0.18, -0.98, 0.98, 0.18, 36.74, 79.87)"/><line class="cls-1" x1="114.22" y1="35.79" x2="127.65" y2="58.77"/><rect class="cls-2" x="119.43" y="33.97" width="3" height="26.62" transform="translate(-7.33 67.48) rotate(-30.3)"/><line class="cls-1" x1="130.44" y1="133.98" x2="34.85" y2="148.2"/><rect class="cls-2" x="34.32" y="139.59" width="96.64" height="3" transform="translate(-19.86 13.69) rotate(-8.46)"/><line class="cls-1" x1="137.42" y1="117.21" x2="138.64" y2="89.32"/><rect class="cls-2" x="124.08" y="101.77" width="27.91" height="3" transform="matrix(0.04, -1, 1, 0.04, 28.85, 236.67)"/><line class="cls-1" x1="19.82" y1="26.56" x2="17.39" y2="127.1"/><rect class="cls-2" x="-31.68" y="75.33" width="100.57" height="3" transform="translate(-58.65 93.58) rotate(-88.62)"/><line class="cls-1" x1="24.09" y1="128.02" x2="33.83" y2="76.89"/><rect class="cls-2" x="2.94" y="100.95" width="52.04" height="3" transform="translate(-77.1 111.73) rotate(-79.21)"/><line class="cls-1" x1="33.83" y1="58.24" x2="25.92" y2="26.56"/><rect class="cls-2" x="28.37" y="26.08" width="3" height="32.65" transform="translate(-9.38 8.5) rotate(-14.02)"/><rect class="cls-2" x="45.58" y="13.23" width="3" height="27.72" transform="translate(0.68 55.33) rotate(-61.24)"/><line class="cls-1" x1="75.53" y1="37.31" x2="97.76" y2="31.39"/><rect class="cls-2" x="75.14" y="32.85" width="23.01" height="3" transform="translate(-5.93 23.5) rotate(-14.94)"/><rect class="cls-2" x="67.53" y="48.8" width="3" height="28.09" transform="translate(-8.45 10.77) rotate(-8.41)"/><circle class="cls-1" cx="75.32" cy="99.25" r="22.98"/><path class="cls-2" d="M75.32,123.74A24.49,24.49,0,1,1,99.81,99.25,24.51,24.51,0,0,1,75.32,123.74Zm0-46A21.49,21.49,0,1,0,96.81,99.25,21.51,21.51,0,0,0,75.32,77.77Z"/><path class="cls-1" d="M152.15,73.24a17.06,17.06,0,1,1-17.06-17.06A17.05,17.05,0,0,1,152.15,73.24Z"/><path class="cls-2" d="M135.09,91.79a18.56,18.56,0,1,1,18.56-18.55A18.53,18.53,0,0,1,135.09,91.79Zm0-34.11a15.56,15.56,0,1,0,15.56,15.56A15.58,15.58,0,0,0,135.09,57.68Z"/><circle class="cls-2" cx="18.96" cy="143.21" r="17.58"/><circle class="cls-2" cx="136.54" cy="127.84" r="10.62"/><circle class="cls-2" cx="105.75" cy="27.81" r="12.69"/><circle class="cls-1" cx="24.56" cy="16.2" r="13.26"/><path class="cls-2" d="M24.56,31A14.77,14.77,0,1,1,39.32,16.2,14.79,14.79,0,0,1,24.56,31Zm0-26.53A11.77,11.77,0,1,0,36.32,16.2,11.78,11.78,0,0,0,24.56,4.44Z"/><circle class="cls-2" cx="35.33" cy="68.1" r="10.15"/><circle class="cls-1" cx="66.37" cy="39.02" r="9.93"/><path class="cls-2" d="M66.38,50.45A11.43,11.43,0,1,1,77.8,39,11.44,11.44,0,0,1,66.38,50.45Zm0-19.86A8.43,8.43,0,1,0,74.8,39,8.44,8.44,0,0,0,66.38,30.59Z"/></svg>