<svg id="Layer_1" data-name="Layer 1" xmlns="http://www.w3.org/2000/svg" viewBox="0 0 115.91 161.08"><defs><style>.cls-1{fill:#00d2d9;}.cls-2{fill:#fff;}</style></defs><path class="cls-1" d="M58,1.38A42.55,42.55,0,0,0,15.42,43.92V70.19a3.31,3.31,0,0,0,3.32,3.33h13A3.32,3.32,0,0,0,35,70.19h0V43.92a22.94,22.94,0,0,1,45.87,0V70.19a3.32,3.32,0,0,0,3.33,3.33h13a3.32,3.32,0,0,0,3.33-3.33V43.92A42.79,42.79,0,0,0,58,1.38Z"/><path class="cls-2" d="M18.74,66.86H97.17a16.42,16.42,0,0,1,16.28,16.27V142a16.42,16.42,0,0,1-16.28,16.28H18.74A16.42,16.42,0,0,1,2.47,142h0V83.13A16.18,16.18,0,0,1,18.74,66.86Z"/><path class="cls-1" d="M97.17,159.7H18.74A18,18,0,0,1,1,142V83.13A17.57,17.57,0,0,1,18.74,65.38H97.17a18,18,0,0,1,17.75,17.75V142A18,18,0,0,1,97.17,159.7ZM18.74,68.33a14.64,14.64,0,0,0-14.8,14.8V142a15,15,0,0,0,14.8,14.8H97.17A15,15,0,0,0,112,142V83.13a15,15,0,0,0-14.8-14.8Z"/><path class="cls-1" d="M74.23,102.74a16.28,16.28,0,1,0-32.55,0,16.23,16.23,0,0,0,9.25,14.8l-2.59,17.75a3,3,0,0,0,2.59,3.7H64.62a3.26,3.26,0,0,0,3.32-3h0v-.37l-2.59-17.75A17.56,17.56,0,0,0,74.23,102.74Z"/></svg>