<svg width="561" height="112" viewBox="0 0 561 112" fill="none" xmlns="http://www.w3.org/2000/svg">
<path d="M92.3827 72.5925C88.0617 77.432 81.8395 81.0617 76.1358 78.8148C75.2397 78.4066 74.5107 77.7036 74.0703 76.8228C73.63 75.9421 73.5049 74.937 73.7161 73.9753C73.9498 71.1877 74.3538 68.4171 74.9259 65.679L81.8395 29.3827H68.7037L63 61.7037C62.3118 65.426 60.4311 68.8233 57.642 71.3827C54.7915 74.0498 51.0006 75.4792 47.0988 75.358C41.9136 75.358 39.4939 72.9382 39.4939 68.4444C39.5403 67.1629 39.714 65.8891 40.0124 64.6419L46.7531 29.037H33.4445L26.7038 65.1604C26.3969 67.0471 26.2236 68.9531 26.1852 70.8642C26.1852 75.7037 27.3951 79.679 30.1605 82.2715C33.3006 85.031 37.393 86.4572 41.5679 86.2469C47.8561 86.5149 54.0558 84.6915 59.1976 81.0617C59.1976 81.0617 59.8889 88.3209 72.3334 89.7036C76.9461 90.1043 81.5907 89.9302 86.1605 89.1851C90.2414 88.3287 94.1161 86.6849 97.5679 84.3456C108.111 77.2592 112.951 64.4691 112.086 52.1975C111.358 41.1272 107.324 30.5303 100.506 21.7778C93.8733 13.0812 84.7807 6.57795 74.4074 3.11111C68.5764 1.05967 62.4407 0.0078399 56.2593 0H55.9136C41.0615 0.0229202 26.8268 5.94488 16.341 16.4631C5.85515 26.9814 -0.0228532 41.2343 6.67774e-05 56.0864C0.0229867 70.9385 5.94495 85.1732 16.4632 95.659C26.9814 106.145 41.2343 112.023 56.0864 112H56.4321C67.5488 112.018 78.4262 108.772 87.7161 102.667C93.4466 98.6682 98.3721 93.6254 102.235 87.8024C95.0169 92.967 86.3928 95.8015 77.5185 95.9259C75.491 95.9249 73.4673 95.7514 71.4692 95.4073C66.5664 97.0634 61.4338 97.9383 56.2593 97.9999H55.9136C50.408 98.046 44.9482 96.9956 39.8527 94.9099C34.7572 92.8242 30.1279 89.745 26.2347 85.8517C22.3414 81.9585 19.2622 77.3292 17.1765 72.2337C15.0908 67.1382 14.0404 61.6785 14.0865 56.1728C14.0591 50.6415 15.1256 45.1593 17.2245 40.0416C19.3233 34.9239 22.4132 30.2717 26.3165 26.3524C30.2197 22.4331 34.8593 19.3241 39.9683 17.2042C45.0773 15.0843 50.5551 13.9954 56.0864 14H56.4321C64.6857 13.9891 72.7563 16.4314 79.619 21.0168C86.4816 25.6021 91.8267 32.1237 94.9753 39.7531C98.0864 47.358 99.642 56.5185 97.2222 64.4691C96.1353 67.4577 94.4933 70.2139 92.3827 72.5925Z" fill="#00D2D9"/>
<path d="M158.062 82.2716H145.963L151.321 53.2346C151.768 51.3073 152 49.3364 152.012 47.358C152.012 43.2099 149.593 41.1358 144.753 41.1358C142.622 41.1646 140.52 41.6411 138.585 42.5343C136.649 43.4276 134.923 44.7177 133.518 46.321L126.951 82.0987H115.37L122.284 45.1111C122.445 44.1987 122.503 43.271 122.457 42.3457C122.394 39.3586 121.929 36.3937 121.074 33.5309L132.481 31.4568L133.518 36.9876C137.785 33.3225 143.281 31.4082 148.901 31.6296C159.099 31.6296 164.284 36.4691 164.284 45.9753C164.273 48.0108 164.041 50.0392 163.593 52.0247L158.062 82.2716Z" fill="#00D2D9"/>
<path d="M206.128 23.3332C204.116 22.3815 201.951 21.7962 199.733 21.6049C195.239 21.6049 192.128 25.2345 190.573 32.4937H201.98L200.77 41.8271H189.017L181.585 85.3826C180.849 89.9519 178.523 94.1145 175.017 97.1357C171.586 100.172 167.154 101.834 162.573 101.802L160.153 94.0246C162.378 93.4949 164.412 92.3582 166.03 90.7409C167.647 89.1236 168.784 87.0891 169.313 84.8641L177.091 41.8271H170.005L171.56 32.4937H178.474C181.585 18.8394 188.844 12.0987 200.252 12.0987C203.156 12.0014 206.03 12.7199 208.548 14.1728L206.128 23.3332Z" fill="#00D2D9"/>
<path d="M242.753 82.4444H231.173L231.864 78.8147C227.282 81.913 221.838 83.4857 216.309 83.3086C214.479 83.4179 212.646 83.1524 210.922 82.5283C209.198 81.9041 207.62 80.9346 206.284 79.6789C205.024 78.3107 204.054 76.7023 203.43 74.9501C202.806 73.1979 202.543 71.3379 202.654 69.4814C202.682 67.856 202.856 66.2364 203.173 64.6419L209.222 32.6666H220.975L214.926 64.1234C214.742 65.2677 214.627 66.4221 214.58 67.5802C214.58 71.5555 216.827 73.6296 221.321 73.6296C224.788 73.6921 228.141 72.3883 230.654 69.9999C233.026 67.6409 234.649 64.6349 235.321 61.358L240.506 32.6666H252.087L242.753 82.4444Z" fill="#00D2D9"/>
<path d="M289.592 44.4199C287.561 42.644 285.02 41.5552 282.333 41.3088C280.754 41.3804 279.206 41.7694 277.781 42.4523C276.355 43.1353 275.082 44.0984 274.037 45.2841C271.531 47.682 269.89 50.8425 269.37 54.2717L264.185 82.4446H252.605L261.938 32.6668H273.536L272.671 36.9878C276.444 33.661 281.296 31.8183 286.326 31.8026C288.645 31.9558 290.954 32.2443 293.239 32.6668L289.592 44.4199Z" fill="#00D2D9"/>
<path d="M310.506 78.469C309.635 79.8643 308.406 81.0009 306.947 81.7608C305.488 82.5206 303.852 82.876 302.209 82.79C300.976 82.8664 299.741 82.6566 298.601 82.1768C297.462 81.6971 296.449 80.9605 295.641 80.0245C294.005 78.0325 293.145 75.5151 293.222 72.9381C293.414 67.46 294.167 62.016 295.469 56.6912L304.802 12.2715H316.382L306.876 58.5924C305.752 63.2433 305.058 67.9875 304.802 72.7653C304.748 73.5281 304.859 74.2937 305.126 75.0101C305.394 75.7266 305.812 76.3772 306.353 76.918C306.894 77.4588 307.544 77.8771 308.261 78.1447C308.977 78.4122 309.743 78.5228 310.506 78.469Z" fill="#00D2D9"/>
<path d="M375.2 19.0644L370.412 28.6742C367.82 26.0932 363.649 24.8026 357.899 24.8026C355.255 24.7627 352.642 25.3722 350.288 26.5775C347.934 27.7829 345.913 29.5474 344.4 31.7162C340.808 36.7457 338.985 42.824 339.215 49.0001C339.215 55.9944 340.828 61.554 344.054 65.6791C345.566 67.6668 347.532 69.264 349.787 70.3374C352.042 71.4108 354.521 71.9292 357.017 71.8495C359.784 71.9739 362.54 71.4385 365.058 70.2875C367.577 69.1364 369.785 67.4028 371.501 65.2298L376.911 74.6149C372.175 79.6618 365.227 82.1853 356.067 82.1853C346.906 82.1853 339.808 79.1894 334.773 73.1976C329.668 67.1713 327.116 58.9499 327.116 48.5335C326.823 39.6683 329.828 31.0094 335.551 24.2322C338.18 21.071 341.491 18.5468 345.236 16.8494C348.981 15.152 353.062 14.3256 357.173 14.4323C364.697 14.4323 370.706 15.9763 375.2 19.0644Z" fill="#4A5053"/>
<path d="M387.61 15.3481L398.775 12.7036V66.5085C398.775 72.4196 400.503 75.9398 403.96 77.069C403.133 78.6692 401.852 79.99 400.278 80.8662C398.704 81.7423 396.907 82.1349 395.111 81.9949C390.11 81.9949 387.61 78.4863 387.61 71.469V15.3481Z" fill="#4A5053"/>
<path d="M409.56 57.037C409.285 50.4921 411.552 44.0944 415.886 39.1827C418.008 36.8928 420.601 35.0893 423.486 33.8959C426.371 32.7025 429.48 32.1476 432.6 32.2691C439.859 32.2691 445.505 34.4757 449.538 38.8888C453.571 43.302 455.587 49.3399 455.587 57.0024C455.587 64.6419 453.536 70.7086 449.434 75.2024C445.332 79.6962 439.703 81.9604 432.548 81.995C425.277 81.995 419.614 79.6905 415.558 75.0814C411.502 70.4724 409.503 64.4575 409.56 57.037ZM421.192 57.037C421.192 67.5917 424.995 72.8691 432.6 72.8691C434.214 72.9188 435.816 72.5695 437.263 71.8519C438.711 71.1343 439.958 70.0708 440.896 68.7555C443.142 65.2766 444.214 61.1697 443.955 57.037C443.955 46.6666 440.17 41.4814 432.6 41.4814C430.985 41.4246 429.38 41.7653 427.928 42.4735C426.475 43.1817 425.219 44.2358 424.269 45.5432C422.026 48.9405 420.947 52.9737 421.192 57.037Z" fill="#4A5053"/>
<path d="M495.392 81.1479V77.1207C493.446 78.6652 491.231 79.8371 488.859 80.5775C486.409 81.4723 483.828 81.957 481.219 82.0121C470.089 82.0121 464.523 76.1067 464.523 64.296V33.1849H475.758V63.4318C475.758 69.5619 478.517 72.6326 484.037 72.6442C486.53 72.6564 488.978 71.9742 491.106 70.6738C493.007 69.6612 494.529 68.0604 495.444 66.1108V33.2714H506.627V81.1479H495.392Z" fill="#4A5053"/>
<path d="M549.474 81.0962V78.1925C548.144 79.4461 546.531 80.3593 544.773 80.8542C542.549 81.6205 540.211 82.0062 537.859 81.9949C534.927 82.1446 531.998 81.6531 529.275 80.5546C526.553 79.456 524.103 77.777 522.096 75.6344C518.259 71.4056 516.34 65.506 516.34 57.9357C516.06 51.1429 518.427 44.5065 522.943 39.4246C525.022 37.1182 527.575 35.288 530.427 34.059C533.278 32.83 536.362 32.2312 539.466 32.3036C542.908 32.2586 546.312 33.0223 549.405 34.5332V15.3481L560.656 12.7036V81.0962H549.474ZM549.474 44.6443C547.392 42.8519 544.753 41.8378 542.007 41.7752C540.083 41.6495 538.156 41.9517 536.362 42.66C534.569 43.3682 532.955 44.465 531.637 45.8715C529.217 48.6024 528.007 52.5085 528.007 57.6246C528.007 67.5801 532.806 72.5579 542.405 72.5579C543.779 72.4877 545.127 72.1593 546.38 71.59C547.55 71.2421 548.613 70.6062 549.474 69.7406V44.6443Z" fill="#4A5053"/>
</svg>
