<svg xmlns="http://www.w3.org/2000/svg" width="212.404" height="212.405" viewBox="0 0 212.404 212.405"><defs><style>.a{fill:none;}.b{fill:#7fd3f8;}.c{fill:#167394;}</style></defs><g transform="translate(-957.761 -1606.474)"><g transform="translate(1012.691 1638.85)"><rect class="a" width="102.541" height="147.651"/><path class="b" d="M1063.568,1629.552v88.783l35.89-35.89v43.484l-51.275,51.274-51.266-51.274v-43.484l35.893,35.89v-88.783Z" transform="translate(-996.916 -1629.552)"/></g><g transform="translate(957.761 1606.474)"><path class="c" d="M1063.961,1818.879a106.2,106.2,0,1,1,106.2-106.2A106.322,106.322,0,0,1,1063.961,1818.879Zm0-200.928a94.726,94.726,0,1,0,94.728,94.725A94.831,94.831,0,0,0,1063.961,1617.951Z" transform="translate(-957.761 -1606.474)"/></g><g transform="translate(992.27 1634.357)"><rect class="c" width="11.475" height="200.898" transform="translate(0 7.77) rotate(-42.619)"/></g></g></svg>