<svg enable-background="new 0 0 189.7 71.2" viewBox="0 0 189.7 71.2" xmlns="http://www.w3.org/2000/svg"><g fill="#fff"><path d="m57.1 44.9c-2.5 2.8-6.1 4.9-9.4 3.6-1.2-.5-1.5-1.6-1.4-2.8.1-1.6.4-3.2.7-4.8l4-21h-7.6l-3.3 18.7c-.5 2.2-1.4 4.1-3.1 5.6-1.6 1.5-3.6 2.3-6.1 2.3-3 0-4.4-1.4-4.4-4 0-.5.1-1.3.3-2.2l3.9-20.6h-7.7l-3.9 20.9c-.2 1.4-.3 2.4-.3 3.3 0 2.8.7 5.1 2.3 6.6s3.8 2.3 6.6 2.3c4.2 0 7.5-1 10.2-3 0 0 .4 4.2 7.6 5 2.1.2 4.7.2 8-.3 2.5-.5 4.6-1.5 6.6-2.8 6.1-4.1 8.9-11.5 8.4-18.6-.4-6.4-2.8-12.6-6.7-17.6-3.8-5-9.1-8.8-15.1-10.8-3.4-1.2-7-1.8-10.5-1.8h-.2c-8.6 0-16.8 3.5-22.9 9.6-6.1 6.2-9.4 14.3-9.4 22.9.1 17.8 14.6 32.3 32.4 32.3h.2c6.5 0 12.8-1.9 18.1-5.4 3.9-2.6 6.5-5.9 8.4-8.6-4.2 3-9.4 4.7-14.3 4.7-1.2 0-2.3-.1-3.5-.3-2.1.7-5.3 1.5-8.8 1.5h-.2c-13.5 0-24.1-10.6-24.2-24.2.1-13.6 10.7-24.3 24.3-24.4h.2c9.7 0 18.7 5.9 22.3 14.9 1.8 4.4 2.7 9.7 1.3 14.3-.5 1.5-1.5 3.2-2.8 4.7z"/><path d="m95.1 50.5h-7l3.1-16.8c.3-1.3.4-2.5.4-3.4 0-2.4-1.4-3.6-4.2-3.6-2.4 0-4.6 1-6.5 3l-3.8 20.7h-6.7l4-21.4c.1-.4.1-.9.1-1.6 0-1.6-.3-3.3-.8-5.1l6.6-1.2.6 3.2c2.4-2.1 5.3-3.1 8.9-3.1 5.9 0 8.9 2.8 8.9 8.3 0 1-.1 2.1-.4 3.5z"/><path d="m122.9 16.4c-1.5-.6-2.7-1-3.7-1-2.6 0-4.4 2.1-5.3 6.3h6.6l-.7 5.4h-6.8l-4.3 25.2c-.5 2.7-1.7 5-3.8 6.8s-4.5 2.7-7.2 2.7l-1.4-4.5c1.3-.3 2.4-.9 3.4-1.9s1.6-2.1 1.9-3.4l4.5-24.9h-4.1l.9-5.4h4c1.8-7.9 6-11.8 12.6-11.8 1.9 0 3.5.4 4.8 1.2z"/><path d="m144.1 50.6h-6.7l.4-2.1c-2.4 1.7-5.4 2.6-9 2.6-2.5 0-4.4-.7-5.8-2.1s-2.1-3.4-2.1-5.9c0-.8.1-1.7.3-2.8l3.5-18.5h6.8l-3.5 18.2c-.1.8-.2 1.4-.2 2 0 2.3 1.3 3.5 3.9 3.5 2.1 0 3.9-.7 5.4-2.1 1.4-1.4 2.3-3.1 2.7-5l3-16.6h6.7z"/><path d="m171.2 28.6c-1.6-1.2-3-1.8-4.2-1.8-1.7 0-3.3.8-4.8 2.3s-2.4 3.2-2.7 5.2l-3 16.3h-6.7l5.4-28.8h6.7l-.5 2.5c2.4-2 5-3 7.9-3 .7 0 2.1.2 4 .5z"/><path d="m183.3 48.3c-1.1 1.7-2.7 2.5-4.8 2.5-1.6 0-2.9-.5-3.8-1.6s-1.4-2.4-1.4-4.1c0-2.2.4-5.3 1.3-9.4l5.4-25.7h6.7l-5.5 26.8c-.8 3.8-1.2 6.5-1.2 8.2 0 1 .3 1.9 1 2.5.5.5 1.3.8 2.3.8z"/></g></svg>